<svg width="1081" height="211" viewBox="0 0 1081 211" fill="none" xmlns="http://www.w3.org/2000/svg">
<rect x="-22" width="1185" height="211" fill="#43A725"/>
<path d="M963.736 87.4234L970.819 76.9128C971.002 76.625 971.239 76.375 971.516 76.1762C971.771 76.0157 972.068 75.9348 972.369 75.9438L978.669 75.9438L979.254 76.0274C979.291 76.0282 979.327 76.0365 979.36 76.0519C979.393 76.0672 979.423 76.0891 979.447 76.1164C979.471 76.1437 979.489 76.1756 979.501 76.2103C979.512 76.245 979.516 76.2816 979.512 76.3179C979.486 76.5121 979.414 76.697 979.301 76.857L979.185 77.0197C977.529 79.4675 975.779 82.0655 973.935 84.8137L968.337 93.1353L978.583 108.298C978.755 108.563 978.92 108.826 979.073 109.081C979.227 109.337 979.387 109.592 979.538 109.841C979.571 109.908 979.595 109.979 979.608 110.053C979.632 110.136 979.648 110.222 979.654 110.308C979.654 110.541 979.482 110.659 979.141 110.659L972.432 110.659C971.902 110.659 971.466 110.371 971.123 109.795C969.892 107.956 968.664 106.121 967.44 104.29C966.216 102.458 964.982 100.623 963.736 98.7845L959.925 93.126L963.736 87.4234Z" fill="white"/>
<path d="M953.544 87.8464C953.036 86.0916 952.23 84.437 951.162 82.9548C950.372 81.8604 949.448 80.869 948.413 80.0036C946.337 78.2603 943.891 77.014 941.26 76.3599C939.939 76.0288 938.581 75.861 937.219 75.8602C935.609 75.8516 934.006 76.0651 932.455 76.4946C929.532 77.306 926.883 78.8917 924.787 81.0842C923.088 82.8396 921.781 84.9353 920.952 87.233L920.952 67.8501C920.958 67.6278 920.911 67.4074 920.817 67.2058C920.724 67.0043 920.584 66.8272 920.411 66.6882C920.09 66.405 919.677 66.2467 919.249 66.242L914.815 66.242C914.587 66.2281 914.359 66.2622 914.145 66.3423C913.931 66.4224 913.737 66.5466 913.574 66.7068C913.282 67.0218 913.127 67.4395 913.142 67.8687L913.142 80.2337C911.869 78.8995 910.358 77.8151 908.687 77.0361C907.014 76.2522 905.078 75.8602 902.878 75.8602C900.542 75.8429 898.228 76.318 896.088 77.2545C893.473 78.4151 891.182 80.1977 889.414 82.4469C887.647 84.6962 886.456 87.3437 885.947 90.1586C885.87 89.7961 885.784 89.4336 885.684 89.0757C885.271 87.5936 884.672 86.1701 883.899 84.8394C882.365 82.2046 880.176 80.0112 877.544 78.4722C876.215 77.6985 874.794 77.0965 873.314 76.6805C870.238 75.8316 866.989 75.8316 863.912 76.6805C862.434 77.0937 861.015 77.6926 859.688 78.4629C858.381 79.2282 857.181 80.1619 856.118 81.2399C855.048 82.3155 854.119 83.5218 853.351 84.8301C852.572 86.1575 851.973 87.5819 851.568 89.0664C850.816 91.8455 850.741 94.7648 851.352 97.5785C851.207 98.0021 851.035 98.4159 850.836 98.8171C849.57 101.403 847.334 103.386 844.615 104.334C843.215 104.828 841.727 105.024 840.247 104.908C838.756 104.817 837.301 104.415 835.975 103.727C834.717 103.075 833.597 102.185 832.678 101.106C831.759 100.017 831.059 98.7622 830.614 97.4089C829.916 95.3041 829.844 93.0418 830.406 90.8967C830.969 88.7516 832.142 86.8161 833.784 85.3251C834.843 84.3796 836.077 83.6502 837.416 83.1779C838.825 82.6809 840.322 82.4854 841.811 82.6039C843.291 82.6891 844.738 83.0841 846.056 83.7635C846.795 84.1492 847.488 84.6169 848.122 85.1578C848.254 85.2686 848.408 85.3498 848.574 85.396C848.74 85.4422 848.914 85.4524 849.084 85.4257C849.254 85.3991 849.417 85.3363 849.561 85.2416C849.705 85.1469 849.827 85.0224 849.918 84.8766L852.149 81.3909C852.315 81.1342 852.378 80.8249 852.327 80.5239C852.276 80.2228 852.114 79.9518 851.873 79.7642C851.594 79.5458 851.306 79.3367 851.01 79.1368C849.74 78.2749 848.366 77.5776 846.921 77.0616C843.911 76.0011 840.67 75.7739 837.542 76.404C836.038 76.7139 834.579 77.2129 833.201 77.8889C831.841 78.5556 830.576 79.3995 829.439 80.3986C828.293 81.3961 827.278 82.5345 826.418 83.7867C825.549 85.0624 824.855 86.4479 824.352 87.9069C823.306 90.8509 823.062 94.02 823.644 97.0894C824.226 100.159 825.614 103.018 827.666 105.375C828.657 106.521 829.791 107.537 831.04 108.396C832.997 109.719 835.198 110.641 837.514 111.109C839.83 111.576 842.216 111.58 844.534 111.119C847.536 110.52 850.331 109.152 852.646 107.15C853.447 106.458 854.182 105.693 854.842 104.866C855.233 105.352 855.648 105.818 856.088 106.26C857.159 107.33 858.361 108.259 859.667 109.026C861.711 110.21 863.969 110.978 866.312 111.285C868.654 111.592 871.034 111.431 873.314 110.813C876.268 110.006 878.961 108.445 881.129 106.283C882.206 105.218 883.137 104.016 883.899 102.707C884.669 101.383 885.269 99.9664 885.684 98.4918C885.8 98.0781 885.898 97.6575 885.984 97.2323C886.2 98.3461 886.527 99.4359 886.957 100.486C888.645 104.705 891.924 108.09 896.088 109.911C898.228 110.849 900.541 111.324 902.878 111.305C903.909 111.309 904.937 111.191 905.941 110.954C907.835 110.514 909.621 109.697 911.192 108.552C911.935 108.013 912.634 107.418 913.284 106.771L913.516 109.065C913.628 109.497 913.81 109.908 914.055 110.28C914.254 110.55 914.622 110.685 915.161 110.685H919.212C920.374 110.685 920.941 110.146 920.941 109.058L920.941 99.6862C921.041 99.9511 921.15 100.211 921.266 100.469C923.144 104.727 926.591 108.096 930.889 109.878C933.077 110.797 935.427 111.265 937.8 111.254C939.921 111.278 942.027 110.883 943.995 110.092C945.885 109.314 947.639 108.239 949.191 106.909C949.878 106.405 950.22 105.901 950.218 105.396C950.215 105.189 950.164 104.985 950.07 104.801C949.937 104.554 949.781 104.321 949.605 104.104C949.389 103.834 949.108 103.502 948.766 103.107C948.424 102.712 948.011 102.215 947.525 101.622C947.363 101.401 947.157 101.216 946.919 101.081C946.749 100.984 946.558 100.929 946.363 100.92C946.144 100.921 945.93 100.981 945.743 101.094C945.521 101.228 945.313 101.384 945.122 101.559C945.118 101.559 945.115 101.559 945.111 101.561C945.108 101.562 945.104 101.564 945.102 101.567C945.099 101.569 945.097 101.572 945.096 101.576C945.094 101.58 945.094 101.583 945.094 101.587C944.646 101.993 944.163 102.359 943.651 102.682C943.081 103.043 942.48 103.354 941.855 103.611C941.179 103.891 940.479 104.108 939.764 104.259C938.996 104.42 938.213 104.498 937.428 104.492C936.345 104.488 935.269 104.31 934.242 103.964C933.18 103.613 932.185 103.084 931.3 102.398C930.39 101.688 929.605 100.831 928.976 99.8628C928.299 98.8224 927.84 97.6557 927.626 96.4329L951.561 96.4329C952.07 96.4482 952.578 96.3983 953.074 96.2842C953.386 96.2163 953.669 96.054 953.885 95.8194C954.076 95.5736 954.193 95.2786 954.222 94.9689C954.271 94.5346 954.294 94.0977 954.29 93.6606C954.314 91.6972 954.063 89.74 953.544 87.8464ZM878.736 98.0991C878.198 99.4195 877.409 100.623 876.412 101.643C875.413 102.652 874.229 103.462 872.926 104.027C871.557 104.608 870.084 104.908 868.596 104.908C867.108 104.908 865.635 104.608 864.265 104.027C861.629 102.892 859.549 100.761 858.477 98.0991C857.633 96.0462 857.403 93.7922 857.815 91.6112C858.228 89.4301 859.265 87.4158 860.801 85.8131C861.795 84.7945 862.979 83.9805 864.286 83.4173C865.656 82.8361 867.129 82.5366 868.617 82.5366C870.105 82.5366 871.577 82.8361 872.947 83.4173C874.252 83.9846 875.436 84.798 876.433 85.8131C878.482 87.9311 879.62 90.7671 879.605 93.714C879.609 95.2189 879.314 96.7095 878.736 98.0991ZM913.656 93.7861C913.628 95.1668 913.329 96.5287 912.777 97.7946C912.245 99.0184 911.49 100.133 910.551 101.08C909.607 102.031 908.489 102.792 907.258 103.321C905.989 103.872 904.619 104.153 903.236 104.146C901.863 104.16 900.504 103.874 899.253 103.309C898.062 102.766 896.987 101.999 896.088 101.048C895.176 100.074 894.461 98.9328 893.982 97.6877C892.975 95.0581 892.975 92.1492 893.982 89.5196C894.465 88.2602 895.179 87.1023 896.088 86.1059C896.985 85.1274 898.062 84.3299 899.26 83.7565C900.504 83.1664 901.866 82.8668 903.243 82.8805C904.653 82.8708 906.049 83.1698 907.333 83.7565C908.574 84.3229 909.696 85.1202 910.639 86.1059C911.581 87.098 912.332 88.2552 912.854 89.5196C913.392 90.8117 913.667 92.1982 913.663 93.5979L913.656 93.7861ZM927.789 89.9797C928.076 88.9376 928.537 87.9516 929.153 87.0633C929.762 86.1769 930.499 85.3859 931.34 84.7163C932.175 84.051 933.108 83.5181 934.105 83.1361C935.098 82.7518 936.154 82.5548 937.219 82.5551C938.384 82.546 939.543 82.729 940.649 83.0966C941.674 83.4365 942.633 83.9524 943.482 84.621C944.307 85.2832 945.018 86.077 945.585 86.9704C946.178 87.902 946.619 88.9216 946.893 89.9913L927.789 89.9797Z" fill="white"/>
<path d="M964.505 87.4237L968.316 93.1264L965.339 85.0395L964.113 86.8405L964.505 87.4237Z" fill="#93C01F"/>
<path d="M968.316 93.0894L968.302 93.1078L968.307 93.1124L968.316 93.0894Z" fill="#93C01F"/>
<path d="M964.11 99.371L965.34 101.167L968.284 93.1804L964.11 99.371Z" fill="#93C01F"/>
<path d="M968.316 93.1258L964.505 98.7843C963.258 100.623 962.022 102.458 960.798 104.289C959.575 106.121 958.348 107.956 957.118 109.794C956.774 110.371 956.339 110.659 955.809 110.659L949.086 110.659C948.743 110.659 948.573 110.543 948.573 110.308C948.579 110.221 948.595 110.136 948.619 110.052C948.631 109.979 948.655 109.907 948.689 109.841C948.844 109.593 948.999 109.34 949.154 109.081C949.31 108.825 949.475 108.563 949.647 108.298L959.908 93.1258L954.31 84.8136C952.465 82.0653 950.719 79.4673 949.07 77.0195L948.954 76.8569C948.84 76.6974 948.767 76.5122 948.743 76.3177C948.739 76.2814 948.743 76.2448 948.754 76.2101C948.766 76.1755 948.784 76.1435 948.808 76.1162C948.832 76.0889 948.862 76.067 948.895 76.0517C948.928 76.0364 948.964 76.028 949 76.0273L949.584 75.9436L955.879 75.9436C956.18 75.935 956.477 76.0159 956.732 76.176C957.009 76.3748 957.246 76.6248 957.429 76.9126L964.512 87.4325L968.316 93.1258Z" fill="white"/>
<path d="M855.653 103.774C855.388 104.165 855.142 104.511 854.849 104.873C855.316 105.457 855.819 106.01 856.355 106.53C857.573 103.839 857.689 100.772 857.691 99.7912C857.179 101.198 856.495 102.536 855.653 103.774Z" fill="white"/>
</svg>
