<svg width="1074" height="631" viewBox="0 0 1074 631" fill="none" xmlns="http://www.w3.org/2000/svg">
<rect x="266" y="551.93" width="535" height="42" fill="#43A725"/>
<rect x="238" y="558.93" width="609" height="42" fill="#43A725"/>
<rect x="218" y="564.93" width="609" height="42" fill="#43A725"/>
<rect x="148" y="579.93" width="609" height="42" fill="#43A725"/>
<rect x="201" y="568.93" width="609" height="42" fill="#43A725"/>
<rect x="317" y="579.93" width="609" height="42" fill="#43A725"/>
<rect x="293" y="571.93" width="609" height="42" fill="#43A725"/>
<rect x="95" y="592.93" width="609" height="42" fill="#43A725"/>
<rect x="78" y="595.93" width="599" height="42" fill="#43A725"/>
<rect x="207" y="589.93" width="46" height="42" fill="#43A725"/>
<rect x="62" y="600.93" width="609" height="42" fill="#43A725"/>
<rect x="259" y="565.93" width="609" height="42" fill="#43A725"/>
<rect x="172" y="572.93" width="609" height="42" fill="#43A725"/>
<rect x="115" y="585.93" width="845" height="62" fill="#43A725"/>
<rect x="36" y="610" width="1004" height="42" fill="#43A725"/>
<rect width="62" height="30" transform="matrix(-1 0 0 1 1053 615)" fill="#43A725"/>
<rect width="62" height="24" transform="matrix(-1 0 0 1 1009 601)" fill="#43A725"/>
<rect width="30" height="24" transform="matrix(-1 0 0 1 1076 622)" fill="#43A725"/>
<rect width="25" height="24" transform="matrix(-1 0 0 1 981 595)" fill="#43A725"/>
<rect x="18" y="615" width="54" height="24" fill="#43A725"/>
<rect y="622" width="54" height="24" fill="#43A725"/>
<path d="M-9.82587 625.265C154.536 561.518 343.988 527.808 537.221 527.926C730.453 528.045 919.8 561.986 1083.96 625.934L1075.89 634.091C914.147 571.086 727.591 537.645 537.206 537.528C346.821 537.412 160.161 570.625 -1.77835 633.432L-9.82587 625.265Z" fill="#43A725"/>
<path d="M852.731 574.548C857.911 574.702 863.02 573.416 867.411 570.857C872.199 567.627 876.27 563.562 879.402 558.89L879.409 558.879L879.416 558.869L1004.89 384.668L1072.02 290.753L1004.85 197.521C982.756 167.025 960.878 136.631 939.217 106.338L873.993 15.1588L873.981 15.1412L873.969 15.1227C868.006 5.72997 860.53 1.15879 851.444 1.15879L732.41 1.15881C729.412 1.15885 727.309 1.64037 725.979 2.48791C724.717 3.29191 724.081 4.46668 724.074 6.12952C724.192 7.504 724.467 8.86356 724.892 10.1852L724.91 10.2418L724.919 10.3014C725.098 11.4115 725.476 12.4875 726.037 13.484C728.806 17.6345 731.536 21.826 734.186 26.0953C736.82 30.3393 739.819 34.6213 742.838 39.0084L924.608 290.286L924.943 290.749L924.609 291.213C891.236 337.693 858.189 383.638 825.468 429.05C792.748 474.462 761.794 517.447 732.607 558.005L732.602 558.012L732.597 558.019L730.559 560.725L730.555 560.73L730.202 561.208C728.478 563.615 727.37 566.358 726.962 569.226C726.909 569.71 726.963 570.199 727.121 570.664C727.281 571.132 727.545 571.568 727.898 571.942C728.251 572.317 728.687 572.622 729.179 572.836C729.672 573.049 730.209 573.166 730.755 573.176L730.799 573.177L730.844 573.183L741.147 574.548L852.731 574.548Z" stroke="url(#paint0_linear_2013_19)" stroke-width="1.58791"/>
<path d="M220.269 574.549C215.089 574.703 209.98 573.417 205.589 570.858C200.801 567.628 196.73 563.563 193.598 558.891L193.591 558.88L193.584 558.87L68.11 384.669L0.978201 290.753L68.1491 197.522C90.2444 167.026 112.122 136.632 133.783 106.339L199.007 15.1598L199.019 15.1422L199.031 15.1236C204.994 5.73095 212.47 1.15977 221.556 1.15977L340.59 1.15979C343.588 1.15983 345.691 1.64135 347.021 2.48889C348.283 3.29288 348.919 4.46766 348.926 6.13049C348.808 7.50498 348.533 8.86454 348.108 10.1862L348.09 10.2428L348.081 10.3024C347.902 11.4125 347.524 12.4885 346.963 13.485C344.194 17.6355 341.464 21.827 338.814 26.0963C336.18 30.3403 333.181 34.6222 330.162 39.0094L148.392 290.287L148.057 290.75L148.391 291.214C181.764 337.694 214.811 383.639 247.532 429.051C280.252 474.463 311.206 517.448 340.393 558.005L340.398 558.013L340.403 558.02L342.441 560.726L342.445 560.731L342.798 561.209C344.522 563.615 345.63 566.359 346.038 569.227C346.091 569.711 346.037 570.2 345.879 570.665C345.719 571.133 345.455 571.568 345.102 571.943C344.749 572.318 344.313 572.623 343.821 572.837C343.328 573.05 342.791 573.167 342.245 573.177L342.201 573.178L342.156 573.184L331.853 574.549L220.269 574.549Z" stroke="url(#paint1_linear_2013_19)" stroke-width="1.58791"/>
<g filter="url(#filter0_f_2013_19)">
<ellipse cx="537.683" cy="383.963" rx="297.482" ry="287.642" fill="#93C01F" fill-opacity="0.1"/>
</g>
<path d="M712.834 493.083C712.655 493.063 712.523 492.939 712.507 492.755C712.491 492.571 712.617 492.402 712.84 492.354C717.49 491.914 721.754 489.352 724.863 485.059C728.773 479.723 730.351 472.49 729.003 466.178C726.326 453.701 715.658 445.093 707.214 440.048C702.651 437.323 697.791 435.005 693.107 432.741C687.386 430 681.463 427.127 676.043 423.616C663.485 415.385 654.437 403.853 650.558 391.099C645.877 375.704 648.598 357.543 657.965 341.276C665.457 328.27 676.693 316.512 693.371 304.364C694.944 303.222 696.557 302.049 698.165 300.912C705.664 295.567 713.398 290.065 719.218 282.822C728.766 270.915 728.943 258.86 725.929 251.527C725.841 251.335 725.936 251.126 726.123 251.074C726.314 250.985 726.521 251.081 726.573 251.269C729.675 258.794 729.503 271.142 719.748 283.281C713.885 290.592 706.072 296.158 698.537 301.499C696.928 302.637 695.355 303.778 693.746 304.915C677.18 317.039 665.991 328.693 658.543 341.631C649.267 357.726 646.601 375.71 651.194 390.913C655.017 403.515 663.973 414.891 676.395 423.035C681.779 426.542 687.671 429.375 693.356 432.112C698.076 434.379 702.932 436.734 707.531 439.462C716.114 444.559 726.946 453.331 729.667 466.068C731.067 472.569 729.43 480.014 725.393 485.518C722.161 489.944 717.703 492.63 712.87 493.087C712.87 493.087 712.87 493.087 712.834 493.083Z" fill="#57239F"/>
<path d="M758.758 144.469C767.837 195.495 755.01 246.34 718.439 252.94C681.832 259.541 635.316 219.322 626.236 168.332C617.157 117.306 649.008 74.8024 685.615 68.202C722.186 61.6016 749.678 93.443 758.758 144.469Z" fill="url(#paint2_linear_2013_19)"/>
<path opacity="0.36" d="M656.718 103.198C663.996 96.0535 664.248 100.369 661.041 119.336C657.835 138.303 656.177 170.253 647.53 166.663C638.847 163.109 637.405 122.129 656.718 103.198Z" fill="white"/>
<path opacity="0.36" d="M662.015 182.475C662.627 186.029 660.285 189.402 656.79 190.054C653.259 190.671 649.908 188.314 649.26 184.796C648.647 181.242 650.989 177.869 654.484 177.216C658.015 176.6 661.402 178.957 662.015 182.475Z" fill="white"/>
<path d="M836.188 230.527C823.145 274.699 792.843 309.949 761.172 300.484C729.501 291.019 708.495 240.428 721.502 196.292C734.509 152.157 776.665 131.159 808.3 140.624C839.971 150.09 849.195 186.392 836.188 230.527Z" fill="#14AEEA"/>
<path opacity="0.36" d="M771.513 156.834C780.124 154.078 778.611 157.632 768.558 171.413C758.506 185.194 744.526 209.891 739.049 203.58C733.572 197.198 748.669 164.087 771.513 156.834Z" fill="white"/>
<path opacity="0.36" d="M744.31 221.895C743.409 224.978 740.202 226.719 737.139 225.812C734.077 224.905 732.347 221.678 733.248 218.595C734.149 215.512 737.356 213.772 740.418 214.678C743.481 215.585 745.21 218.813 744.31 221.895Z" fill="white"/>
<path d="M771.057 300.738C770.948 300.643 770.819 300.627 770.694 300.661C770.522 300.75 770.434 300.962 770.496 301.112C773.599 308.631 769.557 317.348 763.937 322.089C757.663 327.364 749.4 329.361 742.181 330.59C740.514 330.862 738.824 331.161 737.13 331.409C731.015 332.354 724.724 333.338 718.885 335.678C705.443 341.073 694.502 354.133 689.596 370.597C684.609 387.375 686.164 405.312 687.767 417.332C687.934 418.631 688.125 419.903 688.315 421.175C689.34 428.558 690.434 436.193 689.547 443.633C688.37 453.51 683.568 461.561 676.645 465.211C676.472 465.301 676.412 465.536 676.501 465.71C676.59 465.884 676.824 465.944 676.996 465.855C684.115 462.088 689.056 453.822 690.269 443.736C691.149 436.194 690.079 428.531 689.024 421.074C688.833 419.802 688.666 418.503 688.475 417.231C686.875 405.261 685.327 387.427 690.274 370.806C695.144 354.55 705.944 341.655 719.185 336.325C724.95 334.016 731.217 333.06 737.281 332.118C738.975 331.87 740.642 331.598 742.332 331.299C749.677 330.035 758.015 328.008 764.433 322.619C770.223 317.738 774.419 308.676 771.193 300.857C771.111 300.786 771.084 300.762 771.057 300.738Z" fill="#D16D4E"/>
<path d="M855.859 157.445C854.562 155.306 853.013 153.42 851.391 151.57C850.599 150.627 849.698 149.793 848.833 148.923C847.968 148.089 847.032 147.255 846.131 146.457C842.42 143.265 838.348 140.509 834.024 138.188C829.701 135.867 825.233 133.909 820.549 132.422C815.937 130.826 811.145 129.811 806.317 128.904C796.697 127.272 786.86 126.982 777.132 127.599C774.682 127.671 772.268 127.997 769.854 128.215L766.215 128.578C764.99 128.686 763.801 128.94 762.612 129.122C760.197 129.521 757.783 129.847 755.405 130.282L748.235 131.805C745.821 132.277 743.479 132.93 741.137 133.51C738.795 134.126 736.417 134.707 734.075 135.396L727.085 137.535L723.59 138.623C722.437 138.986 721.284 139.421 720.131 139.82C715.555 141.488 710.907 143.011 706.44 144.897L699.666 147.617L697.972 148.306L696.315 149.032L692.964 150.519L686.298 153.492L684.641 154.218L682.983 155.015L679.705 156.611L673.147 159.803C672.066 160.347 670.949 160.854 669.868 161.398L666.626 163.103L660.176 166.512L656.933 168.216L655.312 169.087L653.727 169.993L641.008 177.21C607.607 196.939 572.513 213.73 536.338 227.62C518.251 234.546 499.875 240.784 481.283 246.152C471.987 248.871 462.655 251.374 453.251 253.659C443.847 255.943 434.407 258.047 424.895 259.824C415.383 261.637 405.835 263.16 396.251 264.429C386.666 265.699 377.046 266.642 367.39 267.222C348.113 268.419 328.729 268.237 309.597 265.808C290.5 263.378 271.584 258.591 254.325 250.032C245.714 245.753 237.679 240.385 230.509 234.002C229.572 233.241 228.743 232.37 227.879 231.536C227.014 230.702 226.149 229.868 225.321 228.998L222.907 226.314L221.717 224.972C221.321 224.501 220.961 224.029 220.601 223.558L218.367 220.729C217.646 219.786 216.997 218.771 216.277 217.792C214.836 215.87 213.683 213.766 212.422 211.699C211.773 210.684 211.269 209.596 210.692 208.544C210.152 207.492 209.575 206.404 209.035 205.352L207.593 202.052C207.089 200.964 206.621 199.84 206.224 198.716C205.396 196.467 204.495 194.219 203.882 191.898L202.837 188.416L202.009 184.899C201.756 183.738 201.396 182.541 201.216 181.381L200.567 177.827C200.099 175.469 199.847 173.04 199.523 170.646C199.018 165.823 198.622 160.999 198.586 156.176C198.55 151.353 198.802 146.493 199.342 141.706C199.919 136.919 200.856 132.168 202.153 127.526C204.747 118.242 208.963 109.429 214.655 101.668C217.502 97.788 220.709 94.1977 224.24 90.8975C227.771 87.5973 231.554 84.6235 235.553 81.9398C239.553 79.2562 243.768 76.8989 248.128 74.8317C252.488 72.7646 256.992 70.9875 261.568 69.5006C270.755 66.4906 280.267 64.5685 289.888 63.7344C294.716 63.3354 299.544 63.1904 304.336 63.5168C306.75 63.6618 309.128 63.9157 311.506 64.3872C312.695 64.6048 313.848 64.8949 314.965 65.2938C316.082 65.6565 317.199 66.1642 318.1 66.8532L318.568 66.3092C317.559 65.4751 316.406 64.9674 315.253 64.5685C314.1 64.1696 312.911 63.8432 311.686 63.5893C309.272 63.0816 306.858 62.7915 304.408 62.6101C299.544 62.2475 294.644 62.32 289.816 62.6827C280.087 63.408 270.467 65.2938 261.171 68.2313C256.523 69.7182 251.947 71.459 247.516 73.5261C243.084 75.5933 238.796 77.9506 234.689 80.6343C230.581 83.3179 226.69 86.328 223.051 89.6644C219.448 93.0009 216.133 96.6638 213.178 100.617C207.233 108.486 202.837 117.517 200.135 127.018C198.766 131.769 197.793 136.629 197.181 141.525C196.568 146.42 196.316 151.353 196.316 156.285C196.316 161.217 196.676 166.113 197.181 171.009C197.505 173.439 197.757 175.905 198.189 178.334L198.802 181.961C198.982 183.194 199.342 184.355 199.595 185.588L200.423 189.178L201.468 192.732C202.117 195.125 203.018 197.41 203.846 199.731C204.243 200.892 204.747 202.016 205.251 203.177L206.729 206.585C207.269 207.71 207.846 208.798 208.422 209.886C208.999 210.974 209.503 212.098 210.188 213.15C211.449 215.253 212.674 217.429 214.115 219.424C214.836 220.439 215.484 221.491 216.241 222.47L218.511 225.371C218.907 225.843 219.267 226.35 219.664 226.822L220.889 228.2L223.339 230.956C224.204 231.827 225.104 232.697 225.969 233.567C226.834 234.438 227.699 235.308 228.635 236.106C235.986 242.706 244.201 248.255 252.992 252.679C261.784 257.104 271.008 260.513 280.448 263.124C289.888 265.735 299.508 267.585 309.164 268.854C328.549 271.356 348.113 271.538 367.57 270.377C377.298 269.797 386.991 268.854 396.647 267.621C406.303 266.352 415.923 264.828 425.472 263.015C435.056 261.238 444.532 259.171 454.008 256.886C463.484 254.601 472.888 252.135 482.22 249.379C500.884 243.939 519.332 237.629 537.491 230.63C573.774 216.595 609.012 199.659 642.485 179.749L655.096 172.496L656.681 171.589L658.266 170.719L661.473 169.014L667.887 165.569L671.093 163.864C672.174 163.284 673.255 162.776 674.336 162.232L680.858 159.005L684.1 157.409L685.722 156.611L687.379 155.85L694.009 152.84L697.324 151.353L698.981 150.591L700.675 149.902L707.376 147.146C711.808 145.224 716.42 143.701 720.96 141.996C722.113 141.597 723.23 141.162 724.383 140.763L727.842 139.675L734.76 137.499C737.066 136.81 739.408 136.23 741.75 135.577C744.092 134.96 746.398 134.308 748.776 133.836L755.838 132.277C758.216 131.842 760.594 131.479 762.972 131.044C764.161 130.862 765.35 130.609 766.539 130.464L770.142 130.065C772.556 129.811 774.934 129.448 777.348 129.376C786.968 128.65 796.661 128.832 806.173 130.355C810.929 131.153 815.649 132.132 820.225 133.655C824.837 135.033 829.304 136.955 833.556 139.167C837.844 141.38 841.879 144.027 845.59 147.146C846.491 147.944 847.428 148.741 848.293 149.539C849.157 150.373 850.058 151.208 850.851 152.114C852.508 153.855 854.058 155.741 855.319 157.772L855.859 157.445Z" fill="#208B00"/>
<path d="M829.304 138.987C829.304 138.987 829.881 166.803 823.539 185.879C822.855 187.982 820.116 188.49 818.711 186.786C810.496 176.849 788.553 149.178 785.094 133.656C785.094 133.656 804.983 128.869 829.304 138.987Z" fill="#B8EE2B"/>
<path d="M771.042 132.06C771.042 132.06 776.411 164.336 765.854 189.94C765.025 191.934 762.503 192.478 760.954 190.992C752.991 183.376 731.949 162.124 723.842 142.722C723.878 142.722 753.135 133.982 771.042 132.06Z" fill="#43A725"/>
<path d="M715.627 146.13C715.627 146.13 720.059 176.521 711.664 201.581C710.799 204.12 707.773 205.171 705.539 203.684C697.9 198.68 681.938 186.313 671.85 165.061C671.85 165.098 694.801 152.876 715.627 146.13Z" fill="#B7EE2B"/>
<path d="M667.778 167.165C667.778 167.165 672.426 198.934 662.229 216.45C661.22 218.227 658.914 218.735 657.257 217.538C651.42 213.367 638.053 203.104 628.973 190.484C628.973 190.484 660.356 171.19 667.778 167.165Z" fill="#43A725"/>
<path d="M622.992 194.292C622.992 194.292 630.487 224.611 621.047 242.091C620.074 243.868 617.84 244.448 616.182 243.36C608.94 238.682 590.24 225.807 584.295 213.223C584.295 213.223 617.011 198.1 622.992 194.292Z" fill="#B8EE2B"/>
<path d="M578.206 216.306L541.202 232.045C541.202 232.045 560.154 260.84 573.017 266.461C574.35 267.042 575.9 266.353 576.404 264.974C578.746 258.882 584.115 240.785 578.206 216.306Z" fill="url(#paint3_linear_2013_19)"/>
<path d="M535.725 234.329C535.725 234.329 506.756 245.209 498.325 247.204C498.325 247.204 507.152 270.233 519.511 280.496C521.421 282.092 524.303 281.62 525.6 279.517C529.996 272.3 538.715 254.965 535.725 234.329Z" fill="url(#paint4_linear_2013_19)"/>
<path d="M492.597 248.037C492.597 248.037 465.645 257.901 457.827 259.062C457.827 259.062 470.149 284.52 481.859 298.664C482.724 299.716 484.418 299.643 485.174 298.483C488.849 292.898 497.353 276.433 492.597 248.037Z" fill="url(#paint5_linear_2013_19)"/>
<path d="M454.26 259.607C454.26 259.607 428.209 265.663 416.715 266.643C416.715 266.643 426.516 297.686 441.252 304.939C442.513 305.556 444.027 305.048 444.675 303.779C447.882 297.722 456.529 279.082 454.26 259.607Z" fill="url(#paint6_linear_2013_19)"/>
<path d="M413.185 267.151C413.185 267.151 387.026 272.482 378.271 272.337C378.271 272.337 389.837 301.35 401.331 310.416C403.24 311.939 406.015 311.577 407.528 309.654C411.131 305.194 416.103 293.988 413.185 267.151Z" fill="#B8EE2B"/>
<path d="M371.857 273.278C371.857 273.278 347.32 274.729 340.006 274.33C340.006 274.33 341.736 295.001 356.148 310.632C357.697 312.3 360.291 312.336 361.877 310.741C366.273 306.28 373.551 295.4 371.857 273.278Z" fill="#43A725"/>
<path d="M333.376 273.859C333.376 273.859 312.911 273.242 302.318 270.414C302.318 270.414 300.66 293.588 312.442 306.208C314.064 307.949 316.73 308.275 318.748 306.97C323.864 303.633 332.836 294.784 333.376 273.859Z" fill="#B8EE2B"/>
<path d="M297.85 269.616C297.85 269.616 276.556 268.383 269.313 263.596C269.313 263.596 266.935 287.822 277.276 302.51C278.141 303.743 279.906 303.96 281.059 302.945C285.131 299.173 294.066 289.091 297.85 269.616Z" fill="#43A725"/>
<path d="M264.738 262.073C264.738 262.073 239.336 252.643 229.032 241.727C229.032 241.727 217.862 270.015 229.824 291.339C230.293 292.21 231.301 292.608 232.238 292.355C237.823 290.723 256.811 283.723 264.738 262.073Z" fill="#B8EE2B"/>
<path d="M202.188 207.602C202.188 207.602 211.737 228.164 222.474 236.832C222.474 236.832 207.629 256.959 189.686 261.964C188.136 262.399 186.515 261.456 186.155 259.861C184.569 252.68 182.48 232.226 202.188 207.602Z" fill="#43A725"/>
<path d="M191.884 157.156C191.884 157.156 190.983 180.729 198.693 203.758C198.693 203.758 184.786 210.068 176.426 220.839C174.373 223.486 170.121 221.891 170.301 218.554C170.95 204.991 175.057 182.542 191.884 157.156Z" fill="#B8EE2B"/>
<path d="M585.629 219.209H543.185V170.939C543.185 166.877 546.032 163.396 549.959 162.634C557.85 161.111 565.74 161.111 573.631 162.743C577.162 163.468 579.792 166.479 580.189 170.069L585.629 219.209Z" fill="#FFC84E"/>
<path d="M558.822 102.759C557.958 101.599 556.192 101.853 555.652 103.195C553.129 109.469 547.112 124.011 542.428 132.244C536.375 142.942 539.51 159.37 561.381 156.65C593.52 152.697 566.641 113.313 558.822 102.759Z" fill="url(#paint7_linear_2013_19)"/>
<path opacity="0.53" d="M558.607 122.38C558.066 121.691 556.985 121.836 556.661 122.634C555.112 126.442 551.436 135.327 548.59 140.332C544.879 146.86 546.824 156.869 560.156 155.237C579.757 152.807 563.363 128.799 558.607 122.38Z" fill="url(#paint8_linear_2013_19)"/>
<path d="M556.841 149.759L558.246 165.898C558.318 166.841 559.111 167.638 560.048 167.638H560.084C561.2 167.638 562.065 166.623 561.957 165.499C561.345 160.023 559.363 144.066 556.841 149.759Z" fill="#A4A4A4"/>
<path d="M432.211 223.271L474.619 221.277L472.385 173.043C472.205 169.017 469.215 165.645 465.215 165.065C457.252 163.94 449.398 164.267 441.579 166.298C438.084 167.204 435.598 170.323 435.346 173.95L432.211 223.271Z" fill="#FFC84E"/>
<path d="M453.613 105.696C454.406 104.5 456.208 104.645 456.784 105.95C459.594 112.079 466.296 126.332 471.34 134.346C477.898 144.718 475.52 161.292 453.541 159.624C421.258 157.194 446.263 116.576 453.613 105.696Z" fill="url(#paint9_linear_2013_19)"/>
<path opacity="0.53" d="M454.73 125.28C455.234 124.555 456.315 124.664 456.676 125.425C458.405 129.161 462.476 137.864 465.539 142.724C469.538 149.071 468.097 159.152 454.694 158.137C434.985 156.686 450.262 131.917 454.73 125.28Z" fill="url(#paint10_linear_2013_19)"/>
<path d="M457.757 152.552L457.108 168.727C457.072 169.67 456.352 170.504 455.379 170.577H455.343C454.226 170.649 453.289 169.67 453.361 168.546C453.721 163.033 454.983 146.968 457.757 152.552Z" fill="#A4A4A4"/>
<path d="M535.619 216.923H489.355L493.138 168.617C493.138 164.555 495.985 161.074 499.912 160.312C507.803 158.789 515.694 158.789 523.584 160.421C527.115 161.146 529.746 164.156 530.142 167.747L535.619 216.923Z" fill="#FFC84E"/>
<path d="M508.776 100.474C507.911 99.3131 506.145 99.567 505.605 100.909C503.083 107.183 497.066 121.725 492.382 129.958C486.328 140.656 489.463 157.085 511.334 154.365C543.473 150.375 516.594 111.027 508.776 100.474Z" fill="url(#paint11_linear_2013_19)"/>
<path opacity="0.53" d="M508.559 120.094C508.019 119.405 506.938 119.55 506.613 120.348C505.064 124.156 501.389 133.041 498.542 138.046C494.831 144.574 496.777 154.583 510.108 152.951C529.709 150.521 513.315 126.513 508.559 120.094Z" fill="url(#paint12_linear_2013_19)"/>
<path d="M506.794 147.474L508.199 163.612C508.271 164.555 509.064 165.353 510.001 165.353H510.037C511.154 165.353 512.018 164.337 511.91 163.213C511.334 157.737 509.316 141.78 506.794 147.474Z" fill="#A4A4A4"/>
<path d="M403.421 354.807L403.998 237.269C404.034 228.493 409.294 220.551 417.329 217.214C444.064 206.081 510.108 187.005 606.599 215.329C615.138 217.831 621.299 225.374 622.128 234.296L633.045 352.232L403.421 354.807Z" fill="url(#paint13_linear_2013_19)"/>
<path d="M412.466 258.702C421.005 256.454 420.789 235.311 425.365 235.311C437.615 235.311 424.032 276.654 442.155 274.26C457 272.302 443.02 242.527 455.054 237.885C460.315 235.855 467.917 239.227 471.844 244.377C482.329 258.085 463.413 279.918 472.493 290.471C478.87 297.905 496.67 296.999 502.182 289.165C509.821 278.249 489.752 259.5 497.678 247.605C502.975 239.662 518.576 238.176 523.477 243.724C529.205 250.18 517.892 263.453 524.125 270.996C528.665 276.472 540.591 276.654 544.771 271.649C550.031 265.339 541.06 253.19 546.068 248.91C549.022 246.408 554.967 248.221 558.318 250.869C564.552 255.801 556.409 266.39 561.561 272.302C565.236 276.545 573.956 277.234 577.703 273.607C583.792 267.696 574.82 252.138 579 249.599C581.63 248.004 588.332 252.174 592.548 258.049C602.744 272.338 593.088 289.927 600.943 295.077C604.87 297.651 612.076 296.346 615.787 292.465C626.777 281.005 605.23 249.382 613.193 243.108C614.454 242.092 616.796 241.512 621.552 243.289C624.471 244.377 627.533 242.02 627.245 238.901L626.777 233.824C625.768 222.98 618.273 213.914 607.861 210.904C574.064 201.003 540.879 195.962 509.208 195.962C465.719 195.962 434.372 205.21 415.708 213.007C405.944 217.069 399.639 226.57 399.567 237.233L399.531 245.211C399.495 250.615 402.485 255.656 407.349 257.977C409.079 258.847 410.808 259.137 412.466 258.702Z" fill="url(#paint14_linear_2013_19)"/>
<path d="M398.486 345.886C406.843 345.886 413.619 339.067 413.619 330.654C413.619 322.242 406.843 315.423 398.486 315.423C390.128 315.423 383.353 322.242 383.353 330.654C383.353 339.067 390.128 345.886 398.486 345.886Z" fill="url(#paint15_linear_2013_19)"/>
<path d="M423.923 337.364C432.281 337.364 439.056 330.545 439.056 322.133C439.056 313.721 432.281 306.901 423.923 306.901C415.566 306.901 408.79 313.721 408.79 322.133C408.79 330.545 415.566 337.364 423.923 337.364Z" fill="url(#paint16_linear_2013_19)"/>
<path d="M451.162 334.318C459.52 334.318 466.295 327.498 466.295 319.086C466.295 310.674 459.52 303.854 451.162 303.854C442.804 303.854 436.029 310.674 436.029 319.086C436.029 327.498 442.804 334.318 451.162 334.318Z" fill="url(#paint17_linear_2013_19)"/>
<path d="M478.978 331.888C487.336 331.888 494.111 325.069 494.111 316.656C494.111 308.244 487.336 301.425 478.978 301.425C470.62 301.425 463.845 308.244 463.845 316.656C463.845 325.069 470.62 331.888 478.978 331.888Z" fill="url(#paint18_linear_2013_19)"/>
<path d="M506.218 329.458C514.575 329.458 521.351 322.639 521.351 314.227C521.351 305.815 514.575 298.995 506.218 298.995C497.86 298.995 491.085 305.815 491.085 314.227C491.085 322.639 497.86 329.458 506.218 329.458Z" fill="url(#paint19_linear_2013_19)"/>
<path d="M534.033 329.458C542.391 329.458 549.166 322.639 549.166 314.227C549.166 305.815 542.391 298.995 534.033 298.995C525.675 298.995 518.9 305.815 518.9 314.227C518.9 322.639 525.675 329.458 534.033 329.458Z" fill="url(#paint20_linear_2013_19)"/>
<path d="M561.273 330.655C569.63 330.655 576.405 323.836 576.405 315.423C576.405 307.011 569.63 300.192 561.273 300.192C552.915 300.192 546.14 307.011 546.14 315.423C546.14 323.836 552.915 330.655 561.273 330.655Z" fill="url(#paint21_linear_2013_19)"/>
<path d="M587.286 331.888C595.644 331.888 602.419 325.069 602.419 316.656C602.419 308.244 595.644 301.425 587.286 301.425C578.929 301.425 572.153 308.244 572.153 316.656C572.153 325.069 578.929 331.888 587.286 331.888Z" fill="url(#paint22_linear_2013_19)"/>
<path d="M612.112 336.131C620.47 336.131 627.245 329.312 627.245 320.9C627.245 312.488 620.47 305.668 612.112 305.668C603.755 305.668 596.979 312.488 596.979 320.9C596.979 329.312 603.755 336.131 612.112 336.131Z" fill="url(#paint23_linear_2013_19)"/>
<path d="M636.324 339.794C644.682 339.794 651.457 332.974 651.457 324.562C651.457 316.15 644.682 309.331 636.324 309.331C627.966 309.331 621.191 316.15 621.191 324.562C621.191 332.974 627.966 339.794 636.324 339.794Z" fill="url(#paint24_linear_2013_19)"/>
<path d="M368.4 415.771C368.688 391.836 369.517 385.634 371.571 358.108C372.255 349.042 378.236 341.245 386.776 338.271C424.788 324.998 536.123 293.047 646.125 328.806C654.52 331.525 660.61 338.851 661.727 347.664L675.31 413.994C676.463 423.024 669.473 431.003 660.465 431.003H383.389C375.03 431.039 368.292 424.185 368.4 415.771Z" fill="url(#paint25_linear_2013_19)"/>
<path d="M339.648 436.479C352.443 436.479 362.816 426.039 362.816 413.16C362.816 400.282 352.443 389.841 339.648 389.841C326.853 389.841 316.48 400.282 316.48 413.16C316.48 426.039 326.853 436.479 339.648 436.479Z" fill="url(#paint26_linear_2013_19)"/>
<path d="M378.597 423.422C391.392 423.422 401.765 412.982 401.765 400.103C401.765 387.225 391.392 376.785 378.597 376.785C365.802 376.785 355.429 387.225 355.429 400.103C355.429 412.982 365.802 423.422 378.597 423.422Z" fill="url(#paint27_linear_2013_19)"/>
<path d="M420.285 418.744C433.08 418.744 443.452 408.304 443.452 395.425C443.452 382.547 433.08 372.106 420.285 372.106C407.489 372.106 397.117 382.547 397.117 395.425C397.117 408.304 407.489 418.744 420.285 418.744Z" fill="url(#paint28_linear_2013_19)"/>
<path d="M462.909 415.009C475.704 415.009 486.077 404.569 486.077 391.69C486.077 378.811 475.704 368.371 462.909 368.371C450.114 368.371 439.741 378.811 439.741 391.69C439.741 404.569 450.114 415.009 462.909 415.009Z" fill="url(#paint29_linear_2013_19)"/>
<path d="M504.633 411.273C517.428 411.273 527.8 400.833 527.8 387.954C527.8 375.076 517.428 364.635 504.633 364.635C491.837 364.635 481.465 375.076 481.465 387.954C481.465 400.833 491.837 411.273 504.633 411.273Z" fill="url(#paint30_linear_2013_19)"/>
<path d="M547.257 411.273C560.052 411.273 570.425 400.833 570.425 387.954C570.425 375.076 560.052 364.635 547.257 364.635C534.462 364.635 524.089 375.076 524.089 387.954C524.089 400.833 534.462 411.273 547.257 411.273Z" fill="url(#paint31_linear_2013_19)"/>
<path d="M588.945 413.16C601.74 413.16 612.113 402.72 612.113 389.841C612.113 376.962 601.74 366.522 588.945 366.522C576.15 366.522 565.777 376.962 565.777 389.841C565.777 402.72 576.15 413.16 588.945 413.16Z" fill="url(#paint32_linear_2013_19)"/>
<path d="M628.794 415.009C641.59 415.009 651.962 404.569 651.962 391.69C651.962 378.811 641.59 368.371 628.794 368.371C615.999 368.371 605.627 378.811 605.627 391.69C605.627 404.569 615.999 415.009 628.794 415.009Z" fill="url(#paint33_linear_2013_19)"/>
<path d="M666.807 421.537C679.602 421.537 689.975 411.097 689.975 398.218C689.975 385.34 679.602 374.899 666.807 374.899C654.012 374.899 643.639 385.34 643.639 398.218C643.639 411.097 654.012 421.537 666.807 421.537Z" fill="url(#paint34_linear_2013_19)"/>
<path d="M703.883 427.158C716.678 427.158 727.051 416.718 727.051 403.839C727.051 390.96 716.678 380.52 703.883 380.52C691.088 380.52 680.715 390.96 680.715 403.839C680.715 416.718 691.088 427.158 703.883 427.158Z" fill="url(#paint35_linear_2013_19)"/>
<path d="M293.564 543.498C294.032 506.833 295.257 497.331 298.428 455.191C299.473 441.301 308.625 429.406 321.704 424.836C379.93 404.491 550.427 355.568 718.871 410.366C731.698 414.537 741.03 425.779 742.76 439.234L763.585 540.85C765.351 554.668 754.65 566.889 740.85 566.889H316.48C303.689 566.889 293.384 556.372 293.564 543.498Z" fill="url(#paint36_linear_2013_19)"/>
<path d="M519.008 470.96C519.008 470.96 529.529 423.27 543.869 429.327C558.209 435.383 556.299 446.662 561.055 450.143C565.848 453.625 583.034 478.757 519.008 470.96Z" fill="url(#paint37_linear_2013_19)"/>
<path d="M520.917 470.959C520.917 470.959 525.71 422.399 510.396 423.27C495.119 424.14 499.875 444.957 486.508 445.827C473.141 446.661 467.412 474.441 520.917 470.959Z" fill="url(#paint38_linear_2013_19)"/>
<path d="M485.355 585.451H548.986C556.336 585.451 562.461 580.338 563.074 573.665L571.253 483.109C571.937 475.638 565.416 469.219 557.165 469.219H485.355C477.537 469.219 471.231 474.949 471.231 482.057V572.613C471.231 579.721 477.573 585.451 485.355 585.451Z" fill="#3B7FD1"/>
<path d="M510.397 585.451H532.376V469.219H510.397V585.451Z" fill="url(#paint39_linear_2013_19)"/>
<path d="M437.939 496.453C437.939 496.453 448.46 448.764 462.8 454.82C477.14 460.876 475.231 472.155 479.987 475.637C484.743 479.118 501.93 504.287 437.939 496.453Z" fill="url(#paint40_linear_2013_19)"/>
<path d="M439.848 496.454C439.848 496.454 444.64 447.894 429.327 448.765C414.05 449.635 418.806 470.452 405.439 471.322C392.072 472.193 386.307 499.936 439.848 496.454Z" fill="url(#paint41_linear_2013_19)"/>
<path d="M404.286 585.45H467.916C475.266 585.45 481.392 580.336 482.004 573.663L490.183 508.602C490.868 501.132 484.346 494.713 476.095 494.713H404.286C396.467 494.713 390.162 500.443 390.162 507.551V572.612C390.162 579.72 396.467 585.45 404.286 585.45Z" fill="#E8811F"/>
<path d="M429.328 585.45H451.306V494.749H429.328V585.45Z" fill="url(#paint42_linear_2013_19)"/>
<path d="M270.554 338.568C273.761 344.951 279.31 357.027 281.472 361.778C281.94 362.793 283.201 363.047 284.03 362.358L299.307 349.665C300.28 348.867 300.028 347.308 298.875 346.8L272.68 336.247C271.239 335.703 269.834 337.19 270.554 338.568Z" fill="url(#paint43_linear_2013_19)"/>
<path d="M305.576 577.705C305.576 577.705 304.676 582.818 304.243 587.859C304.063 589.854 305.576 591.558 307.558 591.631C314.26 591.921 328.564 592.465 333.716 592.211C334.473 592.175 334.978 591.377 334.725 590.652C334.473 590.035 334.041 589.564 333.428 589.273L309.792 578.321L305.576 577.705Z" fill="url(#paint44_linear_2013_19)"/>
<path d="M304.856 574.731L305.577 580.86C305.577 580.86 309.72 582.818 312.567 580.606L310.837 573.788L304.856 574.731Z" fill="url(#paint45_linear_2013_19)"/>
<path d="M305.396 459.805C305.072 461.401 303.739 539.481 312.026 574.442C312.17 575.022 311.882 575.602 311.341 575.82C310.08 576.328 307.594 577.089 304.603 577.198C303.667 577.234 302.838 576.618 302.586 575.747C300.208 567.624 288.858 526.97 287.381 488.129C285.723 444.719 287.381 486.642 287.381 486.642L288.354 459.805H305.396Z" fill="url(#paint46_linear_2013_19)"/>
<path d="M278.373 580.388C278.373 580.388 276.932 582.963 275.563 589.817C275.31 591.05 276.175 592.247 277.436 592.356C279.634 592.573 283.057 592.863 285.759 592.827C287.02 592.827 287.993 591.703 287.849 590.47C287.561 587.968 286.624 583.869 283.706 580.678L278.373 580.388Z" fill="url(#paint47_linear_2013_19)"/>
<path d="M277.112 572.518L278.805 581.766C278.805 581.766 280.463 582.999 283.778 582.092L282.985 572.155L277.112 572.518Z" fill="url(#paint48_linear_2013_19)"/>
<path d="M272.572 462.198C265.799 503.396 274.05 563.996 276.824 575.855C277.004 576.58 277.581 577.124 278.301 577.269C279.526 577.487 281.58 577.632 283.598 577.052C284.282 576.834 284.787 576.218 284.823 575.492C285.183 565.918 284.535 507.022 290.84 483.74C291.164 482.543 291.885 481.528 292.858 480.838L305.108 472.062L306.045 457.882L272.572 462.198Z" fill="url(#paint49_linear_2013_19)"/>
<path d="M317.394 389.665C297.073 389.339 273.041 389.484 273.041 389.484C266.987 425.061 271.996 466.077 271.996 466.077C287.741 470.248 305.468 463.539 305.468 463.539C308.062 448.706 323.664 389.774 317.394 389.665Z" fill="url(#paint50_linear_2013_19)"/>
<path d="M280.823 409.322L273.041 389.521C273.041 389.521 254.053 402.504 250.954 418.969C254.557 419.223 261.079 420.165 267.456 423.429C268.825 415.632 280.823 409.322 280.823 409.322Z" fill="url(#paint51_linear_2013_19)"/>
<path d="M297.434 427.964C297.434 427.964 276.139 440.077 268.933 429.741C267.456 427.601 267.096 425.462 267.456 423.431C261.078 420.167 254.557 419.26 250.954 418.97C250.017 423.939 250.521 429.197 253.404 434.528C266.015 457.702 300.244 433.259 300.244 433.259L297.434 427.964Z" fill="url(#paint52_linear_2013_19)"/>
<path d="M292.929 372.041L287.669 387.382C286.804 389.957 288.389 392.677 291.056 393.148C294.01 393.656 298.082 393.474 302.585 390.573C303.378 390.065 303.883 389.231 303.991 388.325L306.08 372.041H292.929Z" fill="url(#paint53_linear_2013_19)"/>
<path d="M306.982 354.599C306.982 354.599 314.08 368.053 313.179 373.493C312.278 378.933 303.487 378.534 295.776 374.11L290.408 359.567L306.982 354.599Z" fill="url(#paint54_linear_2013_19)"/>
<path d="M296.101 367C296.425 366.855 296.533 366.492 296.353 366.202C295.776 365.332 294.731 363.555 294.371 361.995C294.371 361.995 293.11 361.161 297.614 360.073C302.154 358.985 308.892 357.281 310.297 353.4C311.666 349.629 308.063 340.127 302.262 347.707C302.046 347.997 301.613 347.997 301.397 347.707C300.46 346.474 297.938 343.862 294.479 345.458C291.236 346.909 290.876 349.302 290.912 350.535C290.912 350.898 290.624 351.152 290.264 351.116C288.606 350.789 284.679 350.535 282.841 354.597C281.328 357.934 282.301 359.856 283.202 360.762C283.49 361.052 283.382 361.56 282.949 361.669C281.868 361.995 280.463 362.938 280.607 365.477C280.788 368.995 284.715 368.668 285.832 368.523C286.012 368.487 286.192 368.559 286.336 368.704C287.273 369.756 291.597 374.289 296.245 374.833C296.641 374.87 296.965 374.471 296.821 374.108L294.804 368.233C294.695 367.943 294.84 367.653 295.092 367.544L296.101 367Z" fill="#6A3C30"/>
<path d="M296.929 367.835C296.929 367.835 291.885 364.354 291.488 367.291C291.128 370.229 296.028 371.534 298.478 370.446L296.929 367.835Z" fill="url(#paint55_linear_2013_19)"/>
<path d="M320.394 397.314C320.394 397.314 314.953 372.544 307.495 375.7C300.072 378.855 301.045 384.694 298.559 386.507C296.073 388.32 287.137 401.376 320.394 397.314Z" fill="#7111BC"/>
<path d="M319.376 397.936C319.376 397.936 316.89 372.731 324.817 373.166C332.744 373.601 330.257 384.409 337.211 384.88C344.165 385.315 347.156 399.749 319.376 397.936Z" fill="#7111BC"/>
<path d="M337.824 444.138H304.82C301.001 444.138 297.83 441.491 297.506 438.009L293.254 404.246C292.894 400.365 296.281 397.029 300.568 397.029H337.824C341.86 397.029 345.174 400.003 345.174 403.702V437.465C345.174 441.128 341.896 444.138 337.824 444.138Z" fill="#9732E5"/>
<path d="M324.853 397.029H313.431V444.102H324.853V397.029Z" fill="#6814A8"/>
<path d="M293.11 434.926C293.11 434.926 291.489 428.217 292.137 425.86C292.786 423.466 294.047 420.42 298.263 421.109C302.478 421.798 307.45 423.575 307.45 423.575C307.45 423.575 307.198 426.657 303.992 425.678L305.973 427.238C305.973 427.238 305.685 429.704 302.983 428.398L304.82 430.465C304.82 430.465 303.667 432.496 301.65 431.191C299.704 429.849 298.767 435.76 293.11 434.926Z" fill="url(#paint56_linear_2013_19)"/>
<path d="M714.176 365.209L732.336 356.397C733.201 355.961 734.209 356.759 733.957 357.738C732.372 363.867 728.408 379.534 728.949 380.078C729.634 380.767 714.176 365.209 714.176 365.209Z" fill="url(#paint57_linear_2013_19)"/>
<path d="M678.29 412.791C678.29 412.791 681.857 396.616 686.721 398.683C691.586 400.75 690.937 404.558 692.558 405.719C694.144 406.916 699.981 415.438 678.29 412.791Z" fill="#C50DA8"/>
<path d="M678.939 412.791C678.939 412.791 680.56 396.326 675.372 396.616C670.183 396.906 671.805 403.978 667.265 404.268C662.761 404.595 660.815 413.988 678.939 412.791Z" fill="#C50DA8"/>
<path d="M667.336 438.757H688.883C691.369 438.757 693.459 437.016 693.639 434.767L695.981 416.925C696.197 414.386 693.999 412.21 691.225 412.21H666.904C664.274 412.21 662.112 414.168 662.112 416.562L662.544 434.405C662.544 436.798 664.706 438.757 667.336 438.757Z" fill="url(#paint58_linear_2013_19)"/>
<path d="M675.803 438.757H683.262L682.829 412.21H675.371L675.803 438.757Z" fill="#AE0A94"/>
<path d="M703.223 519.665L702.61 531.27C702.61 531.27 706.177 570.075 706.934 587.265C707.042 589.948 706.358 592.632 704.952 594.917L697.638 606.885L716.266 595.824L716.626 593.539L713.564 589.332L717.563 541.207C717.815 538.378 717.203 535.55 715.906 533.047L712.05 525.758L703.223 519.665Z" fill="url(#paint59_linear_2013_19)"/>
<path d="M696.377 608.626H702.322C703.439 608.626 704.484 608.118 705.169 607.212C707.006 604.782 710.862 600.067 712.699 599.922C715.185 599.741 714.861 608.59 714.861 608.59H716.23L717.996 597.601C718.428 594.845 717.059 592.089 714.609 590.819C714.609 590.819 714.032 595.026 710.97 596.876C707.907 598.725 698.503 605.398 698.503 605.398C698.503 605.398 697.35 605.217 696.089 605.471C694.216 605.834 694.468 608.626 696.377 608.626Z" fill="url(#paint60_linear_2013_19)"/>
<path d="M719.22 519.665L717.959 527.1C717.959 527.1 722.175 570.038 722.932 587.228C723.04 589.912 722.355 592.596 720.95 594.88L713.636 606.848L732.264 595.787L732.624 593.502L729.561 589.295L733.561 541.171C733.813 538.342 733.2 535.513 731.903 533.011L728.048 525.721L719.22 519.665Z" fill="url(#paint61_linear_2013_19)"/>
<path d="M740.479 470.381C739.47 462.148 729.237 454.424 729.237 454.424C716.338 459.066 707.114 452.212 707.114 452.212C707.114 452.212 703.115 460.516 703.043 469.003C703.007 477.453 702.502 531.815 702.502 531.815C717.419 538.125 732.84 535.006 732.84 535.006C731.687 515.423 741.488 478.613 740.479 470.381Z" fill="url(#paint62_linear_2013_19)"/>
<path d="M710.789 370.07C710.789 370.07 721.634 362.418 727.399 376.09C728.444 378.592 734.569 378.991 735.182 384.068C735.506 386.68 737.416 388.783 740.01 389.182C746.46 390.161 756.404 393.534 757.989 404.813C759.214 413.408 754.855 416.671 750.279 417.796C746.928 418.63 744.694 421.93 745.379 425.339C746.027 428.603 745.054 432.411 739.434 435.385C726.787 442.094 714.176 419.5 714.176 419.5L711.582 380.043L710.789 370.07Z" fill="url(#paint63_linear_2013_19)"/>
<path d="M712.411 608.626H718.356C719.473 608.626 720.518 608.118 721.202 607.211C723.04 604.782 726.895 600.067 728.733 599.922C731.219 599.741 730.894 608.59 730.894 608.59H732.264L734.029 597.601C734.461 594.845 733.092 592.089 730.642 590.819C730.642 590.819 730.066 595.026 727.003 596.876C723.94 598.725 714.536 605.398 714.536 605.398C714.536 605.398 713.383 605.217 712.122 605.471C710.213 605.833 710.501 608.626 712.411 608.626Z" fill="url(#paint64_linear_2013_19)"/>
<path d="M729.129 454.713C725.166 437.777 729.958 425.41 734.102 418.52C736.696 414.24 734.714 408.655 730.102 406.878C722.68 404.013 714.177 403.469 709.817 403.397C707.943 403.361 706.178 404.267 705.061 405.79C701.89 410.106 695.945 419.499 697.494 427.079C698.719 433.062 707.006 456.925 707.006 456.925C707.006 456.925 717.383 461.821 729.129 454.713Z" fill="#FD5E06"/>
<path d="M717.347 384.357L721.491 404.993C721.995 407.06 719.04 407.495 716.915 407.676C713.312 407.966 711.294 407.132 709.853 404.449C709.709 404.195 709.636 403.868 709.6 403.578L707.367 387.367C707.186 386.062 707.871 384.829 709.06 384.321L713.348 382.399C715.005 381.637 716.915 382.58 717.347 384.357Z" fill="url(#paint65_linear_2013_19)"/>
<path d="M708.7 369.163C708.7 369.163 703.655 372.499 701.385 381.203C699.116 389.871 702.574 393.026 706.178 392.881C709.781 392.736 714.969 391.684 719.581 385.483C724.157 379.317 715.293 365.065 708.7 369.163Z" fill="url(#paint66_linear_2013_19)"/>
<path d="M715.041 381.929C715.041 381.929 717.023 369.49 706.718 371.267L704.628 373.406C704.628 373.406 699.656 367.64 705.277 363.397C710.898 359.154 718.608 360.351 722.788 368.257C726.968 376.163 728.445 381.711 724.806 386.535C721.167 391.358 718.5 387.151 718.5 387.151C718.5 387.151 720.194 382.944 718.861 381.131C717.527 379.318 715.726 382.147 715.726 382.147L715.041 381.929Z" fill="url(#paint67_linear_2013_19)"/>
<path d="M674.506 436.037C674.146 435.42 674.723 434.659 675.407 434.876C677.965 435.638 682.685 436.508 685.928 434.26C686.108 434.151 686.252 434.042 686.397 433.933C686.072 433.534 685.568 433.244 684.847 433.244C682.793 433.317 681.857 430.307 681.857 430.307C681.857 430.307 683.694 431.286 685.604 430.633C687.261 430.053 689.747 430.814 690.972 432.7C696.413 438.394 703.439 446.227 715.69 440.316C724.769 435.928 724.805 423.017 724.229 416.635C724.013 414.132 725.49 411.775 727.868 411.013C731.003 410.034 733.597 410.542 735.543 412.935C736.515 414.132 736.948 415.655 736.876 417.215C736.479 423.96 734.065 445.901 718.536 450.543C700.124 456.055 689.279 438.104 689.279 438.104C689.279 438.104 679.839 445.103 674.506 436.037Z" fill="url(#paint68_linear_2013_19)"/>
<path d="M808.914 340.94L826.786 326.942C827.182 326.615 827.794 326.942 827.722 327.486L825.056 350.152L808.914 340.94Z" fill="url(#paint69_linear_2013_19)"/>
<path d="M880.832 485.171C880.832 485.171 883.714 480.892 886.849 476.902C888.074 475.343 890.236 475.017 891.569 476.177C896.145 480.094 905.873 488.471 909.044 491.771C909.512 492.279 909.332 493.15 908.647 493.512C908.071 493.802 907.458 493.875 906.882 493.73L884.002 487.238L880.832 485.171Z" fill="#401A11"/>
<path d="M878.382 486.984L883.066 482.994C883.066 482.994 887.425 484.409 888.002 487.963L882.129 491.771L878.382 486.984Z" fill="url(#paint70_linear_2013_19)"/>
<path d="M774.901 380.797C767.623 364.333 760.741 339.744 768.74 315.156L773.388 310.478C773.388 310.478 773.388 348.992 782.9 368.104C780.233 372.347 777.603 376.59 774.901 380.797Z" fill="url(#paint71_linear_2013_19)"/>
<path d="M774.504 303.152L776.27 305.8C776.738 306.525 776.882 307.432 776.594 308.266C775.874 310.442 774.288 314.685 772.018 316.97C768.884 320.125 765.785 312.581 765.136 310.043C764.524 307.541 768.884 301.23 770.145 299.997C771.37 298.728 776.378 299.381 774.504 303.152Z" fill="url(#paint72_linear_2013_19)"/>
<path d="M798.429 562.126C798.429 562.126 799.329 567.239 799.762 572.28C799.942 574.275 798.429 575.979 796.447 576.052C789.745 576.342 775.441 576.886 770.288 576.632C769.532 576.596 769.027 575.798 769.28 575.073C769.532 574.456 769.964 573.985 770.577 573.694L794.213 562.742L798.429 562.126Z" fill="#401A11"/>
<path d="M799.15 559.152L798.429 565.281C798.429 565.281 794.286 567.239 791.439 565.027L793.169 558.209L799.15 559.152Z" fill="url(#paint73_linear_2013_19)"/>
<path d="M798.61 444.19C798.934 445.786 800.267 523.866 791.98 558.826C791.836 559.406 792.124 559.987 792.664 560.204C793.926 560.712 796.412 561.474 799.402 561.582C800.339 561.619 801.168 561.002 801.42 560.132C803.798 552.008 820.084 505.044 821.561 466.203C823.219 422.793 815.652 444.19 815.652 444.19H798.61Z" fill="url(#paint74_linear_2013_19)"/>
<path d="M834.424 445.604C841.378 463.266 843.648 466.022 846.746 486.149C850.457 510.302 868.617 493.62 878.309 485.787C879.534 484.808 883.173 488.362 883.534 493.33C884.002 499.822 844.801 530.756 834.208 508.888C827.434 494.926 825.56 479.223 821.056 470.555C820.48 469.467 819.579 468.633 818.462 468.125L804.626 462.178L800.735 448.505L834.424 445.604Z" fill="url(#paint75_linear_2013_19)"/>
<path d="M841.99 382.936C849.269 366.472 856.151 341.883 848.152 317.295L843.504 312.617C843.504 312.617 843.504 351.131 833.992 370.243C836.658 374.486 839.324 378.693 841.99 382.936Z" fill="url(#paint76_linear_2013_19)"/>
<path d="M798.609 377.026H821.488C823.794 377.026 825.992 376.155 827.649 374.559C829.775 372.529 832.514 369.047 834.459 363.607C834.748 362.773 835.648 362.338 836.477 362.592C839.432 363.462 845.881 366.001 849.232 371.84C849.556 372.383 849.556 373.073 849.196 373.617L834.928 395.848L836.333 450.681C836.333 450.681 800.482 456.339 795.546 450.681L790.61 400.417C790.61 400.417 773.027 389.791 768.091 372.819L782.863 364.333C782.863 364.333 784.593 364.405 786.034 368.394C788.016 373.58 793.06 377.026 798.609 377.026Z" fill="url(#paint77_linear_2013_19)"/>
<path d="M818.174 360.271L818.714 378.041C818.75 379.165 818.03 380.217 816.985 380.58C814.787 381.305 810.824 382.212 806.356 381.269C805.023 380.979 804.194 379.673 804.41 378.331L806.824 364.333L818.174 360.271Z" fill="url(#paint78_linear_2013_19)"/>
<path d="M806.103 343.987C805.959 344.205 800.591 358.82 798.249 365.239C797.636 366.871 798.537 368.648 800.194 369.192L805.347 370.135C808.77 370.751 812.157 368.938 813.526 365.71L819.759 358.421C823.146 354.468 821.993 348.339 817.345 345.946C812.805 343.661 807.797 341.848 806.103 343.987Z" fill="url(#paint79_linear_2013_19)"/>
<path d="M816.372 360.09L814.894 359.328C814.894 359.328 820.803 349.645 814.138 348.92C807.472 348.159 801.563 346.672 801.563 342.973C801.563 339.237 801.563 332.564 809.706 335.538C817.849 338.512 817.092 343.734 821.524 344.459C825.956 345.185 829.667 345.946 828.19 350.407C826.712 354.868 823.758 357.842 825.235 359.328C826.713 360.815 820.047 368.25 816.372 360.09Z" fill="#E6A719"/>
<path d="M814.786 362.991C814.786 362.991 816.011 356.463 818.749 356.282C821.488 356.137 824.01 358.53 821.091 362.085C817.452 366.473 814.786 362.991 814.786 362.991Z" fill="url(#paint80_linear_2013_19)"/>
<path d="M842.386 305.255L840.621 307.902C840.152 308.628 840.008 309.534 840.297 310.368C841.017 312.544 842.603 316.787 844.872 319.072C848.007 322.227 851.106 314.684 851.754 312.145C852.367 309.643 848.007 303.333 846.746 302.1C845.485 300.867 840.513 301.483 842.386 305.255Z" fill="url(#paint81_linear_2013_19)"/>
<path d="M824.399 404.476L825.597 402.438C825.628 402.383 825.669 402.333 825.718 402.293C825.764 402.261 825.818 402.242 825.874 402.241L827.041 402.172L827.15 402.181C827.157 402.18 827.164 402.182 827.17 402.184C827.176 402.187 827.182 402.19 827.187 402.195C827.191 402.2 827.195 402.206 827.198 402.212C827.2 402.218 827.201 402.225 827.201 402.232C827.198 402.269 827.187 402.304 827.168 402.335L827.148 402.367C826.868 402.841 826.572 403.345 826.26 403.877L825.314 405.491L827.377 408.205C827.412 408.253 827.446 408.3 827.477 408.346C827.508 408.392 827.541 408.438 827.571 408.483C827.578 408.495 827.583 408.508 827.586 408.521C827.592 408.537 827.596 408.552 827.598 408.568C827.6 408.612 827.57 408.636 827.507 408.64L826.264 408.713C826.166 408.719 826.082 408.67 826.012 408.566C825.764 408.237 825.516 407.908 825.27 407.58C825.023 407.252 824.774 406.924 824.523 406.594L823.756 405.581L824.399 404.476Z" fill="#6FAA27"/>
<path d="M822.516 404.667C822.403 404.345 822.235 404.045 822.021 403.781C821.863 403.585 821.681 403.411 821.48 403.261C821.076 402.958 820.609 402.753 820.115 402.66C819.867 402.612 819.613 402.596 819.361 402.611C819.063 402.627 818.768 402.684 818.485 402.781C817.953 402.965 817.479 403.29 817.115 403.721C816.819 404.067 816.6 404.473 816.471 404.91L816.26 401.296C816.259 401.254 816.248 401.214 816.228 401.177C816.208 401.141 816.181 401.109 816.147 401.085C816.084 401.036 816.006 401.011 815.927 401.015L815.106 401.063C815.063 401.063 815.021 401.072 814.983 401.089C814.944 401.107 814.909 401.132 814.881 401.164C814.83 401.226 814.806 401.305 814.813 401.385L814.948 403.691C814.698 403.456 814.406 403.27 814.088 403.143C813.77 403.015 813.407 402.964 812.999 402.988C812.566 403.01 812.143 403.124 811.756 403.322C811.285 403.567 810.88 403.925 810.577 404.364C810.274 404.803 810.082 405.309 810.018 405.84C810 405.773 809.98 405.706 809.958 405.641C809.865 405.369 809.739 405.11 809.581 404.87C809.268 404.396 808.839 404.011 808.334 403.753C808.08 403.623 807.81 403.527 807.531 403.465C806.952 403.341 806.35 403.376 805.789 403.568C805.52 403.662 805.264 403.789 805.026 403.947C804.793 404.104 804.58 404.291 804.395 404.504C804.209 404.716 804.05 404.952 803.922 405.204C803.792 405.46 803.696 405.732 803.638 406.013C803.529 406.54 803.547 407.085 803.69 407.603C803.668 407.684 803.641 407.763 803.608 407.84C803.402 408.336 803.009 408.73 802.516 408.937C802.262 409.044 801.989 409.097 801.713 409.092C801.436 409.091 801.162 409.032 800.909 408.918C800.669 408.811 800.451 408.657 800.269 408.466C800.087 408.273 799.944 408.046 799.847 407.799C799.694 407.414 799.656 406.993 799.737 406.587C799.818 406.181 800.014 405.807 800.302 405.511C800.488 405.323 800.709 405.174 800.952 405.071C801.207 404.963 801.482 404.91 801.76 404.916C802.035 404.915 802.307 404.973 802.559 405.085C802.7 405.149 802.833 405.229 802.957 405.322C802.982 405.342 803.012 405.355 803.043 405.362C803.074 405.369 803.107 405.369 803.138 405.362C803.169 405.355 803.198 405.342 803.224 405.322C803.25 405.303 803.271 405.278 803.286 405.25L803.662 404.576C803.689 404.526 803.698 404.468 803.685 404.412C803.672 404.357 803.639 404.308 803.593 404.276C803.539 404.238 803.483 404.202 803.426 404.168C803.181 404.021 802.919 403.906 802.646 403.826C802.077 403.661 801.474 403.654 800.901 403.806C800.626 403.881 800.361 403.99 800.113 404.131C799.869 404.27 799.643 404.441 799.444 404.64C799.242 404.839 799.066 405.062 798.921 405.305C798.774 405.552 798.66 405.818 798.583 406.096C798.421 406.656 798.411 407.25 798.552 407.816C798.693 408.382 798.982 408.9 799.387 409.317C799.584 409.52 799.805 409.696 800.045 409.843C800.423 410.068 800.84 410.216 801.274 410.278C801.709 410.339 802.151 410.314 802.575 410.203C803.125 410.058 803.627 409.772 804.035 409.374C804.175 409.236 804.303 409.085 804.417 408.924C804.494 409.01 804.576 409.092 804.662 409.17C804.872 409.358 805.105 409.518 805.356 409.646C805.747 409.845 806.174 409.963 806.611 409.995C807.049 410.026 807.488 409.97 807.903 409.83C808.442 409.647 808.924 409.326 809.302 408.899C809.49 408.689 809.649 408.454 809.776 408.202C809.904 407.947 810 407.676 810.061 407.396C810.078 407.318 810.091 407.239 810.102 407.158C810.155 407.364 810.227 407.563 810.318 407.754C810.677 408.522 811.321 409.118 812.112 409.412C812.519 409.563 812.953 409.626 813.386 409.597C813.577 409.586 813.766 409.553 813.949 409.498C814.295 409.395 814.617 409.223 814.896 408.992C815.027 408.884 815.15 408.765 815.264 408.637L815.332 409.063C815.357 409.142 815.396 409.216 815.445 409.283C815.485 409.331 815.554 409.352 815.654 409.347L816.405 409.302C816.62 409.289 816.719 409.183 816.707 408.98L816.605 407.232C816.626 407.281 816.65 407.328 816.674 407.375C817.068 408.148 817.743 408.738 818.559 409.024C818.974 409.171 819.415 409.232 819.854 409.204C820.248 409.185 820.633 409.089 820.989 408.92C821.331 408.754 821.644 408.534 821.917 408.269C822.039 408.167 822.097 408.07 822.091 407.976C822.088 407.937 822.077 407.9 822.057 407.866C822.03 407.822 821.998 407.78 821.963 407.741C821.92 407.693 821.865 407.635 821.797 407.565C821.73 407.495 821.647 407.407 821.551 407.301C821.519 407.262 821.478 407.23 821.433 407.207C821.4 407.191 821.364 407.183 821.328 407.183C821.288 407.186 821.249 407.199 821.215 407.223C821.176 407.25 821.139 407.281 821.105 407.316C821.105 407.316 821.104 407.316 821.103 407.316C821.103 407.317 821.102 407.317 821.102 407.318C821.101 407.318 821.101 407.319 821.101 407.32C821.1 407.32 821.1 407.321 821.1 407.322C821.022 407.402 820.936 407.476 820.845 407.542C820.743 407.615 820.635 407.68 820.522 407.735C820.4 407.794 820.273 407.842 820.142 407.878C820.001 407.917 819.857 407.94 819.712 407.947C819.511 407.959 819.31 407.937 819.116 407.884C818.915 407.83 818.725 407.742 818.554 407.624C818.377 407.502 818.223 407.351 818.096 407.177C817.959 406.99 817.861 406.778 817.808 406.552L822.242 406.29C822.337 406.287 822.43 406.272 822.521 406.245C822.578 406.229 822.629 406.196 822.666 406.15C822.699 406.102 822.717 406.045 822.719 405.987C822.724 405.906 822.723 405.824 822.717 405.743C822.701 405.376 822.633 405.014 822.516 404.667ZM808.769 407.4C808.684 407.652 808.551 407.885 808.377 408.086C808.203 408.285 807.993 408.449 807.757 408.569C807.51 408.692 807.241 408.764 806.965 408.78C806.689 408.797 806.413 408.757 806.153 408.664C805.652 408.481 805.244 408.107 805.016 407.622C804.837 407.248 804.77 406.831 804.823 406.419C804.875 406.008 805.046 405.621 805.313 405.305C805.486 405.105 805.696 404.94 805.932 404.82C806.18 404.697 806.449 404.625 806.725 404.609C807 404.592 807.277 404.632 807.537 404.725C807.785 404.817 808.013 404.956 808.208 405.134C808.611 405.506 808.853 406.023 808.882 406.572C808.899 406.853 808.861 407.134 808.769 407.4ZM815.191 406.212C815.201 406.47 815.161 406.727 815.072 406.969C814.987 407.203 814.859 407.419 814.696 407.606C814.531 407.794 814.332 407.948 814.11 408.06C813.881 408.177 813.63 408.244 813.374 408.258C813.12 408.276 812.865 408.237 812.627 408.146C812.4 408.058 812.193 407.926 812.016 407.759C811.836 407.587 811.691 407.382 811.589 407.155C811.374 406.676 811.342 406.134 811.5 405.632C811.576 405.392 811.695 405.169 811.853 404.973C812.008 404.78 812.199 404.62 812.415 404.5C812.639 404.376 812.888 404.305 813.143 404.293C813.404 404.276 813.666 404.316 813.91 404.411C814.147 404.503 814.363 404.64 814.549 404.813C814.734 404.988 814.886 405.195 814.996 405.425C815.11 405.66 815.176 405.916 815.19 406.177L815.191 406.212ZM817.768 405.347C817.81 405.15 817.884 404.961 817.989 404.788C818.092 404.616 818.22 404.461 818.368 404.327C818.516 404.194 818.683 404.084 818.863 404.002C819.043 403.919 819.237 403.871 819.434 403.859C819.65 403.845 819.866 403.866 820.075 403.923C820.269 403.975 820.452 404.06 820.617 404.176C820.777 404.29 820.917 404.43 821.032 404.591C821.152 404.758 821.245 404.943 821.307 405.14L817.768 405.347Z" fill="#575756"/>
<path d="M824.542 404.468L825.31 405.489L824.67 404.014L824.463 404.363L824.542 404.468Z" fill="#46952B"/>
<path d="M825.31 405.482L825.307 405.486L825.308 405.487L825.31 405.482Z" fill="#46952B"/>
<path d="M824.599 406.7L824.846 407.021L825.305 405.5L824.599 406.7Z" fill="#46952B"/>
<path d="M825.31 405.489L824.666 406.586C824.455 406.943 824.246 407.298 824.039 407.653C823.832 408.008 823.625 408.364 823.417 408.72C823.36 408.831 823.282 408.89 823.184 408.896L821.939 408.969C821.875 408.973 821.842 408.953 821.84 408.91C821.84 408.893 821.842 408.877 821.846 408.861C821.847 408.847 821.851 408.834 821.856 408.821C821.882 408.773 821.908 408.724 821.934 408.674C821.96 408.625 821.988 408.574 822.017 408.523L823.752 405.581L822.625 404.093C822.253 403.601 821.901 403.135 821.569 402.697L821.546 402.668C821.523 402.639 821.507 402.606 821.501 402.57C821.5 402.563 821.5 402.556 821.502 402.55C821.503 402.543 821.506 402.537 821.511 402.531C821.515 402.526 821.52 402.522 821.526 402.518C821.532 402.515 821.539 402.513 821.545 402.513L821.652 402.491L822.819 402.422C822.874 402.417 822.93 402.429 822.979 402.456C823.033 402.49 823.079 402.534 823.116 402.585L824.543 404.469L825.31 405.489Z" fill="#93C01F"/>
<path d="M804.555 408.711C804.51 408.787 804.468 408.854 804.418 408.925C804.511 409.029 804.61 409.126 804.715 409.217C804.911 408.702 804.899 408.129 804.889 407.946C804.809 408.214 804.697 408.471 804.555 408.711Z" fill="#3C3C3B"/>
<defs>
<filter id="filter0_f_2013_19" x="159.001" y="15.1219" width="757.365" height="737.683" filterUnits="userSpaceOnUse" color-interpolation-filters="sRGB">
<feFlood flood-opacity="0" result="BackgroundImageFix"/>
<feBlend mode="normal" in="SourceGraphic" in2="BackgroundImageFix" result="shape"/>
<feGaussianBlur stdDeviation="40.6" result="effect1_foregroundBlur_2013_19"/>
</filter>
<linearGradient id="paint0_linear_2013_19" x1="761.271" y1="374.564" x2="1073" y2="287.86" gradientUnits="userSpaceOnUse">
<stop stop-color="white" stop-opacity="0"/>
<stop offset="0.655" stop-color="#67C500" stop-opacity="0.5"/>
</linearGradient>
<linearGradient id="paint1_linear_2013_19" x1="311.729" y1="374.565" x2="6.67376e-05" y2="287.861" gradientUnits="userSpaceOnUse">
<stop stop-color="white" stop-opacity="0"/>
<stop offset="0.655" stop-color="#67C500" stop-opacity="0.5"/>
</linearGradient>
<linearGradient id="paint2_linear_2013_19" x1="693.109" y1="54.4209" x2="693.109" y2="163.218" gradientUnits="userSpaceOnUse">
<stop stop-color="#BD98D9"/>
<stop offset="1" stop-color="#712FA4"/>
</linearGradient>
<linearGradient id="paint3_linear_2013_19" x1="582.169" y1="240.614" x2="543.287" y2="246.304" gradientUnits="userSpaceOnUse">
<stop stop-color="#4042E2"/>
<stop offset="1" stop-color="#4F52FF"/>
</linearGradient>
<linearGradient id="paint4_linear_2013_19" x1="538.945" y1="256.42" x2="500.477" y2="262.049" gradientUnits="userSpaceOnUse">
<stop stop-color="#4042E2"/>
<stop offset="1" stop-color="#4F52FF"/>
</linearGradient>
<linearGradient id="paint5_linear_2013_19" x1="496.212" y1="272.531" x2="460.571" y2="277.746" gradientUnits="userSpaceOnUse">
<stop stop-color="#4042E2"/>
<stop offset="1" stop-color="#4F52FF"/>
</linearGradient>
<linearGradient id="paint6_linear_2013_19" x1="457.418" y1="281.066" x2="419.662" y2="286.59" gradientUnits="userSpaceOnUse">
<stop stop-color="#4042E2"/>
<stop offset="1" stop-color="#4F52FF"/>
</linearGradient>
<linearGradient id="paint7_linear_2013_19" x1="556.106" y1="67.0819" x2="561.213" y2="243.649" gradientUnits="userSpaceOnUse">
<stop stop-color="#FFBE2E"/>
<stop offset="1" stop-color="#D16D4E"/>
</linearGradient>
<linearGradient id="paint8_linear_2013_19" x1="562.337" y1="118.892" x2="540.239" y2="265.259" gradientUnits="userSpaceOnUse">
<stop stop-color="white"/>
<stop offset="1" stop-color="white"/>
</linearGradient>
<linearGradient id="paint9_linear_2013_19" x1="453.845" y1="69.9827" x2="458.936" y2="246.334" gradientUnits="userSpaceOnUse">
<stop stop-color="#FFBE2E"/>
<stop offset="1" stop-color="#D16D4E"/>
</linearGradient>
<linearGradient id="paint10_linear_2013_19" x1="462.893" y1="103.877" x2="440.795" y2="250.243" gradientUnits="userSpaceOnUse">
<stop stop-color="white"/>
<stop offset="1" stop-color="white"/>
</linearGradient>
<linearGradient id="paint11_linear_2013_19" x1="506.059" y1="64.7961" x2="511.166" y2="241.363" gradientUnits="userSpaceOnUse">
<stop stop-color="#FFBE2E"/>
<stop offset="1" stop-color="#D16D4E"/>
</linearGradient>
<linearGradient id="paint12_linear_2013_19" x1="513.066" y1="111.453" x2="490.967" y2="257.819" gradientUnits="userSpaceOnUse">
<stop stop-color="white"/>
<stop offset="1" stop-color="white"/>
</linearGradient>
<linearGradient id="paint13_linear_2013_19" x1="518.233" y1="431.269" x2="522.635" y2="122.512" gradientUnits="userSpaceOnUse">
<stop stop-color="#B8FF00"/>
<stop offset="0.509113" stop-color="#FBFBFB"/>
</linearGradient>
<linearGradient id="paint14_linear_2013_19" x1="484.186" y1="89.9364" x2="489.879" y2="357.835" gradientUnits="userSpaceOnUse">
<stop stop-color="#97E835"/>
<stop offset="0.723233" stop-color="#46952B"/>
</linearGradient>
<linearGradient id="paint15_linear_2013_19" x1="394.603" y1="283.268" x2="398.536" y2="364.361" gradientUnits="userSpaceOnUse">
<stop stop-color="#97E835"/>
<stop offset="0.723233" stop-color="#46952B"/>
</linearGradient>
<linearGradient id="paint16_linear_2013_19" x1="420.041" y1="274.746" x2="423.974" y2="355.839" gradientUnits="userSpaceOnUse">
<stop stop-color="#97E835"/>
<stop offset="0.723233" stop-color="#46952B"/>
</linearGradient>
<linearGradient id="paint17_linear_2013_19" x1="447.28" y1="271.699" x2="451.213" y2="352.792" gradientUnits="userSpaceOnUse">
<stop stop-color="#97E835"/>
<stop offset="0.723233" stop-color="#46952B"/>
</linearGradient>
<linearGradient id="paint18_linear_2013_19" x1="475.096" y1="269.27" x2="479.029" y2="350.363" gradientUnits="userSpaceOnUse">
<stop stop-color="#97E835"/>
<stop offset="0.723233" stop-color="#46952B"/>
</linearGradient>
<linearGradient id="paint19_linear_2013_19" x1="502.336" y1="266.84" x2="506.268" y2="347.933" gradientUnits="userSpaceOnUse">
<stop stop-color="#97E835"/>
<stop offset="0.723233" stop-color="#46952B"/>
</linearGradient>
<linearGradient id="paint20_linear_2013_19" x1="530.151" y1="266.84" x2="534.084" y2="347.933" gradientUnits="userSpaceOnUse">
<stop stop-color="#97E835"/>
<stop offset="0.723233" stop-color="#46952B"/>
</linearGradient>
<linearGradient id="paint21_linear_2013_19" x1="557.39" y1="268.037" x2="561.323" y2="349.129" gradientUnits="userSpaceOnUse">
<stop stop-color="#97E835"/>
<stop offset="0.723233" stop-color="#46952B"/>
</linearGradient>
<linearGradient id="paint22_linear_2013_19" x1="583.404" y1="269.27" x2="587.337" y2="350.363" gradientUnits="userSpaceOnUse">
<stop stop-color="#97E835"/>
<stop offset="0.723233" stop-color="#46952B"/>
</linearGradient>
<linearGradient id="paint23_linear_2013_19" x1="608.23" y1="273.513" x2="612.163" y2="354.606" gradientUnits="userSpaceOnUse">
<stop stop-color="#97E835"/>
<stop offset="0.723233" stop-color="#46952B"/>
</linearGradient>
<linearGradient id="paint24_linear_2013_19" x1="632.442" y1="277.176" x2="636.375" y2="358.268" gradientUnits="userSpaceOnUse">
<stop stop-color="#97E835"/>
<stop offset="0.723233" stop-color="#46952B"/>
</linearGradient>
<linearGradient id="paint25_linear_2013_19" x1="521.917" y1="469.708" x2="523.404" y2="252.406" gradientUnits="userSpaceOnUse">
<stop stop-color="#B8FF00"/>
<stop offset="0.602526" stop-color="#FBFBFB"/>
</linearGradient>
<linearGradient id="paint26_linear_2013_19" x1="333.705" y1="340.614" x2="339.726" y2="464.763" gradientUnits="userSpaceOnUse">
<stop stop-color="#97E835"/>
<stop offset="0.723233" stop-color="#46952B"/>
</linearGradient>
<linearGradient id="paint27_linear_2013_19" x1="372.654" y1="327.557" x2="378.675" y2="451.706" gradientUnits="userSpaceOnUse">
<stop stop-color="#97E835"/>
<stop offset="0.723233" stop-color="#46952B"/>
</linearGradient>
<linearGradient id="paint28_linear_2013_19" x1="414.341" y1="322.879" x2="420.362" y2="447.028" gradientUnits="userSpaceOnUse">
<stop stop-color="#97E835"/>
<stop offset="0.723233" stop-color="#46952B"/>
</linearGradient>
<linearGradient id="paint29_linear_2013_19" x1="456.965" y1="319.143" x2="462.986" y2="443.292" gradientUnits="userSpaceOnUse">
<stop stop-color="#97E835"/>
<stop offset="0.723233" stop-color="#46952B"/>
</linearGradient>
<linearGradient id="paint30_linear_2013_19" x1="498.689" y1="315.408" x2="504.71" y2="439.557" gradientUnits="userSpaceOnUse">
<stop stop-color="#97E835"/>
<stop offset="0.723233" stop-color="#46952B"/>
</linearGradient>
<linearGradient id="paint31_linear_2013_19" x1="541.313" y1="315.408" x2="547.334" y2="439.557" gradientUnits="userSpaceOnUse">
<stop stop-color="#97E835"/>
<stop offset="0.723233" stop-color="#46952B"/>
</linearGradient>
<linearGradient id="paint32_linear_2013_19" x1="583.002" y1="317.295" x2="589.023" y2="441.444" gradientUnits="userSpaceOnUse">
<stop stop-color="#97E835"/>
<stop offset="0.723233" stop-color="#46952B"/>
</linearGradient>
<linearGradient id="paint33_linear_2013_19" x1="622.851" y1="319.143" x2="628.872" y2="443.292" gradientUnits="userSpaceOnUse">
<stop stop-color="#97E835"/>
<stop offset="0.723233" stop-color="#46952B"/>
</linearGradient>
<linearGradient id="paint34_linear_2013_19" x1="660.863" y1="325.672" x2="666.885" y2="449.821" gradientUnits="userSpaceOnUse">
<stop stop-color="#97E835"/>
<stop offset="0.723233" stop-color="#46952B"/>
</linearGradient>
<linearGradient id="paint35_linear_2013_19" x1="697.94" y1="331.293" x2="703.961" y2="455.442" gradientUnits="userSpaceOnUse">
<stop stop-color="#97E835"/>
<stop offset="0.723233" stop-color="#46952B"/>
</linearGradient>
<linearGradient id="paint36_linear_2013_19" x1="528.669" y1="790.538" x2="530.948" y2="293.317" gradientUnits="userSpaceOnUse">
<stop stop-color="#B8FF00"/>
<stop offset="0.775856" stop-color="#FBFBFB"/>
</linearGradient>
<linearGradient id="paint37_linear_2013_19" x1="561.513" y1="428.795" x2="532.47" y2="489.866" gradientUnits="userSpaceOnUse">
<stop stop-color="#4F52FF"/>
<stop offset="1" stop-color="#1A0F91"/>
</linearGradient>
<linearGradient id="paint38_linear_2013_19" x1="493.25" y1="429.37" x2="521.906" y2="478.832" gradientUnits="userSpaceOnUse">
<stop stop-color="#4F52FF"/>
<stop offset="1" stop-color="#1A0F91"/>
</linearGradient>
<linearGradient id="paint39_linear_2013_19" x1="553.469" y1="444.188" x2="488.307" y2="609.648" gradientUnits="userSpaceOnUse">
<stop stop-color="#4F52FF"/>
<stop offset="1" stop-color="#1A0F91"/>
</linearGradient>
<linearGradient id="paint40_linear_2013_19" x1="497.901" y1="393.648" x2="449.434" y2="497.716" gradientUnits="userSpaceOnUse">
<stop stop-color="#F0B076"/>
<stop offset="1" stop-color="#D34A00"/>
</linearGradient>
<linearGradient id="paint41_linear_2013_19" x1="434.735" y1="395.969" x2="426.328" y2="492.023" gradientUnits="userSpaceOnUse">
<stop stop-color="#F0B076"/>
<stop offset="1" stop-color="#D34A00"/>
</linearGradient>
<linearGradient id="paint42_linear_2013_19" x1="480.405" y1="429.85" x2="406.572" y2="658.544" gradientUnits="userSpaceOnUse">
<stop stop-color="#F0B076"/>
<stop offset="0.528706" stop-color="#D34A00"/>
</linearGradient>
<linearGradient id="paint43_linear_2013_19" x1="270.353" y1="349.441" x2="299.896" y2="349.441" gradientUnits="userSpaceOnUse">
<stop stop-color="#46952B"/>
<stop offset="1" stop-color="#6FAA27"/>
</linearGradient>
<linearGradient id="paint44_linear_2013_19" x1="310.114" y1="491.765" x2="311.937" y2="575.357" gradientUnits="userSpaceOnUse">
<stop stop-color="#02010B"/>
<stop offset="1" stop-color="#161244"/>
</linearGradient>
<linearGradient id="paint45_linear_2013_19" x1="304.849" y1="577.698" x2="312.542" y2="577.698" gradientUnits="userSpaceOnUse">
<stop stop-color="#FF928E"/>
<stop offset="1" stop-color="#FEB3B1"/>
</linearGradient>
<linearGradient id="paint46_linear_2013_19" x1="286.607" y1="518.493" x2="312.043" y2="518.493" gradientUnits="userSpaceOnUse">
<stop stop-color="#09005D"/>
<stop offset="1" stop-color="#1A0F91"/>
</linearGradient>
<linearGradient id="paint47_linear_2013_19" x1="277.896" y1="507.009" x2="281.181" y2="578.266" gradientUnits="userSpaceOnUse">
<stop stop-color="#02010B"/>
<stop offset="1" stop-color="#161244"/>
</linearGradient>
<linearGradient id="paint48_linear_2013_19" x1="277.123" y1="577.3" x2="283.765" y2="577.3" gradientUnits="userSpaceOnUse">
<stop stop-color="#FF928E"/>
<stop offset="1" stop-color="#FEB3B1"/>
</linearGradient>
<linearGradient id="paint49_linear_2013_19" x1="269.964" y1="517.654" x2="306.076" y2="517.654" gradientUnits="userSpaceOnUse">
<stop stop-color="#09005D"/>
<stop offset="1" stop-color="#1A0F91"/>
</linearGradient>
<linearGradient id="paint50_linear_2013_19" x1="269.706" y1="445.507" x2="188.491" y2="523.314" gradientUnits="userSpaceOnUse">
<stop stop-color="#E85255"/>
<stop offset="1" stop-color="#FF4F4F"/>
</linearGradient>
<linearGradient id="paint51_linear_2013_19" x1="250.303" y1="425.255" x2="169.089" y2="503.062" gradientUnits="userSpaceOnUse">
<stop stop-color="#E85255"/>
<stop offset="1" stop-color="#FF4F4F"/>
</linearGradient>
<linearGradient id="paint52_linear_2013_19" x1="250.505" y1="431.725" x2="300.241" y2="431.725" gradientUnits="userSpaceOnUse">
<stop stop-color="#FF928E"/>
<stop offset="1" stop-color="#FEB3B1"/>
</linearGradient>
<linearGradient id="paint53_linear_2013_19" x1="297.826" y1="372.142" x2="292.717" y2="410.575" gradientUnits="userSpaceOnUse">
<stop stop-color="#FF928E"/>
<stop offset="1" stop-color="#FEB3B1"/>
</linearGradient>
<linearGradient id="paint54_linear_2013_19" x1="2721.33" y1="1411.47" x2="2696.2" y2="1400.74" gradientUnits="userSpaceOnUse">
<stop stop-color="#FF928E"/>
<stop offset="1" stop-color="#FEB3B1"/>
</linearGradient>
<linearGradient id="paint55_linear_2013_19" x1="2718.79" y1="1417.44" x2="2693.66" y2="1406.71" gradientUnits="userSpaceOnUse">
<stop stop-color="#FF928E"/>
<stop offset="1" stop-color="#FEB3B1"/>
</linearGradient>
<linearGradient id="paint56_linear_2013_19" x1="303.83" y1="412.762" x2="288.521" y2="457.85" gradientUnits="userSpaceOnUse">
<stop stop-color="#FF928E"/>
<stop offset="1" stop-color="#FEB3B1"/>
</linearGradient>
<linearGradient id="paint57_linear_2013_19" x1="726.956" y1="356.275" x2="721.204" y2="379.568" gradientUnits="userSpaceOnUse">
<stop stop-color="#93C01F"/>
<stop offset="1" stop-color="#46952B"/>
</linearGradient>
<linearGradient id="paint58_linear_2013_19" x1="691.536" y1="416.635" x2="650.067" y2="443.193" gradientUnits="userSpaceOnUse">
<stop stop-color="#E240D7"/>
<stop offset="1" stop-color="#E008B5"/>
</linearGradient>
<linearGradient id="paint59_linear_2013_19" x1="722.986" y1="456.297" x2="693.212" y2="461.277" gradientUnits="userSpaceOnUse">
<stop stop-color="#CB7A3D"/>
<stop offset="1" stop-color="#FCC49A"/>
</linearGradient>
<linearGradient id="paint60_linear_2013_19" x1="694.807" y1="599.721" x2="718.045" y2="599.721" gradientUnits="userSpaceOnUse">
<stop stop-color="#57239F"/>
<stop offset="1" stop-color="#9354E9"/>
</linearGradient>
<linearGradient id="paint61_linear_2013_19" x1="738.983" y1="456.323" x2="709.21" y2="461.305" gradientUnits="userSpaceOnUse">
<stop stop-color="#CB7A3D"/>
<stop offset="1" stop-color="#FCC49A"/>
</linearGradient>
<linearGradient id="paint62_linear_2013_19" x1="734.613" y1="476.943" x2="644.777" y2="577.886" gradientUnits="userSpaceOnUse">
<stop stop-color="#3D3D71"/>
<stop offset="1" stop-color="#4F52FF"/>
</linearGradient>
<linearGradient id="paint63_linear_2013_19" x1="708.598" y1="342.038" x2="726.31" y2="385.86" gradientUnits="userSpaceOnUse">
<stop/>
<stop offset="1" stop-color="#393840"/>
</linearGradient>
<linearGradient id="paint64_linear_2013_19" x1="710.826" y1="599.72" x2="734.079" y2="599.72" gradientUnits="userSpaceOnUse">
<stop stop-color="#57239F"/>
<stop offset="1" stop-color="#9354E9"/>
</linearGradient>
<linearGradient id="paint65_linear_2013_19" x1="725.364" y1="363.535" x2="706.669" y2="371.113" gradientUnits="userSpaceOnUse">
<stop stop-color="#CB7A3D"/>
<stop offset="1" stop-color="#FCC49A"/>
</linearGradient>
<linearGradient id="paint66_linear_2013_19" x1="726.262" y1="350.67" x2="703.584" y2="364.337" gradientUnits="userSpaceOnUse">
<stop stop-color="#CB7A3D"/>
<stop offset="1" stop-color="#FCC49A"/>
</linearGradient>
<linearGradient id="paint67_linear_2013_19" x1="702.328" y1="352.685" x2="724.75" y2="387.998" gradientUnits="userSpaceOnUse">
<stop/>
<stop offset="1" stop-color="#3A3940"/>
</linearGradient>
<linearGradient id="paint68_linear_2013_19" x1="766.596" y1="372.215" x2="710.787" y2="428.225" gradientUnits="userSpaceOnUse">
<stop stop-color="#CB7A3D"/>
<stop offset="0.966346" stop-color="#FCC49A"/>
</linearGradient>
<linearGradient id="paint69_linear_2013_19" x1="818.321" y1="326.812" x2="818.321" y2="350.152" gradientUnits="userSpaceOnUse">
<stop stop-color="#93C01F"/>
<stop offset="1" stop-color="#455A0F"/>
</linearGradient>
<linearGradient id="paint70_linear_2013_19" x1="880.401" y1="484.785" x2="886.061" y2="490.03" gradientUnits="userSpaceOnUse">
<stop stop-color="#A22B25"/>
<stop offset="1" stop-color="#C0423C"/>
</linearGradient>
<linearGradient id="paint71_linear_2013_19" x1="769.308" y1="307.683" x2="778.581" y2="400.078" gradientUnits="userSpaceOnUse">
<stop stop-color="#A22B25"/>
<stop offset="1" stop-color="#C0423C"/>
</linearGradient>
<linearGradient id="paint72_linear_2013_19" x1="770.815" y1="307.532" x2="780.087" y2="399.927" gradientUnits="userSpaceOnUse">
<stop stop-color="#A22B25"/>
<stop offset="1" stop-color="#C0423C"/>
</linearGradient>
<linearGradient id="paint73_linear_2013_19" x1="799.151" y1="562.116" x2="791.458" y2="562.116" gradientUnits="userSpaceOnUse">
<stop stop-color="#A22B25"/>
<stop offset="1" stop-color="#C0423C"/>
</linearGradient>
<linearGradient id="paint74_linear_2013_19" x1="790.573" y1="506.379" x2="892.995" y2="465.989" gradientUnits="userSpaceOnUse">
<stop stop-color="#070421"/>
<stop offset="1" stop-color="#6E6B96"/>
</linearGradient>
<linearGradient id="paint75_linear_2013_19" x1="787.316" y1="498.121" x2="889.738" y2="457.731" gradientUnits="userSpaceOnUse">
<stop stop-color="#070421"/>
<stop offset="1" stop-color="#6E6B96"/>
</linearGradient>
<linearGradient id="paint76_linear_2013_19" x1="847.591" y1="309.806" x2="838.318" y2="402.201" gradientUnits="userSpaceOnUse">
<stop stop-color="#A22B25"/>
<stop offset="1" stop-color="#C0423C"/>
</linearGradient>
<linearGradient id="paint77_linear_2013_19" x1="799.19" y1="369.667" x2="868.971" y2="482.267" gradientUnits="userSpaceOnUse">
<stop offset="0.169952" stop-color="white"/>
<stop offset="1" stop-color="#B8B8B8"/>
</linearGradient>
<linearGradient id="paint78_linear_2013_19" x1="808.751" y1="348.218" x2="814.59" y2="397.047" gradientUnits="userSpaceOnUse">
<stop stop-color="#A22B25"/>
<stop offset="1" stop-color="#C0423C"/>
</linearGradient>
<linearGradient id="paint79_linear_2013_19" x1="849.253" y1="-492.227" x2="847.633" y2="-457.64" gradientUnits="userSpaceOnUse">
<stop stop-color="#A22B25"/>
<stop offset="1" stop-color="#C0423C"/>
</linearGradient>
<linearGradient id="paint80_linear_2013_19" x1="858.007" y1="-491.816" x2="856.387" y2="-457.228" gradientUnits="userSpaceOnUse">
<stop stop-color="#A22B25"/>
<stop offset="1" stop-color="#C0423C"/>
</linearGradient>
<linearGradient id="paint81_linear_2013_19" x1="846.084" y1="309.655" x2="836.811" y2="402.05" gradientUnits="userSpaceOnUse">
<stop stop-color="#A22B25"/>
<stop offset="1" stop-color="#C0423C"/>
</linearGradient>
</defs>
</svg>
