<svg width="1081" height="633" viewBox="0 0 1081 633" fill="none" xmlns="http://www.w3.org/2000/svg">
<path d="M859.23 579.067C864.452 579.222 869.603 577.924 874.03 575.345C878.857 572.088 882.962 567.991 886.119 563.281L886.125 563.27L886.133 563.26L1012.61 387.667L1080.28 292.997L1012.57 199.017C990.298 168.277 968.245 137.64 946.412 107.105L880.667 15.1972L880.654 15.1797L880.642 15.1611C874.631 5.69197 867.093 1.08201 857.932 1.08201L737.948 1.08203C734.925 1.08204 732.804 1.56764 731.461 2.42285C730.187 3.23464 729.545 4.42113 729.537 6.09961C729.657 7.48546 729.934 8.8559 730.363 10.1885L730.381 10.2461L730.39 10.3057C730.57 11.4253 730.951 12.5106 731.517 13.5156C734.308 17.6994 737.061 21.9239 739.732 26.2275C742.39 30.5105 745.417 34.8323 748.463 39.2598L748.462 39.2607L931.675 292.529L932.011 292.993L931.677 293.458C898.038 340.309 864.727 386.622 831.745 432.396C798.763 478.171 767.561 521.5 738.14 562.382L738.13 562.396L736.076 565.123L736.072 565.128L735.715 565.609C734.091 567.878 733.008 570.444 732.539 573.132L732.448 573.709C732.397 574.193 732.452 574.682 732.611 575.147C732.772 575.62 733.037 576.06 733.394 576.438C733.751 576.817 734.191 577.125 734.688 577.341C735.185 577.556 735.727 577.674 736.279 577.685L736.324 577.686L736.368 577.691L746.752 579.067L859.23 579.067Z" stroke="url(#paint0_linear_2007_1998)" stroke-width="1.58791"/>
<path d="M221.712 579.068C216.49 579.223 211.34 577.925 206.913 575.346C202.085 572.089 197.981 567.992 194.824 563.282L194.817 563.271L194.809 563.261L68.3325 387.668L0.661582 292.998L68.3725 199.018C90.6444 168.278 112.697 137.641 134.531 107.106L200.275 15.1982L200.289 15.1806L200.3 15.1621C206.312 5.69295 213.849 1.08298 223.01 1.08299L342.995 1.08301C346.018 1.08302 348.138 1.56862 349.481 2.42383C350.755 3.23561 351.398 4.42211 351.405 6.10059C351.285 7.48644 351.008 8.85687 350.58 10.1895L350.561 10.2471L350.552 10.3066C350.372 11.4263 349.992 12.5116 349.425 13.5166C346.634 17.7004 343.881 21.9249 341.21 26.2285C338.552 30.5115 335.526 34.8333 332.479 39.2607L332.48 39.2617L149.267 292.53L148.931 292.994L149.265 293.459C182.905 340.31 216.216 386.623 249.198 432.397C282.18 478.172 313.381 521.501 342.802 562.383L342.812 562.396L344.867 565.124L344.871 565.129L345.227 565.61C346.852 567.879 347.934 570.445 348.404 573.133L348.495 573.71C348.546 574.194 348.49 574.683 348.331 575.148C348.17 575.621 347.905 576.061 347.548 576.439C347.191 576.818 346.751 577.126 346.254 577.342C345.757 577.557 345.215 577.675 344.663 577.686L344.619 577.687L344.575 577.692L334.19 579.068L221.712 579.068Z" stroke="url(#paint1_linear_2007_1998)" stroke-width="1.58791"/>
<rect x="266" y="553" width="535" height="42" fill="#43A725"/>
<rect x="238" y="560" width="609" height="42" fill="#43A725"/>
<rect x="218" y="566" width="609" height="42" fill="#43A725"/>
<rect x="148" y="581" width="609" height="42" fill="#43A725"/>
<rect x="201" y="570" width="609" height="42" fill="#43A725"/>
<rect x="317" y="581" width="609" height="42" fill="#43A725"/>
<rect x="293" y="573" width="609" height="42" fill="#43A725"/>
<rect x="95" y="594" width="609" height="42" fill="#43A725"/>
<rect x="78" y="597" width="599" height="42" fill="#43A725"/>
<rect x="39" y="609" width="46" height="42" fill="#43A725"/>
<rect x="27" y="615" width="46" height="21" fill="#43A725"/>
<rect x="947" y="596" width="46" height="21" fill="#43A725"/>
<rect x="4" y="623" width="46" height="21" fill="#43A725"/>
<rect x="62" y="602" width="609" height="42" fill="#43A725"/>
<rect x="259" y="567" width="609" height="42" fill="#43A725"/>
<rect x="172" y="574" width="609" height="42" fill="#43A725"/>
<rect x="115" y="587" width="845" height="62" fill="#43A725"/>
<rect x="146" y="578" width="55" height="16" fill="#43A725"/>
<rect x="956" y="613" width="46" height="21" fill="#43A725"/>
<rect x="973" y="605" width="46" height="21" fill="#43A725"/>
<rect x="988" y="614" width="46" height="21" fill="#43A725"/>
<rect x="1009" y="618" width="46" height="14" fill="#43A725"/>
<rect x="1058" y="623" width="11" height="9" fill="#43A725"/>
<rect x="1070" y="628" width="11" height="4" fill="#43A725"/>
<rect x="1014" y="618" width="46" height="14" fill="#43A725"/>
<path d="M-9.82587 626.335C154.536 562.588 343.988 528.878 537.221 528.997C730.453 529.115 919.8 563.057 1083.96 627.004L1075.89 635.162C914.147 572.157 727.591 538.715 537.206 538.598C346.821 538.482 160.161 571.695 -1.77835 634.502L-9.82587 626.335Z" fill="#43A725"/>
<g filter="url(#filter0_f_2007_1998)">
<ellipse cx="534.664" cy="386.953" rx="299.86" ry="289.94" fill="#93C01F" fill-opacity="0.1"/>
</g>
<path d="M715.852 496.944C715.671 496.924 715.537 496.799 715.52 496.614C715.504 496.428 715.633 496.258 715.859 496.209C720.577 495.766 724.902 493.184 728.056 488.856C732.023 483.478 733.624 476.187 732.256 469.824C729.541 457.248 718.717 448.571 710.15 443.485C705.521 440.739 700.591 438.402 695.838 436.12C690.034 433.357 684.024 430.461 678.525 426.922C665.784 418.625 656.604 407.001 652.669 394.145C647.92 378.627 650.681 360.321 660.184 343.924C667.785 330.814 679.185 318.962 696.106 306.716C697.702 305.566 699.338 304.383 700.97 303.237C708.578 297.849 716.425 292.303 722.329 285.002C732.016 273.001 732.196 260.849 729.139 253.457C729.049 253.264 729.146 253.054 729.335 253.001C729.529 252.911 729.739 253.008 729.792 253.197C732.939 260.783 732.764 273.229 722.867 285.465C716.918 292.835 708.992 298.446 701.347 303.829C699.715 304.976 698.119 306.126 696.487 307.273C679.679 319.493 668.327 331.24 660.77 344.282C651.359 360.505 648.655 378.633 653.314 393.958C657.193 406.661 666.28 418.128 678.883 426.336C684.345 429.871 690.323 432.727 696.09 435.486C700.88 437.771 705.807 440.145 710.472 442.895C719.18 448.033 730.17 456.875 732.93 469.713C734.351 476.266 732.69 483.771 728.594 489.319C725.315 493.78 720.792 496.488 715.889 496.948C715.889 496.948 715.889 496.948 715.852 496.944Z" fill="#57239F"/>
<path d="M762.445 145.544C771.657 196.978 758.643 248.229 721.539 254.882C684.398 261.535 637.205 220.995 627.993 169.598C618.781 118.164 651.096 75.3206 688.237 68.6675C725.341 62.0143 753.233 94.1102 762.445 145.544Z" fill="url(#paint2_linear_2007_1998)"/>
<path opacity="0.36" d="M658.919 103.943C666.303 96.7416 666.559 101.092 663.305 120.21C660.052 139.329 658.37 171.534 649.597 167.915C640.787 164.333 639.325 123.025 658.919 103.943Z" fill="white"/>
<path opacity="0.36" d="M664.293 183.854C664.914 187.436 662.538 190.836 658.992 191.494C655.41 192.115 652.01 189.739 651.352 186.193C650.73 182.611 653.107 179.211 656.652 178.553C660.235 177.932 663.671 180.308 664.293 183.854Z" fill="white"/>
<path d="M841.003 232.29C827.77 276.815 797.027 312.347 764.895 302.806C732.762 293.265 711.45 242.27 724.647 197.781C737.843 153.293 780.613 132.127 812.709 141.669C844.842 151.21 854.2 187.802 841.003 232.29Z" fill="#14AEEA"/>
<path opacity="0.36" d="M775.386 158.008C784.123 155.229 782.587 158.812 772.388 172.703C762.189 186.594 748.006 211.489 742.449 205.128C736.893 198.694 752.209 165.319 775.386 158.008Z" fill="white"/>
<path opacity="0.36" d="M747.786 223.589C746.872 226.696 743.619 228.451 740.512 227.537C737.405 226.623 735.65 223.37 736.564 220.262C737.478 217.155 740.731 215.401 743.838 216.314C746.946 217.228 748.7 220.482 747.786 223.589Z" fill="white"/>
<path d="M774.923 303.062C774.813 302.966 774.682 302.95 774.555 302.985C774.38 303.075 774.291 303.288 774.354 303.439C777.502 311.018 773.402 319.805 767.699 324.583C761.335 329.901 752.951 331.914 745.627 333.152C743.936 333.426 742.221 333.728 740.502 333.978C734.298 334.931 727.915 335.922 721.991 338.281C708.354 343.72 697.253 356.883 692.275 373.479C687.216 390.392 688.793 408.471 690.42 420.588C690.589 421.898 690.783 423.18 690.976 424.462C692.016 431.903 693.126 439.599 692.226 447.099C691.032 457.055 686.159 465.171 679.136 468.85C678.961 468.94 678.9 469.177 678.99 469.353C679.08 469.528 679.317 469.589 679.492 469.499C686.715 465.702 691.728 457.369 692.959 447.203C693.851 439.6 692.766 431.877 691.695 424.36C691.501 423.078 691.332 421.768 691.138 420.486C689.515 408.421 687.945 390.444 692.964 373.69C697.905 357.304 708.861 344.306 722.296 338.933C728.145 336.606 734.503 335.642 740.656 334.693C742.374 334.443 744.065 334.169 745.78 333.867C753.231 332.594 761.691 330.55 768.203 325.118C774.077 320.198 778.334 311.063 775.061 303.182C774.979 303.11 774.951 303.086 774.923 303.062Z" fill="#D16D4E"/>
<path d="M860.961 158.624C859.645 156.467 858.073 154.566 856.428 152.702C855.624 151.752 854.71 150.911 853.833 150.033C852.955 149.193 852.005 148.352 851.091 147.548C847.326 144.331 843.195 141.552 838.808 139.213C834.422 136.873 829.889 134.899 825.136 133.401C820.457 131.792 815.595 130.769 810.697 129.855C800.937 128.21 790.957 127.917 781.087 128.539C778.601 128.612 776.152 128.941 773.703 129.16L770.01 129.526C768.768 129.635 767.561 129.891 766.355 130.074C763.906 130.476 761.456 130.805 759.044 131.244L751.769 132.779C749.32 133.254 746.944 133.912 744.568 134.497C742.192 135.119 739.779 135.704 737.403 136.398L730.311 138.555L726.765 139.652C725.595 140.017 724.426 140.456 723.256 140.858C718.613 142.539 713.898 144.075 709.365 145.976L702.492 148.717L700.774 149.412L699.092 150.143L695.693 151.642L688.93 154.639L687.248 155.371L685.567 156.175L682.24 157.783L675.587 161C674.49 161.548 673.357 162.06 672.261 162.609L668.971 164.327L662.427 167.763L659.137 169.481L657.492 170.358L655.884 171.272L642.979 178.547C609.092 198.433 573.487 215.358 536.785 229.359C518.434 236.341 499.791 242.629 480.928 248.039C471.497 250.781 462.029 253.303 452.488 255.606C442.947 257.909 433.369 260.029 423.719 261.821C414.068 263.648 404.381 265.184 394.657 266.463C384.933 267.743 375.173 268.693 365.376 269.278C345.818 270.484 326.151 270.302 306.74 267.852C287.366 265.403 268.174 260.578 250.664 251.951C241.927 247.637 233.775 242.227 226.501 235.793C225.55 235.025 224.709 234.148 223.832 233.307C222.955 232.466 222.077 231.626 221.237 230.748L218.787 228.043L217.581 226.691C217.179 226.215 216.813 225.74 216.448 225.265L214.181 222.414C213.45 221.463 212.792 220.44 212.061 219.453C210.599 217.515 209.429 215.395 208.15 213.311C207.492 212.288 206.98 211.191 206.395 210.131C205.847 209.071 205.262 207.974 204.713 206.914L203.251 203.587C202.739 202.491 202.264 201.358 201.862 200.224C201.021 197.958 200.107 195.691 199.486 193.352L198.426 189.843L197.585 186.297C197.329 185.127 196.964 183.92 196.781 182.751L196.123 179.168C195.648 176.792 195.392 174.343 195.063 171.93C194.551 167.068 194.149 162.206 194.112 157.345C194.076 152.483 194.332 147.584 194.88 142.759C195.465 137.933 196.415 133.145 197.731 128.466C200.363 119.107 204.64 110.224 210.416 102.401C213.304 98.4899 216.557 94.8709 220.14 91.5443C223.722 88.2177 227.561 85.2202 231.618 82.515C235.676 79.8099 239.953 77.4338 244.376 75.3501C248.8 73.2665 253.369 71.4752 258.012 69.9764C267.333 66.9423 276.984 65.0049 286.744 64.1641C291.643 63.762 296.541 63.6158 301.403 63.9448C303.852 64.091 306.265 64.3469 308.678 64.8221C309.884 65.0414 311.054 65.3339 312.187 65.736C313.32 66.1015 314.454 66.6133 315.367 67.3079L315.843 66.7595C314.819 65.9188 313.649 65.407 312.48 65.0049C311.31 64.6028 310.103 64.2738 308.861 64.0179C306.411 63.5061 303.962 63.2136 301.476 63.0309C296.541 62.6653 291.57 62.7384 286.671 63.104C276.801 63.8351 267.041 65.736 257.609 68.697C252.894 70.1958 248.251 71.9504 243.755 74.0341C239.259 76.1178 234.908 78.4939 230.741 81.199C226.574 83.9042 222.626 86.9383 218.934 90.3014C215.278 93.6645 211.915 97.3567 208.917 101.341C202.886 109.274 198.426 118.376 195.684 127.954C194.295 132.743 193.308 137.641 192.687 142.576C192.065 147.511 191.809 152.483 191.809 157.454C191.809 162.426 192.175 167.361 192.687 172.296C193.016 174.745 193.271 177.231 193.71 179.68L194.332 183.336C194.514 184.579 194.88 185.748 195.136 186.991L195.977 190.61L197.037 194.193C197.695 196.605 198.609 198.908 199.449 201.248C199.851 202.418 200.363 203.551 200.875 204.721L202.374 208.157C202.922 209.29 203.507 210.387 204.092 211.483C204.677 212.58 205.189 213.713 205.883 214.774C207.163 216.894 208.406 219.087 209.868 221.098C210.599 222.121 211.257 223.181 212.025 224.168L214.328 227.093C214.73 227.568 215.095 228.08 215.497 228.555L216.74 229.944L219.226 232.722C220.103 233.6 221.017 234.477 221.895 235.354C222.772 236.232 223.649 237.109 224.6 237.913C232.057 244.566 240.392 250.159 249.311 254.619C258.231 259.079 267.589 262.515 277.167 265.147C286.744 267.779 296.505 269.644 306.302 270.923C325.969 273.445 345.818 273.628 365.558 272.458C375.428 271.873 385.262 270.923 395.059 269.68C404.856 268.401 414.616 266.865 424.303 265.038C434.027 263.246 443.641 261.163 453.255 258.86C462.87 256.557 472.411 254.071 481.879 251.293C500.814 245.809 519.531 239.449 537.955 232.393C574.767 218.246 610.518 201.175 644.478 181.106L657.273 173.795L658.881 172.881L660.49 172.003L663.743 170.285L670.25 166.812L673.503 165.094C674.6 164.509 675.697 163.998 676.793 163.449L683.41 160.196L686.7 158.587L688.345 157.783L690.027 157.016L696.753 153.981L700.116 152.483L701.798 151.715L703.516 151.02L710.315 148.242C714.811 146.305 719.491 144.769 724.097 143.051C725.266 142.649 726.4 142.21 727.569 141.808L731.079 140.712L738.097 138.518C740.437 137.824 742.813 137.239 745.189 136.581C747.565 135.959 749.905 135.301 752.318 134.826L759.482 133.254C761.895 132.816 764.308 132.45 766.72 132.011C767.927 131.829 769.133 131.573 770.34 131.427L773.995 131.024C776.444 130.769 778.857 130.403 781.306 130.33C791.067 129.599 800.9 129.782 810.551 131.317C815.376 132.121 820.165 133.108 824.807 134.643C829.487 136.033 834.019 137.97 838.333 140.2C842.683 142.43 846.777 145.098 850.543 148.242C851.457 149.046 852.407 149.851 853.284 150.655C854.162 151.496 855.076 152.336 855.88 153.25C857.561 155.005 859.133 156.906 860.413 158.953L860.961 158.624Z" fill="#208B00"/>
<path d="M834.019 140.018C834.019 140.018 834.604 168.057 828.17 187.285C827.476 189.405 824.698 189.917 823.272 188.199C814.937 178.183 792.675 150.291 789.166 134.645C789.166 134.645 809.344 129.819 834.019 140.018Z" fill="#B8EE2B"/>
<path d="M774.909 133.035C774.909 133.035 780.355 165.57 769.645 191.378C768.804 193.389 766.245 193.937 764.673 192.438C756.594 184.762 735.246 163.34 727.021 143.783C727.057 143.783 756.741 134.973 774.909 133.035Z" fill="#43A725"/>
<path d="M718.686 147.219C718.686 147.219 723.183 177.852 714.665 203.112C713.788 205.671 710.717 206.731 708.451 205.233C700.701 200.188 684.507 187.723 674.271 166.301C674.271 166.337 697.557 154.018 718.686 147.219Z" fill="#B7EE2B"/>
<path d="M670.14 168.421C670.14 168.421 674.855 200.444 664.51 218.1C663.487 219.891 661.147 220.403 659.465 219.197C653.543 214.993 639.981 204.648 630.769 191.926C630.769 191.926 662.609 172.479 670.14 168.421Z" fill="#43A725"/>
<path d="M624.702 195.766C624.702 195.766 632.305 226.326 622.728 243.946C621.741 245.737 619.474 246.322 617.793 245.225C610.445 240.51 591.472 227.532 585.441 214.848C585.441 214.848 618.633 199.604 624.702 195.766Z" fill="#B8EE2B"/>
<path d="M579.263 217.955L541.72 233.82C541.72 233.82 560.948 262.845 573.999 268.511C575.351 269.096 576.923 268.402 577.435 267.013C579.811 260.871 585.258 242.63 579.263 217.955Z" fill="url(#paint3_linear_2007_1998)"/>
<path d="M536.163 236.123C536.163 236.123 506.772 247.089 498.218 249.1C498.218 249.1 507.174 272.313 519.713 282.658C521.65 284.267 524.575 283.791 525.891 281.671C530.35 274.396 539.197 256.923 536.163 236.123Z" fill="url(#paint4_linear_2007_1998)"/>
<path d="M492.406 249.94C492.406 249.94 465.063 259.883 457.13 261.053C457.13 261.053 469.632 286.715 481.513 300.971C482.39 302.032 484.108 301.958 484.876 300.789C488.604 295.159 497.232 278.563 492.406 249.94Z" fill="url(#paint5_linear_2007_1998)"/>
<path d="M453.511 261.602C453.511 261.602 427.081 267.707 415.42 268.694C415.42 268.694 425.363 299.986 440.314 307.297C441.594 307.918 443.129 307.406 443.787 306.127C447.04 300.022 455.814 281.233 453.511 261.602Z" fill="url(#paint6_linear_2007_1998)"/>
<path d="M411.838 269.206C411.838 269.206 385.298 274.58 376.415 274.434C376.415 274.434 388.15 303.678 399.811 312.817C401.748 314.353 404.563 313.987 406.098 312.05C409.754 307.553 414.799 296.258 411.838 269.206Z" fill="#B8EE2B"/>
<path d="M369.908 275.382C369.908 275.382 345.014 276.845 337.593 276.443C337.593 276.443 339.348 297.279 353.97 313.035C355.542 314.716 358.174 314.753 359.782 313.144C364.242 308.648 371.626 297.681 369.908 275.382Z" fill="#43A725"/>
<path d="M330.867 275.968C330.867 275.968 310.103 275.347 299.356 272.495C299.356 272.495 297.674 295.854 309.628 308.576C311.273 310.33 313.978 310.659 316.025 309.343C321.216 305.98 330.318 297.061 330.867 275.968Z" fill="#B8EE2B"/>
<path d="M294.822 271.692C294.822 271.692 273.218 270.449 265.87 265.623C265.87 265.623 263.458 290.043 273.949 304.848C274.826 306.091 276.618 306.31 277.787 305.286C281.918 301.485 290.984 291.322 294.822 271.692Z" fill="#43A725"/>
<path d="M261.228 264.088C261.228 264.088 235.457 254.583 225.002 243.58C225.002 243.58 213.669 272.093 225.806 293.588C226.281 294.465 227.305 294.867 228.255 294.612C233.921 292.967 253.186 285.911 261.228 264.088Z" fill="#B8EE2B"/>
<path d="M197.767 209.181C197.767 209.181 207.455 229.908 218.348 238.645C218.348 238.645 203.287 258.934 185.083 263.978C183.511 264.417 181.866 263.466 181.5 261.858C179.892 254.62 177.771 234.003 197.767 209.181Z" fill="#43A725"/>
<path d="M187.312 158.333C187.312 158.333 186.399 182.094 194.222 205.307C194.222 205.307 180.111 211.667 171.63 222.524C169.546 225.193 165.233 223.584 165.416 220.221C166.074 206.55 170.241 183.922 187.312 158.333Z" fill="#B8EE2B"/>
<path d="M586.794 220.881H543.732V172.226C543.732 168.132 546.62 164.622 550.604 163.855C558.61 162.319 566.616 162.319 574.621 163.964C578.204 164.695 580.872 167.729 581.275 171.348L586.794 220.881Z" fill="#FFC84E"/>
<path d="M559.597 103.501C558.72 102.331 556.928 102.587 556.38 103.94C553.821 110.264 547.716 124.923 542.964 133.221C536.823 144.005 540.003 160.565 562.192 157.823C594.8 153.838 567.53 114.139 559.597 103.501Z" fill="url(#paint7_linear_2007_1998)"/>
<path opacity="0.53" d="M559.378 123.279C558.83 122.584 557.733 122.73 557.404 123.535C555.832 127.373 552.103 136.329 549.216 141.374C545.45 147.954 547.424 158.043 560.95 156.398C580.836 153.949 564.203 129.749 559.378 123.279Z" fill="url(#paint8_linear_2007_1998)"/>
<path d="M557.587 150.877L559.012 167.144C559.085 168.094 559.89 168.899 560.84 168.899H560.877C562.01 168.899 562.887 167.875 562.777 166.742C562.156 161.222 560.145 145.137 557.587 150.877Z" fill="#A4A4A4"/>
<path d="M431.141 224.976L474.167 222.965L471.901 174.346C471.718 170.289 468.684 166.889 464.626 166.304C456.547 165.171 448.578 165.5 440.646 167.547C437.1 168.461 434.577 171.605 434.322 175.26L431.141 224.976Z" fill="#FFC84E"/>
<path d="M452.855 106.461C453.659 105.255 455.487 105.401 456.072 106.717C458.923 112.895 465.723 127.262 470.841 135.34C477.494 145.795 475.081 162.501 452.782 160.82C420.028 158.371 445.398 117.428 452.855 106.461Z" fill="url(#paint9_linear_2007_1998)"/>
<path opacity="0.53" d="M453.988 126.202C454.5 125.471 455.596 125.58 455.962 126.348C457.717 130.113 461.847 138.887 464.955 143.785C469.012 150.182 467.55 160.345 453.951 159.321C433.955 157.859 449.455 132.892 453.988 126.202Z" fill="url(#paint10_linear_2007_1998)"/>
<path d="M457.059 153.692L456.401 169.996C456.365 170.946 455.633 171.787 454.646 171.86H454.61C453.477 171.933 452.526 170.946 452.599 169.813C452.965 164.257 454.244 148.063 457.059 153.692Z" fill="#A4A4A4"/>
<path d="M536.055 218.577H489.118L492.956 169.885C492.956 165.791 495.844 162.281 499.829 161.514C507.834 159.978 515.84 159.978 523.846 161.623C527.428 162.355 530.097 165.389 530.499 169.008L536.055 218.577Z" fill="#FFC84E"/>
<path d="M508.821 101.197C507.944 100.027 506.152 100.283 505.604 101.636C503.045 107.96 496.94 122.619 492.188 130.917C486.047 141.701 489.227 158.26 511.416 155.519C544.024 151.498 516.754 111.835 508.821 101.197Z" fill="url(#paint11_linear_2007_1998)"/>
<path opacity="0.53" d="M508.601 120.975C508.053 120.28 506.956 120.426 506.627 121.231C505.055 125.069 501.327 134.025 498.439 139.07C494.674 145.65 496.648 155.739 510.173 154.094C530.059 151.645 513.427 127.445 508.601 120.975Z" fill="url(#paint12_linear_2007_1998)"/>
<path d="M506.811 148.573L508.236 164.84C508.309 165.79 509.114 166.595 510.064 166.595H510.101C511.234 166.595 512.111 165.571 512.001 164.438C511.417 158.918 509.369 142.833 506.811 148.573Z" fill="#A4A4A4"/>
<path d="M401.932 357.563L402.517 239.086C402.553 230.24 407.891 222.234 416.042 218.871C443.167 207.648 510.173 188.42 608.069 216.97C616.733 219.492 622.984 227.096 623.825 236.089L634.901 354.968L401.932 357.563Z" fill="url(#paint13_linear_2007_1998)"/>
<path d="M411.108 260.69C419.772 258.424 419.552 237.112 424.195 237.112C436.624 237.112 422.842 278.785 441.23 276.372C456.291 274.398 442.107 244.386 454.317 239.707C459.654 237.66 467.367 241.06 471.352 246.251C481.99 260.069 462.798 282.075 472.01 292.713C478.48 300.207 496.539 299.293 502.132 291.397C509.882 280.394 489.52 261.494 497.562 249.504C502.936 241.498 518.765 240 523.736 245.593C529.548 252.099 518.07 265.479 524.394 273.082C529 278.602 541.1 278.785 545.341 273.74C550.678 267.38 541.575 255.134 546.657 250.82C549.654 248.298 555.686 250.125 559.085 252.794C565.41 257.766 557.148 268.44 562.375 274.398C566.104 278.675 574.951 279.37 578.752 275.714C584.93 269.756 575.828 254.073 580.068 251.515C582.737 249.906 589.536 254.11 593.813 260.032C604.159 274.435 594.362 292.165 602.331 297.355C606.315 299.951 613.627 298.635 617.392 294.723C628.541 283.172 606.681 251.295 614.76 244.971C616.039 243.948 618.415 243.363 623.241 245.154C626.202 246.251 629.309 243.874 629.017 240.731L628.541 235.613C627.518 224.683 619.914 215.544 609.35 212.51C575.06 202.53 541.392 197.449 509.26 197.449C465.137 197.449 433.334 206.77 414.398 214.63C404.491 218.724 398.094 228.302 398.021 239.049L397.985 247.091C397.948 252.538 400.982 257.619 405.917 259.959C407.672 260.836 409.427 261.129 411.108 260.69Z" fill="url(#paint14_linear_2007_1998)"/>
<path d="M396.924 348.571C405.404 348.571 412.278 341.697 412.278 333.217C412.278 324.738 405.404 317.864 396.924 317.864C388.445 317.864 381.571 324.738 381.571 333.217C381.571 341.697 388.445 348.571 396.924 348.571Z" fill="url(#paint15_linear_2007_1998)"/>
<path d="M422.733 339.981C431.212 339.981 438.086 333.107 438.086 324.628C438.086 316.148 431.212 309.274 422.733 309.274C414.253 309.274 407.379 316.148 407.379 324.628C407.379 333.107 414.253 339.981 422.733 339.981Z" fill="url(#paint16_linear_2007_1998)"/>
<path d="M450.368 336.91C458.848 336.91 465.722 330.036 465.722 321.557C465.722 313.077 458.848 306.203 450.368 306.203C441.889 306.203 435.015 313.077 435.015 321.557C435.015 330.036 441.889 336.91 450.368 336.91Z" fill="url(#paint17_linear_2007_1998)"/>
<path d="M478.589 334.461C487.069 334.461 493.943 327.587 493.943 319.108C493.943 310.628 487.069 303.754 478.589 303.754C470.11 303.754 463.236 310.628 463.236 319.108C463.236 327.587 470.11 334.461 478.589 334.461Z" fill="url(#paint18_linear_2007_1998)"/>
<path d="M506.226 332.012C514.705 332.012 521.579 325.138 521.579 316.659C521.579 308.179 514.705 301.305 506.226 301.305C497.747 301.305 490.873 308.179 490.873 316.659C490.873 325.138 497.747 332.012 506.226 332.012Z" fill="url(#paint19_linear_2007_1998)"/>
<path d="M534.446 332.012C542.926 332.012 549.8 325.138 549.8 316.659C549.8 308.179 542.926 301.305 534.446 301.305C525.967 301.305 519.093 308.179 519.093 316.659C519.093 325.138 525.967 332.012 534.446 332.012Z" fill="url(#paint20_linear_2007_1998)"/>
<path d="M562.083 333.218C570.562 333.218 577.436 326.344 577.436 317.865C577.436 309.385 570.562 302.511 562.083 302.511C553.603 302.511 546.729 309.385 546.729 317.865C546.729 326.344 553.603 333.218 562.083 333.218Z" fill="url(#paint21_linear_2007_1998)"/>
<path d="M588.476 334.461C596.955 334.461 603.829 327.587 603.829 319.108C603.829 310.628 596.955 303.754 588.476 303.754C579.996 303.754 573.122 310.628 573.122 319.108C573.122 327.587 579.996 334.461 588.476 334.461Z" fill="url(#paint22_linear_2007_1998)"/>
<path d="M613.663 338.738C622.143 338.738 629.017 331.864 629.017 323.385C629.017 314.905 622.143 308.031 613.663 308.031C605.184 308.031 598.31 314.905 598.31 323.385C598.31 331.864 605.184 338.738 613.663 338.738Z" fill="url(#paint23_linear_2007_1998)"/>
<path d="M638.228 342.43C646.707 342.43 653.581 335.556 653.581 327.077C653.581 318.597 646.707 311.723 638.228 311.723C629.748 311.723 622.874 318.597 622.874 327.077C622.874 335.556 629.748 342.43 638.228 342.43Z" fill="url(#paint24_linear_2007_1998)"/>
<path d="M366.4 419.014C366.693 394.888 367.534 388.637 369.617 360.891C370.312 351.752 376.38 343.892 385.044 340.895C423.61 327.516 536.567 295.31 648.172 331.354C656.689 334.096 662.867 341.48 664 350.363L677.782 417.223C678.951 426.326 671.86 434.368 662.721 434.368H381.608C373.127 434.404 366.291 427.495 366.4 419.014Z" fill="url(#paint25_linear_2007_1998)"/>
<path d="M337.23 439.888C350.211 439.888 360.735 429.364 360.735 416.383C360.735 403.401 350.211 392.878 337.23 392.878C324.248 392.878 313.724 403.401 313.724 416.383C313.724 429.364 324.248 439.888 337.23 439.888Z" fill="url(#paint26_linear_2007_1998)"/>
<path d="M376.746 426.727C389.728 426.727 400.251 416.203 400.251 403.222C400.251 390.24 389.728 379.716 376.746 379.716C363.764 379.716 353.241 390.24 353.241 403.222C353.241 416.203 363.764 426.727 376.746 426.727Z" fill="url(#paint27_linear_2007_1998)"/>
<path d="M419.041 422.011C432.023 422.011 442.546 411.488 442.546 398.506C442.546 385.525 432.023 375.001 419.041 375.001C406.059 375.001 395.536 385.525 395.536 398.506C395.536 411.488 406.059 422.011 419.041 422.011Z" fill="url(#paint28_linear_2007_1998)"/>
<path d="M462.286 418.246C475.268 418.246 485.791 407.722 485.791 394.741C485.791 381.759 475.268 371.235 462.286 371.235C449.304 371.235 438.781 381.759 438.781 394.741C438.781 407.722 449.304 418.246 462.286 418.246Z" fill="url(#paint29_linear_2007_1998)"/>
<path d="M504.618 414.481C517.599 414.481 528.123 403.957 528.123 390.975C528.123 377.994 517.599 367.47 504.618 367.47C491.636 367.47 481.112 377.994 481.112 390.975C481.112 403.957 491.636 414.481 504.618 414.481Z" fill="url(#paint30_linear_2007_1998)"/>
<path d="M547.863 414.481C560.844 414.481 571.368 403.957 571.368 390.975C571.368 377.994 560.844 367.47 547.863 367.47C534.881 367.47 524.358 377.994 524.358 390.975C524.358 403.957 534.881 414.481 547.863 414.481Z" fill="url(#paint31_linear_2007_1998)"/>
<path d="M590.159 416.383C603.14 416.383 613.664 405.859 613.664 392.877C613.664 379.896 603.14 369.372 590.159 369.372C577.177 369.372 566.653 379.896 566.653 392.877C566.653 405.859 577.177 416.383 590.159 416.383Z" fill="url(#paint32_linear_2007_1998)"/>
<path d="M630.588 418.246C643.57 418.246 654.094 407.722 654.094 394.741C654.094 381.759 643.57 371.235 630.588 371.235C617.607 371.235 607.083 381.759 607.083 394.741C607.083 407.722 617.607 418.246 630.588 418.246Z" fill="url(#paint33_linear_2007_1998)"/>
<path d="M669.155 424.827C682.136 424.827 692.66 414.303 692.66 401.321C692.66 388.34 682.136 377.816 669.155 377.816C656.173 377.816 645.649 388.34 645.649 401.321C645.649 414.303 656.173 424.827 669.155 424.827Z" fill="url(#paint34_linear_2007_1998)"/>
<path d="M706.771 430.492C719.753 430.492 730.276 419.969 730.276 406.987C730.276 394.005 719.753 383.482 706.771 383.482C693.789 383.482 683.266 394.005 683.266 406.987C683.266 419.969 693.789 430.492 706.771 430.492Z" fill="url(#paint35_linear_2007_1998)"/>
<path d="M290.474 547.762C290.949 510.804 292.192 501.227 295.409 458.749C296.469 444.748 305.754 432.758 319.024 428.152C378.098 407.644 551.08 358.33 721.977 413.566C734.991 417.77 744.459 429.102 746.214 442.664L767.343 545.093C769.134 559.021 758.277 571.34 744.276 571.34H313.724C300.746 571.34 290.291 560.739 290.474 547.762Z" fill="url(#paint36_linear_2007_1998)"/>
<path d="M519.202 474.644C519.202 474.644 529.876 426.574 544.426 432.678C558.975 438.783 557.037 450.152 561.863 453.661C566.725 457.171 584.162 482.504 519.202 474.644Z" fill="url(#paint37_linear_2007_1998)"/>
<path d="M521.14 474.644C521.14 474.644 526.002 425.696 510.466 426.573C494.966 427.451 499.791 448.434 486.229 449.311C472.667 450.152 466.855 478.153 521.14 474.644Z" fill="url(#paint38_linear_2007_1998)"/>
<path d="M485.06 590.051H549.617C557.074 590.051 563.289 584.896 563.91 578.17L572.208 486.891C572.903 479.36 566.286 472.89 557.915 472.89H485.06C477.127 472.89 470.73 478.666 470.73 485.83V577.11C470.73 584.275 477.163 590.051 485.06 590.051Z" fill="#3B7FD1"/>
<path d="M510.466 590.051H532.765V472.89H510.466V590.051Z" fill="url(#paint39_linear_2007_1998)"/>
<path d="M436.952 500.341C436.952 500.341 447.627 452.271 462.176 458.375C476.725 464.48 474.788 475.849 479.613 479.358C484.438 482.868 501.875 508.237 436.952 500.341Z" fill="url(#paint40_linear_2007_1998)"/>
<path d="M438.89 500.343C438.89 500.343 443.752 451.395 428.215 452.272C412.716 453.149 417.541 474.132 403.979 475.01C390.417 475.887 384.568 503.852 438.89 500.343Z" fill="url(#paint41_linear_2007_1998)"/>
<path d="M402.809 590.049H467.366C474.824 590.049 481.038 584.895 481.66 578.169L489.958 512.588C490.652 505.057 484.036 498.587 475.665 498.587H402.809C394.876 498.587 388.479 504.363 388.479 511.528V577.109C388.479 584.273 394.876 590.049 402.809 590.049Z" fill="#E8811F"/>
<path d="M428.216 590.049H450.515V498.624H428.216V590.049Z" fill="url(#paint42_linear_2007_1998)"/>
<path d="M267.129 341.194C270.383 347.628 276.012 359.801 278.206 364.59C278.681 365.613 279.96 365.869 280.801 365.175L296.301 352.38C297.288 351.576 297.032 350.004 295.862 349.492L269.286 338.855C267.824 338.306 266.398 339.805 267.129 341.194Z" fill="url(#paint43_linear_2007_1998)"/>
<path d="M302.662 582.242C302.662 582.242 301.748 587.397 301.309 592.478C301.126 594.488 302.662 596.206 304.672 596.28C311.472 596.572 325.984 597.12 331.212 596.864C331.979 596.828 332.491 596.024 332.235 595.293C331.979 594.671 331.541 594.196 330.919 593.903L306.939 582.864L302.662 582.242Z" fill="url(#paint44_linear_2007_1998)"/>
<path d="M301.931 579.245L302.662 585.423C302.662 585.423 306.866 587.397 309.754 585.167L307.999 578.294L301.931 579.245Z" fill="url(#paint45_linear_2007_1998)"/>
<path d="M302.479 463.401C302.15 465.009 300.797 543.714 309.205 578.953C309.351 579.538 309.059 580.123 308.51 580.342C307.231 580.854 304.709 581.622 301.674 581.731C300.724 581.768 299.883 581.147 299.627 580.269C297.215 572.081 285.7 531.102 284.201 491.951C282.519 448.194 284.201 490.452 284.201 490.452L285.188 463.401H302.479Z" fill="url(#paint46_linear_2007_1998)"/>
<path d="M275.062 584.947C275.062 584.947 273.6 587.542 272.211 594.451C271.955 595.694 272.832 596.901 274.112 597.01C276.341 597.23 279.814 597.522 282.556 597.486C283.835 597.486 284.822 596.352 284.676 595.11C284.384 592.587 283.433 588.456 280.472 585.239L275.062 584.947Z" fill="url(#paint47_linear_2007_1998)"/>
<path d="M273.783 577.014L275.501 586.336C275.501 586.336 277.182 587.579 280.545 586.665L279.741 576.648L273.783 577.014Z" fill="url(#paint48_linear_2007_1998)"/>
<path d="M269.177 465.812C262.304 507.34 270.675 568.424 273.49 580.378C273.673 581.109 274.258 581.657 274.989 581.803C276.232 582.023 278.316 582.169 280.363 581.584C281.057 581.365 281.569 580.743 281.606 580.012C281.971 570.362 281.313 510.995 287.71 487.526C288.039 486.32 288.771 485.296 289.758 484.602L302.186 475.755L303.137 461.462L269.177 465.812Z" fill="url(#paint49_linear_2007_1998)"/>
<path d="M314.652 392.7C294.034 392.371 269.652 392.517 269.652 392.517C263.51 428.378 268.592 469.723 268.592 469.723C284.566 473.927 302.552 467.164 302.552 467.164C305.184 452.213 321.012 392.81 314.652 392.7Z" fill="url(#paint50_linear_2007_1998)"/>
<path d="M277.548 412.514L269.652 392.554C269.652 392.554 250.387 405.641 247.243 422.238C250.899 422.494 257.515 423.444 263.986 426.734C265.375 418.875 277.548 412.514 277.548 412.514Z" fill="url(#paint51_linear_2007_1998)"/>
<path d="M294.4 431.305C294.4 431.305 272.796 443.515 265.485 433.096C263.986 430.939 263.62 428.783 263.986 426.735C257.515 423.445 250.899 422.532 247.243 422.239C246.293 427.247 246.805 432.548 249.729 437.922C262.524 461.281 297.251 436.642 297.251 436.642L294.4 431.305Z" fill="url(#paint52_linear_2007_1998)"/>
<path d="M289.83 374.935L284.493 390.398C283.616 392.994 285.224 395.735 287.929 396.211C290.927 396.722 295.058 396.54 299.627 393.615C300.431 393.103 300.943 392.263 301.053 391.349L303.173 374.935H289.83Z" fill="url(#paint53_linear_2007_1998)"/>
<path d="M304.087 357.353C304.087 357.353 311.289 370.915 310.375 376.399C309.461 381.882 300.541 381.48 292.719 377.02L287.272 362.361L304.087 357.353Z" fill="url(#paint54_linear_2007_1998)"/>
<path d="M293.048 369.853C293.377 369.707 293.486 369.342 293.304 369.049C292.719 368.172 291.659 366.381 291.293 364.809C291.293 364.809 290.014 363.968 294.583 362.871C299.189 361.775 306.025 360.057 307.451 356.145C308.84 352.343 305.184 342.766 299.299 350.406C299.079 350.698 298.641 350.698 298.421 350.406C297.471 349.163 294.912 346.531 291.403 348.139C288.113 349.602 287.747 352.014 287.784 353.257C287.784 353.623 287.491 353.879 287.126 353.842C285.444 353.513 281.46 353.257 279.595 357.351C278.06 360.715 279.047 362.652 279.961 363.566C280.253 363.858 280.144 364.37 279.705 364.48C278.608 364.809 277.183 365.759 277.329 368.318C277.512 371.864 281.496 371.535 282.629 371.389C282.812 371.352 282.995 371.425 283.141 371.572C284.092 372.632 288.478 377.201 293.194 377.75C293.596 377.786 293.925 377.384 293.779 377.018L291.732 371.096C291.622 370.804 291.768 370.511 292.024 370.402L293.048 369.853Z" fill="#6A3C30"/>
<path d="M293.888 370.696C293.888 370.696 288.77 367.186 288.368 370.147C288.003 373.108 292.974 374.424 295.46 373.328L293.888 370.696Z" fill="url(#paint55_linear_2007_1998)"/>
<path d="M317.695 400.41C317.695 400.41 312.175 375.442 304.608 378.623C297.077 381.803 298.064 387.689 295.542 389.516C293.02 391.344 283.954 404.504 317.695 400.41Z" fill="#7111BC"/>
<path d="M316.662 401.037C316.662 401.037 314.14 375.63 322.182 376.069C330.225 376.508 327.702 387.401 334.757 387.877C341.813 388.315 344.847 402.864 316.662 401.037Z" fill="#7111BC"/>
<path d="M335.379 447.608H301.894C298.019 447.608 294.802 444.94 294.473 441.43L290.16 407.397C289.794 403.486 293.23 400.123 297.581 400.123H335.379C339.473 400.123 342.836 403.12 342.836 406.849V440.882C342.836 444.574 339.51 447.608 335.379 447.608Z" fill="#9732E5"/>
<path d="M322.219 400.123H310.631V447.572H322.219V400.123Z" fill="#6814A8"/>
<path d="M290.014 438.323C290.014 438.323 288.369 431.56 289.027 429.184C289.685 426.771 290.964 423.7 295.241 424.395C299.518 425.089 304.563 426.881 304.563 426.881C304.563 426.881 304.307 429.988 301.054 429.001L303.064 430.573C303.064 430.573 302.772 433.058 300.03 431.742L301.894 433.826C301.894 433.826 300.725 435.873 298.678 434.557C296.703 433.205 295.753 439.163 290.014 438.323Z" fill="url(#paint56_linear_2007_1998)"/>
<path d="M717.214 368.048L735.638 359.165C736.516 358.727 737.539 359.531 737.283 360.518C735.675 366.696 731.654 382.488 732.202 383.036C732.897 383.731 717.214 368.048 717.214 368.048Z" fill="url(#paint57_linear_2007_1998)"/>
<path d="M680.805 416.01C680.805 416.01 684.424 399.706 689.359 401.79C694.294 403.874 693.636 407.712 695.281 408.882C696.89 410.088 702.812 418.679 680.805 416.01Z" fill="#C50DA8"/>
<path d="M681.463 416.01C681.463 416.01 683.108 399.414 677.844 399.706C672.58 399.999 674.225 407.127 669.619 407.42C665.05 407.749 663.076 417.217 681.463 416.01Z" fill="#C50DA8"/>
<path d="M669.692 442.184H691.552C694.074 442.184 696.195 440.429 696.377 438.162L698.754 420.177C698.973 417.618 696.743 415.425 693.928 415.425H669.253C666.585 415.425 664.391 417.399 664.391 419.811L664.83 437.797C664.83 440.21 667.023 442.184 669.692 442.184Z" fill="url(#paint58_linear_2007_1998)"/>
<path d="M678.282 442.184H685.849L685.411 415.425H677.844L678.282 442.184Z" fill="#AE0A94"/>
<path d="M706.101 523.739L705.48 535.437C705.48 535.437 709.099 574.551 709.866 591.879C709.976 594.584 709.281 597.289 707.856 599.592L700.435 611.655L719.334 600.506L719.7 598.203L716.593 593.963L720.65 545.453C720.906 542.602 720.285 539.75 718.969 537.228L715.057 529.88L706.101 523.739Z" fill="url(#paint59_linear_2007_1998)"/>
<path d="M699.156 613.411H705.188C706.321 613.411 707.381 612.899 708.075 611.985C709.94 609.536 713.851 604.784 715.716 604.637C718.238 604.455 717.909 613.374 717.909 613.374H719.298L721.089 602.298C721.528 599.52 720.139 596.741 717.653 595.462C717.653 595.462 717.068 599.702 713.961 601.567C710.854 603.431 701.313 610.157 701.313 610.157C701.313 610.157 700.143 609.975 698.863 610.23C696.963 610.596 697.218 613.411 699.156 613.411Z" fill="url(#paint60_linear_2007_1998)"/>
<path d="M722.332 523.739L721.052 531.233C721.052 531.233 725.329 574.515 726.097 591.842C726.207 594.547 725.512 597.252 724.086 599.555L716.666 611.619L735.565 600.469L735.93 598.166L732.823 593.926L736.881 545.416C737.137 542.565 736.515 539.714 735.199 537.191L731.288 529.844L722.332 523.739Z" fill="url(#paint61_linear_2007_1998)"/>
<path d="M743.9 474.061C742.876 465.762 732.495 457.976 732.495 457.976C719.408 462.655 710.049 455.746 710.049 455.746C710.049 455.746 705.992 464.117 705.919 472.671C705.882 481.189 705.37 535.986 705.37 535.986C720.504 542.347 736.15 539.203 736.15 539.203C734.98 519.463 744.923 482.359 743.9 474.061Z" fill="url(#paint62_linear_2007_1998)"/>
<path d="M713.778 372.948C713.778 372.948 724.781 365.235 730.63 379.016C731.69 381.539 737.904 381.941 738.526 387.059C738.855 389.691 740.792 391.811 743.424 392.213C749.968 393.2 760.057 396.6 761.665 407.968C762.908 416.632 758.485 419.922 753.843 421.055C750.443 421.896 748.176 425.223 748.871 428.659C749.529 431.949 748.542 435.787 742.839 438.785C730.008 445.548 717.214 422.773 717.214 422.773L714.582 383.001L713.778 372.948Z" fill="url(#paint63_linear_2007_1998)"/>
<path d="M715.423 613.411H721.454C722.588 613.411 723.648 612.899 724.342 611.985C726.207 609.536 730.118 604.783 731.982 604.637C734.505 604.454 734.176 613.374 734.176 613.374H735.565L737.356 602.298C737.795 599.519 736.406 596.741 733.92 595.462C733.92 595.462 733.335 599.702 730.228 601.567C727.12 603.431 717.579 610.157 717.579 610.157C717.579 610.157 716.41 609.974 715.13 610.23C713.193 610.596 713.485 613.411 715.423 613.411Z" fill="url(#paint64_linear_2007_1998)"/>
<path d="M732.385 458.268C728.364 441.196 733.226 428.731 737.43 421.785C740.062 417.471 738.051 411.842 733.372 410.051C725.842 407.163 717.214 406.614 712.791 406.541C710.89 406.505 709.099 407.419 707.966 408.954C704.749 413.304 698.717 422.772 700.289 430.412C701.532 436.444 709.94 460.498 709.94 460.498C709.94 460.498 720.468 465.433 732.385 458.268Z" fill="#FD5E06"/>
<path d="M720.431 387.35L724.635 408.15C725.147 410.234 722.149 410.672 719.992 410.855C716.337 411.147 714.29 410.307 712.827 407.601C712.681 407.346 712.608 407.017 712.572 406.724L710.305 390.384C710.122 389.068 710.817 387.825 712.023 387.313L716.373 385.376C718.055 384.608 719.992 385.558 720.431 387.35Z" fill="url(#paint65_linear_2007_1998)"/>
<path d="M711.658 372.034C711.658 372.034 706.54 375.397 704.237 384.17C701.934 392.907 705.443 396.087 709.099 395.941C712.755 395.795 718.019 394.735 722.698 388.484C727.34 382.269 718.348 367.903 711.658 372.034Z" fill="url(#paint66_linear_2007_1998)"/>
<path d="M718.092 384.902C718.092 384.902 720.102 372.363 709.647 374.155L707.527 376.311C707.527 376.311 702.483 370.499 708.185 366.222C713.888 361.945 721.711 363.151 725.951 371.12C730.192 379.09 731.691 384.683 727.998 389.544C724.306 394.406 721.601 390.166 721.601 390.166C721.601 390.166 723.319 385.925 721.967 384.098C720.614 382.27 718.786 385.121 718.786 385.121L718.092 384.902Z" fill="url(#paint67_linear_2007_1998)"/>
<path d="M676.966 439.442C676.601 438.821 677.186 438.053 677.88 438.272C680.476 439.04 685.264 439.917 688.554 437.651C688.737 437.541 688.883 437.432 689.03 437.322C688.701 436.92 688.189 436.627 687.458 436.627C685.374 436.7 684.424 433.666 684.424 433.666C684.424 433.666 686.288 434.653 688.225 433.995C689.907 433.41 692.429 434.178 693.672 436.079C699.192 441.818 706.32 449.714 718.749 443.756C727.961 439.332 727.998 426.319 727.413 419.885C727.194 417.362 728.693 414.986 731.105 414.219C734.286 413.232 736.918 413.743 738.892 416.156C739.879 417.362 740.317 418.898 740.244 420.47C739.842 427.269 737.393 449.385 721.637 454.064C702.957 459.621 691.954 441.526 691.954 441.526C691.954 441.526 682.377 448.581 676.966 439.442Z" fill="url(#paint68_linear_2007_1998)"/>
<path d="M813.332 343.586L831.464 329.475C831.866 329.146 832.487 329.475 832.414 330.024L829.709 352.871L813.332 343.586Z" fill="url(#paint69_linear_2007_1998)"/>
<path d="M886.297 488.969C886.297 488.969 889.222 484.656 892.402 480.634C893.645 479.063 895.838 478.734 897.191 479.903C901.833 483.851 911.703 492.296 914.92 495.622C915.396 496.134 915.213 497.011 914.518 497.377C913.933 497.669 913.312 497.742 912.727 497.596L889.514 491.053L886.297 488.969Z" fill="#401A11"/>
<path d="M883.811 490.796L888.564 486.775C888.564 486.775 892.987 488.201 893.572 491.783L887.613 495.621L883.811 490.796Z" fill="url(#paint70_linear_2007_1998)"/>
<path d="M778.823 383.761C771.439 367.165 764.457 342.38 772.572 317.595L777.288 312.88C777.288 312.88 777.288 351.702 786.939 370.967C784.234 375.244 781.565 379.521 778.823 383.761Z" fill="url(#paint71_linear_2007_1998)"/>
<path d="M778.421 305.496L780.212 308.164C780.687 308.895 780.834 309.809 780.541 310.65C779.81 312.843 778.202 317.12 775.899 319.423C772.718 322.604 769.575 315 768.917 312.441C768.295 309.919 772.718 303.558 773.998 302.315C775.241 301.036 780.322 301.694 778.421 305.496Z" fill="url(#paint72_linear_2007_1998)"/>
<path d="M802.694 566.539C802.694 566.539 803.608 571.693 804.046 576.774C804.229 578.785 802.694 580.503 800.683 580.576C793.884 580.869 779.371 581.417 774.144 581.161C773.376 581.125 772.864 580.32 773.12 579.589C773.376 578.968 773.815 578.492 774.436 578.2L798.417 567.16L802.694 566.539Z" fill="#401A11"/>
<path d="M803.426 563.542L802.694 569.719C802.694 569.719 798.49 571.693 795.603 569.464L797.357 562.591L803.426 563.542Z" fill="url(#paint73_linear_2007_1998)"/>
<path d="M802.877 447.66C803.206 449.269 804.559 527.973 796.151 563.213C796.005 563.798 796.297 564.383 796.846 564.602C798.125 565.114 800.647 565.882 803.682 565.991C804.632 566.028 805.473 565.406 805.729 564.529C808.141 556.341 824.665 509.001 826.163 469.85C827.845 426.093 820.168 447.66 820.168 447.66H802.877Z" fill="url(#paint74_linear_2007_1998)"/>
<path d="M839.213 449.086C846.268 466.889 848.571 469.667 851.715 489.955C855.48 514.301 873.905 497.486 883.738 489.59C884.981 488.603 888.673 492.185 889.039 497.193C889.514 503.737 849.741 534.919 838.994 512.876C832.121 498.802 830.221 482.973 825.651 474.236C825.066 473.14 824.152 472.299 823.019 471.787L808.982 465.792L805.034 452.01L839.213 449.086Z" fill="url(#paint75_linear_2007_1998)"/>
<path d="M846.89 385.917C854.274 369.321 861.257 344.536 853.141 319.752L848.426 315.036C848.426 315.036 848.426 353.858 838.775 373.123C841.48 377.4 844.185 381.64 846.89 385.917Z" fill="url(#paint76_linear_2007_1998)"/>
<path d="M802.877 379.959H826.089C828.429 379.959 830.659 379.082 832.34 377.473C834.497 375.426 837.275 371.917 839.249 366.434C839.542 365.593 840.456 365.154 841.296 365.41C844.294 366.287 850.838 368.846 854.237 374.732C854.566 375.28 854.566 375.975 854.201 376.523L839.725 398.932L841.15 454.204C841.15 454.204 804.777 459.906 799.769 454.204L794.761 403.538C794.761 403.538 776.922 392.827 771.914 375.719L786.902 367.165C786.902 367.165 788.656 367.238 790.119 371.259C792.129 376.486 797.247 379.959 802.877 379.959Z" fill="url(#paint77_linear_2007_1998)"/>
<path d="M822.727 363.071L823.275 380.983C823.312 382.116 822.581 383.176 821.52 383.542C819.291 384.273 815.269 385.187 810.737 384.237C809.384 383.944 808.543 382.628 808.763 381.276L811.212 367.165L822.727 363.071Z" fill="url(#paint78_linear_2007_1998)"/>
<path d="M810.48 346.657C810.334 346.876 804.887 361.608 802.511 368.079C801.89 369.724 802.804 371.515 804.485 372.063L809.713 373.014C813.186 373.635 816.622 371.807 818.011 368.554L824.335 361.206C827.771 357.222 826.601 351.044 821.886 348.631C817.28 346.328 812.199 344.5 810.48 346.657Z" fill="url(#paint79_linear_2007_1998)"/>
<path d="M820.898 362.888L819.4 362.121C819.4 362.121 825.395 352.36 818.632 351.629C811.869 350.862 805.874 349.363 805.874 345.634C805.874 341.869 805.874 335.143 814.136 338.14C822.397 341.138 821.629 346.402 826.126 347.133C830.622 347.864 834.387 348.632 832.889 353.128C831.39 357.624 828.392 360.622 829.891 362.121C831.39 363.62 824.627 371.113 820.898 362.888Z" fill="#E6A719"/>
<path d="M819.289 365.813C819.289 365.813 820.532 359.233 823.311 359.05C826.089 358.904 828.648 361.316 825.687 364.899C821.995 369.322 819.289 365.813 819.289 365.813Z" fill="url(#paint80_linear_2007_1998)"/>
<path d="M847.292 307.615L845.501 310.284C845.025 311.015 844.879 311.929 845.172 312.769C845.903 314.963 847.511 319.24 849.814 321.543C852.995 324.723 856.138 317.119 856.796 314.561C857.418 312.038 852.995 305.678 851.715 304.435C850.436 303.192 845.391 303.813 847.292 307.615Z" fill="url(#paint81_linear_2007_1998)"/>
<path d="M829.043 407.629L830.258 405.575C830.289 405.519 830.331 405.47 830.381 405.429C830.427 405.396 830.482 405.378 830.538 405.376L831.722 405.306L831.833 405.316C831.84 405.315 831.847 405.316 831.854 405.319C831.86 405.321 831.866 405.325 831.871 405.33C831.875 405.335 831.879 405.341 831.882 405.347C831.884 405.354 831.885 405.36 831.885 405.367C831.882 405.404 831.871 405.44 831.851 405.471L831.831 405.503C831.547 405.981 831.247 406.489 830.931 407.026L829.971 408.652L832.064 411.388C832.1 411.436 832.133 411.484 832.165 411.53C832.197 411.577 832.23 411.623 832.261 411.668C832.268 411.68 832.273 411.693 832.276 411.707C832.282 411.722 832.286 411.738 832.288 411.754C832.29 411.798 832.259 411.822 832.195 411.826L830.934 411.9C830.835 411.906 830.75 411.857 830.679 411.752C830.427 411.42 830.176 411.089 829.926 410.758C829.675 410.428 829.423 410.096 829.169 409.765L828.39 408.743L829.043 407.629Z" fill="#6FAA27"/>
<path d="M827.132 407.821C827.017 407.497 826.847 407.195 826.63 406.928C826.469 406.731 826.285 406.555 826.081 406.404C825.671 406.099 825.198 405.892 824.696 405.798C824.444 405.751 824.187 405.734 823.931 405.749C823.628 405.765 823.329 405.823 823.043 405.921C822.502 406.106 822.022 406.433 821.652 406.869C821.352 407.217 821.13 407.626 820.999 408.067L820.785 404.424C820.783 404.382 820.772 404.341 820.752 404.304C820.733 404.267 820.704 404.235 820.67 404.211C820.607 404.162 820.528 404.136 820.447 404.14L819.614 404.189C819.571 404.189 819.528 404.198 819.489 404.216C819.45 404.233 819.414 404.258 819.386 404.29C819.334 404.353 819.31 404.433 819.317 404.514L819.454 406.838C819.2 406.601 818.904 406.414 818.581 406.286C818.258 406.157 817.89 406.105 817.476 406.129C817.037 406.152 816.607 406.267 816.216 406.466C815.737 406.713 815.326 407.074 815.019 407.516C814.711 407.958 814.517 408.469 814.452 409.004C814.434 408.937 814.414 408.869 814.391 408.803C814.297 408.529 814.168 408.268 814.009 408.027C813.691 407.548 813.255 407.16 812.744 406.9C812.485 406.77 812.212 406.672 811.929 406.61C811.341 406.485 810.731 406.521 810.162 406.714C809.888 406.808 809.628 406.937 809.387 407.096C809.15 407.254 808.935 407.443 808.747 407.658C808.558 407.872 808.397 408.109 808.267 408.363C808.135 408.621 808.038 408.895 807.979 409.179C807.868 409.71 807.886 410.259 808.032 410.781C808.01 410.862 807.982 410.942 807.949 411.02C807.739 411.52 807.341 411.917 806.841 412.125C806.583 412.234 806.305 412.287 806.026 412.282C805.745 412.281 805.467 412.222 805.21 412.107C804.966 411.998 804.746 411.843 804.561 411.651C804.377 411.456 804.231 411.228 804.133 410.979C803.978 410.591 803.939 410.166 804.021 409.757C804.103 409.348 804.303 408.971 804.595 408.672C804.783 408.483 805.007 408.332 805.254 408.229C805.513 408.12 805.792 408.066 806.073 408.072C806.352 408.072 806.629 408.13 806.884 408.243C807.027 408.307 807.162 408.388 807.288 408.482C807.314 408.502 807.344 408.515 807.375 408.522C807.407 408.529 807.44 408.529 807.471 408.522C807.503 408.515 807.533 408.502 807.559 408.482C807.585 408.463 807.607 408.438 807.622 408.41L808.003 407.73C808.031 407.68 808.04 407.621 808.027 407.565C808.014 407.509 807.98 407.46 807.933 407.427C807.878 407.389 807.822 407.353 807.764 407.319C807.516 407.171 807.25 407.055 806.972 406.974C806.395 406.808 805.783 406.801 805.202 406.954C804.923 407.029 804.654 407.139 804.403 407.281C804.155 407.422 803.926 407.594 803.723 407.795C803.519 407.995 803.341 408.22 803.193 408.465C803.044 408.714 802.929 408.982 802.85 409.262C802.686 409.827 802.676 410.425 802.819 410.996C802.962 411.566 803.255 412.088 803.666 412.509C803.865 412.713 804.09 412.891 804.334 413.039C804.717 413.266 805.14 413.415 805.581 413.477C806.021 413.54 806.47 413.514 806.9 413.402C807.458 413.256 807.968 412.968 808.381 412.566C808.524 412.427 808.654 412.275 808.769 412.112C808.848 412.199 808.931 412.282 809.018 412.361C809.231 412.55 809.468 412.711 809.722 412.841C810.119 413.041 810.552 413.16 810.995 413.192C811.439 413.224 811.885 413.167 812.306 413.026C812.853 412.841 813.342 412.518 813.725 412.088C813.916 411.876 814.078 411.639 814.206 411.385C814.336 411.128 814.433 410.855 814.495 410.573C814.512 410.494 814.526 410.414 814.537 410.333C814.591 410.54 814.664 410.741 814.756 410.934C815.12 411.708 815.774 412.308 816.577 412.604C816.989 412.757 817.43 412.82 817.868 412.791C818.062 412.78 818.254 412.747 818.44 412.691C818.791 412.588 819.118 412.414 819.401 412.182C819.534 412.072 819.659 411.953 819.774 411.824L819.843 412.252C819.869 412.332 819.908 412.407 819.958 412.475C819.998 412.523 820.069 412.545 820.17 412.539L820.932 412.494C821.15 412.481 821.251 412.373 821.239 412.169L821.135 410.407C821.157 410.456 821.18 410.504 821.205 410.551C821.605 411.33 822.29 411.926 823.117 412.213C823.539 412.361 823.986 412.423 824.432 412.395C824.831 412.376 825.222 412.279 825.583 412.108C825.93 411.941 826.248 411.72 826.525 411.452C826.648 411.35 826.707 411.252 826.701 411.157C826.698 411.118 826.686 411.08 826.666 411.047C826.639 411.002 826.607 410.96 826.571 410.921C826.528 410.872 826.471 410.813 826.403 410.743C826.334 410.672 826.251 410.583 826.153 410.477C826.12 410.437 826.079 410.405 826.033 410.382C826 410.366 825.964 410.358 825.927 410.358C825.886 410.361 825.846 410.374 825.812 410.398C825.772 410.425 825.735 410.457 825.701 410.492C825.7 410.492 825.699 410.492 825.699 410.492C825.698 410.493 825.697 410.493 825.697 410.494C825.696 410.494 825.696 410.495 825.696 410.495C825.696 410.496 825.696 410.497 825.696 410.498C825.616 410.579 825.529 410.653 825.437 410.719C825.333 410.793 825.224 410.859 825.109 410.914C824.985 410.974 824.856 411.022 824.723 411.059C824.581 411.098 824.434 411.121 824.287 411.128C824.083 411.14 823.879 411.118 823.682 411.064C823.479 411.01 823.286 410.922 823.112 410.803C822.933 410.679 822.776 410.527 822.647 410.352C822.508 410.164 822.409 409.949 822.356 409.722L826.854 409.457C826.95 409.454 827.045 409.439 827.137 409.413C827.195 409.396 827.246 409.363 827.284 409.316C827.317 409.268 827.336 409.211 827.338 409.153C827.343 409.07 827.342 408.988 827.336 408.906C827.319 408.537 827.25 408.172 827.132 407.821ZM813.185 410.576C813.098 410.83 812.963 411.065 812.787 411.268C812.611 411.469 812.397 411.634 812.158 411.755C811.907 411.879 811.634 411.952 811.354 411.968C811.075 411.984 810.794 411.944 810.531 411.85C810.023 411.666 809.608 411.289 809.377 410.8C809.196 410.424 809.128 410.003 809.181 409.588C809.234 409.174 809.407 408.784 809.678 408.465C809.853 408.263 810.067 408.097 810.307 407.976C810.558 407.852 810.831 407.779 811.111 407.763C811.39 407.747 811.67 407.787 811.934 407.881C812.186 407.973 812.417 408.113 812.616 408.292C813.025 408.668 813.27 409.188 813.3 409.742C813.317 410.025 813.278 410.308 813.185 410.576ZM819.7 409.379C819.71 409.639 819.669 409.898 819.58 410.142C819.493 410.378 819.364 410.596 819.198 410.784C819.031 410.974 818.829 411.129 818.603 411.242C818.371 411.36 818.117 411.428 817.857 411.441C817.599 411.459 817.34 411.421 817.099 411.328C816.869 411.239 816.658 411.107 816.479 410.938C816.297 410.765 816.15 410.559 816.046 410.33C815.828 409.847 815.795 409.3 815.956 408.795C816.032 408.553 816.154 408.327 816.313 408.13C816.471 407.936 816.665 407.774 816.884 407.653C817.111 407.529 817.364 407.457 817.623 407.445C817.888 407.427 818.153 407.468 818.401 407.564C818.641 407.657 818.86 407.794 819.048 407.969C819.236 408.145 819.39 408.354 819.503 408.586C819.618 408.823 819.685 409.081 819.7 409.344L819.7 409.379ZM822.315 408.507C822.357 408.308 822.433 408.118 822.539 407.944C822.643 407.771 822.773 407.614 822.924 407.479C823.074 407.344 823.243 407.234 823.426 407.151C823.609 407.068 823.805 407.019 824.005 407.008C824.224 406.993 824.444 407.014 824.656 407.071C824.852 407.124 825.038 407.21 825.205 407.327C825.367 407.442 825.51 407.583 825.626 407.745C825.748 407.913 825.842 408.1 825.906 408.298L822.315 408.507Z" fill="#575756"/>
<path d="M829.187 407.621L829.967 408.65L829.318 407.163L829.107 407.515L829.187 407.621Z" fill="#46952B"/>
<path d="M829.966 408.643L829.964 408.647L829.965 408.648L829.966 408.643Z" fill="#46952B"/>
<path d="M829.245 409.871L829.496 410.195L829.961 408.661L829.245 409.871Z" fill="#46952B"/>
<path d="M829.967 408.65L829.313 409.756C829.099 410.115 828.887 410.474 828.677 410.832C828.467 411.189 828.257 411.548 828.046 411.907C827.988 412.019 827.91 412.078 827.81 412.084L826.546 412.158C826.482 412.162 826.449 412.142 826.446 412.098C826.446 412.082 826.448 412.066 826.452 412.05C826.453 412.036 826.457 412.022 826.463 412.009C826.489 411.961 826.515 411.911 826.542 411.861C826.568 411.811 826.596 411.76 826.626 411.708L828.386 408.743L827.242 407.243C826.865 406.747 826.508 406.278 826.171 405.836L826.148 405.807C826.124 405.778 826.109 405.744 826.102 405.708C826.101 405.701 826.101 405.694 826.103 405.687C826.105 405.681 826.108 405.674 826.112 405.669C826.116 405.664 826.122 405.659 826.128 405.656C826.134 405.653 826.14 405.651 826.147 405.65L826.256 405.628L827.439 405.558C827.496 405.553 827.552 405.565 827.602 405.593C827.656 405.627 827.703 405.671 827.741 405.723L829.189 407.622L829.967 408.65Z" fill="#93C01F"/>
<path d="M808.909 411.898C808.864 411.974 808.821 412.042 808.77 412.114C808.864 412.218 808.965 412.317 809.072 412.408C809.271 411.889 809.259 411.311 809.248 411.127C809.167 411.397 809.054 411.656 808.909 411.898Z" fill="#3C3C3B"/>
<defs>
<filter id="filter0_f_2007_1998" x="153.604" y="15.8121" width="762.12" height="742.281" filterUnits="userSpaceOnUse" color-interpolation-filters="sRGB">
<feFlood flood-opacity="0" result="BackgroundImageFix"/>
<feBlend mode="normal" in="SourceGraphic" in2="BackgroundImageFix" result="shape"/>
<feGaussianBlur stdDeviation="40.6" result="effect1_foregroundBlur_2007_1998"/>
</filter>
<linearGradient id="paint0_linear_2007_1998" x1="767.038" y1="377.479" x2="1081.26" y2="290.081" gradientUnits="userSpaceOnUse">
<stop stop-color="white" stop-opacity="0"/>
<stop offset="0.655" stop-color="#67C500" stop-opacity="0.5"/>
</linearGradient>
<linearGradient id="paint1_linear_2007_1998" x1="313.904" y1="377.48" x2="-0.316733" y2="290.082" gradientUnits="userSpaceOnUse">
<stop stop-color="white" stop-opacity="0"/>
<stop offset="0.655" stop-color="#67C500" stop-opacity="0.5"/>
</linearGradient>
<linearGradient id="paint2_linear_2007_1998" x1="695.84" y1="54.7762" x2="695.84" y2="164.443" gradientUnits="userSpaceOnUse">
<stop stop-color="#BD98D9"/>
<stop offset="1" stop-color="#712FA4"/>
</linearGradient>
<linearGradient id="paint3_linear_2007_1998" x1="583.283" y1="242.458" x2="543.846" y2="248.266" gradientUnits="userSpaceOnUse">
<stop stop-color="#4042E2"/>
<stop offset="1" stop-color="#4F52FF"/>
</linearGradient>
<linearGradient id="paint4_linear_2007_1998" x1="539.43" y1="258.39" x2="500.412" y2="264.137" gradientUnits="userSpaceOnUse">
<stop stop-color="#4042E2"/>
<stop offset="1" stop-color="#4F52FF"/>
</linearGradient>
<linearGradient id="paint5_linear_2007_1998" x1="496.075" y1="274.63" x2="459.924" y2="279.954" gradientUnits="userSpaceOnUse">
<stop stop-color="#4042E2"/>
<stop offset="1" stop-color="#4F52FF"/>
</linearGradient>
<linearGradient id="paint6_linear_2007_1998" x1="456.715" y1="283.232" x2="418.419" y2="288.872" gradientUnits="userSpaceOnUse">
<stop stop-color="#4042E2"/>
<stop offset="1" stop-color="#4F52FF"/>
</linearGradient>
<linearGradient id="paint7_linear_2007_1998" x1="556.841" y1="67.5384" x2="561.956" y2="245.518" gradientUnits="userSpaceOnUse">
<stop stop-color="#FFBE2E"/>
<stop offset="1" stop-color="#D16D4E"/>
</linearGradient>
<linearGradient id="paint8_linear_2007_1998" x1="563.163" y1="119.763" x2="541.026" y2="267.341" gradientUnits="userSpaceOnUse">
<stop stop-color="white"/>
<stop offset="1" stop-color="white"/>
</linearGradient>
<linearGradient id="paint9_linear_2007_1998" x1="453.091" y1="70.4624" x2="458.188" y2="248.225" gradientUnits="userSpaceOnUse">
<stop stop-color="#FFBE2E"/>
<stop offset="1" stop-color="#D16D4E"/>
</linearGradient>
<linearGradient id="paint10_linear_2007_1998" x1="462.27" y1="104.628" x2="440.133" y2="252.206" gradientUnits="userSpaceOnUse">
<stop stop-color="white"/>
<stop offset="1" stop-color="white"/>
</linearGradient>
<linearGradient id="paint11_linear_2007_1998" x1="506.065" y1="65.2344" x2="511.18" y2="243.214" gradientUnits="userSpaceOnUse">
<stop stop-color="#FFBE2E"/>
<stop offset="1" stop-color="#D16D4E"/>
</linearGradient>
<linearGradient id="paint12_linear_2007_1998" x1="513.174" y1="112.264" x2="491.037" y2="259.842" gradientUnits="userSpaceOnUse">
<stop stop-color="white"/>
<stop offset="1" stop-color="white"/>
</linearGradient>
<linearGradient id="paint13_linear_2007_1998" x1="518.417" y1="434.636" x2="522.825" y2="123.41" gradientUnits="userSpaceOnUse">
<stop stop-color="#B8FF00"/>
<stop offset="0.509113" stop-color="#FBFBFB"/>
</linearGradient>
<linearGradient id="paint14_linear_2007_1998" x1="483.873" y1="90.5757" x2="489.575" y2="360.617" gradientUnits="userSpaceOnUse">
<stop stop-color="#97E835"/>
<stop offset="0.723233" stop-color="#46952B"/>
</linearGradient>
<linearGradient id="paint15_linear_2007_1998" x1="392.986" y1="285.452" x2="396.924" y2="367.195" gradientUnits="userSpaceOnUse">
<stop stop-color="#97E835"/>
<stop offset="0.723233" stop-color="#46952B"/>
</linearGradient>
<linearGradient id="paint16_linear_2007_1998" x1="418.794" y1="276.862" x2="422.733" y2="358.606" gradientUnits="userSpaceOnUse">
<stop stop-color="#97E835"/>
<stop offset="0.723233" stop-color="#46952B"/>
</linearGradient>
<linearGradient id="paint17_linear_2007_1998" x1="446.43" y1="273.791" x2="450.368" y2="355.535" gradientUnits="userSpaceOnUse">
<stop stop-color="#97E835"/>
<stop offset="0.723233" stop-color="#46952B"/>
</linearGradient>
<linearGradient id="paint18_linear_2007_1998" x1="474.651" y1="271.342" x2="478.589" y2="353.086" gradientUnits="userSpaceOnUse">
<stop stop-color="#97E835"/>
<stop offset="0.723233" stop-color="#46952B"/>
</linearGradient>
<linearGradient id="paint19_linear_2007_1998" x1="502.287" y1="268.893" x2="506.226" y2="350.637" gradientUnits="userSpaceOnUse">
<stop stop-color="#97E835"/>
<stop offset="0.723233" stop-color="#46952B"/>
</linearGradient>
<linearGradient id="paint20_linear_2007_1998" x1="530.508" y1="268.893" x2="534.446" y2="350.637" gradientUnits="userSpaceOnUse">
<stop stop-color="#97E835"/>
<stop offset="0.723233" stop-color="#46952B"/>
</linearGradient>
<linearGradient id="paint21_linear_2007_1998" x1="558.144" y1="270.099" x2="562.083" y2="351.843" gradientUnits="userSpaceOnUse">
<stop stop-color="#97E835"/>
<stop offset="0.723233" stop-color="#46952B"/>
</linearGradient>
<linearGradient id="paint22_linear_2007_1998" x1="584.537" y1="271.342" x2="588.476" y2="353.086" gradientUnits="userSpaceOnUse">
<stop stop-color="#97E835"/>
<stop offset="0.723233" stop-color="#46952B"/>
</linearGradient>
<linearGradient id="paint23_linear_2007_1998" x1="609.724" y1="275.62" x2="613.663" y2="357.363" gradientUnits="userSpaceOnUse">
<stop stop-color="#97E835"/>
<stop offset="0.723233" stop-color="#46952B"/>
</linearGradient>
<linearGradient id="paint24_linear_2007_1998" x1="634.289" y1="279.311" x2="638.228" y2="361.055" gradientUnits="userSpaceOnUse">
<stop stop-color="#97E835"/>
<stop offset="0.723233" stop-color="#46952B"/>
</linearGradient>
<linearGradient id="paint25_linear_2007_1998" x1="522.154" y1="473.383" x2="523.643" y2="254.344" gradientUnits="userSpaceOnUse">
<stop stop-color="#B8FF00"/>
<stop offset="0.602526" stop-color="#FBFBFB"/>
</linearGradient>
<linearGradient id="paint26_linear_2007_1998" x1="331.2" y1="343.257" x2="337.23" y2="468.402" gradientUnits="userSpaceOnUse">
<stop stop-color="#97E835"/>
<stop offset="0.723233" stop-color="#46952B"/>
</linearGradient>
<linearGradient id="paint27_linear_2007_1998" x1="370.716" y1="330.095" x2="376.746" y2="455.24" gradientUnits="userSpaceOnUse">
<stop stop-color="#97E835"/>
<stop offset="0.723233" stop-color="#46952B"/>
</linearGradient>
<linearGradient id="paint28_linear_2007_1998" x1="413.011" y1="325.38" x2="419.041" y2="450.525" gradientUnits="userSpaceOnUse">
<stop stop-color="#97E835"/>
<stop offset="0.723233" stop-color="#46952B"/>
</linearGradient>
<linearGradient id="paint29_linear_2007_1998" x1="456.256" y1="321.615" x2="462.286" y2="446.76" gradientUnits="userSpaceOnUse">
<stop stop-color="#97E835"/>
<stop offset="0.723233" stop-color="#46952B"/>
</linearGradient>
<linearGradient id="paint30_linear_2007_1998" x1="498.588" y1="317.849" x2="504.618" y2="442.994" gradientUnits="userSpaceOnUse">
<stop stop-color="#97E835"/>
<stop offset="0.723233" stop-color="#46952B"/>
</linearGradient>
<linearGradient id="paint31_linear_2007_1998" x1="541.833" y1="317.849" x2="547.863" y2="442.994" gradientUnits="userSpaceOnUse">
<stop stop-color="#97E835"/>
<stop offset="0.723233" stop-color="#46952B"/>
</linearGradient>
<linearGradient id="paint32_linear_2007_1998" x1="584.128" y1="319.751" x2="590.159" y2="444.896" gradientUnits="userSpaceOnUse">
<stop stop-color="#97E835"/>
<stop offset="0.723233" stop-color="#46952B"/>
</linearGradient>
<linearGradient id="paint33_linear_2007_1998" x1="624.558" y1="321.615" x2="630.588" y2="446.76" gradientUnits="userSpaceOnUse">
<stop stop-color="#97E835"/>
<stop offset="0.723233" stop-color="#46952B"/>
</linearGradient>
<linearGradient id="paint34_linear_2007_1998" x1="663.125" y1="328.195" x2="669.155" y2="453.34" gradientUnits="userSpaceOnUse">
<stop stop-color="#97E835"/>
<stop offset="0.723233" stop-color="#46952B"/>
</linearGradient>
<linearGradient id="paint35_linear_2007_1998" x1="700.741" y1="333.861" x2="706.771" y2="459.006" gradientUnits="userSpaceOnUse">
<stop stop-color="#97E835"/>
<stop offset="0.723233" stop-color="#46952B"/>
</linearGradient>
<linearGradient id="paint36_linear_2007_1998" x1="529.004" y1="796.777" x2="531.287" y2="295.582" gradientUnits="userSpaceOnUse">
<stop stop-color="#B8FF00"/>
<stop offset="0.775856" stop-color="#FBFBFB"/>
</linearGradient>
<linearGradient id="paint37_linear_2007_1998" x1="562.327" y1="432.142" x2="533.172" y2="493.849" gradientUnits="userSpaceOnUse">
<stop stop-color="#4F52FF"/>
<stop offset="1" stop-color="#1A0F91"/>
</linearGradient>
<linearGradient id="paint38_linear_2007_1998" x1="493.069" y1="432.722" x2="521.86" y2="482.741" gradientUnits="userSpaceOnUse">
<stop stop-color="#4F52FF"/>
<stop offset="1" stop-color="#1A0F91"/>
</linearGradient>
<linearGradient id="paint39_linear_2007_1998" x1="554.165" y1="447.659" x2="488.796" y2="614.731" gradientUnits="userSpaceOnUse">
<stop stop-color="#4F52FF"/>
<stop offset="1" stop-color="#1A0F91"/>
</linearGradient>
<linearGradient id="paint40_linear_2007_1998" x1="497.788" y1="396.714" x2="449.138" y2="501.856" gradientUnits="userSpaceOnUse">
<stop stop-color="#F0B076"/>
<stop offset="1" stop-color="#D34A00"/>
</linearGradient>
<linearGradient id="paint41_linear_2007_1998" x1="433.701" y1="399.054" x2="425.281" y2="495.885" gradientUnits="userSpaceOnUse">
<stop stop-color="#F0B076"/>
<stop offset="1" stop-color="#D34A00"/>
</linearGradient>
<linearGradient id="paint42_linear_2007_1998" x1="480.037" y1="433.206" x2="406.006" y2="664.009" gradientUnits="userSpaceOnUse">
<stop stop-color="#F0B076"/>
<stop offset="0.528706" stop-color="#D34A00"/>
</linearGradient>
<linearGradient id="paint43_linear_2007_1998" x1="266.925" y1="352.154" x2="296.898" y2="352.154" gradientUnits="userSpaceOnUse">
<stop stop-color="#46952B"/>
<stop offset="1" stop-color="#6FAA27"/>
</linearGradient>
<linearGradient id="paint44_linear_2007_1998" x1="307.265" y1="495.616" x2="309.091" y2="579.876" gradientUnits="userSpaceOnUse">
<stop stop-color="#02010B"/>
<stop offset="1" stop-color="#161244"/>
</linearGradient>
<linearGradient id="paint45_linear_2007_1998" x1="301.923" y1="582.235" x2="309.728" y2="582.235" gradientUnits="userSpaceOnUse">
<stop stop-color="#FF928E"/>
<stop offset="1" stop-color="#FEB3B1"/>
</linearGradient>
<linearGradient id="paint46_linear_2007_1998" x1="283.416" y1="522.557" x2="309.223" y2="522.557" gradientUnits="userSpaceOnUse">
<stop stop-color="#09005D"/>
<stop offset="1" stop-color="#1A0F91"/>
</linearGradient>
<linearGradient id="paint47_linear_2007_1998" x1="274.578" y1="510.981" x2="277.868" y2="582.81" gradientUnits="userSpaceOnUse">
<stop stop-color="#02010B"/>
<stop offset="1" stop-color="#161244"/>
</linearGradient>
<linearGradient id="paint48_linear_2007_1998" x1="273.794" y1="581.834" x2="280.533" y2="581.834" gradientUnits="userSpaceOnUse">
<stop stop-color="#FF928E"/>
<stop offset="1" stop-color="#FEB3B1"/>
</linearGradient>
<linearGradient id="paint49_linear_2007_1998" x1="266.531" y1="521.711" x2="303.169" y2="521.711" gradientUnits="userSpaceOnUse">
<stop stop-color="#09005D"/>
<stop offset="1" stop-color="#1A0F91"/>
</linearGradient>
<linearGradient id="paint50_linear_2007_1998" x1="266.268" y1="448.988" x2="184.384" y2="527.949" gradientUnits="userSpaceOnUse">
<stop stop-color="#E85255"/>
<stop offset="1" stop-color="#FF4F4F"/>
</linearGradient>
<linearGradient id="paint51_linear_2007_1998" x1="246.583" y1="428.574" x2="164.698" y2="507.535" gradientUnits="userSpaceOnUse">
<stop stop-color="#E85255"/>
<stop offset="1" stop-color="#FF4F4F"/>
</linearGradient>
<linearGradient id="paint52_linear_2007_1998" x1="246.788" y1="435.096" x2="297.249" y2="435.096" gradientUnits="userSpaceOnUse">
<stop stop-color="#FF928E"/>
<stop offset="1" stop-color="#FEB3B1"/>
</linearGradient>
<linearGradient id="paint53_linear_2007_1998" x1="294.798" y1="375.037" x2="289.681" y2="413.786" gradientUnits="userSpaceOnUse">
<stop stop-color="#FF928E"/>
<stop offset="1" stop-color="#FEB3B1"/>
</linearGradient>
<linearGradient id="paint54_linear_2007_1998" x1="2753.61" y1="1422.68" x2="2728.16" y2="1411.74" gradientUnits="userSpaceOnUse">
<stop stop-color="#FF928E"/>
<stop offset="1" stop-color="#FEB3B1"/>
</linearGradient>
<linearGradient id="paint55_linear_2007_1998" x1="2751.03" y1="1428.69" x2="2725.59" y2="1417.76" gradientUnits="userSpaceOnUse">
<stop stop-color="#FF928E"/>
<stop offset="1" stop-color="#FEB3B1"/>
</linearGradient>
<linearGradient id="paint56_linear_2007_1998" x1="300.89" y1="415.981" x2="285.538" y2="461.491" gradientUnits="userSpaceOnUse">
<stop stop-color="#FF928E"/>
<stop offset="1" stop-color="#FEB3B1"/>
</linearGradient>
<linearGradient id="paint57_linear_2007_1998" x1="730.18" y1="359.043" x2="724.415" y2="382.54" gradientUnits="userSpaceOnUse">
<stop stop-color="#93C01F"/>
<stop offset="1" stop-color="#46952B"/>
</linearGradient>
<linearGradient id="paint58_linear_2007_1998" x1="694.244" y1="419.885" x2="652.331" y2="446.903" gradientUnits="userSpaceOnUse">
<stop stop-color="#E240D7"/>
<stop offset="1" stop-color="#E008B5"/>
</linearGradient>
<linearGradient id="paint59_linear_2007_1998" x1="726.152" y1="459.865" x2="695.955" y2="464.948" gradientUnits="userSpaceOnUse">
<stop stop-color="#CB7A3D"/>
<stop offset="1" stop-color="#FCC49A"/>
</linearGradient>
<linearGradient id="paint60_linear_2007_1998" x1="697.563" y1="604.434" x2="721.14" y2="604.434" gradientUnits="userSpaceOnUse">
<stop stop-color="#57239F"/>
<stop offset="1" stop-color="#9354E9"/>
</linearGradient>
<linearGradient id="paint61_linear_2007_1998" x1="742.382" y1="459.891" x2="712.186" y2="464.977" gradientUnits="userSpaceOnUse">
<stop stop-color="#CB7A3D"/>
<stop offset="1" stop-color="#FCC49A"/>
</linearGradient>
<linearGradient id="paint62_linear_2007_1998" x1="737.949" y1="480.676" x2="647.465" y2="583.009" gradientUnits="userSpaceOnUse">
<stop stop-color="#3D3D71"/>
<stop offset="1" stop-color="#4F52FF"/>
</linearGradient>
<linearGradient id="paint63_linear_2007_1998" x1="711.554" y1="344.692" x2="729.325" y2="388.945" gradientUnits="userSpaceOnUse">
<stop/>
<stop offset="1" stop-color="#393840"/>
</linearGradient>
<linearGradient id="paint64_linear_2007_1998" x1="713.815" y1="604.434" x2="737.406" y2="604.434" gradientUnits="userSpaceOnUse">
<stop stop-color="#57239F"/>
<stop offset="1" stop-color="#9354E9"/>
</linearGradient>
<linearGradient id="paint65_linear_2007_1998" x1="728.565" y1="366.361" x2="709.632" y2="374.085" gradientUnits="userSpaceOnUse">
<stop stop-color="#CB7A3D"/>
<stop offset="1" stop-color="#FCC49A"/>
</linearGradient>
<linearGradient id="paint66_linear_2007_1998" x1="729.476" y1="353.393" x2="706.548" y2="367.301" gradientUnits="userSpaceOnUse">
<stop stop-color="#CB7A3D"/>
<stop offset="1" stop-color="#FCC49A"/>
</linearGradient>
<linearGradient id="paint67_linear_2007_1998" x1="705.193" y1="355.424" x2="727.731" y2="391.153" gradientUnits="userSpaceOnUse">
<stop/>
<stop offset="1" stop-color="#3A3940"/>
</linearGradient>
<linearGradient id="paint68_linear_2007_1998" x1="770.397" y1="375.11" x2="714.145" y2="431.934" gradientUnits="userSpaceOnUse">
<stop stop-color="#CB7A3D"/>
<stop offset="0.966346" stop-color="#FCC49A"/>
</linearGradient>
<linearGradient id="paint69_linear_2007_1998" x1="822.876" y1="329.344" x2="822.876" y2="352.871" gradientUnits="userSpaceOnUse">
<stop stop-color="#93C01F"/>
<stop offset="1" stop-color="#455A0F"/>
</linearGradient>
<linearGradient id="paint70_linear_2007_1998" x1="885.861" y1="488.58" x2="891.568" y2="493.904" gradientUnits="userSpaceOnUse">
<stop stop-color="#A22B25"/>
<stop offset="1" stop-color="#C0423C"/>
</linearGradient>
<linearGradient id="paint71_linear_2007_1998" x1="773.149" y1="310.063" x2="782.437" y2="403.208" gradientUnits="userSpaceOnUse">
<stop stop-color="#A22B25"/>
<stop offset="1" stop-color="#C0423C"/>
</linearGradient>
<linearGradient id="paint72_linear_2007_1998" x1="774.678" y1="309.91" x2="783.965" y2="403.056" gradientUnits="userSpaceOnUse">
<stop stop-color="#A22B25"/>
<stop offset="1" stop-color="#C0423C"/>
</linearGradient>
<linearGradient id="paint73_linear_2007_1998" x1="803.427" y1="566.529" x2="795.622" y2="566.529" gradientUnits="userSpaceOnUse">
<stop stop-color="#A22B25"/>
<stop offset="1" stop-color="#C0423C"/>
</linearGradient>
<linearGradient id="paint74_linear_2007_1998" x1="794.723" y1="510.347" x2="898.455" y2="469.173" gradientUnits="userSpaceOnUse">
<stop stop-color="#070421"/>
<stop offset="1" stop-color="#6E6B96"/>
</linearGradient>
<linearGradient id="paint75_linear_2007_1998" x1="791.419" y1="502.023" x2="895.151" y2="460.849" gradientUnits="userSpaceOnUse">
<stop stop-color="#070421"/>
<stop offset="1" stop-color="#6E6B96"/>
</linearGradient>
<linearGradient id="paint76_linear_2007_1998" x1="852.572" y1="312.202" x2="843.285" y2="405.348" gradientUnits="userSpaceOnUse">
<stop stop-color="#A22B25"/>
<stop offset="1" stop-color="#C0423C"/>
</linearGradient>
<linearGradient id="paint77_linear_2007_1998" x1="803.466" y1="372.542" x2="873.601" y2="486.45" gradientUnits="userSpaceOnUse">
<stop offset="0.169952" stop-color="white"/>
<stop offset="1" stop-color="#B8B8B8"/>
</linearGradient>
<linearGradient id="paint78_linear_2007_1998" x1="813.166" y1="350.922" x2="819.015" y2="400.15" gradientUnits="userSpaceOnUse">
<stop stop-color="#A22B25"/>
<stop offset="1" stop-color="#C0423C"/>
</linearGradient>
<linearGradient id="paint79_linear_2007_1998" x1="854.258" y1="-496.241" x2="852.636" y2="-461.376" gradientUnits="userSpaceOnUse">
<stop stop-color="#A22B25"/>
<stop offset="1" stop-color="#C0423C"/>
</linearGradient>
<linearGradient id="paint80_linear_2007_1998" x1="863.14" y1="-495.827" x2="861.518" y2="-460.961" gradientUnits="userSpaceOnUse">
<stop stop-color="#A22B25"/>
<stop offset="1" stop-color="#C0423C"/>
</linearGradient>
<linearGradient id="paint81_linear_2007_1998" x1="851.043" y1="312.05" x2="841.756" y2="405.195" gradientUnits="userSpaceOnUse">
<stop stop-color="#A22B25"/>
<stop offset="1" stop-color="#C0423C"/>
</linearGradient>
</defs>
</svg>
