<svg width="751" height="552" viewBox="0 0 751 552" fill="none" xmlns="http://www.w3.org/2000/svg">
<path d="M550.852 434.944C550.671 434.924 550.537 434.799 550.52 434.614C550.504 434.428 550.633 434.258 550.859 434.209C555.577 433.766 559.902 431.184 563.056 426.856C567.023 421.477 568.624 414.187 567.256 407.824C564.541 395.248 553.717 386.571 545.15 381.485C540.521 378.739 535.591 376.402 530.838 374.12C525.034 371.357 519.024 368.461 513.525 364.922C500.784 356.625 491.604 345.001 487.669 332.145C482.92 316.627 485.681 298.321 495.184 281.924C502.785 268.814 514.185 256.961 531.106 244.716C532.702 243.566 534.338 242.383 535.97 241.237C543.578 235.849 551.425 230.303 557.329 223.002C567.016 211.001 567.196 198.849 564.139 191.457C564.049 191.264 564.146 191.054 564.335 191.001C564.529 190.911 564.739 191.008 564.792 191.197C567.939 198.783 567.764 211.229 557.867 223.465C551.918 230.835 543.992 236.446 536.347 241.829C534.715 242.976 533.119 244.126 531.487 245.273C514.679 257.493 503.327 269.24 495.77 282.282C486.359 298.505 483.655 316.633 488.314 331.958C492.193 344.661 501.28 356.128 513.883 364.336C519.345 367.871 525.323 370.727 531.09 373.486C535.88 375.771 540.807 378.145 545.472 380.895C554.18 386.033 565.17 394.875 567.93 407.713C569.351 414.266 567.69 421.771 563.594 427.319C560.315 431.78 555.792 434.488 550.889 434.948C550.889 434.948 550.889 434.948 550.852 434.944Z" fill="#57239F"/>
<path d="M597.445 83.5441C606.657 134.978 593.643 186.229 556.539 192.882C519.398 199.535 472.205 158.995 462.993 107.598C453.781 56.1639 486.096 13.3206 523.237 6.66746C560.341 0.0143285 588.233 32.1102 597.445 83.5441Z" fill="url(#paint0_linear_16_16)"/>
<path opacity="0.36" d="M493.919 41.9431C501.303 34.7416 501.559 39.0917 498.305 58.2103C495.052 77.329 493.37 109.535 484.597 105.915C475.787 102.333 474.325 61.0251 493.919 41.9431Z" fill="white"/>
<path opacity="0.36" d="M499.293 121.854C499.914 125.436 497.538 128.836 493.992 129.494C490.41 130.115 487.01 127.739 486.352 124.193C485.73 120.611 488.107 117.211 491.652 116.553C495.235 115.932 498.671 118.308 499.293 121.854Z" fill="white"/>
<path d="M676.003 170.29C662.77 214.815 632.027 250.347 599.895 240.806C567.762 231.265 546.45 180.27 559.647 135.781C572.843 91.2932 615.613 70.1275 647.709 79.6685C679.842 89.2095 689.2 125.802 676.003 170.29Z" fill="#14AEEA"/>
<path opacity="0.36" d="M610.386 96.0077C619.123 93.2295 617.587 96.8119 607.388 110.703C597.189 124.594 583.006 149.489 577.449 143.128C571.893 136.694 587.209 103.319 610.386 96.0077Z" fill="white"/>
<path opacity="0.36" d="M582.786 161.589C581.872 164.696 578.619 166.451 575.512 165.537C572.405 164.623 570.65 161.37 571.564 158.262C572.478 155.155 575.731 153.401 578.838 154.314C581.946 155.228 583.7 158.482 582.786 161.589Z" fill="white"/>
<path d="M609.923 241.062C609.813 240.966 609.682 240.95 609.555 240.985C609.38 241.075 609.291 241.288 609.354 241.439C612.502 249.018 608.402 257.805 602.699 262.583C596.335 267.901 587.951 269.914 580.627 271.152C578.936 271.426 577.221 271.728 575.502 271.978C569.298 272.931 562.915 273.922 556.991 276.281C543.354 281.72 532.253 294.883 527.275 311.479C522.216 328.392 523.793 346.471 525.42 358.588C525.589 359.898 525.783 361.18 525.976 362.462C527.016 369.903 528.126 377.599 527.226 385.099C526.032 395.055 521.159 403.171 514.136 406.85C513.961 406.94 513.9 407.177 513.99 407.353C514.08 407.528 514.317 407.589 514.492 407.499C521.715 403.702 526.728 395.369 527.959 385.203C528.851 377.6 527.766 369.877 526.695 362.36C526.501 361.078 526.332 359.768 526.138 358.486C524.515 346.421 522.945 328.444 527.964 311.69C532.905 295.304 543.861 282.306 557.296 276.933C563.145 274.606 569.503 273.642 575.656 272.693C577.374 272.443 579.065 272.169 580.78 271.867C588.231 270.594 596.691 268.55 603.203 263.118C609.077 258.198 613.334 249.063 610.061 241.182C609.979 241.11 609.951 241.086 609.923 241.062Z" fill="#D16D4E"/>
<path d="M695.961 96.624C694.645 94.4672 693.073 92.5663 691.428 90.702C690.624 89.7515 689.71 88.9107 688.833 88.0334C687.955 87.1926 687.005 86.3518 686.091 85.5476C682.326 82.3307 678.195 79.5525 673.808 77.2129C669.422 74.8733 664.889 72.8993 660.136 71.4005C655.457 69.7921 650.595 68.7685 645.697 67.8547C635.937 66.2096 625.957 65.9172 616.087 66.5386C613.601 66.6118 611.152 66.9408 608.703 67.1601L605.01 67.5257C603.768 67.6353 602.561 67.8912 601.355 68.074C598.906 68.4761 596.456 68.8051 594.044 69.2438L586.769 70.7791C584.32 71.2543 581.944 71.9123 579.568 72.4972C577.192 73.1187 574.779 73.7036 572.403 74.3981L565.311 76.5549L561.765 77.6516C560.595 78.0171 559.426 78.4558 558.256 78.8579C553.613 80.5395 548.898 82.0748 544.365 83.9757L537.492 86.7174L535.774 87.4119L534.092 88.1431L530.693 89.6418L523.93 92.6394L522.248 93.3705L520.567 94.1747L517.24 95.7832L510.587 99.0001C509.49 99.5484 508.357 100.06 507.261 100.609L503.971 102.327L497.427 105.763L494.137 107.481L492.492 108.358L490.884 109.272L477.979 116.547C444.092 136.433 408.487 153.358 371.785 167.359C353.434 174.341 334.791 180.629 315.928 186.039C306.497 188.781 297.029 191.303 287.488 193.606C277.947 195.909 268.369 198.029 258.719 199.821C249.068 201.648 239.381 203.184 229.657 204.463C219.933 205.743 210.173 206.693 200.376 207.278C180.818 208.484 161.151 208.302 141.74 205.852C122.366 203.403 103.174 198.578 85.6639 189.951C76.9271 185.637 68.7752 180.227 61.5006 173.793C60.5502 173.025 59.7094 172.148 58.832 171.307C57.9547 170.466 57.0774 169.626 56.2366 168.748L53.7874 166.043L52.581 164.691C52.1789 164.215 51.8133 163.74 51.4478 163.265L49.1813 160.414C48.4502 159.463 47.7922 158.44 47.0611 157.453C45.5989 155.515 44.4291 153.395 43.1496 151.311C42.4916 150.288 41.9799 149.191 41.395 148.131C40.8466 147.071 40.2617 145.974 39.7134 144.914L38.2512 141.587C37.7394 140.491 37.2642 139.358 36.8621 138.224C36.0213 135.958 35.1074 133.691 34.4859 131.352L33.4258 127.843L32.5851 124.297C32.3292 123.127 31.9636 121.92 31.7808 120.751L31.1228 117.168C30.6476 114.792 30.3917 112.343 30.0627 109.93C29.5509 105.068 29.1488 100.206 29.1123 95.3445C29.0757 90.4826 29.3316 85.5842 29.8799 80.7588C30.4648 75.9334 31.4153 71.1447 32.7313 66.4655C35.3633 57.1073 39.6403 48.2242 45.4161 40.4013C48.304 36.4899 51.5574 32.8709 55.1399 29.5443C58.7224 26.2177 62.5607 23.2202 66.6184 20.515C70.6761 17.8099 74.9531 15.4338 79.3763 13.3501C83.7996 11.2665 88.369 9.47523 93.0116 7.97644C102.333 4.94232 111.984 3.00487 121.744 2.16409C126.643 1.76197 131.541 1.61575 136.403 1.94476C138.852 2.09098 141.265 2.34687 143.678 2.82209C144.884 3.04142 146.054 3.33387 147.187 3.73598C148.32 4.10154 149.454 4.61332 150.367 5.30788L150.843 4.75954C149.819 3.91876 148.649 3.40698 147.48 3.00487C146.31 2.60276 145.103 2.27376 143.861 2.01787C141.411 1.50609 138.962 1.21364 136.476 1.03086C131.541 0.665307 126.57 0.738417 121.671 1.10397C111.801 1.83509 102.041 3.73598 92.6095 6.69699C87.8938 8.19578 83.2512 9.95045 78.7549 12.0341C74.2585 14.1178 69.9084 16.4939 65.7411 19.199C61.5737 21.9042 57.6257 24.9383 53.9336 28.3014C50.278 31.6645 46.9149 35.3567 43.9173 39.3412C37.8856 47.2738 33.4258 56.3762 30.6842 65.9538C29.295 70.7425 28.308 75.641 27.6866 80.576C27.0651 85.511 26.8092 90.4826 26.8092 95.4542C26.8092 100.426 27.1748 105.361 27.6866 110.296C28.0156 112.745 28.2715 115.231 28.7101 117.68L29.3316 121.336C29.5144 122.579 29.8799 123.748 30.1358 124.991L30.9766 128.61L32.0367 132.193C32.6947 134.605 33.6086 136.908 34.4494 139.248C34.8515 140.418 35.3633 141.551 35.8751 142.721L37.3739 146.157C37.9222 147.29 38.5071 148.387 39.092 149.483C39.6769 150.58 40.1886 151.713 40.8832 152.773C42.1626 154.894 43.4055 157.087 44.8678 159.098C45.5989 160.121 46.2569 161.181 47.0245 162.168L49.3276 165.093C49.7297 165.568 50.0952 166.08 50.4973 166.555L51.7402 167.944L54.226 170.722C55.1033 171.6 56.0172 172.477 56.8946 173.354C57.7719 174.232 58.6493 175.109 59.5997 175.913C67.0571 182.566 75.3918 188.159 84.3113 192.619C93.2309 197.079 102.589 200.515 112.167 203.147C121.744 205.779 131.505 207.644 141.302 208.923C160.969 211.445 180.818 211.628 200.558 210.458C210.428 209.873 220.262 208.923 230.059 207.68C239.856 206.401 249.616 204.865 259.303 203.038C269.027 201.246 278.641 199.163 288.256 196.86C297.87 194.557 307.411 192.071 316.879 189.293C335.814 183.809 354.531 177.449 372.955 170.393C409.767 156.246 445.518 139.175 479.478 119.106L492.273 111.795L493.881 110.881L495.49 110.003L498.743 108.285L505.25 104.812L508.503 103.094C509.6 102.509 510.697 101.998 511.793 101.449L518.41 98.1959L521.7 96.5874L523.345 95.7832L525.027 95.0155L531.753 91.9814L535.116 90.4826L536.798 89.7149L538.516 89.0204L545.315 86.2421C549.811 84.3047 554.491 82.7694 559.097 81.0513C560.266 80.6491 561.4 80.2105 562.569 79.8083L566.079 78.7117L573.097 76.5183C575.437 75.8238 577.813 75.2389 580.189 74.5809C582.565 73.9594 584.905 73.3014 587.318 72.8262L594.482 71.2543C596.895 70.8157 599.308 70.4501 601.72 70.0114C602.927 69.8287 604.133 69.5728 605.34 69.4265L608.995 69.0244C611.444 68.7685 613.857 68.403 616.306 68.3299C626.067 67.5988 635.9 67.7815 645.551 69.3169C650.376 70.1211 655.165 71.1081 659.807 72.6434C664.487 74.0326 669.019 75.97 673.333 78.1999C677.683 80.4298 681.777 83.0984 685.543 86.2421C686.457 87.0464 687.407 87.8506 688.284 88.6548C689.162 89.4956 690.076 90.3364 690.88 91.2503C692.561 93.005 694.133 94.9059 695.413 96.953L695.961 96.624Z" fill="#208B00"/>
<path d="M669.019 78.0184C669.019 78.0184 669.604 106.057 663.17 125.285C662.476 127.405 659.698 127.917 658.272 126.199C649.937 116.183 627.675 88.2906 624.166 72.6447C624.166 72.6447 644.344 67.8194 669.019 78.0184Z" fill="#B8EE2B"/>
<path d="M609.909 71.0355C609.909 71.0355 615.356 103.57 604.645 129.378C603.804 131.389 601.245 131.937 599.673 130.438C591.594 122.762 570.246 101.34 562.021 81.7828C562.057 81.7828 591.741 72.9729 609.909 71.0355Z" fill="#43A725"/>
<path d="M553.686 85.2188C553.686 85.2188 558.183 115.852 549.665 141.112C548.788 143.671 545.717 144.731 543.451 143.233C535.701 138.188 519.507 125.723 509.271 104.301C509.271 104.337 532.557 92.0182 553.686 85.2188Z" fill="#B7EE2B"/>
<path d="M505.14 106.421C505.14 106.421 509.856 138.444 499.51 156.1C498.487 157.891 496.147 158.403 494.466 157.197C488.544 152.993 474.981 142.648 465.769 129.926C465.769 129.926 497.609 110.479 505.14 106.421Z" fill="#43A725"/>
<path d="M459.702 133.766C459.702 133.766 467.305 164.326 457.728 181.946C456.741 183.737 454.474 184.322 452.793 183.225C445.445 178.51 426.473 165.533 420.441 152.848C420.441 152.848 453.633 137.604 459.702 133.766Z" fill="#B8EE2B"/>
<path d="M414.263 155.955L376.72 171.82C376.72 171.82 395.948 200.845 408.999 206.511C410.351 207.096 411.923 206.402 412.435 205.013C414.811 198.871 420.258 180.63 414.263 155.955Z" fill="url(#paint1_linear_16_16)"/>
<path d="M371.163 174.123C371.163 174.123 341.772 185.089 333.218 187.1C333.218 187.1 342.174 210.313 354.713 220.658C356.65 222.267 359.575 221.791 360.891 219.671C365.351 212.396 374.197 194.923 371.163 174.123Z" fill="url(#paint2_linear_16_16)"/>
<path d="M327.406 187.94C327.406 187.94 300.063 197.883 292.13 199.053C292.13 199.053 304.632 224.715 316.513 238.971C317.39 240.032 319.108 239.958 319.876 238.789C323.605 233.159 332.232 216.563 327.406 187.94Z" fill="url(#paint3_linear_16_16)"/>
<path d="M288.511 199.602C288.511 199.602 262.081 205.707 250.42 206.694C250.42 206.694 260.363 237.986 275.314 245.297C276.594 245.918 278.129 245.406 278.787 244.127C282.04 238.022 290.814 219.233 288.511 199.602Z" fill="url(#paint4_linear_16_16)"/>
<path d="M246.838 207.206C246.838 207.206 220.298 212.58 211.415 212.434C211.415 212.434 223.15 241.678 234.811 250.817C236.748 252.353 239.563 251.987 241.098 250.05C244.754 245.553 249.799 234.258 246.838 207.206Z" fill="#B8EE2B"/>
<path d="M204.908 213.382C204.908 213.382 180.014 214.845 172.593 214.443C172.593 214.443 174.348 235.279 188.97 251.035C190.542 252.716 193.174 252.753 194.782 251.144C199.242 246.648 206.626 235.681 204.908 213.382Z" fill="#43A725"/>
<path d="M165.867 213.968C165.867 213.968 145.103 213.347 134.356 210.495C134.356 210.495 132.674 233.854 144.628 246.576C146.273 248.33 148.978 248.659 151.025 247.343C156.216 243.98 165.318 235.061 165.867 213.968Z" fill="#B8EE2B"/>
<path d="M129.822 209.692C129.822 209.692 108.218 208.449 100.87 203.623C100.87 203.623 98.4576 228.043 108.949 242.848C109.826 244.091 111.618 244.31 112.787 243.286C116.918 239.485 125.984 229.322 129.822 209.692Z" fill="#43A725"/>
<path d="M96.2283 202.088C96.2283 202.088 70.4566 192.583 60.0016 181.58C60.0016 181.58 48.6694 210.093 60.8059 231.588C61.2811 232.465 62.3046 232.867 63.2551 232.612C68.9212 230.967 88.1861 223.911 96.2283 202.088Z" fill="#B8EE2B"/>
<path d="M32.7674 147.181C32.7674 147.181 42.4546 167.908 53.3482 176.645C53.3482 176.645 38.2873 196.933 20.0826 201.978C18.5107 202.417 16.8657 201.466 16.5001 199.858C14.8917 192.62 12.7714 172.003 32.7674 147.181Z" fill="#43A725"/>
<path d="M22.3125 96.3326C22.3125 96.3326 21.3986 120.094 29.2215 143.307C29.2215 143.307 15.111 149.667 6.63012 160.524C4.54644 163.193 0.232871 161.584 0.415649 158.221C1.07365 144.55 5.241 121.922 22.3125 96.3326Z" fill="#B8EE2B"/>
<path d="M421.794 158.881H378.732V110.226C378.732 106.132 381.62 102.622 385.604 101.855C393.61 100.319 401.616 100.319 409.621 101.964C413.204 102.695 415.872 105.729 416.275 109.349L421.794 158.881Z" fill="#FFC84E"/>
<path d="M394.597 41.5011C393.72 40.3313 391.928 40.5872 391.38 41.9398C388.821 48.2639 382.716 62.9227 377.964 71.2209C371.823 82.0048 375.003 98.5645 397.192 95.8228C429.8 91.8383 402.53 52.1388 394.597 41.5011Z" fill="url(#paint5_linear_16_16)"/>
<path opacity="0.53" d="M394.378 61.2786C393.83 60.5841 392.733 60.7303 392.404 61.5345C390.832 65.3729 387.103 74.329 384.216 79.3737C380.45 85.9537 382.424 96.0431 395.95 94.3981C415.836 91.9488 399.203 67.749 394.378 61.2786Z" fill="url(#paint6_linear_16_16)"/>
<path d="M392.587 88.8767L394.012 105.144C394.085 106.094 394.89 106.899 395.84 106.899H395.877C397.01 106.899 397.887 105.875 397.777 104.742C397.156 99.222 395.145 83.1375 392.587 88.8767Z" fill="#A4A4A4"/>
<path d="M266.141 162.976L309.167 160.965L306.901 112.346C306.718 108.289 303.684 104.889 299.626 104.304C291.547 103.171 283.578 103.5 275.646 105.547C272.1 106.461 269.577 109.605 269.322 113.26L266.141 162.976Z" fill="#FFC84E"/>
<path d="M287.855 44.4614C288.659 43.2551 290.487 43.4013 291.072 44.7173C293.923 50.8952 300.723 65.2616 305.841 73.3404C312.494 83.7953 310.081 100.501 287.782 98.8197C255.028 96.3705 280.398 55.4281 287.855 44.4614Z" fill="url(#paint7_linear_16_16)"/>
<path opacity="0.53" d="M288.988 64.2019C289.5 63.4707 290.596 63.5804 290.962 64.3481C292.717 68.1133 296.847 76.8867 299.955 81.7851C304.012 88.1824 302.55 98.3449 288.951 97.3213C268.955 95.8591 284.455 70.8916 288.988 64.2019Z" fill="url(#paint8_linear_16_16)"/>
<path d="M292.059 91.6921L291.401 107.996C291.365 108.946 290.633 109.787 289.646 109.86H289.61C288.477 109.933 287.526 108.946 287.599 107.813C287.965 102.257 289.244 86.0625 292.059 91.6921Z" fill="#A4A4A4"/>
<path d="M371.055 156.577H324.118L327.956 107.885C327.956 103.791 330.844 100.281 334.829 99.5138C342.834 97.9785 350.84 97.9785 358.846 99.6235C362.428 100.355 365.097 103.389 365.499 107.008L371.055 156.577Z" fill="#FFC84E"/>
<path d="M343.821 39.1971C342.944 38.0273 341.152 38.2832 340.604 39.6357C338.045 45.9599 331.94 60.6187 327.188 68.9168C321.047 79.7008 324.227 96.2605 346.416 93.5188C379.024 89.4977 351.754 49.8348 343.821 39.1971Z" fill="url(#paint9_linear_16_16)"/>
<path opacity="0.53" d="M343.601 58.9746C343.053 58.2801 341.956 58.4263 341.627 59.2305C340.055 63.0688 336.327 72.025 333.439 77.0697C329.674 83.6497 331.648 93.7391 345.173 92.0941C365.059 89.6448 348.427 65.445 343.601 58.9746Z" fill="url(#paint10_linear_16_16)"/>
<path d="M341.811 86.5727L343.236 102.84C343.309 103.79 344.114 104.595 345.064 104.595H345.101C346.234 104.595 347.111 103.571 347.001 102.438C346.417 96.918 344.37 80.8335 341.811 86.5727Z" fill="#A4A4A4"/>
<path d="M236.932 295.563L237.517 177.086C237.553 168.24 242.891 160.234 251.042 156.871C278.167 145.648 345.173 126.42 443.069 154.97C451.733 157.492 457.984 165.096 458.825 174.089L469.901 292.968L236.932 295.563Z" fill="url(#paint11_linear_16_16)"/>
<path d="M246.108 198.69C254.772 196.424 254.552 175.112 259.195 175.112C271.624 175.112 257.842 216.785 276.23 214.372C291.291 212.398 277.107 182.386 289.317 177.707C294.654 175.66 302.367 179.06 306.352 184.251C316.99 198.069 297.798 220.075 307.01 230.713C313.48 238.207 331.539 237.293 337.132 229.397C344.882 218.394 324.52 199.494 332.562 187.504C337.936 179.498 353.765 178 358.736 183.593C364.548 190.1 353.07 203.479 359.394 211.082C364 216.602 376.1 216.785 380.341 211.74C385.678 205.38 376.575 193.134 381.657 188.82C384.654 186.298 390.686 188.126 394.085 190.794C400.41 195.766 392.148 206.44 397.375 212.398C401.104 216.675 409.951 217.37 413.752 213.714C419.93 207.756 410.828 192.074 415.068 189.515C417.737 187.906 424.536 192.11 428.813 198.032C439.159 212.435 429.362 230.165 437.331 235.355C441.315 237.951 448.627 236.635 452.392 232.723C463.541 221.172 441.681 189.295 449.76 182.971C451.039 181.948 453.415 181.363 458.241 183.154C461.202 184.251 464.309 181.874 464.017 178.731L463.541 173.613C462.518 162.683 454.914 153.544 444.35 150.51C410.06 140.53 376.393 135.449 344.26 135.449C300.137 135.449 268.334 144.77 249.398 152.63C239.491 156.724 233.094 166.302 233.021 177.049L232.985 185.091C232.948 190.538 235.982 195.619 240.917 197.959C242.672 198.836 244.427 199.129 246.108 198.69Z" fill="url(#paint12_linear_16_16)"/>
<path d="M231.924 286.571C240.404 286.571 247.278 279.697 247.278 271.217C247.278 262.738 240.404 255.864 231.924 255.864C223.445 255.864 216.571 262.738 216.571 271.217C216.571 279.697 223.445 286.571 231.924 286.571Z" fill="url(#paint13_linear_16_16)"/>
<path d="M257.733 277.981C266.212 277.981 273.086 271.107 273.086 262.628C273.086 254.148 266.212 247.274 257.733 247.274C249.253 247.274 242.379 254.148 242.379 262.628C242.379 271.107 249.253 277.981 257.733 277.981Z" fill="url(#paint14_linear_16_16)"/>
<path d="M285.368 274.91C293.848 274.91 300.722 268.036 300.722 259.557C300.722 251.077 293.848 244.203 285.368 244.203C276.889 244.203 270.015 251.077 270.015 259.557C270.015 268.036 276.889 274.91 285.368 274.91Z" fill="url(#paint15_linear_16_16)"/>
<path d="M313.589 272.461C322.069 272.461 328.943 265.587 328.943 257.108C328.943 248.628 322.069 241.754 313.589 241.754C305.11 241.754 298.236 248.628 298.236 257.108C298.236 265.587 305.11 272.461 313.589 272.461Z" fill="url(#paint16_linear_16_16)"/>
<path d="M341.226 270.012C349.705 270.012 356.579 263.138 356.579 254.659C356.579 246.179 349.705 239.305 341.226 239.305C332.747 239.305 325.873 246.179 325.873 254.659C325.873 263.138 332.747 270.012 341.226 270.012Z" fill="url(#paint17_linear_16_16)"/>
<path d="M369.446 270.012C377.926 270.012 384.8 263.138 384.8 254.659C384.8 246.179 377.926 239.305 369.446 239.305C360.967 239.305 354.093 246.179 354.093 254.659C354.093 263.138 360.967 270.012 369.446 270.012Z" fill="url(#paint18_linear_16_16)"/>
<path d="M397.083 271.218C405.562 271.218 412.436 264.344 412.436 255.865C412.436 247.385 405.562 240.511 397.083 240.511C388.603 240.511 381.729 247.385 381.729 255.865C381.729 264.344 388.603 271.218 397.083 271.218Z" fill="url(#paint19_linear_16_16)"/>
<path d="M423.476 272.461C431.955 272.461 438.829 265.587 438.829 257.108C438.829 248.628 431.955 241.754 423.476 241.754C414.996 241.754 408.122 248.628 408.122 257.108C408.122 265.587 414.996 272.461 423.476 272.461Z" fill="url(#paint20_linear_16_16)"/>
<path d="M448.663 276.738C457.143 276.738 464.017 269.864 464.017 261.385C464.017 252.905 457.143 246.031 448.663 246.031C440.184 246.031 433.31 252.905 433.31 261.385C433.31 269.864 440.184 276.738 448.663 276.738Z" fill="url(#paint21_linear_16_16)"/>
<path d="M473.228 280.43C481.707 280.43 488.581 273.556 488.581 265.077C488.581 256.597 481.707 249.723 473.228 249.723C464.748 249.723 457.874 256.597 457.874 265.077C457.874 273.556 464.748 280.43 473.228 280.43Z" fill="url(#paint22_linear_16_16)"/>
<path d="M201.4 357.014C201.693 332.888 202.534 326.637 204.617 298.891C205.312 289.752 211.38 281.892 220.044 278.895C258.61 265.516 371.567 233.31 483.172 269.354C491.689 272.096 497.867 279.48 499 288.363L512.782 355.223C513.952 364.326 506.86 372.368 497.721 372.368H216.608C208.127 372.404 201.291 365.495 201.4 357.014Z" fill="url(#paint23_linear_16_16)"/>
<path d="M172.23 377.888C185.211 377.888 195.735 367.364 195.735 354.383C195.735 341.401 185.211 330.878 172.23 330.878C159.248 330.878 148.724 341.401 148.724 354.383C148.724 367.364 159.248 377.888 172.23 377.888Z" fill="url(#paint24_linear_16_16)"/>
<path d="M211.746 364.727C224.728 364.727 235.251 354.203 235.251 341.222C235.251 328.24 224.728 317.716 211.746 317.716C198.764 317.716 188.241 328.24 188.241 341.222C188.241 354.203 198.764 364.727 211.746 364.727Z" fill="url(#paint25_linear_16_16)"/>
<path d="M254.041 360.011C267.023 360.011 277.546 349.488 277.546 336.506C277.546 323.525 267.023 313.001 254.041 313.001C241.059 313.001 230.536 323.525 230.536 336.506C230.536 349.488 241.059 360.011 254.041 360.011Z" fill="url(#paint26_linear_16_16)"/>
<path d="M297.286 356.246C310.268 356.246 320.791 345.722 320.791 332.741C320.791 319.759 310.268 309.235 297.286 309.235C284.304 309.235 273.781 319.759 273.781 332.741C273.781 345.722 284.304 356.246 297.286 356.246Z" fill="url(#paint27_linear_16_16)"/>
<path d="M339.618 352.481C352.599 352.481 363.123 341.957 363.123 328.975C363.123 315.994 352.599 305.47 339.618 305.47C326.636 305.47 316.112 315.994 316.112 328.975C316.112 341.957 326.636 352.481 339.618 352.481Z" fill="url(#paint28_linear_16_16)"/>
<path d="M382.863 352.481C395.844 352.481 406.368 341.957 406.368 328.975C406.368 315.994 395.844 305.47 382.863 305.47C369.881 305.47 359.358 315.994 359.358 328.975C359.358 341.957 369.881 352.481 382.863 352.481Z" fill="url(#paint29_linear_16_16)"/>
<path d="M425.159 354.383C438.14 354.383 448.664 343.859 448.664 330.877C448.664 317.896 438.14 307.372 425.159 307.372C412.177 307.372 401.653 317.896 401.653 330.877C401.653 343.859 412.177 354.383 425.159 354.383Z" fill="url(#paint30_linear_16_16)"/>
<path d="M465.588 356.246C478.57 356.246 489.094 345.722 489.094 332.741C489.094 319.759 478.57 309.235 465.588 309.235C452.607 309.235 442.083 319.759 442.083 332.741C442.083 345.722 452.607 356.246 465.588 356.246Z" fill="url(#paint31_linear_16_16)"/>
<path d="M504.155 362.827C517.136 362.827 527.66 352.303 527.66 339.321C527.66 326.34 517.136 315.816 504.155 315.816C491.173 315.816 480.649 326.34 480.649 339.321C480.649 352.303 491.173 362.827 504.155 362.827Z" fill="url(#paint32_linear_16_16)"/>
<path d="M541.771 368.492C554.753 368.492 565.276 357.969 565.276 344.987C565.276 332.005 554.753 321.482 541.771 321.482C528.789 321.482 518.266 332.005 518.266 344.987C518.266 357.969 528.789 368.492 541.771 368.492Z" fill="url(#paint33_linear_16_16)"/>
<path d="M125.474 485.762C125.949 448.804 127.192 439.227 130.409 396.749C131.469 382.748 140.754 370.758 154.024 366.152C213.098 345.644 386.08 296.33 556.977 351.566C569.991 355.77 579.459 367.102 581.214 380.664L602.343 483.093C604.134 497.021 593.277 509.34 579.276 509.34H148.724C135.746 509.34 125.291 498.739 125.474 485.762Z" fill="url(#paint34_linear_16_16)"/>
<path d="M354.202 412.644C354.202 412.644 364.876 364.574 379.426 370.678C393.975 376.783 392.037 388.152 396.863 391.661C401.725 395.171 419.162 420.504 354.202 412.644Z" fill="url(#paint35_linear_16_16)"/>
<path d="M356.14 412.644C356.14 412.644 361.002 363.696 345.466 364.573C329.966 365.451 334.791 386.434 321.229 387.311C307.667 388.152 301.855 416.153 356.14 412.644Z" fill="url(#paint36_linear_16_16)"/>
<path d="M320.06 528.051H384.617C392.074 528.051 398.289 522.896 398.91 516.17L407.208 424.891C407.903 417.36 401.286 410.89 392.915 410.89H320.06C312.127 410.89 305.73 416.666 305.73 423.83V515.11C305.73 522.275 312.164 528.051 320.06 528.051Z" fill="#3B7FD1"/>
<path d="M345.466 528.051H367.765V410.89H345.466V528.051Z" fill="url(#paint37_linear_16_16)"/>
<path d="M271.952 438.341C271.952 438.341 282.627 390.271 297.176 396.375C311.725 402.48 309.788 413.849 314.613 417.358C319.438 420.868 336.875 446.237 271.952 438.341Z" fill="url(#paint38_linear_16_16)"/>
<path d="M273.89 438.343C273.89 438.343 278.752 389.395 263.215 390.272C247.716 391.149 252.541 412.132 238.979 413.009C225.417 413.887 219.568 441.852 273.89 438.343Z" fill="url(#paint39_linear_16_16)"/>
<path d="M237.809 528.049H302.366C309.824 528.049 316.038 522.895 316.66 516.169L324.958 450.588C325.652 443.057 319.036 436.587 310.665 436.587H237.809C229.876 436.587 223.479 442.363 223.479 449.528V515.108C223.479 522.273 229.876 528.049 237.809 528.049Z" fill="#E8811F"/>
<path d="M263.216 528.049H285.515V436.624H263.216V528.049Z" fill="url(#paint40_linear_16_16)"/>
<path d="M102.129 279.194C105.383 285.628 111.012 297.801 113.206 302.59C113.681 303.613 114.96 303.869 115.801 303.175L131.301 290.38C132.288 289.576 132.032 288.004 130.862 287.492L104.286 276.855C102.824 276.306 101.398 277.805 102.129 279.194Z" fill="url(#paint41_linear_16_16)"/>
<path d="M137.662 520.242C137.662 520.242 136.748 525.397 136.309 530.478C136.126 532.488 137.662 534.206 139.672 534.28C146.472 534.572 160.984 535.12 166.212 534.864C166.979 534.828 167.491 534.024 167.235 533.293C166.979 532.671 166.541 532.196 165.919 531.903L141.939 520.864L137.662 520.242Z" fill="url(#paint42_linear_16_16)"/>
<path d="M136.931 517.245L137.662 523.423C137.662 523.423 141.866 525.397 144.754 523.167L142.999 516.294L136.931 517.245Z" fill="url(#paint43_linear_16_16)"/>
<path d="M137.479 401.401C137.15 403.009 135.797 481.714 144.205 516.953C144.351 517.538 144.059 518.123 143.51 518.342C142.231 518.854 139.709 519.622 136.674 519.732C135.724 519.768 134.883 519.147 134.627 518.269C132.215 510.081 120.7 469.102 119.201 429.951C117.519 386.194 119.201 428.452 119.201 428.452L120.188 401.401H137.479Z" fill="url(#paint44_linear_16_16)"/>
<path d="M110.062 522.947C110.062 522.947 108.6 525.542 107.211 532.451C106.955 533.694 107.832 534.901 109.112 535.01C111.341 535.23 114.814 535.522 117.556 535.486C118.835 535.486 119.822 534.352 119.676 533.11C119.384 530.587 118.433 526.456 115.472 523.239L110.062 522.947Z" fill="url(#paint45_linear_16_16)"/>
<path d="M108.783 515.014L110.501 524.336C110.501 524.336 112.182 525.579 115.545 524.665L114.741 514.648L108.783 515.014Z" fill="url(#paint46_linear_16_16)"/>
<path d="M104.177 403.812C97.3043 445.34 105.676 506.424 108.49 518.378C108.673 519.109 109.258 519.657 109.989 519.803C111.232 520.023 113.316 520.169 115.363 519.584C116.057 519.365 116.569 518.743 116.606 518.012C116.971 508.362 116.313 448.995 122.71 425.526C123.039 424.32 123.771 423.296 124.758 422.602L137.187 413.755L138.137 399.462L104.177 403.812Z" fill="url(#paint47_linear_16_16)"/>
<path d="M149.652 330.7C129.034 330.371 104.652 330.517 104.652 330.517C98.5104 366.378 103.592 407.723 103.592 407.723C119.566 411.927 137.552 405.164 137.552 405.164C140.184 390.213 156.012 330.81 149.652 330.7Z" fill="url(#paint48_linear_16_16)"/>
<path d="M112.548 350.514L104.652 330.554C104.652 330.554 85.3871 343.641 82.2433 360.238C85.8989 360.494 92.5155 361.444 98.9858 364.734C100.375 356.875 112.548 350.514 112.548 350.514Z" fill="url(#paint49_linear_16_16)"/>
<path d="M129.4 369.305C129.4 369.305 107.796 381.515 100.485 371.096C98.9858 368.939 98.6202 366.783 98.9858 364.736C92.5154 361.446 85.8988 360.532 82.2433 360.239C81.2928 365.247 81.8046 370.548 84.7291 375.922C97.5235 399.281 132.251 374.642 132.251 374.642L129.4 369.305Z" fill="url(#paint50_linear_16_16)"/>
<path d="M124.83 312.935L119.493 328.398C118.616 330.994 120.224 333.735 122.929 334.211C125.927 334.722 130.058 334.54 134.627 331.615C135.431 331.103 135.943 330.263 136.053 329.349L138.173 312.935H124.83Z" fill="url(#paint51_linear_16_16)"/>
<path d="M139.087 295.353C139.087 295.353 146.289 308.915 145.375 314.399C144.461 319.882 135.541 319.48 127.719 315.02L122.272 300.361L139.087 295.353Z" fill="url(#paint52_linear_16_16)"/>
<path d="M128.048 307.853C128.377 307.707 128.486 307.342 128.304 307.049C127.719 306.172 126.659 304.381 126.293 302.809C126.293 302.809 125.014 301.968 129.583 300.871C134.189 299.775 141.025 298.057 142.451 294.145C143.84 290.343 140.184 280.766 134.299 288.406C134.079 288.698 133.641 288.698 133.421 288.406C132.471 287.163 129.912 284.531 126.403 286.139C123.113 287.602 122.747 290.014 122.784 291.257C122.784 291.623 122.491 291.879 122.126 291.842C120.444 291.513 116.46 291.257 114.595 295.351C113.06 298.715 114.047 300.652 114.961 301.566C115.253 301.858 115.144 302.37 114.705 302.48C113.608 302.809 112.183 303.759 112.329 306.318C112.512 309.864 116.496 309.535 117.629 309.389C117.812 309.352 117.995 309.425 118.141 309.572C119.092 310.632 123.478 315.201 128.194 315.75C128.596 315.786 128.925 315.384 128.779 315.018L126.732 309.096C126.622 308.804 126.768 308.511 127.024 308.402L128.048 307.853Z" fill="#6A3C30"/>
<path d="M128.888 308.695C128.888 308.695 123.77 305.186 123.368 308.147C123.003 311.108 127.974 312.424 130.46 311.327L128.888 308.695Z" fill="url(#paint53_linear_16_16)"/>
<path d="M152.695 338.41C152.695 338.41 147.175 313.442 139.608 316.623C132.077 319.803 133.064 325.689 130.542 327.516C128.02 329.344 118.954 342.504 152.695 338.41Z" fill="#7111BC"/>
<path d="M151.662 339.037C151.662 339.037 149.14 313.63 157.182 314.069C165.225 314.508 162.702 325.401 169.757 325.877C176.813 326.315 179.847 340.864 151.662 339.037Z" fill="#7111BC"/>
<path d="M170.379 385.608H136.894C133.019 385.608 129.802 382.94 129.473 379.431L125.16 345.397C124.794 341.486 128.23 338.123 132.581 338.123H170.379C174.473 338.123 177.837 341.12 177.837 344.849V378.882C177.837 382.574 174.51 385.608 170.379 385.608Z" fill="#9732E5"/>
<path d="M157.219 338.123H145.631V385.572H157.219V338.123Z" fill="#6814A8"/>
<path d="M125.014 376.323C125.014 376.323 123.369 369.56 124.027 367.184C124.685 364.771 125.964 361.7 130.241 362.395C134.518 363.089 139.563 364.881 139.563 364.881C139.563 364.881 139.307 367.988 136.054 367.001L138.064 368.573C138.064 368.573 137.772 371.058 135.03 369.742L136.894 371.826C136.894 371.826 135.725 373.873 133.678 372.557C131.704 371.205 130.753 377.163 125.014 376.323Z" fill="url(#paint54_linear_16_16)"/>
<path d="M552.214 306.049L570.638 297.165C571.516 296.727 572.539 297.531 572.283 298.518C570.675 304.696 566.654 320.488 567.202 321.036C567.897 321.731 552.214 306.049 552.214 306.049Z" fill="url(#paint55_linear_16_16)"/>
<path d="M515.805 354.01C515.805 354.01 519.424 337.706 524.359 339.79C529.294 341.874 528.636 345.712 530.281 346.882C531.89 348.088 537.812 356.679 515.805 354.01Z" fill="#C50DA8"/>
<path d="M516.463 354.01C516.463 354.01 518.108 337.414 512.844 337.707C507.58 337.999 509.225 345.127 504.619 345.42C500.05 345.749 498.076 355.217 516.463 354.01Z" fill="#C50DA8"/>
<path d="M504.692 380.184H526.552C529.074 380.184 531.195 378.429 531.377 376.162L533.754 358.177C533.973 355.618 531.743 353.425 528.928 353.425H504.253C501.585 353.425 499.391 355.399 499.391 357.812L499.83 375.797C499.83 378.21 502.023 380.184 504.692 380.184Z" fill="url(#paint56_linear_16_16)"/>
<path d="M513.282 380.184H520.849L520.411 353.425H512.844L513.282 380.184Z" fill="#AE0A94"/>
<path d="M541.101 461.739L540.48 473.437C540.48 473.437 544.099 512.551 544.866 529.879C544.976 532.584 544.281 535.289 542.856 537.592L535.435 549.655L554.334 538.506L554.7 536.203L551.593 531.963L555.65 483.453C555.906 480.602 555.285 477.75 553.969 475.228L550.057 467.88L541.101 461.739Z" fill="url(#paint57_linear_16_16)"/>
<path d="M534.156 551.411H540.188C541.321 551.411 542.381 550.899 543.075 549.985C544.94 547.536 548.851 542.784 550.716 542.637C553.238 542.455 552.909 551.374 552.909 551.374H554.298L556.089 540.298C556.528 537.52 555.139 534.741 552.653 533.462C552.653 533.462 552.068 537.702 548.961 539.567C545.854 541.431 536.313 548.157 536.313 548.157C536.313 548.157 535.143 547.975 533.863 548.23C531.963 548.596 532.218 551.411 534.156 551.411Z" fill="url(#paint58_linear_16_16)"/>
<path d="M557.332 461.739L556.052 469.233C556.052 469.233 560.329 512.515 561.097 529.842C561.207 532.547 560.512 535.252 559.086 537.555L551.666 549.619L570.565 538.469L570.93 536.166L567.823 531.926L571.881 483.416C572.137 480.565 571.515 477.714 570.199 475.191L566.288 467.844L557.332 461.739Z" fill="url(#paint59_linear_16_16)"/>
<path d="M578.9 412.061C577.876 403.762 567.495 395.976 567.495 395.976C554.408 400.655 545.049 393.746 545.049 393.746C545.049 393.746 540.992 402.117 540.919 410.671C540.882 419.189 540.37 473.986 540.37 473.986C555.504 480.347 571.15 477.203 571.15 477.203C569.98 457.463 579.923 420.359 578.9 412.061Z" fill="url(#paint60_linear_16_16)"/>
<path d="M548.778 310.948C548.778 310.948 559.781 303.235 565.63 317.016C566.69 319.539 572.904 319.941 573.526 325.058C573.855 327.69 575.792 329.811 578.424 330.213C584.968 331.2 595.057 334.6 596.665 345.968C597.908 354.632 593.485 357.922 588.843 359.055C585.443 359.896 583.176 363.223 583.871 366.659C584.529 369.949 583.542 373.787 577.839 376.785C565.008 383.548 552.214 360.773 552.214 360.773L549.582 321.001L548.778 310.948Z" fill="url(#paint61_linear_16_16)"/>
<path d="M550.423 551.411H556.454C557.588 551.411 558.648 550.899 559.342 549.985C561.207 547.536 565.118 542.783 566.982 542.637C569.505 542.454 569.176 551.374 569.176 551.374H570.565L572.356 540.298C572.795 537.519 571.406 534.741 568.92 533.462C568.92 533.462 568.335 537.702 565.228 539.567C562.12 541.431 552.579 548.157 552.579 548.157C552.579 548.157 551.41 547.974 550.13 548.23C548.193 548.596 548.485 551.411 550.423 551.411Z" fill="url(#paint62_linear_16_16)"/>
<path d="M567.385 396.268C563.364 379.196 568.226 366.731 572.43 359.785C575.062 355.471 573.051 349.842 568.372 348.051C560.842 345.163 552.214 344.614 547.791 344.541C545.89 344.505 544.099 345.419 542.966 346.954C539.749 351.304 533.717 360.772 535.289 368.412C536.532 374.444 544.94 398.497 544.94 398.497C544.94 398.497 555.468 403.433 567.385 396.268Z" fill="#FD5E06"/>
<path d="M555.431 325.35L559.635 346.15C560.147 348.234 557.149 348.672 554.992 348.855C551.337 349.147 549.29 348.307 547.827 345.601C547.681 345.346 547.608 345.017 547.572 344.724L545.305 328.384C545.122 327.068 545.817 325.825 547.023 325.313L551.373 323.376C553.055 322.608 554.992 323.558 555.431 325.35Z" fill="url(#paint63_linear_16_16)"/>
<path d="M546.658 310.034C546.658 310.034 541.54 313.397 539.237 322.17C536.934 330.907 540.443 334.087 544.099 333.941C547.755 333.795 553.019 332.735 557.698 326.484C562.34 320.269 553.348 305.903 546.658 310.034Z" fill="url(#paint64_linear_16_16)"/>
<path d="M553.092 322.902C553.092 322.902 555.102 310.363 544.647 312.155L542.527 314.311C542.527 314.311 537.483 308.499 543.185 304.222C548.888 299.945 556.711 301.151 560.951 309.12C565.192 317.09 566.691 322.683 562.998 327.545C559.306 332.406 556.601 328.166 556.601 328.166C556.601 328.166 558.319 323.926 556.967 322.098C555.614 320.27 553.786 323.121 553.786 323.121L553.092 322.902Z" fill="url(#paint65_linear_16_16)"/>
<path d="M511.966 377.442C511.601 376.821 512.186 376.053 512.88 376.272C515.476 377.04 520.264 377.917 523.554 375.651C523.737 375.541 523.883 375.432 524.03 375.322C523.701 374.92 523.189 374.627 522.458 374.627C520.374 374.7 519.424 371.666 519.424 371.666C519.424 371.666 521.288 372.653 523.225 371.995C524.907 371.41 527.429 372.178 528.672 374.079C534.192 379.818 541.32 387.714 553.749 381.756C562.961 377.332 562.998 364.319 562.413 357.885C562.194 355.362 563.693 352.986 566.105 352.219C569.286 351.232 571.918 351.743 573.892 354.156C574.879 355.362 575.317 356.898 575.244 358.47C574.842 365.269 572.393 387.385 556.637 392.064C537.957 397.621 526.954 379.526 526.954 379.526C526.954 379.526 517.377 386.581 511.966 377.442Z" fill="url(#paint66_linear_16_16)"/>
<path d="M648.332 281.586L666.464 267.475C666.866 267.146 667.487 267.475 667.414 268.024L664.709 290.871L648.332 281.586Z" fill="url(#paint67_linear_16_16)"/>
<path d="M721.297 426.969C721.297 426.969 724.222 422.656 727.402 418.634C728.645 417.063 730.838 416.734 732.191 417.903C736.833 421.851 746.703 430.296 749.92 433.622C750.396 434.134 750.213 435.011 749.518 435.377C748.933 435.669 748.312 435.742 747.727 435.596L724.514 429.053L721.297 426.969Z" fill="#401A11"/>
<path d="M718.812 428.796L723.564 424.775C723.564 424.775 727.987 426.201 728.572 429.783L722.613 433.621L718.812 428.796Z" fill="url(#paint68_linear_16_16)"/>
<path d="M613.823 321.761C606.439 305.165 599.457 280.38 607.572 255.595L612.288 250.88C612.288 250.88 612.288 289.702 621.939 308.967C619.234 313.244 616.565 317.521 613.823 321.761Z" fill="url(#paint69_linear_16_16)"/>
<path d="M613.421 243.496L615.212 246.164C615.688 246.895 615.834 247.809 615.541 248.65C614.81 250.843 613.202 255.12 610.899 257.423C607.718 260.604 604.575 253 603.917 250.441C603.295 247.919 607.718 241.558 608.998 240.315C610.241 239.036 615.322 239.694 613.421 243.496Z" fill="url(#paint70_linear_16_16)"/>
<path d="M637.694 504.539C637.694 504.539 638.608 509.693 639.046 514.774C639.229 516.785 637.694 518.503 635.683 518.576C628.884 518.869 614.371 519.417 609.144 519.161C608.376 519.125 607.864 518.32 608.12 517.589C608.376 516.968 608.815 516.492 609.436 516.2L633.417 505.16L637.694 504.539Z" fill="#401A11"/>
<path d="M638.426 501.542L637.694 507.719C637.694 507.719 633.491 509.693 630.603 507.464L632.357 500.591L638.426 501.542Z" fill="url(#paint71_linear_16_16)"/>
<path d="M637.877 385.66C638.206 387.269 639.559 465.973 631.151 501.213C631.005 501.798 631.297 502.383 631.846 502.602C633.125 503.114 635.647 503.882 638.682 503.991C639.632 504.028 640.473 503.406 640.729 502.529C643.141 494.341 659.665 447.001 661.163 407.85C662.845 364.093 655.168 385.66 655.168 385.66H637.877Z" fill="url(#paint72_linear_16_16)"/>
<path d="M674.213 387.086C681.269 404.889 683.571 407.667 686.715 427.955C690.481 452.301 708.905 435.486 718.738 427.59C719.981 426.603 723.673 430.185 724.039 435.193C724.514 441.737 684.741 472.919 673.994 450.876C667.122 436.802 665.221 420.973 660.651 412.236C660.066 411.14 659.152 410.299 658.019 409.787L643.982 403.792L640.034 390.01L674.213 387.086Z" fill="url(#paint73_linear_16_16)"/>
<path d="M681.89 323.917C689.274 307.321 696.257 282.536 688.141 257.752L683.426 253.036C683.426 253.036 683.426 291.858 673.775 311.123C676.48 315.4 679.185 319.64 681.89 323.917Z" fill="url(#paint74_linear_16_16)"/>
<path d="M637.877 317.959H661.089C663.429 317.959 665.659 317.082 667.34 315.473C669.497 313.426 672.275 309.917 674.249 304.434C674.542 303.593 675.456 303.154 676.297 303.41C679.294 304.287 685.838 306.846 689.237 312.732C689.566 313.28 689.566 313.975 689.201 314.523L674.725 336.932L676.15 392.204C676.15 392.204 639.777 397.907 634.769 392.204L629.761 341.538C629.761 341.538 611.922 330.827 606.914 313.719L621.902 305.165C621.902 305.165 623.656 305.238 625.119 309.259C627.129 314.486 632.247 317.959 637.877 317.959Z" fill="url(#paint75_linear_16_16)"/>
<path d="M657.727 301.071L658.275 318.983C658.312 320.116 657.581 321.176 656.521 321.542C654.291 322.273 650.269 323.187 645.737 322.237C644.384 321.944 643.543 320.628 643.763 319.276L646.212 305.165L657.727 301.071Z" fill="url(#paint76_linear_16_16)"/>
<path d="M645.48 284.657C645.334 284.876 639.887 299.608 637.511 306.079C636.89 307.724 637.804 309.515 639.485 310.063L644.713 311.014C648.186 311.635 651.622 309.807 653.011 306.554L659.335 299.206C662.771 295.222 661.602 289.044 656.886 286.631C652.28 284.328 647.199 282.5 645.48 284.657Z" fill="url(#paint77_linear_16_16)"/>
<path d="M655.898 300.888L654.4 300.121C654.4 300.121 660.395 290.36 653.632 289.629C646.869 288.862 640.874 287.363 640.874 283.634C640.874 279.869 640.874 273.143 649.136 276.14C657.397 279.138 656.629 284.402 661.126 285.133C665.622 285.864 669.387 286.632 667.889 291.128C666.39 295.624 663.392 298.622 664.891 300.121C666.39 301.62 659.627 309.113 655.898 300.888Z" fill="#E6A719"/>
<path d="M654.29 303.813C654.29 303.813 655.532 297.233 658.311 297.05C661.089 296.904 663.648 299.316 660.687 302.899C656.995 307.322 654.29 303.813 654.29 303.813Z" fill="url(#paint78_linear_16_16)"/>
<path d="M682.292 245.615L680.501 248.284C680.026 249.015 679.879 249.929 680.172 250.769C680.903 252.963 682.511 257.24 684.814 259.543C687.995 262.723 691.139 255.119 691.797 252.561C692.418 250.038 687.995 243.678 686.715 242.435C685.436 241.192 680.391 241.813 682.292 245.615Z" fill="url(#paint79_linear_16_16)"/>
<path d="M664.043 345.629L665.258 343.575C665.289 343.519 665.331 343.47 665.381 343.429C665.427 343.396 665.482 343.378 665.538 343.376L666.723 343.306L666.834 343.316C666.84 343.315 666.847 343.316 666.854 343.319C666.86 343.321 666.866 343.325 666.871 343.33C666.876 343.335 666.879 343.341 666.882 343.347C666.884 343.354 666.885 343.36 666.885 343.367C666.883 343.404 666.871 343.44 666.851 343.471L666.831 343.503C666.547 343.981 666.247 344.489 665.931 345.026L664.971 346.652L667.064 349.388C667.1 349.436 667.133 349.484 667.165 349.53C667.197 349.577 667.23 349.623 667.261 349.668C667.268 349.68 667.273 349.693 667.276 349.707C667.282 349.722 667.286 349.738 667.288 349.754C667.29 349.798 667.259 349.822 667.195 349.826L665.934 349.9C665.835 349.906 665.75 349.857 665.679 349.752C665.427 349.42 665.176 349.089 664.926 348.758C664.675 348.428 664.423 348.096 664.169 347.765L663.39 346.743L664.043 345.629Z" fill="#6FAA27"/>
<path d="M662.132 345.821C662.017 345.497 661.847 345.195 661.63 344.928C661.469 344.731 661.285 344.555 661.081 344.404C660.671 344.099 660.198 343.892 659.696 343.798C659.444 343.751 659.187 343.734 658.931 343.749C658.628 343.765 658.329 343.823 658.043 343.921C657.502 344.106 657.022 344.433 656.652 344.869C656.352 345.217 656.13 345.626 655.999 346.067L655.785 342.424C655.783 342.382 655.772 342.341 655.752 342.304C655.733 342.267 655.704 342.235 655.67 342.211C655.607 342.162 655.528 342.136 655.447 342.14L654.614 342.189C654.571 342.189 654.528 342.198 654.489 342.216C654.45 342.233 654.414 342.258 654.386 342.29C654.334 342.353 654.31 342.433 654.317 342.514L654.454 344.838C654.2 344.601 653.904 344.414 653.581 344.286C653.258 344.157 652.89 344.105 652.476 344.129C652.037 344.152 651.608 344.267 651.216 344.466C650.737 344.713 650.326 345.074 650.019 345.516C649.711 345.958 649.517 346.469 649.452 347.004C649.434 346.937 649.414 346.869 649.391 346.803C649.297 346.529 649.169 346.268 649.009 346.027C648.691 345.548 648.255 345.16 647.744 344.9C647.485 344.77 647.212 344.672 646.929 344.61C646.341 344.485 645.731 344.521 645.162 344.714C644.889 344.808 644.628 344.937 644.387 345.096C644.15 345.254 643.935 345.443 643.747 345.658C643.558 345.872 643.397 346.109 643.267 346.363C643.135 346.621 643.038 346.895 642.979 347.179C642.868 347.71 642.886 348.259 643.032 348.781C643.01 348.862 642.982 348.942 642.949 349.02C642.74 349.52 642.341 349.917 641.841 350.125C641.583 350.234 641.306 350.287 641.026 350.282C640.745 350.281 640.467 350.222 640.21 350.107C639.966 349.998 639.746 349.843 639.561 349.651C639.377 349.456 639.231 349.228 639.133 348.979C638.978 348.591 638.939 348.166 639.021 347.757C639.103 347.348 639.303 346.971 639.595 346.672C639.783 346.483 640.007 346.332 640.254 346.229C640.513 346.12 640.792 346.066 641.073 346.072C641.352 346.072 641.629 346.13 641.884 346.243C642.027 346.307 642.163 346.388 642.288 346.482C642.314 346.502 642.344 346.515 642.375 346.522C642.407 346.529 642.44 346.529 642.471 346.522C642.503 346.515 642.533 346.502 642.559 346.482C642.585 346.463 642.607 346.438 642.622 346.41L643.003 345.73C643.031 345.68 643.04 345.621 643.027 345.565C643.014 345.509 642.98 345.46 642.933 345.427C642.878 345.389 642.822 345.353 642.764 345.319C642.516 345.171 642.25 345.055 641.972 344.974C641.395 344.808 640.783 344.801 640.202 344.954C639.923 345.029 639.654 345.139 639.403 345.281C639.155 345.422 638.926 345.594 638.723 345.795C638.519 345.995 638.341 346.22 638.193 346.465C638.044 346.714 637.929 346.982 637.85 347.262C637.686 347.827 637.676 348.425 637.819 348.996C637.962 349.566 638.255 350.088 638.666 350.509C638.866 350.713 639.09 350.891 639.334 351.039C639.717 351.266 640.14 351.415 640.581 351.477C641.022 351.54 641.47 351.514 641.901 351.402C642.458 351.256 642.968 350.968 643.381 350.566C643.524 350.427 643.654 350.275 643.769 350.112C643.848 350.199 643.931 350.282 644.018 350.361C644.231 350.55 644.468 350.711 644.722 350.841C645.119 351.041 645.552 351.16 645.996 351.192C646.439 351.224 646.885 351.167 647.307 351.026C647.853 350.841 648.342 350.518 648.725 350.088C648.916 349.876 649.078 349.639 649.206 349.385C649.336 349.128 649.433 348.855 649.495 348.573C649.512 348.494 649.526 348.414 649.538 348.333C649.591 348.54 649.664 348.741 649.757 348.934C650.12 349.708 650.774 350.308 651.577 350.604C651.989 350.757 652.43 350.82 652.869 350.791C653.062 350.78 653.254 350.747 653.44 350.691C653.791 350.588 654.118 350.414 654.401 350.182C654.534 350.072 654.659 349.953 654.774 349.824L654.843 350.252C654.869 350.332 654.908 350.407 654.958 350.475C654.998 350.523 655.069 350.545 655.17 350.539L655.932 350.494C656.15 350.481 656.251 350.373 656.239 350.169L656.135 348.407C656.157 348.456 656.18 348.504 656.205 348.551C656.605 349.33 657.29 349.926 658.118 350.213C658.539 350.361 658.986 350.423 659.432 350.395C659.831 350.376 660.222 350.279 660.583 350.108C660.93 349.941 661.248 349.72 661.525 349.452C661.648 349.35 661.707 349.252 661.701 349.157C661.698 349.118 661.686 349.08 661.666 349.047C661.639 349.002 661.607 348.96 661.571 348.921C661.528 348.872 661.471 348.813 661.403 348.743C661.334 348.672 661.251 348.583 661.153 348.477C661.12 348.437 661.079 348.405 661.033 348.382C661 348.366 660.964 348.358 660.927 348.358C660.886 348.361 660.846 348.374 660.812 348.398C660.772 348.425 660.735 348.457 660.701 348.492C660.7 348.492 660.699 348.492 660.699 348.492C660.698 348.493 660.697 348.493 660.697 348.494C660.696 348.494 660.696 348.495 660.696 348.495C660.696 348.496 660.696 348.497 660.696 348.498C660.616 348.579 660.529 348.653 660.437 348.719C660.333 348.793 660.224 348.859 660.109 348.914C659.985 348.974 659.856 349.022 659.723 349.059C659.581 349.098 659.435 349.121 659.287 349.128C659.083 349.14 658.879 349.118 658.682 349.064C658.479 349.01 658.286 348.922 658.112 348.803C657.933 348.679 657.776 348.527 657.647 348.352C657.509 348.164 657.409 347.949 657.356 347.722L661.854 347.457C661.95 347.454 662.045 347.439 662.137 347.413C662.195 347.396 662.246 347.363 662.284 347.316C662.317 347.268 662.336 347.211 662.338 347.153C662.343 347.07 662.342 346.988 662.336 346.906C662.319 346.537 662.25 346.172 662.132 345.821ZM648.185 348.576C648.098 348.83 647.963 349.065 647.787 349.268C647.611 349.469 647.397 349.634 647.159 349.755C646.907 349.879 646.634 349.952 646.354 349.968C646.075 349.984 645.795 349.944 645.531 349.85C645.023 349.666 644.608 349.289 644.377 348.8C644.196 348.424 644.128 348.003 644.181 347.588C644.234 347.174 644.407 346.784 644.678 346.465C644.854 346.263 645.067 346.097 645.307 345.976C645.558 345.852 645.831 345.779 646.111 345.763C646.39 345.747 646.671 345.787 646.934 345.881C647.186 345.973 647.417 346.113 647.616 346.292C648.025 346.668 648.27 347.188 648.3 347.742C648.317 348.025 648.278 348.308 648.185 348.576ZM654.7 347.379C654.71 347.639 654.669 347.898 654.58 348.142C654.493 348.378 654.364 348.596 654.198 348.784C654.031 348.974 653.829 349.129 653.604 349.242C653.371 349.36 653.117 349.428 652.857 349.441C652.599 349.459 652.34 349.421 652.099 349.328C651.869 349.239 651.658 349.107 651.479 348.938C651.297 348.765 651.15 348.559 651.046 348.33C650.828 347.847 650.795 347.3 650.956 346.795C651.032 346.553 651.154 346.327 651.314 346.13C651.471 345.936 651.665 345.774 651.884 345.653C652.111 345.529 652.364 345.457 652.623 345.445C652.888 345.427 653.153 345.468 653.401 345.564C653.641 345.657 653.86 345.794 654.049 345.969C654.237 346.145 654.39 346.354 654.503 346.586C654.618 346.823 654.685 347.081 654.7 347.344L654.7 347.379ZM657.315 346.507C657.357 346.308 657.433 346.118 657.539 345.944C657.643 345.771 657.773 345.614 657.924 345.479C658.074 345.344 658.243 345.234 658.426 345.151C658.609 345.068 658.805 345.019 659.005 345.008C659.224 344.993 659.444 345.014 659.656 345.071C659.852 345.124 660.038 345.21 660.205 345.327C660.367 345.442 660.51 345.583 660.626 345.745C660.748 345.913 660.842 346.1 660.906 346.298L657.315 346.507Z" fill="#575756"/>
<path d="M664.187 345.621L664.967 346.65L664.318 345.163L664.107 345.515L664.187 345.621Z" fill="#46952B"/>
<path d="M664.966 346.643L664.964 346.647L664.965 346.648L664.966 346.643Z" fill="#46952B"/>
<path d="M664.245 347.871L664.496 348.195L664.961 346.661L664.245 347.871Z" fill="#46952B"/>
<path d="M664.967 346.65L664.313 347.756C664.099 348.115 663.887 348.474 663.677 348.832C663.468 349.189 663.257 349.548 663.046 349.907C662.988 350.019 662.91 350.078 662.81 350.084L661.546 350.158C661.482 350.162 661.449 350.142 661.446 350.098C661.446 350.082 661.448 350.066 661.452 350.05C661.453 350.036 661.457 350.022 661.463 350.009C661.489 349.961 661.515 349.911 661.542 349.861C661.568 349.811 661.596 349.76 661.626 349.708L663.387 346.743L662.242 345.243C661.865 344.747 661.508 344.278 661.171 343.836L661.148 343.807C661.124 343.778 661.109 343.744 661.102 343.708C661.101 343.701 661.101 343.694 661.103 343.687C661.105 343.681 661.108 343.674 661.112 343.669C661.116 343.664 661.122 343.659 661.128 343.656C661.134 343.653 661.14 343.651 661.147 343.65L661.256 343.628L662.439 343.558C662.496 343.553 662.552 343.565 662.602 343.593C662.656 343.627 662.704 343.671 662.741 343.723L664.189 345.622L664.967 346.65Z" fill="#93C01F"/>
<path d="M643.909 349.898C643.864 349.974 643.821 350.042 643.77 350.114C643.864 350.218 643.965 350.317 644.072 350.408C644.271 349.889 644.259 349.311 644.248 349.127C644.167 349.397 644.054 349.656 643.909 349.898Z" fill="#3C3C3B"/>
<defs>
<linearGradient id="paint0_linear_16_16" x1="530.84" y1="-7.22377" x2="530.84" y2="102.443" gradientUnits="userSpaceOnUse">
<stop stop-color="#BD98D9"/>
<stop offset="1" stop-color="#712FA4"/>
</linearGradient>
<linearGradient id="paint1_linear_16_16" x1="418.283" y1="180.458" x2="378.846" y2="186.266" gradientUnits="userSpaceOnUse">
<stop stop-color="#4042E2"/>
<stop offset="1" stop-color="#4F52FF"/>
</linearGradient>
<linearGradient id="paint2_linear_16_16" x1="374.43" y1="196.39" x2="335.412" y2="202.137" gradientUnits="userSpaceOnUse">
<stop stop-color="#4042E2"/>
<stop offset="1" stop-color="#4F52FF"/>
</linearGradient>
<linearGradient id="paint3_linear_16_16" x1="331.075" y1="212.63" x2="294.924" y2="217.954" gradientUnits="userSpaceOnUse">
<stop stop-color="#4042E2"/>
<stop offset="1" stop-color="#4F52FF"/>
</linearGradient>
<linearGradient id="paint4_linear_16_16" x1="291.716" y1="221.232" x2="253.419" y2="226.872" gradientUnits="userSpaceOnUse">
<stop stop-color="#4042E2"/>
<stop offset="1" stop-color="#4F52FF"/>
</linearGradient>
<linearGradient id="paint5_linear_16_16" x1="391.841" y1="5.53844" x2="396.956" y2="183.518" gradientUnits="userSpaceOnUse">
<stop stop-color="#FFBE2E"/>
<stop offset="1" stop-color="#D16D4E"/>
</linearGradient>
<linearGradient id="paint6_linear_16_16" x1="398.163" y1="57.763" x2="376.026" y2="205.341" gradientUnits="userSpaceOnUse">
<stop stop-color="white"/>
<stop offset="1" stop-color="white"/>
</linearGradient>
<linearGradient id="paint7_linear_16_16" x1="288.091" y1="8.46237" x2="293.188" y2="186.225" gradientUnits="userSpaceOnUse">
<stop stop-color="#FFBE2E"/>
<stop offset="1" stop-color="#D16D4E"/>
</linearGradient>
<linearGradient id="paint8_linear_16_16" x1="297.27" y1="42.6278" x2="275.133" y2="190.206" gradientUnits="userSpaceOnUse">
<stop stop-color="white"/>
<stop offset="1" stop-color="white"/>
</linearGradient>
<linearGradient id="paint9_linear_16_16" x1="341.065" y1="3.23442" x2="346.18" y2="181.214" gradientUnits="userSpaceOnUse">
<stop stop-color="#FFBE2E"/>
<stop offset="1" stop-color="#D16D4E"/>
</linearGradient>
<linearGradient id="paint10_linear_16_16" x1="348.174" y1="50.2637" x2="326.037" y2="197.842" gradientUnits="userSpaceOnUse">
<stop stop-color="white"/>
<stop offset="1" stop-color="white"/>
</linearGradient>
<linearGradient id="paint11_linear_16_16" x1="353.417" y1="372.636" x2="357.825" y2="61.4104" gradientUnits="userSpaceOnUse">
<stop stop-color="#B8FF00"/>
<stop offset="0.509113" stop-color="#FBFBFB"/>
</linearGradient>
<linearGradient id="paint12_linear_16_16" x1="318.873" y1="28.5757" x2="324.575" y2="298.617" gradientUnits="userSpaceOnUse">
<stop stop-color="#97E835"/>
<stop offset="0.723233" stop-color="#46952B"/>
</linearGradient>
<linearGradient id="paint13_linear_16_16" x1="227.986" y1="223.452" x2="231.924" y2="305.195" gradientUnits="userSpaceOnUse">
<stop stop-color="#97E835"/>
<stop offset="0.723233" stop-color="#46952B"/>
</linearGradient>
<linearGradient id="paint14_linear_16_16" x1="253.794" y1="214.862" x2="257.733" y2="296.606" gradientUnits="userSpaceOnUse">
<stop stop-color="#97E835"/>
<stop offset="0.723233" stop-color="#46952B"/>
</linearGradient>
<linearGradient id="paint15_linear_16_16" x1="281.43" y1="211.791" x2="285.368" y2="293.535" gradientUnits="userSpaceOnUse">
<stop stop-color="#97E835"/>
<stop offset="0.723233" stop-color="#46952B"/>
</linearGradient>
<linearGradient id="paint16_linear_16_16" x1="309.651" y1="209.342" x2="313.589" y2="291.086" gradientUnits="userSpaceOnUse">
<stop stop-color="#97E835"/>
<stop offset="0.723233" stop-color="#46952B"/>
</linearGradient>
<linearGradient id="paint17_linear_16_16" x1="337.287" y1="206.893" x2="341.226" y2="288.637" gradientUnits="userSpaceOnUse">
<stop stop-color="#97E835"/>
<stop offset="0.723233" stop-color="#46952B"/>
</linearGradient>
<linearGradient id="paint18_linear_16_16" x1="365.508" y1="206.893" x2="369.446" y2="288.637" gradientUnits="userSpaceOnUse">
<stop stop-color="#97E835"/>
<stop offset="0.723233" stop-color="#46952B"/>
</linearGradient>
<linearGradient id="paint19_linear_16_16" x1="393.144" y1="208.1" x2="397.083" y2="289.843" gradientUnits="userSpaceOnUse">
<stop stop-color="#97E835"/>
<stop offset="0.723233" stop-color="#46952B"/>
</linearGradient>
<linearGradient id="paint20_linear_16_16" x1="419.537" y1="209.342" x2="423.476" y2="291.086" gradientUnits="userSpaceOnUse">
<stop stop-color="#97E835"/>
<stop offset="0.723233" stop-color="#46952B"/>
</linearGradient>
<linearGradient id="paint21_linear_16_16" x1="444.724" y1="213.62" x2="448.663" y2="295.363" gradientUnits="userSpaceOnUse">
<stop stop-color="#97E835"/>
<stop offset="0.723233" stop-color="#46952B"/>
</linearGradient>
<linearGradient id="paint22_linear_16_16" x1="469.289" y1="217.311" x2="473.228" y2="299.055" gradientUnits="userSpaceOnUse">
<stop stop-color="#97E835"/>
<stop offset="0.723233" stop-color="#46952B"/>
</linearGradient>
<linearGradient id="paint23_linear_16_16" x1="357.154" y1="411.383" x2="358.643" y2="192.344" gradientUnits="userSpaceOnUse">
<stop stop-color="#B8FF00"/>
<stop offset="0.602526" stop-color="#FBFBFB"/>
</linearGradient>
<linearGradient id="paint24_linear_16_16" x1="166.2" y1="281.257" x2="172.23" y2="406.402" gradientUnits="userSpaceOnUse">
<stop stop-color="#97E835"/>
<stop offset="0.723233" stop-color="#46952B"/>
</linearGradient>
<linearGradient id="paint25_linear_16_16" x1="205.716" y1="268.095" x2="211.746" y2="393.24" gradientUnits="userSpaceOnUse">
<stop stop-color="#97E835"/>
<stop offset="0.723233" stop-color="#46952B"/>
</linearGradient>
<linearGradient id="paint26_linear_16_16" x1="248.011" y1="263.38" x2="254.041" y2="388.525" gradientUnits="userSpaceOnUse">
<stop stop-color="#97E835"/>
<stop offset="0.723233" stop-color="#46952B"/>
</linearGradient>
<linearGradient id="paint27_linear_16_16" x1="291.256" y1="259.615" x2="297.286" y2="384.76" gradientUnits="userSpaceOnUse">
<stop stop-color="#97E835"/>
<stop offset="0.723233" stop-color="#46952B"/>
</linearGradient>
<linearGradient id="paint28_linear_16_16" x1="333.588" y1="255.849" x2="339.618" y2="380.994" gradientUnits="userSpaceOnUse">
<stop stop-color="#97E835"/>
<stop offset="0.723233" stop-color="#46952B"/>
</linearGradient>
<linearGradient id="paint29_linear_16_16" x1="376.833" y1="255.849" x2="382.863" y2="380.994" gradientUnits="userSpaceOnUse">
<stop stop-color="#97E835"/>
<stop offset="0.723233" stop-color="#46952B"/>
</linearGradient>
<linearGradient id="paint30_linear_16_16" x1="419.129" y1="257.751" x2="425.159" y2="382.896" gradientUnits="userSpaceOnUse">
<stop stop-color="#97E835"/>
<stop offset="0.723233" stop-color="#46952B"/>
</linearGradient>
<linearGradient id="paint31_linear_16_16" x1="459.558" y1="259.615" x2="465.588" y2="384.76" gradientUnits="userSpaceOnUse">
<stop stop-color="#97E835"/>
<stop offset="0.723233" stop-color="#46952B"/>
</linearGradient>
<linearGradient id="paint32_linear_16_16" x1="498.125" y1="266.195" x2="504.155" y2="391.34" gradientUnits="userSpaceOnUse">
<stop stop-color="#97E835"/>
<stop offset="0.723233" stop-color="#46952B"/>
</linearGradient>
<linearGradient id="paint33_linear_16_16" x1="535.741" y1="271.861" x2="541.771" y2="397.006" gradientUnits="userSpaceOnUse">
<stop stop-color="#97E835"/>
<stop offset="0.723233" stop-color="#46952B"/>
</linearGradient>
<linearGradient id="paint34_linear_16_16" x1="364.004" y1="734.777" x2="366.287" y2="233.582" gradientUnits="userSpaceOnUse">
<stop stop-color="#B8FF00"/>
<stop offset="0.775856" stop-color="#FBFBFB"/>
</linearGradient>
<linearGradient id="paint35_linear_16_16" x1="397.327" y1="370.142" x2="368.172" y2="431.849" gradientUnits="userSpaceOnUse">
<stop stop-color="#4F52FF"/>
<stop offset="1" stop-color="#1A0F91"/>
</linearGradient>
<linearGradient id="paint36_linear_16_16" x1="328.07" y1="370.722" x2="356.86" y2="420.741" gradientUnits="userSpaceOnUse">
<stop stop-color="#4F52FF"/>
<stop offset="1" stop-color="#1A0F91"/>
</linearGradient>
<linearGradient id="paint37_linear_16_16" x1="389.165" y1="385.659" x2="323.796" y2="552.731" gradientUnits="userSpaceOnUse">
<stop stop-color="#4F52FF"/>
<stop offset="1" stop-color="#1A0F91"/>
</linearGradient>
<linearGradient id="paint38_linear_16_16" x1="332.788" y1="334.714" x2="284.138" y2="439.856" gradientUnits="userSpaceOnUse">
<stop stop-color="#F0B076"/>
<stop offset="1" stop-color="#D34A00"/>
</linearGradient>
<linearGradient id="paint39_linear_16_16" x1="268.701" y1="337.054" x2="260.281" y2="433.885" gradientUnits="userSpaceOnUse">
<stop stop-color="#F0B076"/>
<stop offset="1" stop-color="#D34A00"/>
</linearGradient>
<linearGradient id="paint40_linear_16_16" x1="315.037" y1="371.206" x2="241.006" y2="602.009" gradientUnits="userSpaceOnUse">
<stop stop-color="#F0B076"/>
<stop offset="0.528706" stop-color="#D34A00"/>
</linearGradient>
<linearGradient id="paint41_linear_16_16" x1="101.925" y1="290.154" x2="131.898" y2="290.154" gradientUnits="userSpaceOnUse">
<stop stop-color="#46952B"/>
<stop offset="1" stop-color="#6FAA27"/>
</linearGradient>
<linearGradient id="paint42_linear_16_16" x1="142.265" y1="433.616" x2="144.091" y2="517.876" gradientUnits="userSpaceOnUse">
<stop stop-color="#02010B"/>
<stop offset="1" stop-color="#161244"/>
</linearGradient>
<linearGradient id="paint43_linear_16_16" x1="136.923" y1="520.235" x2="144.728" y2="520.235" gradientUnits="userSpaceOnUse">
<stop stop-color="#FF928E"/>
<stop offset="1" stop-color="#FEB3B1"/>
</linearGradient>
<linearGradient id="paint44_linear_16_16" x1="118.416" y1="460.557" x2="144.223" y2="460.557" gradientUnits="userSpaceOnUse">
<stop stop-color="#09005D"/>
<stop offset="1" stop-color="#1A0F91"/>
</linearGradient>
<linearGradient id="paint45_linear_16_16" x1="109.578" y1="448.981" x2="112.868" y2="520.81" gradientUnits="userSpaceOnUse">
<stop stop-color="#02010B"/>
<stop offset="1" stop-color="#161244"/>
</linearGradient>
<linearGradient id="paint46_linear_16_16" x1="108.794" y1="519.834" x2="115.533" y2="519.834" gradientUnits="userSpaceOnUse">
<stop stop-color="#FF928E"/>
<stop offset="1" stop-color="#FEB3B1"/>
</linearGradient>
<linearGradient id="paint47_linear_16_16" x1="101.531" y1="459.711" x2="138.169" y2="459.711" gradientUnits="userSpaceOnUse">
<stop stop-color="#09005D"/>
<stop offset="1" stop-color="#1A0F91"/>
</linearGradient>
<linearGradient id="paint48_linear_16_16" x1="101.269" y1="386.988" x2="19.3839" y2="465.949" gradientUnits="userSpaceOnUse">
<stop stop-color="#E85255"/>
<stop offset="1" stop-color="#FF4F4F"/>
</linearGradient>
<linearGradient id="paint49_linear_16_16" x1="81.5831" y1="366.574" x2="-0.301584" y2="445.535" gradientUnits="userSpaceOnUse">
<stop stop-color="#E85255"/>
<stop offset="1" stop-color="#FF4F4F"/>
</linearGradient>
<linearGradient id="paint50_linear_16_16" x1="81.7879" y1="373.096" x2="132.249" y2="373.096" gradientUnits="userSpaceOnUse">
<stop stop-color="#FF928E"/>
<stop offset="1" stop-color="#FEB3B1"/>
</linearGradient>
<linearGradient id="paint51_linear_16_16" x1="129.798" y1="313.037" x2="124.681" y2="351.786" gradientUnits="userSpaceOnUse">
<stop stop-color="#FF928E"/>
<stop offset="1" stop-color="#FEB3B1"/>
</linearGradient>
<linearGradient id="paint52_linear_16_16" x1="2588.61" y1="1360.68" x2="2563.16" y2="1349.74" gradientUnits="userSpaceOnUse">
<stop stop-color="#FF928E"/>
<stop offset="1" stop-color="#FEB3B1"/>
</linearGradient>
<linearGradient id="paint53_linear_16_16" x1="2586.03" y1="1366.69" x2="2560.59" y2="1355.76" gradientUnits="userSpaceOnUse">
<stop stop-color="#FF928E"/>
<stop offset="1" stop-color="#FEB3B1"/>
</linearGradient>
<linearGradient id="paint54_linear_16_16" x1="135.89" y1="353.981" x2="120.538" y2="399.491" gradientUnits="userSpaceOnUse">
<stop stop-color="#FF928E"/>
<stop offset="1" stop-color="#FEB3B1"/>
</linearGradient>
<linearGradient id="paint55_linear_16_16" x1="565.18" y1="297.043" x2="559.415" y2="320.54" gradientUnits="userSpaceOnUse">
<stop stop-color="#93C01F"/>
<stop offset="1" stop-color="#46952B"/>
</linearGradient>
<linearGradient id="paint56_linear_16_16" x1="529.244" y1="357.885" x2="487.331" y2="384.904" gradientUnits="userSpaceOnUse">
<stop stop-color="#E240D7"/>
<stop offset="1" stop-color="#E008B5"/>
</linearGradient>
<linearGradient id="paint57_linear_16_16" x1="561.152" y1="397.865" x2="530.955" y2="402.948" gradientUnits="userSpaceOnUse">
<stop stop-color="#CB7A3D"/>
<stop offset="1" stop-color="#FCC49A"/>
</linearGradient>
<linearGradient id="paint58_linear_16_16" x1="532.563" y1="542.434" x2="556.14" y2="542.434" gradientUnits="userSpaceOnUse">
<stop stop-color="#57239F"/>
<stop offset="1" stop-color="#9354E9"/>
</linearGradient>
<linearGradient id="paint59_linear_16_16" x1="577.382" y1="397.891" x2="547.186" y2="402.977" gradientUnits="userSpaceOnUse">
<stop stop-color="#CB7A3D"/>
<stop offset="1" stop-color="#FCC49A"/>
</linearGradient>
<linearGradient id="paint60_linear_16_16" x1="572.949" y1="418.676" x2="482.465" y2="521.009" gradientUnits="userSpaceOnUse">
<stop stop-color="#3D3D71"/>
<stop offset="1" stop-color="#4F52FF"/>
</linearGradient>
<linearGradient id="paint61_linear_16_16" x1="546.554" y1="282.692" x2="564.325" y2="326.945" gradientUnits="userSpaceOnUse">
<stop/>
<stop offset="1" stop-color="#393840"/>
</linearGradient>
<linearGradient id="paint62_linear_16_16" x1="548.815" y1="542.434" x2="572.406" y2="542.434" gradientUnits="userSpaceOnUse">
<stop stop-color="#57239F"/>
<stop offset="1" stop-color="#9354E9"/>
</linearGradient>
<linearGradient id="paint63_linear_16_16" x1="563.565" y1="304.361" x2="544.632" y2="312.085" gradientUnits="userSpaceOnUse">
<stop stop-color="#CB7A3D"/>
<stop offset="1" stop-color="#FCC49A"/>
</linearGradient>
<linearGradient id="paint64_linear_16_16" x1="564.476" y1="291.393" x2="541.548" y2="305.301" gradientUnits="userSpaceOnUse">
<stop stop-color="#CB7A3D"/>
<stop offset="1" stop-color="#FCC49A"/>
</linearGradient>
<linearGradient id="paint65_linear_16_16" x1="540.193" y1="293.424" x2="562.731" y2="329.153" gradientUnits="userSpaceOnUse">
<stop/>
<stop offset="1" stop-color="#3A3940"/>
</linearGradient>
<linearGradient id="paint66_linear_16_16" x1="605.397" y1="313.11" x2="549.145" y2="369.934" gradientUnits="userSpaceOnUse">
<stop stop-color="#CB7A3D"/>
<stop offset="0.966346" stop-color="#FCC49A"/>
</linearGradient>
<linearGradient id="paint67_linear_16_16" x1="657.876" y1="267.344" x2="657.876" y2="290.871" gradientUnits="userSpaceOnUse">
<stop stop-color="#93C01F"/>
<stop offset="1" stop-color="#455A0F"/>
</linearGradient>
<linearGradient id="paint68_linear_16_16" x1="720.861" y1="426.58" x2="726.568" y2="431.904" gradientUnits="userSpaceOnUse">
<stop stop-color="#A22B25"/>
<stop offset="1" stop-color="#C0423C"/>
</linearGradient>
<linearGradient id="paint69_linear_16_16" x1="608.149" y1="248.063" x2="617.437" y2="341.208" gradientUnits="userSpaceOnUse">
<stop stop-color="#A22B25"/>
<stop offset="1" stop-color="#C0423C"/>
</linearGradient>
<linearGradient id="paint70_linear_16_16" x1="609.678" y1="247.91" x2="618.965" y2="341.056" gradientUnits="userSpaceOnUse">
<stop stop-color="#A22B25"/>
<stop offset="1" stop-color="#C0423C"/>
</linearGradient>
<linearGradient id="paint71_linear_16_16" x1="638.427" y1="504.529" x2="630.622" y2="504.529" gradientUnits="userSpaceOnUse">
<stop stop-color="#A22B25"/>
<stop offset="1" stop-color="#C0423C"/>
</linearGradient>
<linearGradient id="paint72_linear_16_16" x1="629.724" y1="448.347" x2="733.455" y2="407.173" gradientUnits="userSpaceOnUse">
<stop stop-color="#070421"/>
<stop offset="1" stop-color="#6E6B96"/>
</linearGradient>
<linearGradient id="paint73_linear_16_16" x1="626.419" y1="440.023" x2="730.151" y2="398.849" gradientUnits="userSpaceOnUse">
<stop stop-color="#070421"/>
<stop offset="1" stop-color="#6E6B96"/>
</linearGradient>
<linearGradient id="paint74_linear_16_16" x1="687.572" y1="250.202" x2="678.285" y2="343.348" gradientUnits="userSpaceOnUse">
<stop stop-color="#A22B25"/>
<stop offset="1" stop-color="#C0423C"/>
</linearGradient>
<linearGradient id="paint75_linear_16_16" x1="638.466" y1="310.542" x2="708.601" y2="424.45" gradientUnits="userSpaceOnUse">
<stop offset="0.169952" stop-color="white"/>
<stop offset="1" stop-color="#B8B8B8"/>
</linearGradient>
<linearGradient id="paint76_linear_16_16" x1="648.166" y1="288.922" x2="654.015" y2="338.15" gradientUnits="userSpaceOnUse">
<stop stop-color="#A22B25"/>
<stop offset="1" stop-color="#C0423C"/>
</linearGradient>
<linearGradient id="paint77_linear_16_16" x1="689.258" y1="-558.241" x2="687.637" y2="-523.376" gradientUnits="userSpaceOnUse">
<stop stop-color="#A22B25"/>
<stop offset="1" stop-color="#C0423C"/>
</linearGradient>
<linearGradient id="paint78_linear_16_16" x1="698.14" y1="-557.827" x2="696.518" y2="-522.961" gradientUnits="userSpaceOnUse">
<stop stop-color="#A22B25"/>
<stop offset="1" stop-color="#C0423C"/>
</linearGradient>
<linearGradient id="paint79_linear_16_16" x1="686.044" y1="250.05" x2="676.756" y2="343.195" gradientUnits="userSpaceOnUse">
<stop stop-color="#A22B25"/>
<stop offset="1" stop-color="#C0423C"/>
</linearGradient>
</defs>
</svg>
