<svg width="1074" height="632" viewBox="0 0 1074 632" fill="none" xmlns="http://www.w3.org/2000/svg">
<path d="M852.23 578.997C857.452 579.151 862.603 577.854 867.03 575.274C871.857 572.018 875.962 567.921 879.119 563.211L879.125 563.2L879.133 563.189L1005.61 387.597L1073.28 292.927L1005.57 198.946C983.298 168.207 961.245 137.57 939.412 107.035L873.667 15.1269L873.654 15.1093L873.642 15.0908C867.631 5.62166 860.093 1.0117 850.932 1.0117L730.948 1.01172C727.925 1.01173 725.804 1.49733 724.461 2.35254C723.187 3.16433 722.545 4.35082 722.537 6.0293C722.657 7.41515 722.934 8.78558 723.363 10.1182L723.381 10.1758L723.39 10.2354C723.57 11.355 723.951 12.4403 724.517 13.4453C727.308 17.6291 730.061 21.8536 732.732 26.1572C735.39 30.4402 738.417 34.762 741.463 39.1894L741.462 39.1904L924.675 292.459L925.011 292.923L924.677 293.388C891.038 340.238 857.727 386.551 824.745 432.326C791.763 478.101 760.561 521.43 731.14 562.312L731.13 562.325L729.076 565.053L729.072 565.058L728.715 565.539C727.091 567.808 726.008 570.374 725.539 573.062L725.448 573.639C725.397 574.123 725.452 574.612 725.611 575.077C725.772 575.55 726.037 575.99 726.394 576.368C726.751 576.747 727.191 577.055 727.688 577.271C728.185 577.486 728.727 577.604 729.279 577.614L729.324 577.615L729.368 577.621L739.752 578.997L852.23 578.997Z" stroke="url(#paint0_linear_2010_16)" stroke-width="1.58791"/>
<path d="M214.712 578.998C209.49 579.152 204.34 577.855 199.913 575.275C195.085 572.019 190.981 567.922 187.824 563.212L187.817 563.201L187.809 563.19L61.3325 387.598L-6.33842 292.928L61.3725 198.947C83.6444 168.208 105.697 137.571 127.531 107.036L193.275 15.1279L193.289 15.1103L193.3 15.0918C199.312 5.62263 206.849 1.01267 216.01 1.01267L335.995 1.01269C339.018 1.01271 341.138 1.4983 342.481 2.35352C343.755 3.1653 344.398 4.3518 344.405 6.03027C344.285 7.41613 344.008 8.78656 343.58 10.1191L343.561 10.1768L343.552 10.2363C343.372 11.356 342.992 12.4412 342.425 13.4463C339.634 17.6301 336.881 21.8546 334.21 26.1582C331.552 30.4412 328.526 34.763 325.479 39.1904L325.48 39.1914L142.267 292.46L141.931 292.924L142.265 293.389C175.905 340.239 209.216 386.552 242.198 432.327C275.18 478.102 306.381 521.431 335.802 562.312L335.812 562.326L337.867 565.054L337.871 565.059L338.227 565.54C339.852 567.809 340.934 570.375 341.404 573.062L341.495 573.64C341.546 574.124 341.49 574.613 341.331 575.078C341.17 575.551 340.905 575.991 340.548 576.369C340.191 576.747 339.751 577.056 339.254 577.271C338.757 577.487 338.215 577.605 337.663 577.615L337.619 577.616L337.575 577.622L327.19 578.998L214.712 578.998Z" stroke="url(#paint1_linear_2010_16)" stroke-width="1.58791"/>
<path d="M-9.82587 626.265C154.536 562.518 343.988 528.808 537.221 528.926C730.453 529.045 919.8 562.986 1083.96 626.934L1075.89 635.091C914.147 572.086 727.591 538.645 537.206 538.528C346.821 538.412 160.161 571.625 -1.77835 634.432L-9.82587 626.265Z" fill="#43A725"/>
<rect x="266" y="552.93" width="535" height="42" fill="#43A725"/>
<rect x="238" y="559.93" width="609" height="42" fill="#43A725"/>
<rect x="218" y="565.93" width="609" height="42" fill="#43A725"/>
<rect x="148" y="580.93" width="609" height="42" fill="#43A725"/>
<rect x="201" y="569.93" width="609" height="42" fill="#43A725"/>
<rect x="317" y="580.93" width="609" height="42" fill="#43A725"/>
<rect x="293" y="572.93" width="609" height="42" fill="#43A725"/>
<rect x="95" y="593.93" width="609" height="42" fill="#43A725"/>
<rect x="78" y="596.93" width="599" height="42" fill="#43A725"/>
<rect x="207" y="590.93" width="46" height="42" fill="#43A725"/>
<rect x="62" y="601.93" width="609" height="42" fill="#43A725"/>
<rect x="259" y="566.93" width="609" height="42" fill="#43A725"/>
<rect x="172" y="573.93" width="609" height="42" fill="#43A725"/>
<rect x="115" y="586.93" width="845" height="62" fill="#43A725"/>
<rect x="36" y="611" width="1004" height="42" fill="#43A725"/>
<rect width="62" height="30" transform="matrix(-1 0 0 1 1053 616)" fill="#43A725"/>
<rect width="62" height="24" transform="matrix(-1 0 0 1 1009 602)" fill="#43A725"/>
<rect width="30" height="24" transform="matrix(-1 0 0 1 1076 623)" fill="#43A725"/>
<rect width="25" height="24" transform="matrix(-1 0 0 1 981 596)" fill="#43A725"/>
<rect x="18" y="616" width="54" height="24" fill="#43A725"/>
<rect y="623" width="54" height="24" fill="#43A725"/>
<g filter="url(#filter0_f_2010_16)">
<ellipse cx="534.664" cy="386.882" rx="299.86" ry="289.94" fill="#93C01F" fill-opacity="0.1"/>
</g>
<path d="M711.214 496.874C711.034 496.854 710.901 496.729 710.885 496.543C710.868 496.358 710.996 496.188 711.221 496.139C715.908 495.695 720.205 493.113 723.339 488.786C727.281 483.407 728.871 476.117 727.512 469.754C724.814 457.177 714.061 448.5 705.549 443.415C700.95 440.669 696.052 438.331 691.329 436.05C685.563 433.287 679.592 430.391 674.129 426.852C661.471 418.555 652.35 406.931 648.441 394.075C643.722 378.557 646.465 360.251 655.907 343.854C663.459 330.743 674.785 318.891 691.596 306.646C693.181 305.496 694.807 304.313 696.428 303.167C703.988 297.779 711.783 292.233 717.649 284.932C727.274 272.931 727.453 260.779 724.415 253.387C724.326 253.193 724.422 252.983 724.61 252.93C724.802 252.841 725.011 252.937 725.064 253.127C728.19 260.713 728.016 273.159 718.184 285.395C712.274 292.765 704.398 298.375 696.803 303.759C695.181 304.906 693.596 306.056 691.974 307.202C675.275 319.423 663.998 331.17 656.489 344.211C647.139 360.435 644.452 378.563 649.082 393.888C652.935 406.591 661.963 418.057 674.485 426.266C679.912 429.801 685.851 432.656 691.581 435.416C696.339 437.701 701.234 440.075 705.869 442.824C714.52 447.962 725.439 456.804 728.182 469.643C729.593 476.196 727.943 483.7 723.874 489.249C720.616 493.71 716.122 496.417 711.251 496.878C711.251 496.878 711.251 496.878 711.214 496.874Z" fill="#57239F"/>
<path d="M757.505 145.474C766.657 196.908 753.728 248.159 716.864 254.812C679.964 261.465 633.077 220.925 623.925 169.527C614.772 118.094 646.878 75.2503 683.778 68.5972C720.641 61.944 748.353 94.0399 757.505 145.474Z" fill="url(#paint2_linear_2010_16)"/>
<path opacity="0.36" d="M654.65 103.873C661.986 96.6713 662.24 101.021 659.008 120.14C655.776 139.259 654.105 171.464 645.388 167.845C636.636 164.263 635.183 122.955 654.65 103.873Z" fill="white"/>
<path opacity="0.36" d="M659.989 183.783C660.606 187.366 658.246 190.766 654.723 191.424C651.163 192.045 647.786 189.669 647.132 186.123C646.515 182.541 648.875 179.141 652.398 178.483C655.958 177.861 659.371 180.238 659.989 183.783Z" fill="white"/>
<path d="M835.554 232.22C822.407 276.745 791.863 312.277 759.939 302.736C728.015 293.195 706.841 242.199 719.952 197.711C733.063 153.223 775.556 132.057 807.444 141.598C839.368 151.139 848.665 187.731 835.554 232.22Z" fill="#14AEEA"/>
<path opacity="0.36" d="M770.362 157.937C779.042 155.159 777.517 158.742 767.384 172.633C757.251 186.524 743.159 211.418 737.639 205.058C732.118 198.624 747.336 165.249 770.362 157.937Z" fill="white"/>
<path opacity="0.36" d="M742.941 223.519C742.033 226.626 738.801 228.381 735.714 227.467C732.627 226.553 730.884 223.299 731.792 220.192C732.7 217.085 735.932 215.33 739.019 216.244C742.106 217.158 743.849 220.411 742.941 223.519Z" fill="white"/>
<path d="M769.903 302.992C769.793 302.896 769.663 302.879 769.537 302.914C769.363 303.004 769.275 303.218 769.337 303.369C772.465 310.948 768.391 319.734 762.725 324.513C756.402 329.831 748.072 331.843 740.796 333.082C739.116 333.356 737.412 333.658 735.704 333.908C729.541 334.861 723.199 335.852 717.314 338.211C703.765 343.649 692.736 356.813 687.79 373.409C682.763 390.321 684.331 408.401 685.947 420.518C686.115 421.827 686.308 423.109 686.5 424.391C687.533 431.833 688.635 439.529 687.741 447.029C686.555 456.985 681.714 465.1 674.736 468.78C674.562 468.87 674.501 469.107 674.591 469.282C674.68 469.457 674.916 469.518 675.09 469.428C682.266 465.631 687.246 457.299 688.469 447.133C689.356 439.53 688.278 431.807 687.214 424.289C687.021 423.007 686.853 421.698 686.661 420.416C685.048 408.351 683.488 390.374 688.474 373.62C693.383 357.234 704.269 344.236 717.616 338.863C723.427 336.536 729.745 335.572 735.857 334.622C737.564 334.372 739.245 334.098 740.948 333.797C748.351 332.523 756.756 330.479 763.226 325.048C769.062 320.127 773.292 310.993 770.04 303.112C769.957 303.04 769.93 303.016 769.903 302.992Z" fill="#D16D4E"/>
<path d="M855.383 158.554C854.075 156.397 852.513 154.496 850.879 152.632C850.08 151.681 849.172 150.84 848.3 149.963C847.429 149.122 846.485 148.282 845.577 147.477C841.836 144.26 837.732 141.482 833.373 139.143C829.015 136.803 824.512 134.829 819.79 133.33C815.141 131.722 810.311 130.698 805.444 129.784C795.747 128.139 785.832 127.847 776.026 128.468C773.557 128.541 771.123 128.87 768.69 129.09L765.022 129.455C763.787 129.565 762.588 129.821 761.39 130.004C758.956 130.406 756.523 130.735 754.126 131.173L746.899 132.709C744.465 133.184 742.105 133.842 739.744 134.427C737.383 135.048 734.986 135.633 732.625 136.328L725.579 138.485L722.056 139.581C720.894 139.947 719.732 140.385 718.57 140.788C713.957 142.469 709.272 144.004 704.769 145.905L697.941 148.647L696.234 149.342L694.563 150.073L691.186 151.572L684.467 154.569L682.796 155.3L681.125 156.104L677.82 157.713L671.21 160.93C670.121 161.478 668.995 161.99 667.905 162.538L664.637 164.256L658.135 167.693L654.867 169.411L653.232 170.288L651.634 171.202L638.814 178.476C605.146 198.363 569.772 215.288 533.308 229.289C515.076 236.271 496.553 242.559 477.813 247.969C468.443 250.711 459.036 253.233 449.557 255.536C440.078 257.839 430.562 259.959 420.974 261.75C411.386 263.578 401.761 265.113 392.101 266.393C382.44 267.672 372.743 268.623 363.009 269.208C343.579 270.414 324.039 270.231 304.754 267.782C285.505 265.333 266.438 260.507 249.041 251.88C240.361 247.567 232.262 242.157 225.034 235.723C224.09 234.955 223.255 234.078 222.383 233.237C221.512 232.396 220.64 231.555 219.805 230.678L217.371 227.973L216.173 226.62C215.773 226.145 215.41 225.67 215.047 225.195L212.795 222.343C212.069 221.393 211.415 220.369 210.689 219.382C209.236 217.445 208.074 215.325 206.802 213.241C206.149 212.217 205.64 211.121 205.059 210.061C204.514 209 203.933 207.904 203.388 206.844L201.936 203.517C201.427 202.42 200.955 201.287 200.556 200.154C199.72 197.888 198.812 195.621 198.195 193.282L197.142 189.772L196.306 186.226C196.052 185.057 195.689 183.85 195.507 182.68L194.854 179.098C194.381 176.722 194.127 174.273 193.8 171.86C193.292 166.998 192.892 162.136 192.856 157.274C192.82 152.412 193.074 147.514 193.619 142.688C194.2 137.863 195.144 133.074 196.452 128.395C199.067 119.037 203.316 110.154 209.054 102.331C211.923 98.4196 215.156 94.8005 218.715 91.474C222.274 88.1474 226.088 85.1499 230.119 82.4447C234.15 79.7396 238.4 77.3635 242.794 75.2798C247.189 73.1961 251.729 71.4049 256.341 69.9061C265.602 66.872 275.191 64.9346 284.888 64.0938C289.754 63.6917 294.621 63.5454 299.452 63.8744C301.885 64.0207 304.282 64.2766 306.679 64.7518C307.878 64.9711 309.04 65.2636 310.166 65.6657C311.291 66.0312 312.417 66.543 313.325 67.2376L313.797 66.6892C312.781 65.8484 311.618 65.3367 310.456 64.9346C309.294 64.5324 308.095 64.2034 306.861 63.9476C304.427 63.4358 301.994 63.1433 299.524 62.9606C294.621 62.595 289.682 62.6681 284.815 63.0337C275.009 63.7648 265.312 65.6657 255.942 68.6267C251.257 70.1255 246.644 71.8801 242.177 73.9638C237.71 76.0475 233.388 78.4236 229.247 81.1287C225.107 83.8338 221.185 86.868 217.516 90.2311C213.885 93.5942 210.543 97.2863 207.565 101.271C201.573 109.203 197.142 118.306 194.418 127.883C193.038 132.672 192.057 137.571 191.44 142.506C190.822 147.441 190.568 152.412 190.568 157.384C190.568 162.355 190.931 167.29 191.44 172.225C191.766 174.675 192.021 177.161 192.457 179.61L193.074 183.265C193.256 184.508 193.619 185.678 193.873 186.921L194.708 190.54L195.762 194.122C196.415 196.535 197.323 198.838 198.159 201.178C198.558 202.347 199.067 203.481 199.575 204.65L201.064 208.087C201.609 209.22 202.19 210.317 202.771 211.413C203.352 212.51 203.861 213.643 204.551 214.703C205.822 216.823 207.057 219.017 208.509 221.027C209.236 222.051 209.89 223.111 210.652 224.098L212.94 227.022C213.34 227.498 213.703 228.009 214.103 228.485L215.337 229.874L217.807 232.652C218.679 233.529 219.587 234.407 220.458 235.284C221.33 236.161 222.202 237.039 223.146 237.843C230.555 244.496 238.836 250.089 247.697 254.549C256.559 259.009 265.857 262.445 275.372 265.077C284.888 267.709 294.585 269.573 304.318 270.853C323.858 273.375 343.579 273.558 363.191 272.388C372.997 271.803 382.767 270.853 392.5 269.61C402.234 268.33 411.931 266.795 421.555 264.967C431.216 263.176 440.768 261.092 450.32 258.789C459.871 256.486 469.351 254.001 478.757 251.222C497.57 245.739 516.166 239.378 534.47 232.323C571.043 218.176 606.563 201.104 640.303 181.035L653.015 173.724L654.613 172.81L656.211 171.933L659.443 170.215L665.908 166.742L669.14 165.024C670.23 164.439 671.319 163.927 672.409 163.379L678.983 160.126L682.251 158.517L683.886 157.713L685.556 156.945L692.239 153.911L695.58 152.412L697.251 151.645L698.958 150.95L705.713 148.172C710.18 146.234 714.829 144.699 719.405 142.981C720.567 142.579 721.693 142.14 722.856 141.738L726.342 140.641L733.315 138.448C735.64 137.753 738 137.169 740.361 136.511C742.722 135.889 745.046 135.231 747.443 134.756L754.562 133.184C756.959 132.745 759.356 132.38 761.753 131.941C762.951 131.758 764.15 131.502 765.349 131.356L768.98 130.954C771.414 130.698 773.811 130.333 776.244 130.26C785.941 129.528 795.711 129.711 805.299 131.247C810.093 132.051 814.851 133.038 819.463 134.573C824.112 135.962 828.616 137.9 832.901 140.13C837.223 142.359 841.291 145.028 845.032 148.172C845.94 148.976 846.884 149.78 847.756 150.585C848.627 151.425 849.535 152.266 850.334 153.18C852.005 154.935 853.567 156.836 854.838 158.883L855.383 158.554Z" fill="#208B00"/>
<path d="M828.616 139.948C828.616 139.948 829.197 167.986 822.805 187.215C822.115 189.335 819.354 189.847 817.938 188.129C809.657 178.112 787.539 150.22 784.052 134.574C784.052 134.574 804.1 129.749 828.616 139.948Z" fill="#B8EE2B"/>
<path d="M769.888 132.965C769.888 132.965 775.3 165.5 764.658 191.308C763.823 193.319 761.281 193.867 759.719 192.368C751.692 184.691 730.482 163.27 722.311 143.713C722.347 143.713 751.838 134.903 769.888 132.965Z" fill="#43A725"/>
<path d="M714.03 147.148C714.03 147.148 718.497 177.782 710.035 203.042C709.163 205.601 706.112 206.661 703.861 205.162C696.161 200.118 680.072 187.652 669.903 166.231C669.903 166.267 693.038 153.948 714.03 147.148Z" fill="#B7EE2B"/>
<path d="M665.798 168.351C665.798 168.351 670.483 200.374 660.205 218.03C659.188 219.821 656.864 220.333 655.193 219.127C649.31 214.923 635.835 204.577 626.683 191.856C626.683 191.856 658.317 172.408 665.798 168.351Z" fill="#43A725"/>
<path d="M620.655 195.695C620.655 195.695 628.209 226.256 618.693 243.876C617.713 245.667 615.461 246.252 613.79 245.155C606.49 240.439 587.641 227.462 581.648 214.777C581.648 214.777 614.626 199.534 620.655 195.695Z" fill="#B8EE2B"/>
<path d="M575.51 217.885L538.211 233.75C538.211 233.75 557.314 262.775 570.28 268.441C571.624 269.026 573.186 268.331 573.694 266.942C576.055 260.801 581.466 242.56 575.51 217.885Z" fill="url(#paint3_linear_2010_16)"/>
<path d="M532.69 236.052C532.69 236.052 503.489 247.019 494.991 249.03C494.991 249.03 503.889 272.242 516.346 282.588C518.271 284.196 521.177 283.721 522.484 281.601C526.915 274.326 535.704 256.853 532.69 236.052Z" fill="url(#paint4_linear_2010_16)"/>
<path d="M489.217 249.869C489.217 249.869 462.05 259.813 454.169 260.982C454.169 260.982 466.59 286.644 478.394 300.901C479.265 301.961 480.972 301.888 481.735 300.718C485.44 295.089 494.011 278.492 489.217 249.869Z" fill="url(#paint5_linear_2010_16)"/>
<path d="M450.573 261.532C450.573 261.532 424.315 267.637 412.729 268.624C412.729 268.624 422.608 299.915 437.462 307.226C438.733 307.848 440.259 307.336 440.912 306.057C444.145 299.952 452.861 281.162 450.573 261.532Z" fill="url(#paint6_linear_2010_16)"/>
<path d="M409.17 269.136C409.17 269.136 382.803 274.51 373.977 274.364C373.977 274.364 385.636 303.608 397.221 312.747C399.146 314.282 401.943 313.917 403.468 311.979C407.1 307.483 412.112 296.187 409.17 269.136Z" fill="#B8EE2B"/>
<path d="M367.512 275.312C367.512 275.312 342.779 276.774 335.407 276.372C335.407 276.372 337.15 297.209 351.677 312.964C353.239 314.646 355.854 314.683 357.452 313.074C361.883 308.578 369.219 297.611 367.512 275.312Z" fill="#43A725"/>
<path d="M328.724 275.898C328.724 275.898 308.095 275.276 297.417 272.425C297.417 272.425 295.747 295.784 307.623 308.505C309.257 310.26 311.945 310.589 313.979 309.273C319.136 305.91 328.179 296.99 328.724 275.898Z" fill="#B8EE2B"/>
<path d="M292.913 271.621C292.913 271.621 271.449 270.379 264.149 265.553C264.149 265.553 261.752 289.972 272.175 304.777C273.047 306.02 274.827 306.24 275.989 305.216C280.093 301.414 289.1 291.252 292.913 271.621Z" fill="#43A725"/>
<path d="M259.537 264.017C259.537 264.017 233.932 254.513 223.545 243.51C223.545 243.51 212.286 272.023 224.344 293.518C224.816 294.395 225.833 294.797 226.778 294.541C232.407 292.896 251.547 285.841 259.537 264.017Z" fill="#B8EE2B"/>
<path d="M196.487 209.111C196.487 209.111 206.112 229.838 216.935 238.575C216.935 238.575 201.972 258.863 183.885 263.908C182.323 264.347 180.689 263.396 180.326 261.788C178.728 254.55 176.621 233.932 196.487 209.111Z" fill="#43A725"/>
<path d="M186.1 158.262C186.1 158.262 185.192 182.023 192.965 205.236C192.965 205.236 178.946 211.597 170.52 222.454C168.449 225.123 164.164 223.514 164.345 220.151C164.999 206.479 169.139 183.851 186.1 158.262Z" fill="#B8EE2B"/>
<path d="M582.993 220.811H540.21V172.156C540.21 168.061 543.079 164.552 547.038 163.784C554.991 162.249 562.945 162.249 570.899 163.894C574.458 164.625 577.109 167.659 577.509 171.278L582.993 220.811Z" fill="#FFC84E"/>
<path d="M555.972 103.431C555.1 102.261 553.321 102.517 552.776 103.869C550.233 110.194 544.168 124.852 539.447 133.151C533.345 143.934 536.505 160.494 558.55 157.753C590.947 153.768 563.853 114.068 555.972 103.431Z" fill="url(#paint7_linear_2010_16)"/>
<path opacity="0.53" d="M555.754 123.208C555.21 122.514 554.12 122.66 553.793 123.464C552.231 127.303 548.527 136.259 545.658 141.303C541.917 147.883 543.878 157.973 557.316 156.328C577.073 153.879 560.548 129.679 555.754 123.208Z" fill="url(#paint8_linear_2010_16)"/>
<path d="M553.974 150.806L555.391 167.074C555.464 168.024 556.263 168.828 557.207 168.828H557.243C558.369 168.828 559.241 167.805 559.132 166.672C558.514 161.152 556.517 145.067 553.974 150.806Z" fill="#A4A4A4"/>
<path d="M428.349 224.906L471.096 222.895L468.844 174.276C468.662 170.218 465.648 166.819 461.617 166.234C453.59 165.101 445.673 165.43 437.792 167.477C434.269 168.391 431.763 171.534 431.508 175.19L428.349 224.906Z" fill="#FFC84E"/>
<path d="M449.922 106.391C450.721 105.185 452.537 105.331 453.118 106.647C455.951 112.825 462.706 127.191 467.791 135.27C474.401 145.725 472.004 162.431 449.849 160.749C417.308 158.3 442.513 117.358 449.922 106.391Z" fill="url(#paint9_linear_2010_16)"/>
<path opacity="0.53" d="M451.047 126.132C451.556 125.4 452.645 125.51 453.009 126.278C454.752 130.043 458.856 138.816 461.943 143.715C465.974 150.112 464.522 160.275 451.011 159.251C431.145 157.789 446.544 132.821 451.047 126.132Z" fill="url(#paint10_linear_2010_16)"/>
<path d="M454.099 153.622L453.445 169.926C453.409 170.876 452.682 171.717 451.702 171.79H451.665C450.539 171.863 449.595 170.876 449.668 169.743C450.031 164.186 451.302 147.992 454.099 153.622Z" fill="#A4A4A4"/>
<path d="M532.583 218.507H485.949L489.763 169.815C489.763 165.72 492.632 162.211 496.591 161.443C504.545 159.908 512.498 159.908 520.452 161.553C524.012 162.284 526.663 165.318 527.062 168.937L532.583 218.507Z" fill="#FFC84E"/>
<path d="M505.525 101.127C504.653 99.957 502.874 100.213 502.329 101.565C499.787 107.89 493.721 122.548 489 130.847C482.898 141.63 486.058 158.19 508.104 155.449C540.5 151.427 513.406 111.764 505.525 101.127Z" fill="url(#paint11_linear_2010_16)"/>
<path opacity="0.53" d="M505.307 120.904C504.762 120.21 503.672 120.356 503.345 121.16C501.784 124.999 498.079 133.955 495.21 138.999C491.469 145.579 493.43 155.669 506.868 154.024C526.626 151.575 510.101 127.375 505.307 120.904Z" fill="url(#paint12_linear_2010_16)"/>
<path d="M503.528 148.502L504.944 164.77C505.017 165.72 505.816 166.524 506.76 166.524H506.796C507.922 166.524 508.794 165.501 508.685 164.368C508.104 158.848 506.07 142.763 503.528 148.502Z" fill="#A4A4A4"/>
<path d="M399.329 357.493L399.91 239.016C399.946 230.169 405.249 222.164 413.348 218.801C440.296 207.578 506.869 188.35 604.13 216.9C612.738 219.422 618.948 227.026 619.784 236.018L630.788 354.897L399.329 357.493Z" fill="url(#paint13_linear_2010_16)"/>
<path d="M408.445 260.62C417.053 258.353 416.835 237.041 421.447 237.041C433.796 237.041 420.104 278.715 438.372 276.302C453.335 274.328 439.244 244.316 451.374 239.637C456.677 237.59 464.34 240.989 468.299 246.18C478.867 259.998 459.8 282.005 468.952 292.643C475.381 300.136 493.322 299.223 498.879 291.327C506.579 280.323 486.349 261.424 494.339 249.434C499.678 241.428 515.404 239.929 520.343 245.522C526.118 252.029 514.714 265.409 520.997 273.012C525.573 278.532 537.595 278.715 541.808 273.67C547.11 267.309 538.067 255.063 543.115 250.75C546.093 248.227 552.086 250.055 555.464 252.724C561.747 257.695 553.539 268.37 558.732 274.328C562.437 278.605 571.226 279.3 575.003 275.644C581.141 269.686 572.098 254.003 576.311 251.444C578.962 249.836 585.717 254.04 589.966 259.962C600.245 274.365 590.511 292.094 598.429 297.285C602.388 299.881 609.651 298.565 613.392 294.653C624.469 283.102 602.751 251.225 610.777 244.901C612.048 243.877 614.409 243.292 619.203 245.084C622.145 246.18 625.232 243.804 624.941 240.66L624.469 235.543C623.452 224.612 615.898 215.473 605.402 212.439C571.335 202.46 537.885 197.378 505.961 197.378C462.124 197.378 430.527 206.7 411.714 214.56C401.872 218.654 395.516 228.231 395.443 238.979L395.407 247.021C395.371 252.468 398.385 257.549 403.288 259.889C405.031 260.766 406.775 261.058 408.445 260.62Z" fill="url(#paint14_linear_2010_16)"/>
<path d="M394.354 348.5C402.778 348.5 409.608 341.627 409.608 333.147C409.608 324.668 402.778 317.794 394.354 317.794C385.929 317.794 379.1 324.668 379.1 333.147C379.1 341.627 385.929 348.5 394.354 348.5Z" fill="url(#paint15_linear_2010_16)"/>
<path d="M419.995 339.911C428.419 339.911 435.248 333.037 435.248 324.557C435.248 316.078 428.419 309.204 419.995 309.204C411.57 309.204 404.741 316.078 404.741 324.557C404.741 333.037 411.57 339.911 419.995 339.911Z" fill="url(#paint16_linear_2010_16)"/>
<path d="M447.451 336.84C455.876 336.84 462.705 329.966 462.705 321.486C462.705 313.007 455.876 306.133 447.451 306.133C439.027 306.133 432.197 313.007 432.197 321.486C432.197 329.966 439.027 336.84 447.451 336.84Z" fill="url(#paint17_linear_2010_16)"/>
<path d="M475.489 334.391C483.914 334.391 490.743 327.517 490.743 319.037C490.743 310.558 483.914 303.684 475.489 303.684C467.065 303.684 460.236 310.558 460.236 319.037C460.236 327.517 467.065 334.391 475.489 334.391Z" fill="url(#paint18_linear_2010_16)"/>
<path d="M502.947 331.942C511.371 331.942 518.201 325.068 518.201 316.588C518.201 308.109 511.371 301.235 502.947 301.235C494.522 301.235 487.693 308.109 487.693 316.588C487.693 325.068 494.522 331.942 502.947 331.942Z" fill="url(#paint19_linear_2010_16)"/>
<path d="M530.984 331.942C539.409 331.942 546.238 325.068 546.238 316.588C546.238 308.109 539.409 301.235 530.984 301.235C522.56 301.235 515.73 308.109 515.73 316.588C515.73 325.068 522.56 331.942 530.984 331.942Z" fill="url(#paint20_linear_2010_16)"/>
<path d="M558.442 333.148C566.866 333.148 573.695 326.274 573.695 317.794C573.695 309.315 566.866 302.441 558.442 302.441C550.017 302.441 543.188 309.315 543.188 317.794C543.188 326.274 550.017 333.148 558.442 333.148Z" fill="url(#paint21_linear_2010_16)"/>
<path d="M584.663 334.391C593.088 334.391 599.917 327.517 599.917 319.037C599.917 310.558 593.088 303.684 584.663 303.684C576.239 303.684 569.409 310.558 569.409 319.037C569.409 327.517 576.239 334.391 584.663 334.391Z" fill="url(#paint22_linear_2010_16)"/>
<path d="M609.688 338.668C618.112 338.668 624.942 331.794 624.942 323.314C624.942 314.835 618.112 307.961 609.688 307.961C601.263 307.961 594.434 314.835 594.434 323.314C594.434 331.794 601.263 338.668 609.688 338.668Z" fill="url(#paint23_linear_2010_16)"/>
<path d="M634.093 342.36C642.517 342.36 649.347 335.486 649.347 327.006C649.347 318.527 642.517 311.653 634.093 311.653C625.669 311.653 618.839 318.527 618.839 327.006C618.839 335.486 625.669 342.36 634.093 342.36Z" fill="url(#paint24_linear_2010_16)"/>
<path d="M364.028 418.944C364.318 394.817 365.153 388.566 367.224 360.821C367.914 351.682 373.943 343.822 382.55 340.825C420.866 327.445 533.091 295.24 643.972 331.284C652.435 334.025 658.573 341.409 659.698 350.293L673.391 417.153C674.553 426.255 667.507 434.298 658.427 434.298H379.136C370.71 434.334 363.919 427.425 364.028 418.944Z" fill="url(#paint25_linear_2010_16)"/>
<path d="M335.046 439.818C347.943 439.818 358.399 429.294 358.399 416.313C358.399 403.331 347.943 392.807 335.046 392.807C322.148 392.807 311.693 403.331 311.693 416.313C311.693 429.294 322.148 439.818 335.046 439.818Z" fill="url(#paint26_linear_2010_16)"/>
<path d="M374.306 426.657C387.204 426.657 397.659 416.133 397.659 403.151C397.659 390.17 387.204 379.646 374.306 379.646C361.409 379.646 350.953 390.17 350.953 403.151C350.953 416.133 361.409 426.657 374.306 426.657Z" fill="url(#paint27_linear_2010_16)"/>
<path d="M416.327 421.941C429.224 421.941 439.68 411.417 439.68 398.436C439.68 385.454 429.224 374.931 416.327 374.931C403.429 374.931 392.974 385.454 392.974 398.436C392.974 411.417 403.429 421.941 416.327 421.941Z" fill="url(#paint28_linear_2010_16)"/>
<path d="M459.292 418.176C472.189 418.176 482.645 407.652 482.645 394.67C482.645 381.689 472.189 371.165 459.292 371.165C446.394 371.165 435.939 381.689 435.939 394.67C435.939 407.652 446.394 418.176 459.292 418.176Z" fill="url(#paint29_linear_2010_16)"/>
<path d="M501.349 414.41C514.247 414.41 524.702 403.887 524.702 390.905C524.702 377.923 514.247 367.4 501.349 367.4C488.452 367.4 477.996 377.923 477.996 390.905C477.996 403.887 488.452 414.41 501.349 414.41Z" fill="url(#paint30_linear_2010_16)"/>
<path d="M544.314 414.41C557.211 414.41 567.667 403.887 567.667 390.905C567.667 377.923 557.211 367.4 544.314 367.4C531.416 367.4 520.961 377.923 520.961 390.905C520.961 403.887 531.416 414.41 544.314 414.41Z" fill="url(#paint31_linear_2010_16)"/>
<path d="M586.335 416.312C599.233 416.312 609.688 405.789 609.688 392.807C609.688 379.825 599.233 369.302 586.335 369.302C573.438 369.302 562.982 379.825 562.982 392.807C562.982 405.789 573.438 416.312 586.335 416.312Z" fill="url(#paint32_linear_2010_16)"/>
<path d="M626.503 418.176C639.401 418.176 649.856 407.652 649.856 394.67C649.856 381.689 639.401 371.165 626.503 371.165C613.606 371.165 603.15 381.689 603.15 394.67C603.15 407.652 613.606 418.176 626.503 418.176Z" fill="url(#paint33_linear_2010_16)"/>
<path d="M664.819 424.756C677.717 424.756 688.172 414.233 688.172 401.251C688.172 388.269 677.717 377.746 664.819 377.746C651.922 377.746 641.467 388.269 641.467 401.251C641.467 414.233 651.922 424.756 664.819 424.756Z" fill="url(#paint34_linear_2010_16)"/>
<path d="M702.192 430.422C715.089 430.422 725.545 419.898 725.545 406.917C725.545 393.935 715.089 383.411 702.192 383.411C689.294 383.411 678.839 393.935 678.839 406.917C678.839 419.898 689.294 430.422 702.192 430.422Z" fill="url(#paint35_linear_2010_16)"/>
<path d="M288.593 547.692C289.065 510.734 290.3 501.156 293.496 458.679C294.55 444.678 303.775 432.687 316.958 428.081C375.649 407.574 547.51 358.26 717.3 413.496C730.229 417.7 739.636 429.032 741.379 442.594L762.371 545.023C764.151 558.951 753.364 571.27 739.454 571.27H311.692C298.799 571.27 288.412 560.669 288.593 547.692Z" fill="url(#paint36_linear_2010_16)"/>
<path d="M515.839 474.574C515.839 474.574 526.444 426.503 540.899 432.608C555.354 438.713 553.429 450.082 558.223 453.591C563.053 457.1 580.377 482.433 515.839 474.574Z" fill="url(#paint37_linear_2010_16)"/>
<path d="M517.764 474.574C517.764 474.574 522.594 425.626 507.159 426.503C491.76 427.38 496.554 448.363 483.08 449.241C469.605 450.081 463.831 478.083 517.764 474.574Z" fill="url(#paint38_linear_2010_16)"/>
<path d="M481.918 589.98H546.056C553.465 589.98 559.64 584.826 560.257 578.1L568.501 486.82C569.191 479.29 562.618 472.819 554.301 472.819H481.918C474.036 472.819 467.681 478.595 467.681 485.76V577.04C467.681 584.205 474.073 589.98 481.918 589.98Z" fill="#3B7FD1"/>
<path d="M507.159 589.98H529.314V472.819H507.159V589.98Z" fill="url(#paint39_linear_2010_16)"/>
<path d="M434.122 500.271C434.122 500.271 444.727 452.2 459.182 458.305C473.637 464.41 471.712 475.779 476.506 479.288C481.3 482.797 498.624 508.167 434.122 500.271Z" fill="url(#paint40_linear_2010_16)"/>
<path d="M436.047 500.272C436.047 500.272 440.877 451.324 425.442 452.202C410.043 453.079 414.837 474.062 401.363 474.939C387.888 475.817 382.077 503.782 436.047 500.272Z" fill="url(#paint41_linear_2010_16)"/>
<path d="M400.2 589.979H464.339C471.748 589.979 477.922 584.825 478.54 578.098L486.784 512.517C487.474 504.987 480.9 498.517 472.583 498.517H400.2C392.319 498.517 385.963 504.292 385.963 511.457V577.038C385.963 584.203 392.319 589.979 400.2 589.979Z" fill="#E8811F"/>
<path d="M425.442 589.979H447.597V498.553H425.442V589.979Z" fill="url(#paint42_linear_2010_16)"/>
<path d="M265.4 341.124C268.632 347.558 274.225 359.731 276.404 364.52C276.877 365.543 278.148 365.799 278.983 365.104L294.382 352.31C295.363 351.506 295.109 349.934 293.946 349.422L267.543 338.784C266.09 338.236 264.673 339.735 265.4 341.124Z" fill="url(#paint43_linear_2010_16)"/>
<path d="M300.702 582.172C300.702 582.172 299.794 587.326 299.358 592.407C299.176 594.418 300.702 596.136 302.699 596.209C309.455 596.502 323.873 597.05 329.067 596.794C329.829 596.758 330.338 595.953 330.084 595.222C329.829 594.601 329.394 594.126 328.776 593.833L304.951 582.793L300.702 582.172Z" fill="url(#paint44_linear_2010_16)"/>
<path d="M299.976 579.175L300.702 585.352C300.702 585.352 304.879 587.326 307.748 585.097L306.005 578.224L299.976 579.175Z" fill="url(#paint45_linear_2010_16)"/>
<path d="M300.52 463.33C300.193 464.939 298.849 543.643 307.203 578.883C307.348 579.468 307.057 580.053 306.513 580.272C305.242 580.784 302.736 581.552 299.721 581.661C298.777 581.698 297.941 581.076 297.687 580.199C295.29 572.01 283.85 531.032 282.361 491.88C280.69 448.123 282.361 490.382 282.361 490.382L283.341 463.33H300.52Z" fill="url(#paint46_linear_2010_16)"/>
<path d="M273.281 584.877C273.281 584.877 271.828 587.472 270.448 594.381C270.194 595.624 271.066 596.83 272.337 596.94C274.552 597.159 278.003 597.452 280.726 597.415C281.998 597.415 282.978 596.282 282.833 595.039C282.542 592.517 281.598 588.386 278.656 585.169L273.281 584.877Z" fill="url(#paint47_linear_2010_16)"/>
<path d="M272.01 576.944L273.717 586.265C273.717 586.265 275.388 587.508 278.729 586.594L277.93 576.578L272.01 576.944Z" fill="url(#paint48_linear_2010_16)"/>
<path d="M267.434 465.742C260.606 507.269 268.923 568.354 271.72 580.307C271.901 581.039 272.482 581.587 273.209 581.733C274.444 581.953 276.514 582.099 278.548 581.514C279.238 581.295 279.746 580.673 279.782 579.942C280.146 570.291 279.492 510.925 285.848 487.456C286.174 486.25 286.901 485.226 287.881 484.532L300.23 475.685L301.174 461.392L267.434 465.742Z" fill="url(#paint49_linear_2010_16)"/>
<path d="M312.614 392.63C292.131 392.301 267.906 392.447 267.906 392.447C261.804 428.308 266.853 469.653 266.853 469.653C282.724 473.856 300.593 467.094 300.593 467.094C303.208 452.142 318.934 392.739 312.614 392.63Z" fill="url(#paint50_linear_2010_16)"/>
<path d="M275.751 412.444L267.906 392.484C267.906 392.484 248.766 405.571 245.643 422.167C249.275 422.423 255.848 423.374 262.277 426.664C263.657 418.804 275.751 412.444 275.751 412.444Z" fill="url(#paint51_linear_2010_16)"/>
<path d="M292.494 431.235C292.494 431.235 271.029 443.444 263.766 433.026C262.277 430.869 261.913 428.712 262.277 426.665C255.848 423.375 249.275 422.461 245.643 422.169C244.698 427.177 245.207 432.478 248.112 437.851C260.824 461.21 295.327 436.572 295.327 436.572L292.494 431.235Z" fill="url(#paint52_linear_2010_16)"/>
<path d="M287.953 374.865L282.651 390.328C281.779 392.923 283.377 395.665 286.065 396.14C289.043 396.652 293.147 396.469 297.687 393.545C298.486 393.033 298.994 392.192 299.103 391.278L301.21 374.865H287.953Z" fill="url(#paint53_linear_2010_16)"/>
<path d="M302.118 357.283C302.118 357.283 309.273 370.845 308.365 376.328C307.457 381.812 298.595 381.41 290.823 376.95L285.412 362.291L302.118 357.283Z" fill="url(#paint54_linear_2010_16)"/>
<path d="M291.15 369.783C291.477 369.637 291.586 369.271 291.405 368.979C290.823 368.102 289.77 366.31 289.407 364.738C289.407 364.738 288.136 363.898 292.676 362.801C297.252 361.704 304.043 359.986 305.46 356.075C306.84 352.273 303.208 342.695 297.361 350.336C297.143 350.628 296.707 350.628 296.489 350.336C295.545 349.093 293.003 346.461 289.516 348.069C286.247 349.531 285.884 351.944 285.92 353.187C285.92 353.552 285.63 353.808 285.267 353.772C283.596 353.443 279.637 353.187 277.785 357.281C276.26 360.644 277.24 362.582 278.148 363.496C278.439 363.788 278.33 364.3 277.894 364.41C276.804 364.739 275.388 365.689 275.533 368.248C275.715 371.794 279.674 371.465 280.799 371.319C280.981 371.282 281.163 371.355 281.308 371.501C282.252 372.561 286.61 377.131 291.296 377.679C291.695 377.716 292.022 377.314 291.877 376.948L289.843 371.026C289.734 370.734 289.879 370.441 290.133 370.332L291.15 369.783Z" fill="#6A3C30"/>
<path d="M291.985 370.625C291.985 370.625 286.901 367.116 286.501 370.077C286.138 373.038 291.077 374.354 293.547 373.257L291.985 370.625Z" fill="url(#paint55_linear_2010_16)"/>
<path d="M315.637 400.34C315.637 400.34 310.153 375.372 302.635 378.552C295.154 381.733 296.134 387.618 293.628 389.446C291.122 391.274 282.115 404.434 315.637 400.34Z" fill="#7111BC"/>
<path d="M314.612 400.966C314.612 400.966 312.106 375.56 320.096 375.999C328.086 376.437 325.58 387.331 332.59 387.806C339.599 388.245 342.614 402.794 314.612 400.966Z" fill="#7111BC"/>
<path d="M333.207 447.538H299.939C296.09 447.538 292.893 444.87 292.567 441.36L288.281 407.327C287.918 403.415 291.332 400.052 295.654 400.052H333.207C337.275 400.052 340.616 403.05 340.616 406.778V440.812C340.616 444.504 337.311 447.538 333.207 447.538Z" fill="#9732E5"/>
<path d="M320.132 400.052H308.619V447.501H320.132V400.052Z" fill="#6814A8"/>
<path d="M288.136 438.252C288.136 438.252 286.502 431.489 287.155 429.113C287.809 426.701 289.08 423.63 293.33 424.324C297.579 425.019 302.591 426.81 302.591 426.81C302.591 426.81 302.337 429.917 299.104 428.93L301.102 430.502C301.102 430.502 300.811 432.988 298.087 431.672L299.94 433.756C299.94 433.756 298.777 435.803 296.744 434.487C294.782 433.134 293.838 439.093 288.136 438.252Z" fill="url(#paint56_linear_2010_16)"/>
<path d="M712.568 367.978L730.872 359.095C731.744 358.656 732.761 359.461 732.507 360.448C730.908 366.626 726.913 382.418 727.458 382.966C728.148 383.661 712.568 367.978 712.568 367.978Z" fill="url(#paint57_linear_2010_16)"/>
<path d="M676.394 415.94C676.394 415.94 679.99 399.636 684.893 401.72C689.796 403.803 689.142 407.642 690.777 408.812C692.375 410.018 698.258 418.608 676.394 415.94Z" fill="#C50DA8"/>
<path d="M677.048 415.94C677.048 415.94 678.683 399.344 673.453 399.636C668.223 399.929 669.857 407.057 665.281 407.349C660.741 407.678 658.78 417.146 677.048 415.94Z" fill="#C50DA8"/>
<path d="M665.353 442.113H687.072C689.578 442.113 691.684 440.359 691.866 438.092L694.227 420.107C694.444 417.548 692.229 415.354 689.432 415.354H664.917C662.266 415.354 660.087 417.328 660.087 419.741L660.523 437.727C660.523 440.139 662.702 442.113 665.353 442.113Z" fill="url(#paint58_linear_2010_16)"/>
<path d="M673.888 442.113H681.406L680.97 415.354H673.452L673.888 442.113Z" fill="#AE0A94"/>
<path d="M701.526 523.669L700.909 535.367C700.909 535.367 704.505 574.481 705.267 591.809C705.376 594.514 704.686 597.219 703.27 599.522L695.897 611.585L714.674 600.436L715.037 598.133L711.95 593.892L715.981 545.383C716.236 542.531 715.618 539.68 714.311 537.158L710.425 529.81L701.526 523.669Z" fill="url(#paint59_linear_2010_16)"/>
<path d="M694.626 613.34H700.619C701.745 613.34 702.798 612.829 703.488 611.915C705.34 609.466 709.226 604.713 711.079 604.567C713.585 604.384 713.258 613.304 713.258 613.304H714.638L716.417 602.227C716.853 599.449 715.473 596.671 713.004 595.392C713.004 595.392 712.422 599.632 709.335 601.496C706.248 603.361 696.769 610.087 696.769 610.087C696.769 610.087 695.607 609.904 694.336 610.16C692.447 610.526 692.701 613.34 694.626 613.34Z" fill="url(#paint60_linear_2010_16)"/>
<path d="M717.652 523.668L716.381 531.162C716.381 531.162 720.63 574.444 721.393 591.772C721.502 594.477 720.812 597.182 719.395 599.485L712.022 611.548L730.799 600.399L731.162 598.096L728.075 593.855L732.107 545.346C732.361 542.495 731.743 539.643 730.436 537.121L726.55 529.773L717.652 523.668Z" fill="url(#paint61_linear_2010_16)"/>
<path d="M739.08 473.99C738.063 465.692 727.749 457.906 727.749 457.906C714.747 462.585 705.449 455.676 705.449 455.676C705.449 455.676 701.418 464.047 701.345 472.601C701.309 481.119 700.8 535.916 700.8 535.916C715.836 542.276 731.381 539.132 731.381 539.132C730.219 519.392 740.097 482.288 739.08 473.99Z" fill="url(#paint62_linear_2010_16)"/>
<path d="M709.153 372.878C709.153 372.878 720.085 365.164 725.896 378.946C726.949 381.468 733.124 381.87 733.741 386.988C734.068 389.62 735.993 391.74 738.608 392.143C745.109 393.13 755.133 396.529 756.731 407.898C757.966 416.562 753.571 419.852 748.958 420.985C745.581 421.826 743.329 425.152 744.019 428.589C744.673 431.879 743.692 435.717 738.027 438.715C725.279 445.477 712.567 422.703 712.567 422.703L709.952 382.931L709.153 372.878Z" fill="url(#paint63_linear_2010_16)"/>
<path d="M710.788 613.34H716.78C717.906 613.34 718.959 612.829 719.649 611.915C721.502 609.465 725.388 604.713 727.24 604.567C729.746 604.384 729.419 613.304 729.419 613.304H730.799L732.579 602.227C733.015 599.449 731.635 596.671 729.165 595.391C729.165 595.391 728.584 599.632 725.497 601.496C722.41 603.361 712.93 610.087 712.93 610.087C712.93 610.087 711.768 609.904 710.497 610.16C708.572 610.526 708.863 613.34 710.788 613.34Z" fill="url(#paint64_linear_2010_16)"/>
<path d="M727.64 458.197C723.645 441.126 728.475 428.66 732.652 421.715C735.267 417.401 733.269 411.772 728.621 409.98C721.139 407.092 712.568 406.544 708.173 406.471C706.285 406.434 704.505 407.348 703.379 408.884C700.183 413.234 694.19 422.702 695.752 430.342C696.987 436.374 705.34 460.427 705.34 460.427C705.34 460.427 715.8 465.362 727.64 458.197Z" fill="#FD5E06"/>
<path d="M715.763 387.279L719.94 408.08C720.449 410.163 717.47 410.602 715.328 410.785C711.696 411.077 709.662 410.236 708.209 407.531C708.064 407.275 707.991 406.946 707.955 406.654L705.703 390.313C705.522 388.997 706.212 387.755 707.41 387.243L711.732 385.305C713.403 384.538 715.328 385.488 715.763 387.279Z" fill="url(#paint65_linear_2010_16)"/>
<path d="M707.047 371.963C707.047 371.963 701.963 375.327 699.674 384.1C697.386 392.837 700.873 396.017 704.505 395.871C708.137 395.725 713.367 394.665 718.015 388.414C722.628 382.199 713.694 367.833 707.047 371.963Z" fill="url(#paint66_linear_2010_16)"/>
<path d="M713.439 384.832C713.439 384.832 715.437 372.293 705.05 374.084L702.943 376.241C702.943 376.241 697.931 370.429 703.597 366.152C709.263 361.875 717.035 363.081 721.248 371.05C725.461 379.019 726.95 384.612 723.282 389.474C719.614 394.336 716.926 390.096 716.926 390.096C716.926 390.096 718.633 385.855 717.289 384.027C715.945 382.2 714.129 385.051 714.129 385.051L713.439 384.832Z" fill="url(#paint67_linear_2010_16)"/>
<path d="M672.58 439.372C672.217 438.75 672.798 437.983 673.488 438.202C676.067 438.97 680.825 439.847 684.094 437.581C684.275 437.471 684.42 437.361 684.566 437.252C684.239 436.849 683.73 436.557 683.004 436.557C680.934 436.63 679.99 433.596 679.99 433.596C679.99 433.596 681.842 434.583 683.767 433.925C685.437 433.34 687.943 434.108 689.178 436.009C694.662 441.748 701.744 449.644 714.093 443.685C723.245 439.262 723.281 426.248 722.7 419.814C722.482 417.292 723.972 414.916 726.369 414.148C729.528 413.161 732.143 413.673 734.104 416.086C735.085 417.292 735.521 418.827 735.448 420.399C735.049 427.199 732.615 449.315 716.962 453.994C698.403 459.55 687.471 441.455 687.471 441.455C687.471 441.455 677.956 448.511 672.58 439.372Z" fill="url(#paint68_linear_2010_16)"/>
<path d="M808.063 343.515L826.077 329.405C826.476 329.076 827.094 329.405 827.021 329.953L824.333 352.801L808.063 343.515Z" fill="url(#paint69_linear_2010_16)"/>
<path d="M880.555 488.899C880.555 488.899 883.46 484.585 886.62 480.564C887.855 478.992 890.034 478.663 891.378 479.833C895.99 483.781 905.796 492.225 908.992 495.552C909.464 496.064 909.283 496.941 908.593 497.307C908.012 497.599 907.394 497.672 906.813 497.526L883.751 490.982L880.555 488.899Z" fill="#401A11"/>
<path d="M878.085 490.726L882.806 486.705C882.806 486.705 887.201 488.13 887.782 491.713L881.862 495.551L878.085 490.726Z" fill="url(#paint70_linear_2010_16)"/>
<path d="M773.777 383.691C766.441 367.095 759.504 342.31 767.567 317.525L772.252 312.809C772.252 312.809 772.252 351.631 781.84 370.896C779.152 375.173 776.501 379.45 773.777 383.691Z" fill="url(#paint71_linear_2010_16)"/>
<path d="M773.378 305.425L775.157 308.094C775.629 308.825 775.775 309.739 775.484 310.58C774.758 312.773 773.16 317.05 770.872 319.353C767.712 322.533 764.589 314.93 763.935 312.371C763.317 309.849 767.712 303.488 768.983 302.245C770.218 300.966 775.266 301.624 773.378 305.425Z" fill="url(#paint72_linear_2010_16)"/>
<path d="M797.493 566.469C797.493 566.469 798.401 571.623 798.837 576.704C799.018 578.715 797.493 580.433 795.495 580.506C788.74 580.798 774.322 581.347 769.128 581.091C768.365 581.054 767.857 580.25 768.111 579.519C768.365 578.897 768.801 578.422 769.419 578.13L793.244 567.09L797.493 566.469Z" fill="#401A11"/>
<path d="M798.22 563.471L797.494 569.649C797.494 569.649 793.317 571.623 790.448 569.393L792.191 562.521L798.22 563.471Z" fill="url(#paint73_linear_2010_16)"/>
<path d="M797.675 447.59C798.002 449.199 799.346 527.903 790.993 563.143C790.848 563.728 791.138 564.312 791.683 564.532C792.954 565.044 795.46 565.811 798.474 565.921C799.419 565.957 800.254 565.336 800.508 564.459C802.905 556.27 819.321 508.931 820.811 469.779C822.481 426.022 814.854 447.59 814.854 447.59H797.675Z" fill="url(#paint74_linear_2010_16)"/>
<path d="M833.776 449.016C840.785 466.818 843.073 469.596 846.197 489.885C849.938 514.231 868.242 497.415 878.012 489.519C879.247 488.532 882.915 492.115 883.278 497.123C883.75 503.666 844.236 534.848 833.558 512.805C826.73 498.731 824.841 482.903 820.302 474.166C819.721 473.069 818.812 472.228 817.687 471.717L803.74 465.722L799.818 451.94L833.776 449.016Z" fill="url(#paint75_linear_2010_16)"/>
<path d="M841.403 385.847C848.739 369.251 855.676 344.466 847.614 319.681L842.928 314.966C842.928 314.966 842.928 353.788 833.34 373.053C836.028 377.33 838.715 381.57 841.403 385.847Z" fill="url(#paint76_linear_2010_16)"/>
<path d="M797.675 379.889H820.737C823.061 379.889 825.277 379.012 826.948 377.403C829.09 375.356 831.851 371.847 833.812 366.363C834.102 365.523 835.01 365.084 835.846 365.34C838.824 366.217 845.325 368.776 848.703 374.661C849.029 375.21 849.029 375.904 848.666 376.453L834.284 398.861L835.7 454.133C835.7 454.133 799.563 459.836 794.588 454.133L789.612 403.467C789.612 403.467 771.888 392.757 766.913 375.648L781.803 367.094C781.803 367.094 783.547 367.168 784.999 371.189C786.997 376.416 792.082 379.889 797.675 379.889Z" fill="url(#paint77_linear_2010_16)"/>
<path d="M817.396 363L817.941 380.913C817.977 382.046 817.251 383.106 816.198 383.472C813.982 384.203 809.987 385.117 805.484 384.166C804.14 383.874 803.305 382.558 803.522 381.205L805.956 367.095L817.396 363Z" fill="url(#paint78_linear_2010_16)"/>
<path d="M805.229 346.587C805.084 346.806 799.673 361.538 797.312 368.008C796.694 369.653 797.602 371.444 799.273 371.993L804.467 372.943C807.917 373.565 811.331 371.737 812.711 368.483L818.994 361.136C822.408 357.151 821.246 350.973 816.561 348.561C811.985 346.258 806.936 344.43 805.229 346.587Z" fill="url(#paint79_linear_2010_16)"/>
<path d="M815.58 362.818L814.091 362.05C814.091 362.05 820.047 352.29 813.328 351.559C806.609 350.791 800.653 349.292 800.653 345.564C800.653 341.799 800.653 335.072 808.861 338.07C817.069 341.067 816.306 346.331 820.773 347.063C825.24 347.794 828.981 348.561 827.492 353.058C826.003 357.554 823.025 360.552 824.514 362.05C826.003 363.549 819.284 371.043 815.58 362.818Z" fill="#E6A719"/>
<path d="M813.981 365.742C813.981 365.742 815.216 359.162 817.976 358.98C820.737 358.833 823.279 361.246 820.337 364.828C816.669 369.252 813.981 365.742 813.981 365.742Z" fill="url(#paint80_linear_2010_16)"/>
<path d="M841.802 307.545L840.023 310.213C839.55 310.944 839.405 311.858 839.696 312.699C840.422 314.892 842.02 319.169 844.308 321.472C847.468 324.653 850.591 317.049 851.245 314.49C851.863 311.968 847.468 305.607 846.197 304.364C844.926 303.121 839.914 303.743 841.802 307.545Z" fill="url(#paint81_linear_2010_16)"/>
<path d="M823.671 407.559L824.878 405.505C824.91 405.449 824.951 405.399 825.001 405.359C825.046 405.326 825.101 405.307 825.157 405.306L826.334 405.236L826.444 405.245C826.451 405.245 826.458 405.246 826.464 405.249C826.47 405.251 826.476 405.255 826.481 405.26C826.486 405.265 826.489 405.271 826.492 405.277C826.494 405.283 826.496 405.29 826.495 405.297C826.493 405.334 826.481 405.369 826.462 405.401L826.442 405.433C826.159 405.911 825.861 406.419 825.547 406.956L824.593 408.582L826.673 411.318C826.708 411.366 826.742 411.413 826.773 411.46C826.805 411.506 826.838 411.552 826.869 411.598C826.875 411.61 826.881 411.623 826.884 411.637C826.889 411.652 826.893 411.668 826.895 411.684C826.898 411.728 826.867 411.752 826.803 411.756L825.551 411.83C825.452 411.836 825.367 411.786 825.297 411.682C825.047 411.35 824.797 411.019 824.548 410.688C824.3 410.357 824.049 410.026 823.796 409.694L823.022 408.673L823.671 407.559Z" fill="#6FAA27"/>
<path d="M821.773 407.751C821.659 407.427 821.49 407.125 821.274 406.858C821.115 406.661 820.931 406.485 820.728 406.334C820.322 406.029 819.851 405.822 819.353 405.728C819.102 405.68 818.847 405.664 818.593 405.679C818.292 405.695 817.995 405.753 817.71 405.851C817.173 406.036 816.696 406.363 816.328 406.798C816.031 407.147 815.81 407.555 815.68 407.996L815.467 404.353C815.465 404.311 815.454 404.271 815.435 404.234C815.415 404.197 815.387 404.165 815.353 404.141C815.29 404.091 815.211 404.066 815.131 404.07L814.303 404.119C814.261 404.119 814.218 404.128 814.179 404.145C814.14 404.163 814.105 404.188 814.077 404.22C814.026 404.282 814.001 404.363 814.009 404.443L814.145 406.767C813.892 406.531 813.598 406.343 813.278 406.216C812.957 406.087 812.591 406.034 812.18 406.059C811.743 406.081 811.317 406.196 810.927 406.396C810.452 406.643 810.043 407.003 809.738 407.446C809.433 407.888 809.24 408.399 809.175 408.934C809.157 408.866 809.137 408.799 809.114 408.733C809.021 408.459 808.893 408.198 808.735 407.956C808.419 407.478 807.986 407.09 807.478 406.83C807.221 406.699 806.949 406.602 806.668 406.54C806.084 406.414 805.478 406.45 804.913 406.644C804.641 406.738 804.383 406.866 804.143 407.026C803.908 407.184 803.694 407.373 803.507 407.587C803.319 407.801 803.159 408.038 803.03 408.293C802.899 408.551 802.803 408.825 802.744 409.109C802.634 409.639 802.652 410.189 802.797 410.711C802.774 410.792 802.747 410.872 802.714 410.949C802.506 411.449 802.11 411.847 801.613 412.055C801.357 412.164 801.081 412.217 800.804 412.211C800.524 412.211 800.248 412.151 799.993 412.037C799.751 411.928 799.532 411.773 799.349 411.58C799.165 411.386 799.02 411.158 798.923 410.908C798.769 410.521 798.731 410.096 798.812 409.687C798.894 409.277 799.091 408.901 799.382 408.602C799.569 408.413 799.791 408.262 800.036 408.158C800.294 408.049 800.571 407.996 800.851 408.002C801.128 408.002 801.402 408.06 801.656 408.173C801.798 408.237 801.933 408.317 802.057 408.412C802.083 408.431 802.113 408.445 802.144 408.452C802.176 408.459 802.208 408.459 802.24 408.452C802.271 408.445 802.301 408.431 802.327 408.412C802.353 408.393 802.374 408.368 802.39 408.339L802.768 407.66C802.796 407.609 802.804 407.551 802.791 407.495C802.779 407.439 802.745 407.389 802.698 407.357C802.644 407.319 802.588 407.283 802.53 407.248C802.284 407.1 802.019 406.985 801.744 406.904C801.17 406.738 800.562 406.731 799.985 406.884C799.708 406.959 799.441 407.069 799.191 407.211C798.944 407.351 798.717 407.524 798.516 407.724C798.313 407.924 798.136 408.15 797.989 408.394C797.841 408.644 797.727 408.912 797.649 409.192C797.486 409.757 797.475 410.355 797.617 410.925C797.76 411.496 798.05 412.018 798.459 412.438C798.657 412.643 798.88 412.821 799.123 412.969C799.503 413.196 799.924 413.345 800.362 413.407C800.799 413.469 801.245 413.444 801.673 413.331C802.226 413.185 802.733 412.897 803.144 412.496C803.286 412.357 803.414 412.205 803.529 412.042C803.607 412.129 803.69 412.212 803.777 412.29C803.988 412.479 804.223 412.641 804.475 412.77C804.87 412.97 805.3 413.09 805.741 413.122C806.182 413.153 806.624 413.097 807.043 412.955C807.586 412.771 808.072 412.448 808.453 412.018C808.642 411.805 808.803 411.569 808.931 411.315C809.06 411.057 809.157 410.784 809.218 410.503C809.235 410.424 809.249 410.344 809.26 410.263C809.313 410.47 809.386 410.671 809.478 410.863C809.839 411.638 810.489 412.238 811.286 412.534C811.696 412.686 812.133 412.75 812.569 412.721C812.762 412.71 812.953 412.677 813.137 412.621C813.486 412.517 813.811 412.344 814.092 412.111C814.224 412.002 814.348 411.882 814.463 411.754L814.531 412.182C814.557 412.262 814.596 412.337 814.645 412.405C814.685 412.453 814.756 412.474 814.856 412.468L815.613 412.423C815.83 412.411 815.93 412.303 815.918 412.099L815.815 410.337C815.836 410.386 815.86 410.434 815.884 410.481C816.282 411.26 816.962 411.855 817.784 412.143C818.203 412.291 818.647 412.353 819.09 412.325C819.486 412.306 819.875 412.208 820.234 412.038C820.579 411.871 820.894 411.649 821.169 411.382C821.292 411.28 821.35 411.181 821.345 411.086C821.342 411.047 821.33 411.01 821.31 410.976C821.283 410.931 821.251 410.889 821.216 410.85C821.173 410.802 821.116 410.743 821.048 410.672C820.98 410.602 820.897 410.513 820.8 410.407C820.768 410.367 820.727 410.335 820.681 410.312C820.648 410.296 820.612 410.287 820.576 410.288C820.535 410.29 820.495 410.304 820.462 410.327C820.422 410.355 820.385 410.387 820.351 410.422C820.35 410.422 820.349 410.422 820.349 410.422C820.348 410.422 820.348 410.423 820.347 410.423C820.347 410.424 820.346 410.424 820.346 410.425C820.346 410.426 820.346 410.427 820.346 410.427C820.267 410.508 820.18 410.583 820.089 410.649C819.986 410.723 819.877 410.788 819.763 410.843C819.64 410.904 819.512 410.952 819.38 410.988C819.238 411.027 819.093 411.051 818.946 411.058C818.744 411.069 818.541 411.048 818.346 410.994C818.143 410.94 817.952 410.851 817.779 410.732C817.601 410.609 817.445 410.456 817.317 410.281C817.179 410.093 817.081 409.879 817.027 409.652L821.497 409.387C821.592 409.384 821.686 409.369 821.778 409.342C821.835 409.326 821.886 409.292 821.924 409.246C821.957 409.198 821.976 409.141 821.978 409.082C821.982 409 821.982 408.918 821.976 408.836C821.959 408.466 821.891 408.101 821.773 407.751ZM807.916 410.506C807.83 410.76 807.696 410.995 807.521 411.198C807.346 411.398 807.134 411.564 806.896 411.684C806.647 411.809 806.375 411.881 806.097 411.898C805.82 411.914 805.541 411.874 805.279 411.78C804.774 411.596 804.362 411.218 804.133 410.73C803.953 410.353 803.885 409.932 803.938 409.518C803.991 409.103 804.163 408.713 804.432 408.395C804.606 408.193 804.819 408.026 805.056 407.906C805.306 407.782 805.578 407.709 805.855 407.693C806.133 407.676 806.412 407.716 806.674 407.81C806.924 407.902 807.154 408.042 807.351 408.222C807.757 408.597 808.001 409.118 808.03 409.672C808.048 409.955 808.009 410.238 807.916 410.506ZM814.389 409.309C814.399 409.569 814.359 409.828 814.269 410.072C814.184 410.308 814.055 410.526 813.89 410.714C813.724 410.903 813.524 411.059 813.3 411.172C813.069 411.289 812.816 411.357 812.558 411.371C812.301 411.389 812.044 411.35 811.805 411.258C811.576 411.169 811.367 411.037 811.189 410.868C811.008 410.695 810.862 410.488 810.759 410.26C810.542 409.777 810.51 409.23 810.669 408.725C810.745 408.482 810.866 408.257 811.024 408.06C811.181 407.866 811.374 407.704 811.591 407.583C811.817 407.458 812.068 407.387 812.325 407.374C812.588 407.357 812.852 407.398 813.098 407.494C813.336 407.586 813.555 407.724 813.742 407.899C813.929 408.075 814.081 408.284 814.193 408.516C814.308 408.753 814.374 409.01 814.389 409.273L814.389 409.309ZM816.987 408.437C817.029 408.238 817.104 408.048 817.209 407.874C817.313 407.7 817.442 407.544 817.592 407.408C817.741 407.274 817.909 407.164 818.091 407.081C818.272 406.998 818.467 406.949 818.666 406.937C818.884 406.923 819.102 406.944 819.313 407.001C819.508 407.054 819.692 407.14 819.858 407.256C820.02 407.372 820.161 407.513 820.277 407.675C820.398 407.843 820.491 408.03 820.554 408.228L816.987 408.437Z" fill="#575756"/>
<path d="M823.815 407.55L824.589 408.58L823.945 407.093L823.735 407.445L823.815 407.55Z" fill="#46952B"/>
<path d="M824.589 408.573L824.587 408.577L824.587 408.578L824.589 408.573Z" fill="#46952B"/>
<path d="M823.873 409.8L824.122 410.124L824.584 408.591L823.873 409.8Z" fill="#46952B"/>
<path d="M824.589 408.58L823.94 409.686C823.727 410.045 823.517 410.404 823.308 410.761C823.1 411.119 822.891 411.478 822.681 411.837C822.623 411.949 822.545 412.008 822.447 412.014L821.191 412.088C821.127 412.092 821.094 412.072 821.091 412.028C821.092 412.012 821.094 411.995 821.097 411.979C821.099 411.965 821.102 411.952 821.108 411.939C821.134 411.89 821.16 411.841 821.186 411.791C821.213 411.741 821.241 411.69 821.27 411.638L823.019 408.673L821.883 407.173C821.508 406.676 821.153 406.207 820.818 405.766L820.795 405.736C820.772 405.708 820.756 405.674 820.749 405.637C820.748 405.631 820.749 405.624 820.75 405.617C820.752 405.61 820.755 405.604 820.759 405.599C820.764 405.593 820.769 405.589 820.775 405.586C820.781 405.582 820.788 405.58 820.794 405.58L820.902 405.558L822.078 405.488C822.134 405.483 822.19 405.495 822.24 405.522C822.294 405.557 822.341 405.601 822.378 405.653L823.816 407.552L824.589 408.58Z" fill="#93C01F"/>
<path d="M803.668 411.828C803.623 411.904 803.581 411.972 803.53 412.043C803.624 412.148 803.724 412.246 803.829 412.338C804.027 411.819 804.015 411.241 804.005 411.057C803.925 411.327 803.812 411.586 803.668 411.828Z" fill="#3C3C3B"/>
<defs>
<filter id="filter0_f_2010_16" x="153.604" y="15.7418" width="762.12" height="742.281" filterUnits="userSpaceOnUse" color-interpolation-filters="sRGB">
<feFlood flood-opacity="0" result="BackgroundImageFix"/>
<feBlend mode="normal" in="SourceGraphic" in2="BackgroundImageFix" result="shape"/>
<feGaussianBlur stdDeviation="40.6" result="effect1_foregroundBlur_2010_16"/>
</filter>
<linearGradient id="paint0_linear_2010_16" x1="760.038" y1="377.408" x2="1074.26" y2="290.011" gradientUnits="userSpaceOnUse">
<stop stop-color="white" stop-opacity="0"/>
<stop offset="0.655" stop-color="#67C500" stop-opacity="0.5"/>
</linearGradient>
<linearGradient id="paint1_linear_2010_16" x1="306.904" y1="377.409" x2="-7.31673" y2="290.012" gradientUnits="userSpaceOnUse">
<stop stop-color="white" stop-opacity="0"/>
<stop offset="0.655" stop-color="#67C500" stop-opacity="0.5"/>
</linearGradient>
<linearGradient id="paint2_linear_2010_16" x1="691.332" y1="54.7059" x2="691.332" y2="164.373" gradientUnits="userSpaceOnUse">
<stop stop-color="#BD98D9"/>
<stop offset="1" stop-color="#712FA4"/>
</linearGradient>
<linearGradient id="paint3_linear_2010_16" x1="579.505" y1="242.387" x2="540.312" y2="248.122" gradientUnits="userSpaceOnUse">
<stop stop-color="#4042E2"/>
<stop offset="1" stop-color="#4F52FF"/>
</linearGradient>
<linearGradient id="paint4_linear_2010_16" x1="535.936" y1="258.32" x2="497.16" y2="263.994" gradientUnits="userSpaceOnUse">
<stop stop-color="#4042E2"/>
<stop offset="1" stop-color="#4F52FF"/>
</linearGradient>
<linearGradient id="paint5_linear_2010_16" x1="492.861" y1="274.559" x2="456.935" y2="279.816" gradientUnits="userSpaceOnUse">
<stop stop-color="#4042E2"/>
<stop offset="1" stop-color="#4F52FF"/>
</linearGradient>
<linearGradient id="paint6_linear_2010_16" x1="453.757" y1="283.162" x2="415.699" y2="288.731" gradientUnits="userSpaceOnUse">
<stop stop-color="#4042E2"/>
<stop offset="1" stop-color="#4F52FF"/>
</linearGradient>
<linearGradient id="paint7_linear_2010_16" x1="553.234" y1="67.4681" x2="558.382" y2="245.446" gradientUnits="userSpaceOnUse">
<stop stop-color="#FFBE2E"/>
<stop offset="1" stop-color="#D16D4E"/>
</linearGradient>
<linearGradient id="paint8_linear_2010_16" x1="559.515" y1="119.693" x2="537.24" y2="267.229" gradientUnits="userSpaceOnUse">
<stop stop-color="white"/>
<stop offset="1" stop-color="white"/>
</linearGradient>
<linearGradient id="paint9_linear_2010_16" x1="450.156" y1="70.3921" x2="455.287" y2="248.153" gradientUnits="userSpaceOnUse">
<stop stop-color="#FFBE2E"/>
<stop offset="1" stop-color="#D16D4E"/>
</linearGradient>
<linearGradient id="paint10_linear_2010_16" x1="459.276" y1="104.558" x2="437.001" y2="252.094" gradientUnits="userSpaceOnUse">
<stop stop-color="white"/>
<stop offset="1" stop-color="white"/>
</linearGradient>
<linearGradient id="paint11_linear_2010_16" x1="502.787" y1="65.1641" x2="507.935" y2="243.142" gradientUnits="userSpaceOnUse">
<stop stop-color="#FFBE2E"/>
<stop offset="1" stop-color="#D16D4E"/>
</linearGradient>
<linearGradient id="paint12_linear_2010_16" x1="509.849" y1="112.193" x2="487.574" y2="259.729" gradientUnits="userSpaceOnUse">
<stop stop-color="white"/>
<stop offset="1" stop-color="white"/>
</linearGradient>
<linearGradient id="paint13_linear_2010_16" x1="515.058" y1="434.566" x2="519.496" y2="123.341" gradientUnits="userSpaceOnUse">
<stop stop-color="#B8FF00"/>
<stop offset="0.509113" stop-color="#FBFBFB"/>
</linearGradient>
<linearGradient id="paint14_linear_2010_16" x1="480.739" y1="90.5054" x2="486.478" y2="360.545" gradientUnits="userSpaceOnUse">
<stop stop-color="#97E835"/>
<stop offset="0.723233" stop-color="#46952B"/>
</linearGradient>
<linearGradient id="paint15_linear_2010_16" x1="390.44" y1="285.382" x2="394.405" y2="367.123" gradientUnits="userSpaceOnUse">
<stop stop-color="#97E835"/>
<stop offset="0.723233" stop-color="#46952B"/>
</linearGradient>
<linearGradient id="paint16_linear_2010_16" x1="416.081" y1="276.792" x2="420.046" y2="358.533" gradientUnits="userSpaceOnUse">
<stop stop-color="#97E835"/>
<stop offset="0.723233" stop-color="#46952B"/>
</linearGradient>
<linearGradient id="paint17_linear_2010_16" x1="443.538" y1="273.721" x2="447.502" y2="355.462" gradientUnits="userSpaceOnUse">
<stop stop-color="#97E835"/>
<stop offset="0.723233" stop-color="#46952B"/>
</linearGradient>
<linearGradient id="paint18_linear_2010_16" x1="471.576" y1="271.272" x2="475.54" y2="353.013" gradientUnits="userSpaceOnUse">
<stop stop-color="#97E835"/>
<stop offset="0.723233" stop-color="#46952B"/>
</linearGradient>
<linearGradient id="paint19_linear_2010_16" x1="499.033" y1="268.823" x2="502.998" y2="350.564" gradientUnits="userSpaceOnUse">
<stop stop-color="#97E835"/>
<stop offset="0.723233" stop-color="#46952B"/>
</linearGradient>
<linearGradient id="paint20_linear_2010_16" x1="527.071" y1="268.823" x2="531.035" y2="350.564" gradientUnits="userSpaceOnUse">
<stop stop-color="#97E835"/>
<stop offset="0.723233" stop-color="#46952B"/>
</linearGradient>
<linearGradient id="paint21_linear_2010_16" x1="554.528" y1="270.029" x2="558.493" y2="351.77" gradientUnits="userSpaceOnUse">
<stop stop-color="#97E835"/>
<stop offset="0.723233" stop-color="#46952B"/>
</linearGradient>
<linearGradient id="paint22_linear_2010_16" x1="580.75" y1="271.272" x2="584.714" y2="353.013" gradientUnits="userSpaceOnUse">
<stop stop-color="#97E835"/>
<stop offset="0.723233" stop-color="#46952B"/>
</linearGradient>
<linearGradient id="paint23_linear_2010_16" x1="605.774" y1="275.549" x2="609.739" y2="357.29" gradientUnits="userSpaceOnUse">
<stop stop-color="#97E835"/>
<stop offset="0.723233" stop-color="#46952B"/>
</linearGradient>
<linearGradient id="paint24_linear_2010_16" x1="630.18" y1="279.241" x2="634.144" y2="360.982" gradientUnits="userSpaceOnUse">
<stop stop-color="#97E835"/>
<stop offset="0.723233" stop-color="#46952B"/>
</linearGradient>
<linearGradient id="paint25_linear_2010_16" x1="518.771" y1="473.313" x2="520.271" y2="254.274" gradientUnits="userSpaceOnUse">
<stop stop-color="#B8FF00"/>
<stop offset="0.602526" stop-color="#FBFBFB"/>
</linearGradient>
<linearGradient id="paint26_linear_2010_16" x1="329.055" y1="343.186" x2="335.124" y2="468.328" gradientUnits="userSpaceOnUse">
<stop stop-color="#97E835"/>
<stop offset="0.723233" stop-color="#46952B"/>
</linearGradient>
<linearGradient id="paint27_linear_2010_16" x1="368.315" y1="330.025" x2="374.384" y2="455.166" gradientUnits="userSpaceOnUse">
<stop stop-color="#97E835"/>
<stop offset="0.723233" stop-color="#46952B"/>
</linearGradient>
<linearGradient id="paint28_linear_2010_16" x1="410.336" y1="325.31" x2="416.405" y2="450.451" gradientUnits="userSpaceOnUse">
<stop stop-color="#97E835"/>
<stop offset="0.723233" stop-color="#46952B"/>
</linearGradient>
<linearGradient id="paint29_linear_2010_16" x1="453.301" y1="321.544" x2="459.37" y2="446.685" gradientUnits="userSpaceOnUse">
<stop stop-color="#97E835"/>
<stop offset="0.723233" stop-color="#46952B"/>
</linearGradient>
<linearGradient id="paint30_linear_2010_16" x1="495.358" y1="317.779" x2="501.427" y2="442.92" gradientUnits="userSpaceOnUse">
<stop stop-color="#97E835"/>
<stop offset="0.723233" stop-color="#46952B"/>
</linearGradient>
<linearGradient id="paint31_linear_2010_16" x1="538.323" y1="317.779" x2="544.392" y2="442.92" gradientUnits="userSpaceOnUse">
<stop stop-color="#97E835"/>
<stop offset="0.723233" stop-color="#46952B"/>
</linearGradient>
<linearGradient id="paint32_linear_2010_16" x1="580.344" y1="319.681" x2="586.414" y2="444.822" gradientUnits="userSpaceOnUse">
<stop stop-color="#97E835"/>
<stop offset="0.723233" stop-color="#46952B"/>
</linearGradient>
<linearGradient id="paint33_linear_2010_16" x1="620.512" y1="321.544" x2="626.581" y2="446.685" gradientUnits="userSpaceOnUse">
<stop stop-color="#97E835"/>
<stop offset="0.723233" stop-color="#46952B"/>
</linearGradient>
<linearGradient id="paint34_linear_2010_16" x1="658.829" y1="328.125" x2="664.898" y2="453.266" gradientUnits="userSpaceOnUse">
<stop stop-color="#97E835"/>
<stop offset="0.723233" stop-color="#46952B"/>
</linearGradient>
<linearGradient id="paint35_linear_2010_16" x1="696.201" y1="333.79" x2="702.27" y2="458.932" gradientUnits="userSpaceOnUse">
<stop stop-color="#97E835"/>
<stop offset="0.723233" stop-color="#46952B"/>
</linearGradient>
<linearGradient id="paint36_linear_2010_16" x1="525.577" y1="796.706" x2="527.875" y2="295.512" gradientUnits="userSpaceOnUse">
<stop stop-color="#B8FF00"/>
<stop offset="0.775856" stop-color="#FBFBFB"/>
</linearGradient>
<linearGradient id="paint37_linear_2010_16" x1="558.684" y1="432.072" x2="529.409" y2="493.631" gradientUnits="userSpaceOnUse">
<stop stop-color="#4F52FF"/>
<stop offset="1" stop-color="#1A0F91"/>
</linearGradient>
<linearGradient id="paint38_linear_2010_16" x1="489.876" y1="432.651" x2="518.76" y2="482.509" gradientUnits="userSpaceOnUse">
<stop stop-color="#4F52FF"/>
<stop offset="1" stop-color="#1A0F91"/>
</linearGradient>
<linearGradient id="paint39_linear_2010_16" x1="550.575" y1="447.588" x2="484.893" y2="614.371" gradientUnits="userSpaceOnUse">
<stop stop-color="#4F52FF"/>
<stop offset="1" stop-color="#1A0F91"/>
</linearGradient>
<linearGradient id="paint40_linear_2010_16" x1="494.563" y1="396.644" x2="445.709" y2="501.544" gradientUnits="userSpaceOnUse">
<stop stop-color="#F0B076"/>
<stop offset="1" stop-color="#D34A00"/>
</linearGradient>
<linearGradient id="paint41_linear_2010_16" x1="430.892" y1="398.984" x2="422.418" y2="495.805" gradientUnits="userSpaceOnUse">
<stop stop-color="#F0B076"/>
<stop offset="1" stop-color="#D34A00"/>
</linearGradient>
<linearGradient id="paint42_linear_2010_16" x1="476.928" y1="433.136" x2="402.504" y2="663.657" gradientUnits="userSpaceOnUse">
<stop stop-color="#F0B076"/>
<stop offset="0.528706" stop-color="#D34A00"/>
</linearGradient>
<linearGradient id="paint43_linear_2010_16" x1="265.197" y1="352.084" x2="294.976" y2="352.084" gradientUnits="userSpaceOnUse">
<stop stop-color="#46952B"/>
<stop offset="1" stop-color="#6FAA27"/>
</linearGradient>
<linearGradient id="paint44_linear_2010_16" x1="305.276" y1="495.546" x2="307.113" y2="579.805" gradientUnits="userSpaceOnUse">
<stop stop-color="#02010B"/>
<stop offset="1" stop-color="#161244"/>
</linearGradient>
<linearGradient id="paint45_linear_2010_16" x1="299.968" y1="582.165" x2="307.723" y2="582.165" gradientUnits="userSpaceOnUse">
<stop stop-color="#FF928E"/>
<stop offset="1" stop-color="#FEB3B1"/>
</linearGradient>
<linearGradient id="paint46_linear_2010_16" x1="281.581" y1="522.487" x2="307.22" y2="522.487" gradientUnits="userSpaceOnUse">
<stop stop-color="#09005D"/>
<stop offset="1" stop-color="#1A0F91"/>
</linearGradient>
<linearGradient id="paint47_linear_2010_16" x1="272.8" y1="510.911" x2="276.111" y2="582.738" gradientUnits="userSpaceOnUse">
<stop stop-color="#02010B"/>
<stop offset="1" stop-color="#161244"/>
</linearGradient>
<linearGradient id="paint48_linear_2010_16" x1="272.021" y1="581.764" x2="278.717" y2="581.764" gradientUnits="userSpaceOnUse">
<stop stop-color="#FF928E"/>
<stop offset="1" stop-color="#FEB3B1"/>
</linearGradient>
<linearGradient id="paint49_linear_2010_16" x1="264.805" y1="521.641" x2="301.205" y2="521.641" gradientUnits="userSpaceOnUse">
<stop stop-color="#09005D"/>
<stop offset="1" stop-color="#1A0F91"/>
</linearGradient>
<linearGradient id="paint50_linear_2010_16" x1="264.545" y1="448.918" x2="182.681" y2="527.346" gradientUnits="userSpaceOnUse">
<stop stop-color="#E85255"/>
<stop offset="1" stop-color="#FF4F4F"/>
</linearGradient>
<linearGradient id="paint51_linear_2010_16" x1="244.987" y1="428.504" x2="163.123" y2="506.932" gradientUnits="userSpaceOnUse">
<stop stop-color="#E85255"/>
<stop offset="1" stop-color="#FF4F4F"/>
</linearGradient>
<linearGradient id="paint52_linear_2010_16" x1="245.19" y1="435.025" x2="295.324" y2="435.025" gradientUnits="userSpaceOnUse">
<stop stop-color="#FF928E"/>
<stop offset="1" stop-color="#FEB3B1"/>
</linearGradient>
<linearGradient id="paint53_linear_2010_16" x1="292.89" y1="374.967" x2="287.74" y2="413.707" gradientUnits="userSpaceOnUse">
<stop stop-color="#FF928E"/>
<stop offset="1" stop-color="#FEB3B1"/>
</linearGradient>
<linearGradient id="paint54_linear_2010_16" x1="2735.76" y1="1422.61" x2="2710.43" y2="1411.79" gradientUnits="userSpaceOnUse">
<stop stop-color="#FF928E"/>
<stop offset="1" stop-color="#FEB3B1"/>
</linearGradient>
<linearGradient id="paint55_linear_2010_16" x1="2733.2" y1="1428.62" x2="2707.87" y2="1417.8" gradientUnits="userSpaceOnUse">
<stop stop-color="#FF928E"/>
<stop offset="1" stop-color="#FEB3B1"/>
</linearGradient>
<linearGradient id="paint56_linear_2010_16" x1="298.942" y1="415.911" x2="283.51" y2="461.359" gradientUnits="userSpaceOnUse">
<stop stop-color="#FF928E"/>
<stop offset="1" stop-color="#FEB3B1"/>
</linearGradient>
<linearGradient id="paint57_linear_2010_16" x1="725.45" y1="358.972" x2="719.651" y2="382.452" gradientUnits="userSpaceOnUse">
<stop stop-color="#93C01F"/>
<stop offset="1" stop-color="#46952B"/>
</linearGradient>
<linearGradient id="paint58_linear_2010_16" x1="689.746" y1="419.815" x2="647.946" y2="446.586" gradientUnits="userSpaceOnUse">
<stop stop-color="#E240D7"/>
<stop offset="1" stop-color="#E008B5"/>
</linearGradient>
<linearGradient id="paint59_linear_2010_16" x1="721.447" y1="459.794" x2="691.435" y2="464.814" gradientUnits="userSpaceOnUse">
<stop stop-color="#CB7A3D"/>
<stop offset="1" stop-color="#FCC49A"/>
</linearGradient>
<linearGradient id="paint60_linear_2010_16" x1="693.044" y1="604.364" x2="716.467" y2="604.364" gradientUnits="userSpaceOnUse">
<stop stop-color="#57239F"/>
<stop offset="1" stop-color="#9354E9"/>
</linearGradient>
<linearGradient id="paint61_linear_2010_16" x1="737.572" y1="459.821" x2="707.561" y2="464.842" gradientUnits="userSpaceOnUse">
<stop stop-color="#CB7A3D"/>
<stop offset="1" stop-color="#FCC49A"/>
</linearGradient>
<linearGradient id="paint62_linear_2010_16" x1="733.168" y1="480.605" x2="642.613" y2="582.354" gradientUnits="userSpaceOnUse">
<stop stop-color="#3D3D71"/>
<stop offset="1" stop-color="#4F52FF"/>
</linearGradient>
<linearGradient id="paint63_linear_2010_16" x1="706.944" y1="344.622" x2="724.798" y2="388.794" gradientUnits="userSpaceOnUse">
<stop/>
<stop offset="1" stop-color="#393840"/>
</linearGradient>
<linearGradient id="paint64_linear_2010_16" x1="709.191" y1="604.364" x2="732.629" y2="604.364" gradientUnits="userSpaceOnUse">
<stop stop-color="#57239F"/>
<stop offset="1" stop-color="#9354E9"/>
</linearGradient>
<linearGradient id="paint65_linear_2010_16" x1="723.845" y1="366.291" x2="705" y2="373.929" gradientUnits="userSpaceOnUse">
<stop stop-color="#CB7A3D"/>
<stop offset="1" stop-color="#FCC49A"/>
</linearGradient>
<linearGradient id="paint66_linear_2010_16" x1="724.75" y1="353.323" x2="701.891" y2="367.099" gradientUnits="userSpaceOnUse">
<stop stop-color="#CB7A3D"/>
<stop offset="1" stop-color="#FCC49A"/>
</linearGradient>
<linearGradient id="paint67_linear_2010_16" x1="700.624" y1="355.354" x2="723.225" y2="390.95" gradientUnits="userSpaceOnUse">
<stop/>
<stop offset="1" stop-color="#3A3940"/>
</linearGradient>
<linearGradient id="paint68_linear_2010_16" x1="765.406" y1="375.04" x2="709.151" y2="431.498" gradientUnits="userSpaceOnUse">
<stop stop-color="#CB7A3D"/>
<stop offset="0.966346" stop-color="#FCC49A"/>
</linearGradient>
<linearGradient id="paint69_linear_2010_16" x1="817.545" y1="329.274" x2="817.545" y2="352.801" gradientUnits="userSpaceOnUse">
<stop stop-color="#93C01F"/>
<stop offset="1" stop-color="#455A0F"/>
</linearGradient>
<linearGradient id="paint70_linear_2010_16" x1="880.121" y1="488.51" x2="885.826" y2="493.796" gradientUnits="userSpaceOnUse">
<stop stop-color="#A22B25"/>
<stop offset="1" stop-color="#C0423C"/>
</linearGradient>
<linearGradient id="paint71_linear_2010_16" x1="768.14" y1="309.992" x2="777.487" y2="403.126" gradientUnits="userSpaceOnUse">
<stop stop-color="#A22B25"/>
<stop offset="1" stop-color="#C0423C"/>
</linearGradient>
<linearGradient id="paint72_linear_2010_16" x1="769.659" y1="309.84" x2="779.005" y2="402.974" gradientUnits="userSpaceOnUse">
<stop stop-color="#A22B25"/>
<stop offset="1" stop-color="#C0423C"/>
</linearGradient>
<linearGradient id="paint73_linear_2010_16" x1="798.221" y1="566.459" x2="790.467" y2="566.459" gradientUnits="userSpaceOnUse">
<stop stop-color="#A22B25"/>
<stop offset="1" stop-color="#C0423C"/>
</linearGradient>
<linearGradient id="paint74_linear_2010_16" x1="789.574" y1="510.276" x2="892.815" y2="469.563" gradientUnits="userSpaceOnUse">
<stop stop-color="#070421"/>
<stop offset="1" stop-color="#6E6B96"/>
</linearGradient>
<linearGradient id="paint75_linear_2010_16" x1="786.292" y1="501.952" x2="889.533" y2="461.239" gradientUnits="userSpaceOnUse">
<stop stop-color="#070421"/>
<stop offset="1" stop-color="#6E6B96"/>
</linearGradient>
<linearGradient id="paint76_linear_2010_16" x1="847.048" y1="312.132" x2="837.702" y2="405.266" gradientUnits="userSpaceOnUse">
<stop stop-color="#A22B25"/>
<stop offset="1" stop-color="#C0423C"/>
</linearGradient>
<linearGradient id="paint77_linear_2010_16" x1="798.26" y1="372.472" x2="868.6" y2="485.972" gradientUnits="userSpaceOnUse">
<stop offset="0.169952" stop-color="white"/>
<stop offset="1" stop-color="#B8B8B8"/>
</linearGradient>
<linearGradient id="paint78_linear_2010_16" x1="807.898" y1="350.851" x2="813.784" y2="400.071" gradientUnits="userSpaceOnUse">
<stop stop-color="#A22B25"/>
<stop offset="1" stop-color="#C0423C"/>
</linearGradient>
<linearGradient id="paint79_linear_2010_16" x1="848.723" y1="-496.311" x2="847.091" y2="-461.447" gradientUnits="userSpaceOnUse">
<stop stop-color="#A22B25"/>
<stop offset="1" stop-color="#C0423C"/>
</linearGradient>
<linearGradient id="paint80_linear_2010_16" x1="857.547" y1="-495.897" x2="855.915" y2="-461.033" gradientUnits="userSpaceOnUse">
<stop stop-color="#A22B25"/>
<stop offset="1" stop-color="#C0423C"/>
</linearGradient>
<linearGradient id="paint81_linear_2010_16" x1="845.529" y1="311.98" x2="836.183" y2="405.113" gradientUnits="userSpaceOnUse">
<stop stop-color="#A22B25"/>
<stop offset="1" stop-color="#C0423C"/>
</linearGradient>
</defs>
</svg>
