<svg width="1081" height="627" viewBox="0 0 1081 627" fill="none" xmlns="http://www.w3.org/2000/svg">
<path d="M863.451 578.779C868.673 578.934 873.823 577.636 878.25 575.057C883.078 571.8 887.182 567.703 890.339 562.993L890.346 562.982L890.354 562.972L1016.83 387.379L1084.5 292.709L1016.79 198.728C994.519 167.989 972.466 137.352 950.632 106.817L884.888 14.9092L884.874 14.8916L884.863 14.873C878.851 5.40388 871.314 0.793922 862.153 0.793923L742.168 0.793944C739.145 0.793959 737.025 1.27955 735.682 2.13477C734.408 2.94655 733.765 4.13305 733.758 5.81152C733.878 7.19738 734.155 8.56781 734.583 9.90039L734.602 9.95801L734.611 10.0176C734.791 11.1372 735.171 12.2225 735.738 13.2275C738.529 17.4113 741.282 21.6359 743.953 25.9395C746.611 30.2224 749.637 34.5442 752.684 38.9717L752.683 38.9727L935.896 292.241L936.232 292.705L935.898 293.17C902.258 340.021 868.947 386.333 835.965 432.108C802.983 477.883 771.782 521.212 742.361 562.094L742.351 562.107L740.296 564.835L740.292 564.84L739.936 565.321C738.311 567.59 737.229 570.156 736.759 572.844L736.668 573.421C736.617 573.905 736.673 574.394 736.832 574.859C736.993 575.332 737.258 575.772 737.615 576.15C737.972 576.529 738.412 576.837 738.909 577.053C739.406 577.268 739.948 577.386 740.5 577.396L740.544 577.397L740.588 577.403L750.973 578.779L863.451 578.779Z" stroke="url(#paint0_linear_2006_1946)" stroke-width="1.58791"/>
<path d="M225.933 578.78C220.711 578.935 215.56 577.637 211.133 575.058C206.306 571.801 202.201 567.704 199.044 562.994L199.038 562.983L199.03 562.973L72.5532 387.38L4.88232 292.71L72.5933 198.729C94.8651 167.99 116.918 137.353 138.751 106.818L204.496 14.9101L204.509 14.8926L204.521 14.874C210.532 5.40486 218.07 0.794898 227.231 0.7949L347.215 0.79492C350.238 0.794935 352.359 1.28053 353.702 2.13574C354.976 2.94753 355.618 4.13402 355.626 5.8125C355.506 7.19835 355.229 8.56879 354.8 9.90137L354.782 9.95898L354.773 10.0186C354.593 11.1382 354.212 12.2235 353.646 13.2285C350.855 17.4123 348.102 21.6368 345.431 25.9404C342.773 30.2234 339.747 34.5452 336.7 38.9727L336.701 38.9736L153.488 292.242L153.152 292.706L153.486 293.171C187.125 340.022 220.436 386.334 253.418 432.109C286.4 477.884 317.602 521.213 347.023 562.095L347.033 562.108L349.087 564.836L349.091 564.841L349.448 565.322C351.073 567.591 352.155 570.157 352.624 572.845L352.715 573.422C352.766 573.906 352.711 574.395 352.552 574.86C352.391 575.333 352.126 575.773 351.769 576.151C351.412 576.53 350.972 576.838 350.475 577.054C349.978 577.269 349.436 577.387 348.884 577.397L348.839 577.398L348.795 577.404L338.411 578.78L225.933 578.78Z" stroke="url(#paint1_linear_2006_1946)" stroke-width="1.58791"/>
<path d="M-1.99868 624.654C162.269 561.524 351.29 528.305 543.927 528.712C736.563 529.119 925.223 563.136 1088.81 626.96L1059.46 656.573C904.626 596.166 726.065 563.969 543.739 563.584C361.414 563.199 182.511 594.64 27.0357 654.391L-1.99868 624.654Z" fill="#43A725"/>
<rect x="294.221" y="550.712" width="506" height="29" fill="#43A725"/>
<rect x="161" y="578" width="727" height="32" fill="#43A725"/>
<rect x="103" y="597" width="876" height="30" fill="#43A725"/>
<g filter="url(#filter0_f_2006_1946)">
<ellipse cx="538.885" cy="386.664" rx="299.86" ry="289.94" fill="#93C01F" fill-opacity="0.1"/>
</g>
<path d="M720.073 496.656C719.891 496.636 719.758 496.511 719.741 496.326C719.725 496.14 719.853 495.97 720.079 495.921C724.797 495.478 729.123 492.895 732.277 488.568C736.244 483.189 737.845 475.899 736.477 469.536C733.762 456.96 722.938 448.283 714.371 443.197C709.742 440.451 704.811 438.114 700.058 435.832C694.255 433.069 688.245 430.173 682.746 426.634C670.005 418.337 660.825 406.713 656.89 393.857C652.141 378.339 654.901 360.033 664.404 343.636C672.006 330.526 683.406 318.673 700.327 306.428C701.922 305.278 703.558 304.095 705.191 302.949C712.799 297.561 720.645 292.015 726.55 284.714C736.237 272.713 736.417 260.561 733.359 253.169C733.27 252.976 733.366 252.766 733.556 252.713C733.749 252.623 733.96 252.72 734.013 252.909C737.16 260.495 736.984 272.941 727.088 285.177C721.139 292.547 713.212 298.158 705.567 303.541C703.935 304.688 702.339 305.838 700.707 306.985C683.899 319.205 672.548 330.952 664.991 343.994C655.58 360.217 652.875 378.345 657.535 393.67C661.413 406.373 670.5 417.84 683.104 426.048C688.566 429.583 694.544 432.439 700.311 435.198C705.1 437.483 710.027 439.857 714.693 442.607C723.401 447.745 734.391 456.587 737.151 469.425C738.572 475.978 736.911 483.482 732.815 489.031C729.536 493.492 725.013 496.2 720.109 496.66C720.109 496.66 720.109 496.66 720.073 496.656Z" fill="#57239F"/>
<path d="M766.666 145.256C775.878 196.69 762.864 247.941 725.76 254.594C688.619 261.247 641.426 220.707 632.214 169.31C623.002 117.876 655.317 75.0325 692.458 68.3794C729.562 61.7263 757.454 93.8221 766.666 145.256Z" fill="url(#paint2_linear_2006_1946)"/>
<path opacity="0.36" d="M663.139 103.655C670.524 96.4535 670.779 100.804 667.526 119.922C664.272 139.041 662.591 171.246 653.818 167.627C645.008 164.045 643.545 122.737 663.139 103.655Z" fill="white"/>
<path opacity="0.36" d="M668.513 183.566C669.135 187.148 666.759 190.548 663.213 191.206C659.63 191.827 656.231 189.451 655.573 185.905C654.951 182.323 657.327 178.923 660.873 178.265C664.456 177.644 667.892 180.02 668.513 183.566Z" fill="white"/>
<path d="M845.224 232.002C831.991 276.527 801.248 312.059 769.115 302.518C736.983 292.977 715.671 241.982 728.867 197.493C742.064 153.005 784.834 131.839 816.93 141.38C849.063 150.921 858.421 187.514 845.224 232.002Z" fill="#14AEEA"/>
<path opacity="0.36" d="M779.606 157.72C788.343 154.941 786.808 158.524 776.609 172.415C766.41 186.306 752.226 211.201 746.67 204.84C741.113 198.406 756.43 165.031 779.606 157.72Z" fill="white"/>
<path opacity="0.36" d="M752.007 223.301C751.093 226.408 747.84 228.163 744.732 227.249C741.625 226.335 739.871 223.082 740.784 219.974C741.698 216.867 744.952 215.112 748.059 216.026C751.166 216.94 752.921 220.194 752.007 223.301Z" fill="white"/>
<path d="M779.144 302.774C779.034 302.678 778.903 302.662 778.776 302.696C778.601 302.786 778.512 303 778.574 303.151C781.723 310.73 777.623 319.517 771.92 324.295C765.555 329.613 757.171 331.626 749.847 332.864C748.156 333.138 746.441 333.44 744.723 333.69C738.519 334.643 732.136 335.634 726.212 337.993C712.575 343.431 701.474 356.595 696.496 373.191C691.436 390.104 693.014 408.183 694.641 420.3C694.81 421.61 695.004 422.892 695.197 424.174C696.237 431.615 697.346 439.311 696.447 446.811C695.253 456.767 690.38 464.882 683.357 468.562C683.181 468.652 683.12 468.889 683.21 469.064C683.3 469.239 683.538 469.301 683.713 469.211C690.936 465.414 695.949 457.081 697.18 446.915C698.072 439.312 696.987 431.589 695.916 424.072C695.722 422.789 695.553 421.48 695.359 420.198C693.736 408.133 692.165 390.156 697.184 373.402C702.125 357.016 713.082 344.018 726.517 338.645C732.365 336.318 738.724 335.354 744.876 334.405C746.595 334.155 748.286 333.881 750.001 333.579C757.452 332.305 765.912 330.262 772.424 324.83C778.298 319.91 782.555 310.775 779.282 302.894C779.199 302.822 779.172 302.798 779.144 302.774Z" fill="#D16D4E"/>
<path d="M865.182 158.336C863.866 156.179 862.294 154.278 860.649 152.414C859.845 151.463 858.931 150.623 858.053 149.745C857.176 148.905 856.226 148.064 855.312 147.26C851.546 144.043 847.416 141.264 843.029 138.925C838.642 136.585 834.109 134.611 829.357 133.112C824.678 131.504 819.816 130.48 814.918 129.567C805.157 127.922 795.178 127.629 785.308 128.251C782.822 128.324 780.373 128.653 777.923 128.872L774.231 129.238C772.988 129.347 771.782 129.603 770.576 129.786C768.126 130.188 765.677 130.517 763.264 130.956L755.99 132.491C753.541 132.966 751.165 133.624 748.788 134.209C746.412 134.831 744 135.415 741.624 136.11L734.532 138.267L730.986 139.363C729.816 139.729 728.646 140.168 727.477 140.57C722.834 142.251 718.118 143.787 713.585 145.688L706.713 148.429L704.995 149.124L703.313 149.855L699.913 151.354L693.151 154.351L691.469 155.082L689.788 155.887L686.461 157.495L679.808 160.712C678.711 161.26 677.578 161.772 676.481 162.32L673.191 164.039L666.648 167.475L663.358 169.193L661.713 170.07L660.104 170.984L647.2 178.259C613.313 198.145 577.708 215.07 541.006 229.071C522.655 236.053 504.012 242.341 485.149 247.751C475.717 250.493 466.25 253.015 456.709 255.318C447.168 257.621 437.59 259.741 427.939 261.533C418.289 263.36 408.601 264.896 398.877 266.175C389.154 267.455 379.393 268.405 369.596 268.99C350.039 270.196 330.372 270.013 310.961 267.564C291.587 265.115 272.395 260.29 254.885 251.663C246.148 247.349 237.996 241.939 230.721 235.505C229.771 234.737 228.93 233.86 228.053 233.019C227.175 232.178 226.298 231.338 225.457 230.46L223.008 227.755L221.802 226.403C221.4 225.927 221.034 225.452 220.669 224.977L218.402 222.126C217.671 221.175 217.013 220.152 216.282 219.165C214.82 217.227 213.65 215.107 212.37 213.023C211.712 212 211.201 210.903 210.616 209.843C210.067 208.783 209.482 207.686 208.934 206.626L207.472 203.299C206.96 202.203 206.485 201.069 206.083 199.936C205.242 197.67 204.328 195.403 203.707 193.064L202.647 189.554L201.806 186.009C201.55 184.839 201.184 183.632 201.002 182.463L200.344 178.88C199.868 176.504 199.612 174.055 199.283 171.642C198.772 166.78 198.37 161.918 198.333 157.056C198.296 152.195 198.552 147.296 199.101 142.471C199.686 137.645 200.636 132.857 201.952 128.177C204.584 118.819 208.861 109.936 214.637 102.113C217.525 98.2018 220.778 94.5828 224.361 91.2562C227.943 87.9296 231.781 84.9321 235.839 82.227C239.897 79.5218 244.174 77.1457 248.597 75.062C253.02 72.9784 257.59 71.1871 262.232 69.6884C271.554 66.6542 281.205 64.7168 290.965 63.876C295.864 63.4739 300.762 63.3277 305.624 63.6567C308.073 63.8029 310.486 64.0588 312.898 64.534C314.105 64.7533 315.275 65.0458 316.408 65.4479C317.541 65.8135 318.674 66.3252 319.588 67.0198L320.063 66.4715C319.04 65.6307 317.87 65.1189 316.7 64.7168C315.531 64.3147 314.324 63.9857 313.081 63.7298C310.632 63.218 308.183 62.9256 305.697 62.7428C300.762 62.3772 295.79 62.4503 290.892 62.8159C281.022 63.547 271.262 65.4479 261.83 68.4089C257.115 69.9077 252.472 71.6624 247.976 73.746C243.479 75.8297 239.129 78.2058 234.962 80.9109C230.794 83.6161 226.846 86.6502 223.154 90.0133C219.499 93.3764 216.136 97.0686 213.138 101.053C207.106 108.986 202.647 118.088 199.905 127.666C198.516 132.454 197.529 137.353 196.907 142.288C196.286 147.223 196.03 152.195 196.03 157.166C196.03 162.138 196.396 167.073 196.907 172.008C197.236 174.457 197.492 176.943 197.931 179.392L198.552 183.048C198.735 184.29 199.101 185.46 199.357 186.703L200.197 190.322L201.257 193.905C201.915 196.317 202.829 198.62 203.67 200.96C204.072 202.13 204.584 203.263 205.096 204.433L206.595 207.869C207.143 209.002 207.728 210.099 208.313 211.195C208.898 212.292 209.409 213.425 210.104 214.485C211.383 216.606 212.626 218.799 214.088 220.81C214.82 221.833 215.478 222.893 216.245 223.88L218.548 226.805C218.95 227.28 219.316 227.792 219.718 228.267L220.961 229.656L223.447 232.434C224.324 233.312 225.238 234.189 226.115 235.066C226.993 235.944 227.87 236.821 228.82 237.625C236.278 244.278 244.612 249.871 253.532 254.331C262.452 258.791 271.81 262.227 281.387 264.859C290.965 267.491 300.725 269.355 310.522 270.635C330.189 273.157 350.039 273.34 369.779 272.17C379.649 271.585 389.483 270.635 399.28 269.392C409.076 268.113 418.837 266.577 428.524 264.749C438.248 262.958 447.862 260.875 457.476 258.572C467.09 256.269 476.631 253.783 486.099 251.005C505.035 245.521 523.752 239.16 542.176 232.105C578.987 217.958 614.739 200.887 648.699 180.818L661.494 173.506L663.102 172.593L664.71 171.715L667.964 169.997L674.471 166.524L677.724 164.806C678.821 164.221 679.918 163.71 681.014 163.161L687.631 159.908L690.921 158.299L692.566 157.495L694.247 156.727L700.974 153.693L704.337 152.195L706.018 151.427L707.736 150.732L714.536 147.954C719.032 146.017 723.711 144.481 728.317 142.763C729.487 142.361 730.62 141.922 731.79 141.52L735.299 140.424L742.318 138.23C744.658 137.536 747.034 136.951 749.41 136.293C751.786 135.671 754.126 135.013 756.538 134.538L763.703 132.966C766.116 132.528 768.529 132.162 770.941 131.723C772.148 131.541 773.354 131.285 774.56 131.138L778.216 130.736C780.665 130.48 783.078 130.115 785.527 130.042C795.287 129.311 805.121 129.493 814.771 131.029C819.597 131.833 824.386 132.82 829.028 134.355C833.707 135.744 838.24 137.682 842.554 139.912C846.904 142.142 850.998 144.81 854.763 147.954C855.677 148.758 856.628 149.563 857.505 150.367C858.382 151.208 859.296 152.048 860.1 152.962C861.782 154.717 863.354 156.618 864.633 158.665L865.182 158.336Z" fill="#208B00"/>
<path d="M838.24 139.73C838.24 139.73 838.825 167.769 832.391 186.997C831.697 189.117 828.918 189.629 827.493 187.911C819.158 177.894 796.896 150.003 793.386 134.357C793.386 134.357 813.565 129.531 838.24 139.73Z" fill="#B8EE2B"/>
<path d="M779.129 132.747C779.129 132.747 784.576 165.282 773.865 191.09C773.025 193.101 770.466 193.649 768.894 192.15C760.815 184.474 739.467 163.052 731.242 143.495C731.278 143.495 760.961 134.685 779.129 132.747Z" fill="#43A725"/>
<path d="M722.907 146.931C722.907 146.931 727.403 177.564 718.886 202.824C718.009 205.383 714.938 206.443 712.671 204.945C704.922 199.9 688.727 187.434 678.492 166.013C678.492 166.049 701.778 153.73 722.907 146.931Z" fill="#B7EE2B"/>
<path d="M674.361 168.133C674.361 168.133 679.076 200.156 668.731 217.812C667.707 219.603 665.368 220.115 663.686 218.909C657.764 214.705 644.202 204.36 634.99 191.638C634.99 191.638 666.83 172.191 674.361 168.133Z" fill="#43A725"/>
<path d="M628.922 195.478C628.922 195.478 636.526 226.038 626.948 243.658C625.961 245.449 623.695 246.034 622.013 244.937C614.666 240.222 595.693 227.244 589.662 214.56C589.662 214.56 622.854 199.316 628.922 195.478Z" fill="#B8EE2B"/>
<path d="M583.483 217.667L545.941 233.532C545.941 233.532 565.169 262.557 578.219 268.223C579.572 268.808 581.144 268.114 581.655 266.724C584.032 260.583 589.478 242.342 583.483 217.667Z" fill="url(#paint3_linear_2006_1946)"/>
<path d="M540.384 235.835C540.384 235.835 510.993 246.801 502.439 248.812C502.439 248.812 511.395 272.025 523.934 282.37C525.871 283.978 528.795 283.503 530.111 281.383C534.571 274.108 543.418 256.635 540.384 235.835Z" fill="url(#paint4_linear_2006_1946)"/>
<path d="M496.627 249.652C496.627 249.652 469.283 259.595 461.351 260.765C461.351 260.765 473.853 286.427 485.733 300.683C486.611 301.743 488.329 301.67 489.097 300.501C492.825 294.871 501.452 278.275 496.627 249.652Z" fill="url(#paint5_linear_2006_1946)"/>
<path d="M457.732 261.314C457.732 261.314 431.302 267.419 419.641 268.406C419.641 268.406 429.584 299.698 444.535 307.009C445.814 307.63 447.35 307.118 448.008 305.839C451.261 299.734 460.035 280.944 457.732 261.314Z" fill="url(#paint6_linear_2006_1946)"/>
<path d="M416.058 268.918C416.058 268.918 389.519 274.292 380.636 274.146C380.636 274.146 392.37 303.39 404.031 312.529C405.969 314.065 408.784 313.699 410.319 311.762C413.975 307.265 419.019 295.97 416.058 268.918Z" fill="#B8EE2B"/>
<path d="M374.129 275.094C374.129 275.094 349.234 276.557 341.814 276.154C341.814 276.154 343.568 296.991 358.191 312.747C359.762 314.428 362.394 314.465 364.003 312.856C368.463 308.36 375.847 297.393 374.129 275.094Z" fill="#43A725"/>
<path d="M335.087 275.68C335.087 275.68 314.324 275.058 303.576 272.207C303.576 272.207 301.895 295.566 313.848 308.288C315.493 310.042 318.199 310.371 320.246 309.055C325.437 305.692 334.539 296.773 335.087 275.68Z" fill="#B8EE2B"/>
<path d="M299.043 271.404C299.043 271.404 277.439 270.161 270.091 265.335C270.091 265.335 267.678 289.755 278.17 304.56C279.047 305.803 280.838 306.022 282.008 304.998C286.139 301.197 295.205 291.034 299.043 271.404Z" fill="#43A725"/>
<path d="M265.449 263.799C265.449 263.799 239.677 254.295 229.222 243.292C229.222 243.292 217.89 271.805 230.027 293.3C230.502 294.177 231.525 294.579 232.476 294.323C238.142 292.678 257.407 285.623 265.449 263.799Z" fill="#B8EE2B"/>
<path d="M201.988 208.893C201.988 208.893 211.675 229.62 222.569 238.357C222.569 238.357 207.508 258.645 189.303 263.69C187.731 264.129 186.086 263.178 185.721 261.57C184.112 254.332 181.992 233.714 201.988 208.893Z" fill="#43A725"/>
<path d="M191.533 158.044C191.533 158.044 190.619 181.806 198.442 205.019C198.442 205.019 184.332 211.379 175.851 222.236C173.767 224.905 169.454 223.296 169.636 219.933C170.294 206.261 174.462 183.633 191.533 158.044Z" fill="#B8EE2B"/>
<path d="M591.015 220.593H547.953V171.938C547.953 167.844 550.84 164.334 554.825 163.566C562.831 162.031 570.836 162.031 578.842 163.676C582.425 164.407 585.093 167.441 585.495 171.06L591.015 220.593Z" fill="#FFC84E"/>
<path d="M563.818 103.213C562.94 102.043 561.149 102.299 560.601 103.652C558.042 109.976 551.937 124.635 547.185 132.933C541.043 143.717 544.224 160.276 566.413 157.535C599.021 153.55 571.75 113.851 563.818 103.213Z" fill="url(#paint7_linear_2006_1946)"/>
<path opacity="0.53" d="M563.599 122.991C563.05 122.296 561.954 122.442 561.625 123.246C560.053 127.085 556.324 136.041 553.436 141.086C549.671 147.666 551.645 157.755 565.171 156.11C585.057 153.661 568.424 129.461 563.599 122.991Z" fill="url(#paint8_linear_2006_1946)"/>
<path d="M561.807 150.589L563.233 166.856C563.306 167.806 564.11 168.611 565.061 168.611H565.097C566.23 168.611 567.108 167.587 566.998 166.454C566.377 160.934 564.366 144.849 561.807 150.589Z" fill="#A4A4A4"/>
<path d="M435.362 224.688L478.388 222.677L476.121 174.058C475.939 170.001 472.905 166.601 468.847 166.016C460.768 164.883 452.799 165.212 444.866 167.259C441.32 168.173 438.798 171.317 438.542 174.972L435.362 224.688Z" fill="#FFC84E"/>
<path d="M457.076 106.173C457.88 104.967 459.708 105.113 460.293 106.429C463.144 112.607 469.943 126.974 475.061 135.052C481.714 145.507 479.302 162.213 457.003 160.532C424.249 158.082 449.619 117.14 457.076 106.173Z" fill="url(#paint9_linear_2006_1946)"/>
<path opacity="0.53" d="M458.209 125.914C458.72 125.183 459.817 125.292 460.183 126.06C461.937 129.825 466.068 138.599 469.175 143.497C473.233 149.894 471.771 160.057 458.172 159.033C438.176 157.571 453.676 132.603 458.209 125.914Z" fill="url(#paint10_linear_2006_1946)"/>
<path d="M461.28 153.404L460.622 169.708C460.585 170.658 459.854 171.499 458.867 171.572H458.831C457.697 171.645 456.747 170.658 456.82 169.525C457.186 163.969 458.465 147.774 461.28 153.404Z" fill="#A4A4A4"/>
<path d="M540.276 218.289H493.339L497.177 169.597C497.177 165.503 500.065 161.993 504.049 161.226C512.055 159.69 520.061 159.69 528.066 161.335C531.649 162.066 534.317 165.101 534.72 168.72L540.276 218.289Z" fill="#FFC84E"/>
<path d="M513.042 100.909C512.164 99.7392 510.373 99.9951 509.825 101.348C507.266 107.672 501.161 122.331 496.409 130.629C490.268 141.413 493.448 157.972 515.637 155.231C548.245 151.21 520.974 111.547 513.042 100.909Z" fill="url(#paint11_linear_2006_1946)"/>
<path opacity="0.53" d="M512.822 120.687C512.274 119.992 511.177 120.138 510.848 120.942C509.276 124.781 505.547 133.737 502.66 138.782C498.894 145.362 500.868 155.451 514.394 153.806C534.28 151.357 517.647 127.157 512.822 120.687Z" fill="url(#paint12_linear_2006_1946)"/>
<path d="M511.031 148.285L512.457 164.552C512.53 165.502 513.334 166.307 514.285 166.307H514.321C515.455 166.307 516.332 165.283 516.222 164.15C515.637 158.63 513.59 142.545 511.031 148.285Z" fill="#A4A4A4"/>
<path d="M406.153 357.275L406.738 238.798C406.774 229.952 412.111 221.946 420.263 218.583C447.388 207.36 514.394 188.132 612.29 216.682C620.954 219.204 627.205 226.808 628.046 235.8L639.122 354.68L406.153 357.275Z" fill="url(#paint13_linear_2006_1946)"/>
<path d="M415.329 260.402C423.992 258.136 423.773 236.824 428.416 236.824C440.845 236.824 427.063 278.497 445.451 276.084C460.512 274.11 446.328 244.098 458.538 239.419C463.875 237.372 471.588 240.772 475.573 245.962C486.21 259.781 467.019 281.787 476.231 292.425C482.701 299.919 500.759 299.005 506.352 291.109C514.102 280.105 493.741 261.206 501.783 249.216C507.157 241.21 522.985 239.711 527.957 245.304C533.769 251.811 522.291 265.191 528.615 272.794C533.221 278.314 545.321 278.497 549.561 273.452C554.898 267.092 545.796 254.846 550.877 250.532C553.875 248.01 559.906 249.837 563.306 252.506C569.63 257.478 561.369 268.152 566.596 274.11C570.325 278.387 579.171 279.082 582.973 275.426C589.151 269.468 580.049 253.785 584.289 251.227C586.958 249.618 593.757 253.822 598.034 259.744C608.379 274.147 598.582 291.876 606.552 297.067C610.536 299.663 617.847 298.347 621.612 294.435C632.762 282.884 610.902 251.007 618.98 244.683C620.26 243.659 622.636 243.075 627.461 244.866C630.422 245.962 633.53 243.586 633.237 240.443L632.762 235.325C631.738 224.395 624.135 215.256 613.57 212.222C579.281 202.242 545.613 197.161 513.481 197.161C469.358 197.161 437.555 206.482 418.619 214.342C408.712 218.436 402.315 228.014 402.242 238.761L402.205 246.803C402.169 252.25 405.203 257.331 410.138 259.671C411.893 260.548 413.647 260.841 415.329 260.402Z" fill="url(#paint14_linear_2006_1946)"/>
<path d="M401.145 348.283C409.625 348.283 416.499 341.409 416.499 332.929C416.499 324.45 409.625 317.576 401.145 317.576C392.666 317.576 385.792 324.45 385.792 332.929C385.792 341.409 392.666 348.283 401.145 348.283Z" fill="url(#paint15_linear_2006_1946)"/>
<path d="M426.953 339.693C435.433 339.693 442.307 332.819 442.307 324.34C442.307 315.86 435.433 308.986 426.953 308.986C418.474 308.986 411.6 315.86 411.6 324.34C411.6 332.819 418.474 339.693 426.953 339.693Z" fill="url(#paint16_linear_2006_1946)"/>
<path d="M454.589 336.622C463.068 336.622 469.942 329.748 469.942 321.268C469.942 312.789 463.068 305.915 454.589 305.915C446.11 305.915 439.236 312.789 439.236 321.268C439.236 329.748 446.11 336.622 454.589 336.622Z" fill="url(#paint17_linear_2006_1946)"/>
<path d="M482.81 334.173C491.29 334.173 498.164 327.299 498.164 318.82C498.164 310.34 491.29 303.466 482.81 303.466C474.331 303.466 467.457 310.34 467.457 318.82C467.457 327.299 474.331 334.173 482.81 334.173Z" fill="url(#paint18_linear_2006_1946)"/>
<path d="M510.447 331.724C518.926 331.724 525.8 324.85 525.8 316.371C525.8 307.891 518.926 301.017 510.447 301.017C501.967 301.017 495.093 307.891 495.093 316.371C495.093 324.85 501.967 331.724 510.447 331.724Z" fill="url(#paint19_linear_2006_1946)"/>
<path d="M538.667 331.724C547.146 331.724 554.02 324.85 554.02 316.371C554.02 307.891 547.146 301.017 538.667 301.017C530.188 301.017 523.314 307.891 523.314 316.371C523.314 324.85 530.188 331.724 538.667 331.724Z" fill="url(#paint20_linear_2006_1946)"/>
<path d="M566.303 332.93C574.783 332.93 581.657 326.056 581.657 317.577C581.657 309.097 574.783 302.223 566.303 302.223C557.824 302.223 550.95 309.097 550.95 317.577C550.95 326.056 557.824 332.93 566.303 332.93Z" fill="url(#paint21_linear_2006_1946)"/>
<path d="M592.696 334.173C601.176 334.173 608.05 327.299 608.05 318.82C608.05 310.34 601.176 303.466 592.696 303.466C584.217 303.466 577.343 310.34 577.343 318.82C577.343 327.299 584.217 334.173 592.696 334.173Z" fill="url(#paint22_linear_2006_1946)"/>
<path d="M617.884 338.45C626.363 338.45 633.237 331.576 633.237 323.097C633.237 314.617 626.363 307.743 617.884 307.743C609.404 307.743 602.531 314.617 602.531 323.097C602.531 331.576 609.404 338.45 617.884 338.45Z" fill="url(#paint23_linear_2006_1946)"/>
<path d="M642.448 342.142C650.928 342.142 657.802 335.268 657.802 326.789C657.802 318.309 650.928 311.435 642.448 311.435C633.969 311.435 627.095 318.309 627.095 326.789C627.095 335.268 633.969 342.142 642.448 342.142Z" fill="url(#paint24_linear_2006_1946)"/>
<path d="M370.621 418.726C370.914 394.6 371.754 388.349 373.838 360.603C374.533 351.464 380.601 343.604 389.265 340.607C427.831 327.227 540.788 295.022 652.392 331.066C660.91 333.807 667.088 341.192 668.221 350.075L682.002 416.935C683.172 426.037 676.08 434.08 666.942 434.08H385.828C377.347 434.116 370.512 427.207 370.621 418.726Z" fill="url(#paint25_linear_2006_1946)"/>
<path d="M341.45 439.6C354.432 439.6 364.956 429.076 364.956 416.095C364.956 403.113 354.432 392.589 341.45 392.589C328.469 392.589 317.945 403.113 317.945 416.095C317.945 429.076 328.469 439.6 341.45 439.6Z" fill="url(#paint26_linear_2006_1946)"/>
<path d="M380.967 426.439C393.948 426.439 404.472 415.915 404.472 402.934C404.472 389.952 393.948 379.428 380.967 379.428C367.985 379.428 357.462 389.952 357.462 402.934C357.462 415.915 367.985 426.439 380.967 426.439Z" fill="url(#paint27_linear_2006_1946)"/>
<path d="M423.262 421.723C436.243 421.723 446.767 411.2 446.767 398.218C446.767 385.236 436.243 374.713 423.262 374.713C410.28 374.713 399.756 385.236 399.756 398.218C399.756 411.2 410.28 421.723 423.262 421.723Z" fill="url(#paint28_linear_2006_1946)"/>
<path d="M466.507 417.958C479.488 417.958 490.012 407.434 490.012 394.453C490.012 381.471 479.488 370.947 466.507 370.947C453.525 370.947 443.001 381.471 443.001 394.453C443.001 407.434 453.525 417.958 466.507 417.958Z" fill="url(#paint29_linear_2006_1946)"/>
<path d="M508.839 414.193C521.82 414.193 532.344 403.669 532.344 390.687C532.344 377.706 521.82 367.182 508.839 367.182C495.857 367.182 485.333 377.706 485.333 390.687C485.333 403.669 495.857 414.193 508.839 414.193Z" fill="url(#paint30_linear_2006_1946)"/>
<path d="M552.084 414.193C565.065 414.193 575.589 403.669 575.589 390.687C575.589 377.706 565.065 367.182 552.084 367.182C539.102 367.182 528.578 377.706 528.578 390.687C528.578 403.669 539.102 414.193 552.084 414.193Z" fill="url(#paint31_linear_2006_1946)"/>
<path d="M594.379 416.094C607.361 416.094 617.885 405.571 617.885 392.589C617.885 379.608 607.361 369.084 594.379 369.084C581.398 369.084 570.874 379.608 570.874 392.589C570.874 405.571 581.398 416.094 594.379 416.094Z" fill="url(#paint32_linear_2006_1946)"/>
<path d="M634.809 417.958C647.791 417.958 658.314 407.434 658.314 394.453C658.314 381.471 647.791 370.947 634.809 370.947C621.827 370.947 611.304 381.471 611.304 394.453C611.304 407.434 621.827 417.958 634.809 417.958Z" fill="url(#paint33_linear_2006_1946)"/>
<path d="M673.375 424.539C686.357 424.539 696.881 414.015 696.881 401.033C696.881 388.052 686.357 377.528 673.375 377.528C660.394 377.528 649.87 388.052 649.87 401.033C649.87 414.015 660.394 424.539 673.375 424.539Z" fill="url(#paint34_linear_2006_1946)"/>
<path d="M710.992 430.204C723.973 430.204 734.497 419.681 734.497 406.699C734.497 393.717 723.973 383.194 710.992 383.194C698.01 383.194 687.486 393.717 687.486 406.699C687.486 419.681 698.01 430.204 710.992 430.204Z" fill="url(#paint35_linear_2006_1946)"/>
<path d="M294.695 547.474C295.17 510.516 296.413 500.938 299.63 458.461C300.69 444.46 309.975 432.47 323.245 427.864C382.319 407.356 555.3 358.042 726.198 413.278C739.212 417.482 748.68 428.814 750.435 442.376L771.564 544.805C773.355 558.733 762.498 571.052 748.497 571.052H317.944C304.967 571.052 294.512 560.451 294.695 547.474Z" fill="url(#paint36_linear_2006_1946)"/>
<path d="M523.423 474.356C523.423 474.356 534.097 426.285 548.646 432.39C563.195 438.495 561.258 449.864 566.083 453.373C570.945 456.883 588.382 482.216 523.423 474.356Z" fill="url(#paint37_linear_2006_1946)"/>
<path d="M525.361 474.356C525.361 474.356 530.222 425.408 514.686 426.285C499.187 427.162 504.012 448.145 490.45 449.023C476.888 449.864 471.075 477.865 525.361 474.356Z" fill="url(#paint38_linear_2006_1946)"/>
<path d="M489.28 589.763H553.838C561.295 589.763 567.509 584.608 568.131 577.882L576.429 486.602C577.124 479.072 570.507 472.602 562.136 472.602H489.28C481.348 472.602 474.95 478.377 474.95 485.542V576.822C474.95 583.987 481.384 589.763 489.28 589.763Z" fill="#3B7FD1"/>
<path d="M514.687 589.763H536.986V472.602H514.687V589.763Z" fill="url(#paint39_linear_2006_1946)"/>
<path d="M441.173 500.053C441.173 500.053 451.847 451.983 466.397 458.087C480.946 464.192 479.008 475.561 483.834 479.07C488.659 482.58 506.096 507.949 441.173 500.053Z" fill="url(#paint40_linear_2006_1946)"/>
<path d="M443.11 500.055C443.11 500.055 447.972 451.106 432.436 451.984C416.937 452.861 421.762 473.844 408.2 474.721C394.638 475.599 388.789 503.564 443.11 500.055Z" fill="url(#paint41_linear_2006_1946)"/>
<path d="M407.03 589.761H471.587C479.044 589.761 485.259 584.607 485.88 577.881L494.179 512.3C494.873 504.769 488.257 498.299 479.885 498.299H407.03C399.097 498.299 392.7 504.075 392.7 511.24V576.82C392.7 583.985 399.097 589.761 407.03 589.761Z" fill="#E8811F"/>
<path d="M432.436 589.761H454.735V498.336H432.436V589.761Z" fill="url(#paint42_linear_2006_1946)"/>
<path d="M271.35 340.906C274.604 347.34 280.233 359.513 282.426 364.302C282.902 365.325 284.181 365.581 285.022 364.887L300.522 352.092C301.509 351.288 301.253 349.716 300.083 349.204L273.507 338.567C272.045 338.018 270.619 339.517 271.35 340.906Z" fill="url(#paint43_linear_2006_1946)"/>
<path d="M306.882 581.954C306.882 581.954 305.968 587.108 305.53 592.19C305.347 594.2 306.882 595.918 308.893 595.991C315.692 596.284 330.205 596.832 335.432 596.576C336.2 596.54 336.712 595.736 336.456 595.005C336.2 594.383 335.761 593.908 335.14 593.615L311.159 582.576L306.882 581.954Z" fill="url(#paint44_linear_2006_1946)"/>
<path d="M306.152 578.957L306.883 585.135C306.883 585.135 311.087 587.109 313.975 584.879L312.22 578.006L306.152 578.957Z" fill="url(#paint45_linear_2006_1946)"/>
<path d="M306.699 463.113C306.37 464.721 305.018 543.425 313.426 578.665C313.572 579.25 313.279 579.835 312.731 580.054C311.452 580.566 308.929 581.334 305.895 581.443C304.945 581.48 304.104 580.859 303.848 579.981C301.435 571.793 289.92 530.814 288.422 491.663C286.74 447.905 288.422 490.164 288.422 490.164L289.409 463.113H306.699Z" fill="url(#paint46_linear_2006_1946)"/>
<path d="M279.283 584.659C279.283 584.659 277.82 587.254 276.431 594.163C276.175 595.406 277.053 596.613 278.332 596.722C280.562 596.942 284.035 597.234 286.777 597.198C288.056 597.198 289.043 596.064 288.897 594.821C288.604 592.299 287.654 588.168 284.693 584.951L279.283 584.659Z" fill="url(#paint47_linear_2006_1946)"/>
<path d="M278.003 576.726L279.721 586.048C279.721 586.048 281.403 587.29 284.766 586.377L283.962 576.36L278.003 576.726Z" fill="url(#paint48_linear_2006_1946)"/>
<path d="M273.397 465.524C266.525 507.051 274.896 568.136 277.711 580.09C277.894 580.821 278.479 581.369 279.21 581.515C280.453 581.735 282.536 581.881 284.584 581.296C285.278 581.077 285.79 580.455 285.826 579.724C286.192 570.073 285.534 510.707 291.931 487.238C292.26 486.032 292.991 485.008 293.978 484.314L306.407 475.467L307.358 461.174L273.397 465.524Z" fill="url(#paint49_linear_2006_1946)"/>
<path d="M318.872 392.412C298.255 392.083 273.872 392.229 273.872 392.229C267.731 428.09 272.812 469.435 272.812 469.435C288.787 473.639 306.773 466.876 306.773 466.876C309.405 451.925 325.233 392.522 318.872 392.412Z" fill="url(#paint50_linear_2006_1946)"/>
<path d="M281.769 412.226L273.873 392.266C273.873 392.266 254.608 405.353 251.464 421.95C255.12 422.205 261.736 423.156 268.207 426.446C269.596 418.586 281.769 412.226 281.769 412.226Z" fill="url(#paint51_linear_2006_1946)"/>
<path d="M298.621 431.017C298.621 431.017 277.016 443.226 269.705 432.808C268.206 430.651 267.841 428.494 268.206 426.447C261.736 423.157 255.12 422.243 251.464 421.951C250.514 426.959 251.025 432.26 253.95 437.633C266.744 460.993 301.472 436.354 301.472 436.354L298.621 431.017Z" fill="url(#paint52_linear_2006_1946)"/>
<path d="M294.051 374.647L288.714 390.11C287.836 392.706 289.445 395.447 292.15 395.923C295.147 396.434 299.278 396.251 303.848 393.327C304.652 392.815 305.164 391.974 305.273 391.061L307.394 374.647H294.051Z" fill="url(#paint53_linear_2006_1946)"/>
<path d="M308.308 357.065C308.308 357.065 315.51 370.627 314.596 376.111C313.682 381.594 304.762 381.192 296.939 376.732L291.492 362.073L308.308 357.065Z" fill="url(#paint54_linear_2006_1946)"/>
<path d="M297.269 369.565C297.598 369.419 297.707 369.054 297.524 368.761C296.94 367.884 295.879 366.093 295.514 364.521C295.514 364.521 294.234 363.68 298.804 362.583C303.41 361.487 310.246 359.768 311.671 355.857C313.061 352.055 309.405 342.478 303.52 350.118C303.3 350.41 302.862 350.41 302.642 350.118C301.692 348.875 299.133 346.243 295.624 347.851C292.334 349.314 291.968 351.726 292.005 352.969C292.005 353.335 291.712 353.591 291.347 353.554C289.665 353.225 285.68 352.969 283.816 357.063C282.281 360.426 283.268 362.364 284.182 363.278C284.474 363.57 284.364 364.082 283.926 364.192C282.829 364.521 281.403 365.471 281.55 368.03C281.732 371.576 285.717 371.247 286.85 371.101C287.033 371.064 287.216 371.137 287.362 371.284C288.312 372.344 292.699 376.913 297.415 377.461C297.817 377.498 298.146 377.096 298 376.73L295.953 370.808C295.843 370.516 295.989 370.223 296.245 370.114L297.269 369.565Z" fill="#6A3C30"/>
<path d="M298.109 370.407C298.109 370.407 292.991 366.898 292.589 369.859C292.223 372.82 297.195 374.136 299.681 373.039L298.109 370.407Z" fill="url(#paint55_linear_2006_1946)"/>
<path d="M321.915 400.122C321.915 400.122 316.395 375.154 308.828 378.335C301.298 381.515 302.285 387.4 299.763 389.228C297.24 391.056 288.174 404.216 321.915 400.122Z" fill="#7111BC"/>
<path d="M320.883 400.749C320.883 400.749 318.361 375.342 326.403 375.781C334.445 376.22 331.923 387.113 338.978 387.589C346.033 388.027 349.068 402.576 320.883 400.749Z" fill="#7111BC"/>
<path d="M339.6 447.32H306.115C302.24 447.32 299.023 444.652 298.694 441.142L294.38 407.109C294.015 403.198 297.451 399.834 301.801 399.834H339.6C343.694 399.834 347.057 402.832 347.057 406.561V440.594C347.057 444.286 343.731 447.32 339.6 447.32Z" fill="#9732E5"/>
<path d="M326.44 399.834H314.851V447.284H326.44V399.834Z" fill="#6814A8"/>
<path d="M294.235 438.034C294.235 438.034 292.59 431.272 293.248 428.896C293.906 426.483 295.185 423.412 299.462 424.107C303.739 424.801 308.784 426.592 308.784 426.592C308.784 426.592 308.528 429.7 305.274 428.713L307.285 430.285C307.285 430.285 306.992 432.77 304.251 431.454L306.115 433.538C306.115 433.538 304.945 435.585 302.898 434.269C300.924 432.917 299.974 438.875 294.235 438.034Z" fill="url(#paint56_linear_2006_1946)"/>
<path d="M721.435 367.76L739.859 358.877C740.736 358.439 741.76 359.243 741.504 360.23C739.896 366.408 735.874 382.2 736.423 382.748C737.117 383.443 721.435 367.76 721.435 367.76Z" fill="url(#paint57_linear_2006_1946)"/>
<path d="M685.026 415.722C685.026 415.722 688.645 399.418 693.58 401.502C698.515 403.586 697.857 407.424 699.502 408.594C701.11 409.8 707.032 418.391 685.026 415.722Z" fill="#C50DA8"/>
<path d="M685.684 415.722C685.684 415.722 687.329 399.126 682.065 399.418C676.801 399.711 678.446 406.839 673.84 407.132C669.27 407.461 667.296 416.929 685.684 415.722Z" fill="#C50DA8"/>
<path d="M673.913 441.895H695.773C698.295 441.895 700.415 440.141 700.598 437.874L702.974 419.889C703.194 417.33 700.964 415.137 698.149 415.137H673.474C670.805 415.137 668.612 417.111 668.612 419.523L669.051 437.509C669.051 439.921 671.244 441.895 673.913 441.895Z" fill="url(#paint58_linear_2006_1946)"/>
<path d="M682.503 441.895H690.07L689.631 415.137H682.064L682.503 441.895Z" fill="#AE0A94"/>
<path d="M710.322 523.451L709.7 535.149C709.7 535.149 713.319 574.263 714.087 591.591C714.197 594.296 713.502 597.001 712.077 599.304L704.656 611.367L723.555 600.218L723.921 597.915L720.813 593.674L724.871 545.165C725.127 542.314 724.505 539.462 723.189 536.94L719.278 529.592L710.322 523.451Z" fill="url(#paint59_linear_2006_1946)"/>
<path d="M703.377 613.123H709.408C710.542 613.123 711.602 612.611 712.296 611.697C714.161 609.248 718.072 604.496 719.936 604.349C722.459 604.167 722.13 613.086 722.13 613.086H723.519L725.31 602.01C725.749 599.231 724.36 596.453 721.874 595.174C721.874 595.174 721.289 599.414 718.182 601.279C715.074 603.143 705.533 609.869 705.533 609.869C705.533 609.869 704.364 609.686 703.084 609.942C701.183 610.308 701.439 613.123 703.377 613.123Z" fill="url(#paint60_linear_2006_1946)"/>
<path d="M726.552 523.451L725.273 530.945C725.273 530.945 729.55 574.227 730.318 591.554C730.427 594.259 729.733 596.964 728.307 599.267L720.886 611.331L739.786 600.181L740.151 597.878L737.044 593.638L741.102 545.128C741.357 542.277 740.736 539.426 739.42 536.903L735.509 529.556L726.552 523.451Z" fill="url(#paint61_linear_2006_1946)"/>
<path d="M748.121 473.772C747.097 465.474 736.715 457.688 736.715 457.688C723.628 462.367 714.27 455.458 714.27 455.458C714.27 455.458 710.212 463.829 710.139 472.383C710.103 480.901 709.591 535.698 709.591 535.698C724.725 542.058 740.371 538.915 740.371 538.915C739.201 519.175 749.144 482.071 748.121 473.772Z" fill="url(#paint62_linear_2006_1946)"/>
<path d="M717.998 372.66C717.998 372.66 729.001 364.947 734.85 378.728C735.911 381.251 742.125 381.653 742.746 386.77C743.075 389.402 745.013 391.523 747.645 391.925C754.188 392.912 764.278 396.311 765.886 407.68C767.129 416.344 762.706 419.634 758.063 420.767C754.664 421.608 752.397 424.935 753.092 428.371C753.75 431.661 752.763 435.499 747.06 438.497C734.229 445.26 721.434 422.485 721.434 422.485L718.802 382.713L717.998 372.66Z" fill="url(#paint63_linear_2006_1946)"/>
<path d="M719.643 613.123H725.675C726.808 613.123 727.868 612.611 728.563 611.697C730.427 609.248 734.339 604.495 736.203 604.349C738.725 604.166 738.396 613.086 738.396 613.086H739.786L741.577 602.01C742.015 599.231 740.626 596.453 738.141 595.174C738.141 595.174 737.556 599.414 734.448 601.278C731.341 603.143 721.8 609.869 721.8 609.869C721.8 609.869 720.63 609.686 719.351 609.942C717.413 610.308 717.706 613.123 719.643 613.123Z" fill="url(#paint64_linear_2006_1946)"/>
<path d="M736.606 457.98C732.585 440.908 737.447 428.443 741.65 421.497C744.282 417.183 742.272 411.554 737.593 409.763C730.062 406.875 721.435 406.326 717.012 406.253C715.111 406.217 713.32 407.131 712.187 408.666C708.97 413.016 702.938 422.484 704.51 430.124C705.753 436.156 714.161 460.209 714.161 460.209C714.161 460.209 724.689 465.144 736.606 457.98Z" fill="#FD5E06"/>
<path d="M724.652 387.062L728.856 407.862C729.367 409.945 726.37 410.384 724.213 410.567C720.557 410.859 718.51 410.019 717.048 407.313C716.902 407.058 716.829 406.729 716.792 406.436L714.526 390.096C714.343 388.78 715.038 387.537 716.244 387.025L720.594 385.088C722.276 384.32 724.213 385.27 724.652 387.062Z" fill="url(#paint65_linear_2006_1946)"/>
<path d="M715.879 371.746C715.879 371.746 710.761 375.109 708.458 383.882C706.155 392.619 709.664 395.799 713.32 395.653C716.975 395.507 722.239 394.447 726.918 388.196C731.561 381.981 722.568 367.615 715.879 371.746Z" fill="url(#paint66_linear_2006_1946)"/>
<path d="M722.313 384.614C722.313 384.614 724.323 372.075 713.868 373.866L711.748 376.023C711.748 376.023 706.703 370.211 712.406 365.934C718.109 361.657 725.932 362.863 730.172 370.832C734.412 378.801 735.911 384.394 732.219 389.256C728.527 394.118 725.822 389.878 725.822 389.878C725.822 389.878 727.54 385.637 726.187 383.81C724.835 381.982 723.007 384.833 723.007 384.833L722.313 384.614Z" fill="url(#paint67_linear_2006_1946)"/>
<path d="M681.187 439.154C680.821 438.533 681.406 437.765 682.101 437.984C684.696 438.752 689.485 439.629 692.775 437.363C692.958 437.253 693.104 437.143 693.25 437.034C692.921 436.632 692.41 436.339 691.678 436.339C689.595 436.412 688.644 433.378 688.644 433.378C688.644 433.378 690.509 434.365 692.446 433.707C694.128 433.122 696.65 433.89 697.893 435.791C703.413 441.53 710.541 449.426 722.97 443.468C732.182 439.044 732.219 426.03 731.634 419.597C731.415 417.074 732.913 414.698 735.326 413.931C738.506 412.944 741.138 413.455 743.112 415.868C744.099 417.074 744.538 418.61 744.465 420.182C744.063 426.981 741.614 449.097 725.858 453.776C707.178 459.333 696.175 441.238 696.175 441.238C696.175 441.238 686.597 448.293 681.187 439.154Z" fill="url(#paint68_linear_2006_1946)"/>
<path d="M817.553 343.298L835.685 329.187C836.087 328.858 836.708 329.187 836.635 329.736L833.93 352.583L817.553 343.298Z" fill="url(#paint69_linear_2006_1946)"/>
<path d="M890.518 488.681C890.518 488.681 893.442 484.367 896.623 480.346C897.866 478.774 900.059 478.445 901.412 479.615C906.054 483.563 915.924 492.008 919.141 495.334C919.616 495.846 919.433 496.723 918.739 497.089C918.154 497.381 917.533 497.454 916.948 497.308L893.735 490.765L890.518 488.681Z" fill="#401A11"/>
<path d="M888.032 490.508L892.784 486.487C892.784 486.487 897.208 487.913 897.793 491.495L891.834 495.333L888.032 490.508Z" fill="url(#paint70_linear_2006_1946)"/>
<path d="M783.044 383.473C775.66 366.877 768.678 342.092 776.793 317.307L781.509 312.592C781.509 312.592 781.509 351.414 791.159 370.679C788.454 374.956 785.786 379.233 783.044 383.473Z" fill="url(#paint71_linear_2006_1946)"/>
<path d="M782.642 305.208L784.433 307.876C784.908 308.607 785.054 309.521 784.762 310.362C784.031 312.555 782.422 316.832 780.119 319.135C776.939 322.316 773.795 314.712 773.137 312.153C772.516 309.631 776.939 303.27 778.219 302.027C779.461 300.748 784.543 301.406 782.642 305.208Z" fill="url(#paint72_linear_2006_1946)"/>
<path d="M806.914 566.251C806.914 566.251 807.828 571.405 808.267 576.486C808.45 578.497 806.914 580.215 804.904 580.288C798.104 580.581 783.592 581.129 778.364 580.873C777.597 580.836 777.085 580.032 777.341 579.301C777.597 578.68 778.035 578.204 778.657 577.912L802.637 566.872L806.914 566.251Z" fill="#401A11"/>
<path d="M807.646 563.253L806.915 569.431C806.915 569.431 802.711 571.405 799.823 569.175L801.578 562.303L807.646 563.253Z" fill="url(#paint73_linear_2006_1946)"/>
<path d="M807.098 447.372C807.427 448.981 808.78 527.685 800.372 562.925C800.226 563.51 800.518 564.095 801.066 564.314C802.346 564.826 804.868 565.593 807.902 565.703C808.853 565.74 809.694 565.118 809.949 564.241C812.362 556.052 828.885 508.713 830.384 469.562C832.066 425.805 824.389 447.372 824.389 447.372H807.098Z" fill="url(#paint74_linear_2006_1946)"/>
<path d="M843.434 448.798C850.489 466.6 852.792 469.379 855.936 489.667C859.701 514.013 878.125 497.198 887.959 489.302C889.202 488.315 892.894 491.897 893.259 496.905C893.735 503.449 853.962 534.631 843.215 512.588C836.342 498.514 834.441 482.685 829.872 473.948C829.287 472.852 828.373 472.011 827.24 471.499L813.202 465.504L809.254 451.722L843.434 448.798Z" fill="url(#paint75_linear_2006_1946)"/>
<path d="M851.111 385.629C858.495 369.033 865.477 344.248 857.362 319.463L852.646 314.748C852.646 314.748 852.646 353.57 842.996 372.835C845.701 377.112 848.406 381.352 851.111 385.629Z" fill="url(#paint76_linear_2006_1946)"/>
<path d="M807.097 379.671H830.31C832.65 379.671 834.88 378.794 836.561 377.185C838.718 375.138 841.496 371.629 843.47 366.146C843.763 365.305 844.676 364.866 845.517 365.122C848.515 365.999 855.058 368.558 858.458 374.444C858.787 374.992 858.787 375.687 858.421 376.235L843.945 398.644L845.371 453.916C845.371 453.916 808.998 459.618 803.99 453.916L798.982 403.25C798.982 403.25 781.143 392.539 776.135 375.431L791.122 366.877C791.122 366.877 792.877 366.95 794.339 370.971C796.35 376.198 801.468 379.671 807.097 379.671Z" fill="url(#paint77_linear_2006_1946)"/>
<path d="M826.948 362.783L827.496 380.695C827.532 381.828 826.801 382.888 825.741 383.254C823.511 383.985 819.49 384.899 814.957 383.948C813.605 383.656 812.764 382.34 812.983 380.987L815.432 366.877L826.948 362.783Z" fill="url(#paint78_linear_2006_1946)"/>
<path d="M814.701 346.369C814.555 346.588 809.108 361.32 806.732 367.79C806.111 369.436 807.024 371.227 808.706 371.775L813.934 372.726C817.406 373.347 820.843 371.519 822.232 368.266L828.556 360.918C831.992 356.933 830.822 350.756 826.107 348.343C821.501 346.04 816.419 344.212 814.701 346.369Z" fill="url(#paint79_linear_2006_1946)"/>
<path d="M825.119 362.6L823.62 361.833C823.62 361.833 829.615 352.072 822.853 351.341C816.09 350.574 810.095 349.075 810.095 345.346C810.095 341.581 810.095 334.855 818.356 337.852C826.618 340.85 825.85 346.114 830.347 346.845C834.843 347.576 838.608 348.344 837.109 352.84C835.611 357.336 832.613 360.334 834.112 361.833C835.611 363.331 828.848 370.825 825.119 362.6Z" fill="#E6A719"/>
<path d="M823.51 365.525C823.51 365.525 824.753 358.945 827.531 358.762C830.31 358.616 832.869 361.028 829.907 364.611C826.215 369.034 823.51 365.525 823.51 365.525Z" fill="url(#paint80_linear_2006_1946)"/>
<path d="M851.513 307.327L849.721 309.995C849.246 310.727 849.1 311.64 849.393 312.481C850.124 314.675 851.732 318.952 854.035 321.255C857.215 324.435 860.359 316.831 861.017 314.272C861.639 311.75 857.215 305.389 855.936 304.146C854.656 302.904 849.612 303.525 851.513 307.327Z" fill="url(#paint81_linear_2006_1946)"/>
<path d="M833.264 407.341L834.479 405.287C834.51 405.231 834.552 405.181 834.601 405.141C834.648 405.108 834.702 405.09 834.759 405.088L835.943 405.018L836.054 405.027C836.061 405.027 836.068 405.028 836.074 405.031C836.081 405.033 836.087 405.037 836.091 405.042C836.096 405.047 836.1 405.053 836.103 405.059C836.105 405.066 836.106 405.072 836.106 405.079C836.103 405.116 836.092 405.152 836.072 405.183L836.052 405.215C835.768 405.693 835.468 406.201 835.152 406.738L834.192 408.364L836.285 411.1C836.32 411.148 836.354 411.196 836.386 411.242C836.418 411.288 836.45 411.335 836.482 411.38C836.489 411.392 836.494 411.405 836.497 411.419C836.503 411.434 836.507 411.45 836.509 411.466C836.511 411.51 836.48 411.534 836.416 411.538L835.155 411.612C835.055 411.618 834.97 411.569 834.9 411.464C834.648 411.132 834.397 410.801 834.146 410.47C833.896 410.14 833.644 409.808 833.389 409.476L832.61 408.455L833.264 407.341Z" fill="#6FAA27"/>
<path d="M831.353 407.533C831.238 407.209 831.068 406.907 830.851 406.64C830.69 406.443 830.506 406.267 830.301 406.116C829.892 405.811 829.418 405.604 828.917 405.51C828.665 405.463 828.408 405.446 828.152 405.461C827.849 405.477 827.55 405.535 827.263 405.633C826.723 405.818 826.242 406.145 825.873 406.58C825.573 406.929 825.351 407.338 825.22 407.779L825.006 404.136C825.004 404.094 824.993 404.053 824.973 404.016C824.953 403.979 824.925 403.947 824.891 403.923C824.828 403.873 824.748 403.848 824.668 403.852L823.834 403.901C823.791 403.901 823.749 403.91 823.71 403.927C823.67 403.945 823.635 403.97 823.606 404.002C823.555 404.065 823.53 404.145 823.538 404.225L823.675 406.549C823.421 406.313 823.125 406.126 822.802 405.998C822.479 405.869 822.111 405.817 821.697 405.841C821.258 405.864 820.828 405.978 820.436 406.178C819.958 406.425 819.547 406.786 819.239 407.228C818.932 407.67 818.738 408.181 818.673 408.716C818.655 408.648 818.634 408.581 818.612 408.515C818.518 408.241 818.389 407.98 818.229 407.739C817.912 407.26 817.476 406.872 816.964 406.612C816.706 406.481 816.432 406.384 816.15 406.322C815.562 406.197 814.951 406.233 814.382 406.426C814.109 406.52 813.849 406.649 813.608 406.808C813.371 406.966 813.156 407.155 812.968 407.369C812.779 407.583 812.617 407.82 812.487 408.075C812.356 408.333 812.259 408.607 812.199 408.891C812.089 409.421 812.107 409.971 812.253 410.493C812.23 410.574 812.203 410.654 812.17 410.732C811.96 411.232 811.562 411.629 811.061 411.837C810.804 411.946 810.526 411.999 810.247 411.994C809.966 411.993 809.688 411.933 809.431 411.819C809.187 411.71 808.967 411.555 808.782 411.363C808.597 411.168 808.452 410.94 808.353 410.691C808.199 410.303 808.16 409.878 808.242 409.469C808.324 409.06 808.523 408.683 808.815 408.384C809.004 408.195 809.228 408.044 809.474 407.941C809.734 407.832 810.013 407.778 810.294 407.784C810.573 407.784 810.849 407.842 811.105 407.955C811.248 408.019 811.383 408.1 811.508 408.194C811.534 408.214 811.564 408.227 811.596 408.234C811.628 408.241 811.66 408.241 811.692 408.234C811.724 408.227 811.754 408.214 811.78 408.194C811.806 408.175 811.827 408.15 811.843 408.122L812.224 407.442C812.252 407.392 812.26 407.333 812.247 407.277C812.234 407.221 812.201 407.172 812.154 407.139C812.099 407.101 812.043 407.065 811.985 407.031C811.736 406.883 811.47 406.767 811.193 406.686C810.616 406.52 810.004 406.513 809.423 406.666C809.144 406.741 808.875 406.851 808.623 406.993C808.375 407.134 808.147 407.306 807.944 407.506C807.74 407.707 807.562 407.932 807.414 408.177C807.265 408.426 807.149 408.694 807.071 408.974C806.907 409.539 806.896 410.137 807.04 410.708C807.183 411.278 807.476 411.8 807.887 412.22C808.086 412.425 808.311 412.603 808.555 412.751C808.937 412.978 809.361 413.127 809.802 413.189C810.242 413.251 810.691 413.226 811.121 413.114C811.679 412.968 812.189 412.68 812.602 412.278C812.745 412.139 812.875 411.987 812.99 411.824C813.068 411.911 813.152 411.994 813.239 412.072C813.452 412.262 813.688 412.423 813.942 412.553C814.34 412.753 814.773 412.872 815.216 412.904C815.66 412.936 816.106 412.879 816.527 412.738C817.073 412.553 817.562 412.23 817.946 411.8C818.137 411.588 818.298 411.351 818.427 411.097C818.557 410.839 818.654 410.567 818.716 410.285C818.733 410.206 818.747 410.126 818.758 410.045C818.811 410.252 818.885 410.453 818.977 410.646C819.341 411.42 819.995 412.02 820.798 412.316C821.21 412.469 821.65 412.532 822.089 412.503C822.283 412.492 822.475 412.459 822.661 412.403C823.012 412.3 823.339 412.126 823.622 411.893C823.755 411.784 823.88 411.665 823.995 411.536L824.064 411.964C824.09 412.044 824.129 412.119 824.179 412.187C824.219 412.235 824.29 412.256 824.391 412.251L825.152 412.206C825.371 412.193 825.471 412.085 825.459 411.881L825.356 410.119C825.377 410.168 825.401 410.216 825.426 410.263C825.826 411.042 826.511 411.638 827.338 411.925C827.76 412.073 828.207 412.135 828.652 412.107C829.051 412.088 829.443 411.991 829.804 411.82C830.151 411.653 830.468 411.432 830.745 411.164C830.869 411.062 830.928 410.964 830.922 410.869C830.919 410.83 830.907 410.792 830.887 410.758C830.86 410.714 830.828 410.671 830.792 410.633C830.748 410.584 830.692 410.525 830.623 410.454C830.555 410.384 830.472 410.295 830.374 410.189C830.341 410.149 830.3 410.117 830.254 410.094C830.221 410.078 830.184 410.07 830.148 410.07C830.106 410.073 830.067 410.086 830.033 410.11C829.993 410.137 829.955 410.169 829.921 410.204C829.921 410.204 829.92 410.204 829.919 410.204C829.919 410.205 829.918 410.205 829.918 410.205C829.917 410.206 829.917 410.207 829.917 410.207C829.916 410.208 829.916 410.209 829.916 410.209C829.837 410.291 829.75 410.365 829.657 410.431C829.554 410.505 829.445 410.571 829.33 410.626C829.206 410.686 829.077 410.734 828.944 410.771C828.802 410.809 828.655 410.833 828.508 410.84C828.304 410.851 828.1 410.83 827.903 410.776C827.699 410.722 827.507 410.634 827.333 410.514C827.154 410.391 826.997 410.239 826.868 410.064C826.729 409.876 826.63 409.661 826.576 409.434L831.075 409.169C831.171 409.166 831.266 409.151 831.358 409.124C831.416 409.108 831.467 409.075 831.505 409.028C831.538 408.98 831.557 408.923 831.559 408.865C831.563 408.782 831.563 408.7 831.557 408.618C831.54 408.249 831.471 407.883 831.353 407.533ZM817.406 410.288C817.319 410.542 817.184 410.777 817.008 410.98C816.831 411.181 816.618 411.346 816.379 411.466C816.128 411.591 815.855 411.663 815.575 411.68C815.295 411.696 815.015 411.656 814.751 411.562C814.243 411.378 813.829 411.001 813.598 410.512C813.416 410.136 813.348 409.714 813.402 409.3C813.455 408.885 813.628 408.495 813.899 408.177C814.074 407.975 814.288 407.809 814.527 407.688C814.778 407.564 815.052 407.491 815.331 407.475C815.611 407.458 815.891 407.498 816.155 407.593C816.407 407.685 816.638 407.825 816.837 408.004C817.245 408.38 817.491 408.9 817.52 409.454C817.538 409.737 817.499 410.02 817.406 410.288ZM823.921 409.091C823.931 409.351 823.89 409.61 823.8 409.854C823.714 410.09 823.584 410.308 823.418 410.496C823.251 410.686 823.05 410.841 822.824 410.954C822.592 411.072 822.337 411.14 822.077 411.153C821.819 411.171 821.561 411.133 821.319 411.04C821.09 410.951 820.879 410.819 820.7 410.65C820.517 410.477 820.37 410.271 820.267 410.042C820.048 409.559 820.016 409.012 820.176 408.507C820.253 408.265 820.374 408.039 820.534 407.842C820.692 407.648 820.886 407.486 821.104 407.365C821.332 407.241 821.584 407.169 821.843 407.156C822.108 407.139 822.374 407.18 822.622 407.276C822.861 407.369 823.081 407.506 823.269 407.681C823.457 407.857 823.611 408.066 823.723 408.298C823.839 408.535 823.906 408.792 823.92 409.056L823.921 409.091ZM826.535 408.219C826.578 408.02 826.654 407.83 826.76 407.656C826.864 407.483 826.994 407.326 827.145 407.191C827.294 407.056 827.464 406.946 827.647 406.863C827.829 406.78 828.026 406.731 828.226 406.719C828.445 406.705 828.664 406.726 828.876 406.783C829.073 406.836 829.259 406.922 829.426 407.038C829.588 407.154 829.73 407.295 829.847 407.457C829.969 407.625 830.063 407.812 830.126 408.01L826.535 408.219Z" fill="#575756"/>
<path d="M833.408 407.333L834.188 408.362L833.539 406.875L833.328 407.227L833.408 407.333Z" fill="#46952B"/>
<path d="M834.187 408.355L834.185 408.359L834.186 408.36L834.187 408.355Z" fill="#46952B"/>
<path d="M833.466 409.583L833.717 409.907L834.182 408.373L833.466 409.583Z" fill="#46952B"/>
<path d="M834.187 408.362L833.534 409.468C833.32 409.827 833.108 410.186 832.898 410.544C832.688 410.901 832.478 411.26 832.267 411.619C832.209 411.731 832.13 411.79 832.031 411.796L830.767 411.87C830.703 411.874 830.669 411.854 830.667 411.81C830.667 411.794 830.669 411.777 830.673 411.762C830.674 411.748 830.678 411.734 830.683 411.721C830.71 411.673 830.736 411.623 830.762 411.573C830.789 411.523 830.817 411.472 830.846 411.42L832.607 408.455L831.463 406.955C831.086 406.459 830.729 405.99 830.392 405.548L830.368 405.519C830.345 405.49 830.329 405.456 830.323 405.42C830.322 405.413 830.322 405.406 830.324 405.399C830.325 405.393 830.328 405.386 830.333 405.381C830.337 405.376 830.342 405.371 830.348 405.368C830.354 405.365 830.361 405.363 830.368 405.362L830.477 405.34L831.66 405.27C831.716 405.265 831.773 405.277 831.823 405.305C831.877 405.339 831.924 405.383 831.962 405.435L833.41 407.334L834.187 408.362Z" fill="#93C01F"/>
<path d="M813.13 411.61C813.084 411.686 813.042 411.754 812.991 411.825C813.085 411.93 813.186 412.028 813.292 412.12C813.491 411.601 813.479 411.023 813.469 410.839C813.388 411.109 813.274 411.368 813.13 411.61Z" fill="#3C3C3B"/>
<defs>
<filter id="filter0_f_2006_1946" x="157.825" y="15.524" width="762.12" height="742.281" filterUnits="userSpaceOnUse" color-interpolation-filters="sRGB">
<feFlood flood-opacity="0" result="BackgroundImageFix"/>
<feBlend mode="normal" in="SourceGraphic" in2="BackgroundImageFix" result="shape"/>
<feGaussianBlur stdDeviation="40.6" result="effect1_foregroundBlur_2006_1946"/>
</filter>
<linearGradient id="paint0_linear_2006_1946" x1="771.259" y1="377.19" x2="1085.48" y2="289.793" gradientUnits="userSpaceOnUse">
<stop stop-color="white" stop-opacity="0"/>
<stop offset="0.655" stop-color="#67C500" stop-opacity="0.5"/>
</linearGradient>
<linearGradient id="paint1_linear_2006_1946" x1="318.125" y1="377.191" x2="3.904" y2="289.794" gradientUnits="userSpaceOnUse">
<stop stop-color="white" stop-opacity="0"/>
<stop offset="0.655" stop-color="#67C500" stop-opacity="0.5"/>
</linearGradient>
<linearGradient id="paint2_linear_2006_1946" x1="700.061" y1="54.4882" x2="700.061" y2="164.155" gradientUnits="userSpaceOnUse">
<stop stop-color="#BD98D9"/>
<stop offset="1" stop-color="#712FA4"/>
</linearGradient>
<linearGradient id="paint3_linear_2006_1946" x1="587.504" y1="242.17" x2="548.066" y2="247.978" gradientUnits="userSpaceOnUse">
<stop stop-color="#4042E2"/>
<stop offset="1" stop-color="#4F52FF"/>
</linearGradient>
<linearGradient id="paint4_linear_2006_1946" x1="543.651" y1="258.102" x2="504.633" y2="263.849" gradientUnits="userSpaceOnUse">
<stop stop-color="#4042E2"/>
<stop offset="1" stop-color="#4F52FF"/>
</linearGradient>
<linearGradient id="paint5_linear_2006_1946" x1="500.295" y1="274.342" x2="464.145" y2="279.666" gradientUnits="userSpaceOnUse">
<stop stop-color="#4042E2"/>
<stop offset="1" stop-color="#4F52FF"/>
</linearGradient>
<linearGradient id="paint6_linear_2006_1946" x1="460.936" y1="282.944" x2="422.64" y2="288.584" gradientUnits="userSpaceOnUse">
<stop stop-color="#4042E2"/>
<stop offset="1" stop-color="#4F52FF"/>
</linearGradient>
<linearGradient id="paint7_linear_2006_1946" x1="561.062" y1="67.2504" x2="566.176" y2="245.23" gradientUnits="userSpaceOnUse">
<stop stop-color="#FFBE2E"/>
<stop offset="1" stop-color="#D16D4E"/>
</linearGradient>
<linearGradient id="paint8_linear_2006_1946" x1="567.384" y1="119.475" x2="545.247" y2="267.053" gradientUnits="userSpaceOnUse">
<stop stop-color="white"/>
<stop offset="1" stop-color="white"/>
</linearGradient>
<linearGradient id="paint9_linear_2006_1946" x1="457.311" y1="70.1743" x2="462.409" y2="247.937" gradientUnits="userSpaceOnUse">
<stop stop-color="#FFBE2E"/>
<stop offset="1" stop-color="#D16D4E"/>
</linearGradient>
<linearGradient id="paint10_linear_2006_1946" x1="466.491" y1="104.34" x2="444.354" y2="251.918" gradientUnits="userSpaceOnUse">
<stop stop-color="white"/>
<stop offset="1" stop-color="white"/>
</linearGradient>
<linearGradient id="paint11_linear_2006_1946" x1="510.286" y1="64.9463" x2="515.4" y2="242.926" gradientUnits="userSpaceOnUse">
<stop stop-color="#FFBE2E"/>
<stop offset="1" stop-color="#D16D4E"/>
</linearGradient>
<linearGradient id="paint12_linear_2006_1946" x1="517.394" y1="111.976" x2="495.257" y2="259.554" gradientUnits="userSpaceOnUse">
<stop stop-color="white"/>
<stop offset="1" stop-color="white"/>
</linearGradient>
<linearGradient id="paint13_linear_2006_1946" x1="522.637" y1="434.348" x2="527.046" y2="123.122" gradientUnits="userSpaceOnUse">
<stop stop-color="#B8FF00"/>
<stop offset="0.509113" stop-color="#FBFBFB"/>
</linearGradient>
<linearGradient id="paint14_linear_2006_1946" x1="488.094" y1="90.2876" x2="493.796" y2="360.329" gradientUnits="userSpaceOnUse">
<stop stop-color="#97E835"/>
<stop offset="0.723233" stop-color="#46952B"/>
</linearGradient>
<linearGradient id="paint15_linear_2006_1946" x1="397.206" y1="285.164" x2="401.145" y2="366.907" gradientUnits="userSpaceOnUse">
<stop stop-color="#97E835"/>
<stop offset="0.723233" stop-color="#46952B"/>
</linearGradient>
<linearGradient id="paint16_linear_2006_1946" x1="423.015" y1="276.574" x2="426.953" y2="358.318" gradientUnits="userSpaceOnUse">
<stop stop-color="#97E835"/>
<stop offset="0.723233" stop-color="#46952B"/>
</linearGradient>
<linearGradient id="paint17_linear_2006_1946" x1="450.65" y1="273.503" x2="454.589" y2="355.246" gradientUnits="userSpaceOnUse">
<stop stop-color="#97E835"/>
<stop offset="0.723233" stop-color="#46952B"/>
</linearGradient>
<linearGradient id="paint18_linear_2006_1946" x1="478.871" y1="271.054" x2="482.81" y2="352.798" gradientUnits="userSpaceOnUse">
<stop stop-color="#97E835"/>
<stop offset="0.723233" stop-color="#46952B"/>
</linearGradient>
<linearGradient id="paint19_linear_2006_1946" x1="506.508" y1="268.605" x2="510.447" y2="350.349" gradientUnits="userSpaceOnUse">
<stop stop-color="#97E835"/>
<stop offset="0.723233" stop-color="#46952B"/>
</linearGradient>
<linearGradient id="paint20_linear_2006_1946" x1="534.728" y1="268.605" x2="538.667" y2="350.349" gradientUnits="userSpaceOnUse">
<stop stop-color="#97E835"/>
<stop offset="0.723233" stop-color="#46952B"/>
</linearGradient>
<linearGradient id="paint21_linear_2006_1946" x1="562.365" y1="269.811" x2="566.303" y2="351.555" gradientUnits="userSpaceOnUse">
<stop stop-color="#97E835"/>
<stop offset="0.723233" stop-color="#46952B"/>
</linearGradient>
<linearGradient id="paint22_linear_2006_1946" x1="588.758" y1="271.054" x2="592.696" y2="352.798" gradientUnits="userSpaceOnUse">
<stop stop-color="#97E835"/>
<stop offset="0.723233" stop-color="#46952B"/>
</linearGradient>
<linearGradient id="paint23_linear_2006_1946" x1="613.945" y1="275.332" x2="617.884" y2="357.075" gradientUnits="userSpaceOnUse">
<stop stop-color="#97E835"/>
<stop offset="0.723233" stop-color="#46952B"/>
</linearGradient>
<linearGradient id="paint24_linear_2006_1946" x1="638.51" y1="279.023" x2="642.448" y2="360.767" gradientUnits="userSpaceOnUse">
<stop stop-color="#97E835"/>
<stop offset="0.723233" stop-color="#46952B"/>
</linearGradient>
<linearGradient id="paint25_linear_2006_1946" x1="526.374" y1="473.095" x2="527.864" y2="254.056" gradientUnits="userSpaceOnUse">
<stop stop-color="#B8FF00"/>
<stop offset="0.602526" stop-color="#FBFBFB"/>
</linearGradient>
<linearGradient id="paint26_linear_2006_1946" x1="335.42" y1="342.969" x2="341.45" y2="468.114" gradientUnits="userSpaceOnUse">
<stop stop-color="#97E835"/>
<stop offset="0.723233" stop-color="#46952B"/>
</linearGradient>
<linearGradient id="paint27_linear_2006_1946" x1="374.937" y1="329.807" x2="380.967" y2="454.952" gradientUnits="userSpaceOnUse">
<stop stop-color="#97E835"/>
<stop offset="0.723233" stop-color="#46952B"/>
</linearGradient>
<linearGradient id="paint28_linear_2006_1946" x1="417.232" y1="325.092" x2="423.262" y2="450.237" gradientUnits="userSpaceOnUse">
<stop stop-color="#97E835"/>
<stop offset="0.723233" stop-color="#46952B"/>
</linearGradient>
<linearGradient id="paint29_linear_2006_1946" x1="460.477" y1="321.326" x2="466.507" y2="446.472" gradientUnits="userSpaceOnUse">
<stop stop-color="#97E835"/>
<stop offset="0.723233" stop-color="#46952B"/>
</linearGradient>
<linearGradient id="paint30_linear_2006_1946" x1="502.808" y1="317.561" x2="508.839" y2="442.706" gradientUnits="userSpaceOnUse">
<stop stop-color="#97E835"/>
<stop offset="0.723233" stop-color="#46952B"/>
</linearGradient>
<linearGradient id="paint31_linear_2006_1946" x1="546.053" y1="317.561" x2="552.084" y2="442.706" gradientUnits="userSpaceOnUse">
<stop stop-color="#97E835"/>
<stop offset="0.723233" stop-color="#46952B"/>
</linearGradient>
<linearGradient id="paint32_linear_2006_1946" x1="588.349" y1="319.463" x2="594.379" y2="444.608" gradientUnits="userSpaceOnUse">
<stop stop-color="#97E835"/>
<stop offset="0.723233" stop-color="#46952B"/>
</linearGradient>
<linearGradient id="paint33_linear_2006_1946" x1="628.779" y1="321.326" x2="634.809" y2="446.472" gradientUnits="userSpaceOnUse">
<stop stop-color="#97E835"/>
<stop offset="0.723233" stop-color="#46952B"/>
</linearGradient>
<linearGradient id="paint34_linear_2006_1946" x1="667.345" y1="327.907" x2="673.375" y2="453.052" gradientUnits="userSpaceOnUse">
<stop stop-color="#97E835"/>
<stop offset="0.723233" stop-color="#46952B"/>
</linearGradient>
<linearGradient id="paint35_linear_2006_1946" x1="704.962" y1="333.573" x2="710.992" y2="458.718" gradientUnits="userSpaceOnUse">
<stop stop-color="#97E835"/>
<stop offset="0.723233" stop-color="#46952B"/>
</linearGradient>
<linearGradient id="paint36_linear_2006_1946" x1="533.225" y1="796.489" x2="535.508" y2="295.294" gradientUnits="userSpaceOnUse">
<stop stop-color="#B8FF00"/>
<stop offset="0.775856" stop-color="#FBFBFB"/>
</linearGradient>
<linearGradient id="paint37_linear_2006_1946" x1="566.548" y1="431.854" x2="537.393" y2="493.561" gradientUnits="userSpaceOnUse">
<stop stop-color="#4F52FF"/>
<stop offset="1" stop-color="#1A0F91"/>
</linearGradient>
<linearGradient id="paint38_linear_2006_1946" x1="497.29" y1="432.434" x2="526.081" y2="482.453" gradientUnits="userSpaceOnUse">
<stop stop-color="#4F52FF"/>
<stop offset="1" stop-color="#1A0F91"/>
</linearGradient>
<linearGradient id="paint39_linear_2006_1946" x1="558.386" y1="447.371" x2="493.016" y2="614.443" gradientUnits="userSpaceOnUse">
<stop stop-color="#4F52FF"/>
<stop offset="1" stop-color="#1A0F91"/>
</linearGradient>
<linearGradient id="paint40_linear_2006_1946" x1="502.008" y1="396.426" x2="453.359" y2="501.568" gradientUnits="userSpaceOnUse">
<stop stop-color="#F0B076"/>
<stop offset="1" stop-color="#D34A00"/>
</linearGradient>
<linearGradient id="paint41_linear_2006_1946" x1="437.922" y1="398.766" x2="429.502" y2="495.597" gradientUnits="userSpaceOnUse">
<stop stop-color="#F0B076"/>
<stop offset="1" stop-color="#D34A00"/>
</linearGradient>
<linearGradient id="paint42_linear_2006_1946" x1="484.258" y1="432.918" x2="410.226" y2="663.721" gradientUnits="userSpaceOnUse">
<stop stop-color="#F0B076"/>
<stop offset="0.528706" stop-color="#D34A00"/>
</linearGradient>
<linearGradient id="paint43_linear_2006_1946" x1="271.146" y1="351.866" x2="301.119" y2="351.866" gradientUnits="userSpaceOnUse">
<stop stop-color="#46952B"/>
<stop offset="1" stop-color="#6FAA27"/>
</linearGradient>
<linearGradient id="paint44_linear_2006_1946" x1="311.486" y1="495.328" x2="313.311" y2="579.588" gradientUnits="userSpaceOnUse">
<stop stop-color="#02010B"/>
<stop offset="1" stop-color="#161244"/>
</linearGradient>
<linearGradient id="paint45_linear_2006_1946" x1="306.144" y1="581.947" x2="313.949" y2="581.947" gradientUnits="userSpaceOnUse">
<stop stop-color="#FF928E"/>
<stop offset="1" stop-color="#FEB3B1"/>
</linearGradient>
<linearGradient id="paint46_linear_2006_1946" x1="287.636" y1="522.269" x2="313.443" y2="522.269" gradientUnits="userSpaceOnUse">
<stop stop-color="#09005D"/>
<stop offset="1" stop-color="#1A0F91"/>
</linearGradient>
<linearGradient id="paint47_linear_2006_1946" x1="278.799" y1="510.693" x2="282.088" y2="582.522" gradientUnits="userSpaceOnUse">
<stop stop-color="#02010B"/>
<stop offset="1" stop-color="#161244"/>
</linearGradient>
<linearGradient id="paint48_linear_2006_1946" x1="278.015" y1="581.546" x2="284.754" y2="581.546" gradientUnits="userSpaceOnUse">
<stop stop-color="#FF928E"/>
<stop offset="1" stop-color="#FEB3B1"/>
</linearGradient>
<linearGradient id="paint49_linear_2006_1946" x1="270.752" y1="521.423" x2="307.389" y2="521.423" gradientUnits="userSpaceOnUse">
<stop stop-color="#09005D"/>
<stop offset="1" stop-color="#1A0F91"/>
</linearGradient>
<linearGradient id="paint50_linear_2006_1946" x1="270.489" y1="448.7" x2="188.605" y2="527.661" gradientUnits="userSpaceOnUse">
<stop stop-color="#E85255"/>
<stop offset="1" stop-color="#FF4F4F"/>
</linearGradient>
<linearGradient id="paint51_linear_2006_1946" x1="250.804" y1="428.286" x2="168.919" y2="507.246" gradientUnits="userSpaceOnUse">
<stop stop-color="#E85255"/>
<stop offset="1" stop-color="#FF4F4F"/>
</linearGradient>
<linearGradient id="paint52_linear_2006_1946" x1="251.009" y1="434.808" x2="301.469" y2="434.808" gradientUnits="userSpaceOnUse">
<stop stop-color="#FF928E"/>
<stop offset="1" stop-color="#FEB3B1"/>
</linearGradient>
<linearGradient id="paint53_linear_2006_1946" x1="299.019" y1="374.749" x2="293.901" y2="413.498" gradientUnits="userSpaceOnUse">
<stop stop-color="#FF928E"/>
<stop offset="1" stop-color="#FEB3B1"/>
</linearGradient>
<linearGradient id="paint54_linear_2006_1946" x1="2757.83" y1="1422.39" x2="2732.39" y2="1411.45" gradientUnits="userSpaceOnUse">
<stop stop-color="#FF928E"/>
<stop offset="1" stop-color="#FEB3B1"/>
</linearGradient>
<linearGradient id="paint55_linear_2006_1946" x1="2755.25" y1="1428.4" x2="2729.81" y2="1417.47" gradientUnits="userSpaceOnUse">
<stop stop-color="#FF928E"/>
<stop offset="1" stop-color="#FEB3B1"/>
</linearGradient>
<linearGradient id="paint56_linear_2006_1946" x1="305.111" y1="415.693" x2="289.758" y2="461.202" gradientUnits="userSpaceOnUse">
<stop stop-color="#FF928E"/>
<stop offset="1" stop-color="#FEB3B1"/>
</linearGradient>
<linearGradient id="paint57_linear_2006_1946" x1="734.401" y1="358.755" x2="728.636" y2="382.252" gradientUnits="userSpaceOnUse">
<stop stop-color="#93C01F"/>
<stop offset="1" stop-color="#46952B"/>
</linearGradient>
<linearGradient id="paint58_linear_2006_1946" x1="698.465" y1="419.597" x2="656.552" y2="446.615" gradientUnits="userSpaceOnUse">
<stop stop-color="#E240D7"/>
<stop offset="1" stop-color="#E008B5"/>
</linearGradient>
<linearGradient id="paint59_linear_2006_1946" x1="730.372" y1="459.576" x2="700.176" y2="464.66" gradientUnits="userSpaceOnUse">
<stop stop-color="#CB7A3D"/>
<stop offset="1" stop-color="#FCC49A"/>
</linearGradient>
<linearGradient id="paint60_linear_2006_1946" x1="701.784" y1="604.146" x2="725.36" y2="604.146" gradientUnits="userSpaceOnUse">
<stop stop-color="#57239F"/>
<stop offset="1" stop-color="#9354E9"/>
</linearGradient>
<linearGradient id="paint61_linear_2006_1946" x1="746.603" y1="459.603" x2="716.407" y2="464.689" gradientUnits="userSpaceOnUse">
<stop stop-color="#CB7A3D"/>
<stop offset="1" stop-color="#FCC49A"/>
</linearGradient>
<linearGradient id="paint62_linear_2006_1946" x1="742.17" y1="480.387" x2="651.685" y2="582.721" gradientUnits="userSpaceOnUse">
<stop stop-color="#3D3D71"/>
<stop offset="1" stop-color="#4F52FF"/>
</linearGradient>
<linearGradient id="paint63_linear_2006_1946" x1="715.775" y1="344.404" x2="733.545" y2="388.657" gradientUnits="userSpaceOnUse">
<stop/>
<stop offset="1" stop-color="#393840"/>
</linearGradient>
<linearGradient id="paint64_linear_2006_1946" x1="718.036" y1="604.146" x2="741.627" y2="604.146" gradientUnits="userSpaceOnUse">
<stop stop-color="#57239F"/>
<stop offset="1" stop-color="#9354E9"/>
</linearGradient>
<linearGradient id="paint65_linear_2006_1946" x1="732.786" y1="366.073" x2="713.853" y2="373.797" gradientUnits="userSpaceOnUse">
<stop stop-color="#CB7A3D"/>
<stop offset="1" stop-color="#FCC49A"/>
</linearGradient>
<linearGradient id="paint66_linear_2006_1946" x1="733.697" y1="353.105" x2="710.768" y2="367.013" gradientUnits="userSpaceOnUse">
<stop stop-color="#CB7A3D"/>
<stop offset="1" stop-color="#FCC49A"/>
</linearGradient>
<linearGradient id="paint67_linear_2006_1946" x1="709.414" y1="355.136" x2="731.952" y2="390.864" gradientUnits="userSpaceOnUse">
<stop/>
<stop offset="1" stop-color="#3A3940"/>
</linearGradient>
<linearGradient id="paint68_linear_2006_1946" x1="774.618" y1="374.822" x2="718.365" y2="431.646" gradientUnits="userSpaceOnUse">
<stop stop-color="#CB7A3D"/>
<stop offset="0.966346" stop-color="#FCC49A"/>
</linearGradient>
<linearGradient id="paint69_linear_2006_1946" x1="827.097" y1="329.056" x2="827.097" y2="352.583" gradientUnits="userSpaceOnUse">
<stop stop-color="#93C01F"/>
<stop offset="1" stop-color="#455A0F"/>
</linearGradient>
<linearGradient id="paint70_linear_2006_1946" x1="890.081" y1="488.292" x2="895.789" y2="493.616" gradientUnits="userSpaceOnUse">
<stop stop-color="#A22B25"/>
<stop offset="1" stop-color="#C0423C"/>
</linearGradient>
<linearGradient id="paint71_linear_2006_1946" x1="777.37" y1="309.774" x2="786.657" y2="402.92" gradientUnits="userSpaceOnUse">
<stop stop-color="#A22B25"/>
<stop offset="1" stop-color="#C0423C"/>
</linearGradient>
<linearGradient id="paint72_linear_2006_1946" x1="778.898" y1="309.622" x2="788.186" y2="402.768" gradientUnits="userSpaceOnUse">
<stop stop-color="#A22B25"/>
<stop offset="1" stop-color="#C0423C"/>
</linearGradient>
<linearGradient id="paint73_linear_2006_1946" x1="807.647" y1="566.241" x2="799.842" y2="566.241" gradientUnits="userSpaceOnUse">
<stop stop-color="#A22B25"/>
<stop offset="1" stop-color="#C0423C"/>
</linearGradient>
<linearGradient id="paint74_linear_2006_1946" x1="798.944" y1="510.058" x2="902.676" y2="468.885" gradientUnits="userSpaceOnUse">
<stop stop-color="#070421"/>
<stop offset="1" stop-color="#6E6B96"/>
</linearGradient>
<linearGradient id="paint75_linear_2006_1946" x1="795.64" y1="501.735" x2="899.372" y2="460.561" gradientUnits="userSpaceOnUse">
<stop stop-color="#070421"/>
<stop offset="1" stop-color="#6E6B96"/>
</linearGradient>
<linearGradient id="paint76_linear_2006_1946" x1="856.793" y1="311.914" x2="847.506" y2="405.06" gradientUnits="userSpaceOnUse">
<stop stop-color="#A22B25"/>
<stop offset="1" stop-color="#C0423C"/>
</linearGradient>
<linearGradient id="paint77_linear_2006_1946" x1="807.687" y1="372.254" x2="877.822" y2="486.162" gradientUnits="userSpaceOnUse">
<stop offset="0.169952" stop-color="white"/>
<stop offset="1" stop-color="#B8B8B8"/>
</linearGradient>
<linearGradient id="paint78_linear_2006_1946" x1="817.387" y1="350.633" x2="823.236" y2="399.862" gradientUnits="userSpaceOnUse">
<stop stop-color="#A22B25"/>
<stop offset="1" stop-color="#C0423C"/>
</linearGradient>
<linearGradient id="paint79_linear_2006_1946" x1="858.479" y1="-496.529" x2="856.857" y2="-461.664" gradientUnits="userSpaceOnUse">
<stop stop-color="#A22B25"/>
<stop offset="1" stop-color="#C0423C"/>
</linearGradient>
<linearGradient id="paint80_linear_2006_1946" x1="867.36" y1="-496.115" x2="865.739" y2="-461.25" gradientUnits="userSpaceOnUse">
<stop stop-color="#A22B25"/>
<stop offset="1" stop-color="#C0423C"/>
</linearGradient>
<linearGradient id="paint81_linear_2006_1946" x1="855.264" y1="311.762" x2="845.977" y2="404.907" gradientUnits="userSpaceOnUse">
<stop stop-color="#A22B25"/>
<stop offset="1" stop-color="#C0423C"/>
</linearGradient>
</defs>
</svg>
