<svg width="1081" height="1351" viewBox="0 0 1081 1351" fill="none" xmlns="http://www.w3.org/2000/svg">
<path d="M859.23 566.067C864.452 566.222 869.603 564.924 874.03 562.345C878.857 559.088 882.962 554.991 886.119 550.281L886.125 550.27L886.133 550.26L1012.61 374.667L1080.28 279.997L1012.57 186.017C990.298 155.277 968.245 124.64 946.412 94.1054L880.667 2.19724L880.654 2.17966L880.642 2.16111C874.631 -7.30803 867.093 -11.918 857.932 -11.918L737.948 -11.918C734.925 -11.918 732.804 -11.4324 731.461 -10.5771C730.187 -9.76536 729.545 -8.57887 729.537 -6.90039C729.657 -5.51454 729.934 -4.1441 730.363 -2.81152L730.381 -2.75391L730.39 -2.69434C730.57 -1.5747 730.951 -0.48942 731.517 0.515625C734.308 4.69943 737.061 8.92394 739.732 13.2275C742.39 17.5105 745.417 21.8323 748.463 26.2598L748.462 26.2607L931.675 279.529L932.011 279.993L931.677 280.458C898.038 327.309 864.727 373.622 831.745 419.396C798.763 465.171 767.561 508.5 738.14 549.382L738.13 549.396L736.076 552.123L736.072 552.128L735.715 552.609C734.091 554.878 733.008 557.444 732.539 560.132L732.448 560.709C732.397 561.193 732.452 561.682 732.611 562.147C732.772 562.62 733.037 563.06 733.394 563.438C733.751 563.817 734.191 564.125 734.688 564.341C735.185 564.556 735.727 564.674 736.279 564.685L736.324 564.686L736.368 564.691L746.752 566.067L859.23 566.067Z" stroke="url(#paint0_linear_2004_11)" stroke-width="1.58791"/>
<path d="M221.712 566.068C216.49 566.223 211.34 564.925 206.913 562.346C202.085 559.089 197.981 554.992 194.824 550.282L194.817 550.271L194.809 550.261L68.3325 374.668L0.661612 279.998L68.3726 186.018C90.6444 155.278 112.697 124.641 134.531 94.1064L200.275 2.19822L200.289 2.18064L200.3 2.16208C206.312 -7.30705 213.849 -11.917 223.01 -11.917L342.995 -11.917C346.018 -11.917 348.138 -11.4314 349.481 -10.5762C350.755 -9.76439 351.398 -8.57789 351.405 -6.89941C351.285 -5.51356 351.008 -4.14313 350.58 -2.81055L350.561 -2.75293L350.552 -2.69336C350.372 -1.57373 349.992 -0.488444 349.425 0.516601C346.634 4.7004 343.881 8.92492 341.21 13.2285C338.552 17.5115 335.526 21.8333 332.479 26.2607L332.48 26.2617L149.267 279.53L148.931 279.994L149.265 280.459C182.905 327.31 216.216 373.623 249.198 419.397C282.18 465.172 313.381 508.501 342.802 549.383L342.812 549.396L344.867 552.124L344.871 552.129L345.227 552.61C346.852 554.879 347.934 557.445 348.404 560.133L348.495 560.71C348.546 561.194 348.49 561.683 348.331 562.148C348.17 562.621 347.905 563.061 347.548 563.439C347.191 563.818 346.751 564.126 346.254 564.342C345.757 564.557 345.215 564.675 344.664 564.686L344.619 564.687L344.575 564.692L334.19 566.068L221.712 566.068Z" stroke="url(#paint1_linear_2004_11)" stroke-width="1.58791"/>
<path d="M-106.29 653.115C73.337 566.014 294.669 517.833 523.353 516.051C752.036 514.27 975.28 558.987 1158.43 643.263L1080.74 707.192C920.465 633.444 725.11 594.313 524.995 595.872C324.88 597.431 131.198 639.593 -25.9895 715.813L-106.29 653.115Z" fill="#43A725"/>
<path d="M384.644 615.709C541.766 593.867 704.992 594.814 861.416 618.475L830.445 695.995C693.562 675.289 550.727 674.461 413.234 693.574L384.644 615.709Z" fill="#43A725"/>
<path d="M214.644 593.709C371.766 571.867 534.992 572.814 691.416 596.475L660.445 673.995C523.562 653.289 380.727 652.461 243.234 671.574L214.644 593.709Z" fill="#43A725"/>
<g filter="url(#filter0_f_2004_11)">
<ellipse cx="534.664" cy="373.953" rx="299.86" ry="289.94" fill="#93C01F" fill-opacity="0.1"/>
</g>
<path d="M715.852 483.944C715.671 483.924 715.537 483.799 715.52 483.614C715.504 483.428 715.633 483.258 715.859 483.209C720.577 482.766 724.902 480.184 728.056 475.856C732.023 470.477 733.624 463.187 732.256 456.824C729.541 444.248 718.717 435.571 710.15 430.485C705.521 427.739 700.591 425.402 695.838 423.12C690.034 420.357 684.024 417.461 678.525 413.922C665.784 405.625 656.604 394.001 652.669 381.145C647.92 365.627 650.681 347.321 660.184 330.924C667.785 317.814 679.185 305.961 696.106 293.716C697.702 292.566 699.338 291.383 700.97 290.237C708.578 284.849 716.425 279.303 722.329 272.002C732.016 260.001 732.196 247.849 729.139 240.457C729.049 240.264 729.146 240.054 729.335 240.001C729.529 239.911 729.739 240.008 729.792 240.197C732.939 247.783 732.764 260.229 722.867 272.465C716.918 279.835 708.992 285.446 701.347 290.829C699.715 291.976 698.119 293.126 696.487 294.273C679.679 306.493 668.327 318.24 660.77 331.282C651.359 347.505 648.655 365.633 653.314 380.958C657.193 393.661 666.28 405.128 678.883 413.336C684.345 416.871 690.323 419.727 696.09 422.486C700.88 424.771 705.807 427.145 710.472 429.895C719.18 435.033 730.17 443.875 732.93 456.713C734.351 463.266 732.69 470.771 728.594 476.319C725.315 480.78 720.792 483.488 715.889 483.948C715.889 483.948 715.889 483.948 715.852 483.944Z" fill="#57239F"/>
<path d="M762.445 132.544C771.657 183.978 758.643 235.229 721.539 241.882C684.398 248.535 637.205 207.995 627.993 156.598C618.781 105.164 651.096 62.3206 688.237 55.6675C725.341 49.0143 753.233 81.1102 762.445 132.544Z" fill="url(#paint2_linear_2004_11)"/>
<path opacity="0.36" d="M658.919 90.9431C666.303 83.7416 666.559 88.0917 663.305 107.21C660.052 126.329 658.37 158.535 649.597 154.915C640.787 151.333 639.325 110.025 658.919 90.9431Z" fill="white"/>
<path opacity="0.36" d="M664.293 170.854C664.914 174.436 662.538 177.836 658.992 178.494C655.41 179.115 652.01 176.739 651.352 173.193C650.73 169.611 653.107 166.211 656.652 165.553C660.235 164.932 663.671 167.308 664.293 170.854Z" fill="white"/>
<path d="M841.003 219.29C827.77 263.815 797.027 299.347 764.895 289.806C732.762 280.265 711.45 229.27 724.647 184.781C737.843 140.293 780.613 119.127 812.709 128.669C844.842 138.21 854.2 174.802 841.003 219.29Z" fill="#14AEEA"/>
<path opacity="0.36" d="M775.386 145.008C784.123 142.229 782.587 145.812 772.388 159.703C762.189 173.594 748.006 198.489 742.449 192.128C736.893 185.694 752.209 152.319 775.386 145.008Z" fill="white"/>
<path opacity="0.36" d="M747.786 210.589C746.872 213.696 743.619 215.451 740.512 214.537C737.405 213.623 735.65 210.37 736.564 207.262C737.478 204.155 740.731 202.401 743.838 203.314C746.946 204.228 748.7 207.482 747.786 210.589Z" fill="white"/>
<path d="M774.923 290.062C774.813 289.966 774.682 289.95 774.555 289.985C774.38 290.075 774.291 290.288 774.354 290.439C777.502 298.018 773.402 306.805 767.699 311.583C761.335 316.901 752.951 318.914 745.627 320.152C743.936 320.426 742.221 320.728 740.502 320.978C734.298 321.931 727.915 322.922 721.991 325.281C708.354 330.72 697.253 343.883 692.275 360.479C687.216 377.392 688.793 395.471 690.42 407.588C690.589 408.898 690.783 410.18 690.976 411.462C692.016 418.903 693.126 426.599 692.226 434.099C691.032 444.055 686.159 452.171 679.136 455.85C678.961 455.94 678.9 456.177 678.99 456.353C679.08 456.528 679.317 456.589 679.492 456.499C686.715 452.702 691.728 444.369 692.959 434.203C693.851 426.6 692.766 418.877 691.695 411.36C691.501 410.078 691.332 408.768 691.138 407.486C689.515 395.421 687.945 377.444 692.964 360.69C697.905 344.304 708.861 331.306 722.296 325.933C728.145 323.606 734.503 322.642 740.656 321.693C742.374 321.443 744.065 321.169 745.78 320.867C753.231 319.594 761.691 317.55 768.203 312.118C774.077 307.198 778.334 298.063 775.061 290.182C774.979 290.11 774.951 290.086 774.923 290.062Z" fill="#D16D4E"/>
<path d="M860.961 145.624C859.645 143.467 858.073 141.566 856.428 139.702C855.624 138.752 854.71 137.911 853.833 137.033C852.955 136.193 852.005 135.352 851.091 134.548C847.326 131.331 843.195 128.552 838.808 126.213C834.422 123.873 829.889 121.899 825.136 120.401C820.457 118.792 815.595 117.769 810.697 116.855C800.937 115.21 790.957 114.917 781.087 115.539C778.601 115.612 776.152 115.941 773.703 116.16L770.01 116.526C768.768 116.635 767.561 116.891 766.355 117.074C763.906 117.476 761.456 117.805 759.044 118.244L751.769 119.779C749.32 120.254 746.944 120.912 744.568 121.497C742.192 122.119 739.779 122.704 737.403 123.398L730.311 125.555L726.765 126.652C725.595 127.017 724.426 127.456 723.256 127.858C718.613 129.539 713.898 131.075 709.365 132.976L702.492 135.717L700.774 136.412L699.092 137.143L695.693 138.642L688.93 141.639L687.248 142.371L685.567 143.175L682.24 144.783L675.587 148C674.49 148.548 673.357 149.06 672.261 149.609L668.971 151.327L662.427 154.763L659.137 156.481L657.492 157.358L655.884 158.272L642.979 165.547C609.092 185.433 573.487 202.358 536.785 216.359C518.434 223.341 499.791 229.629 480.928 235.039C471.497 237.781 462.029 240.303 452.488 242.606C442.947 244.909 433.369 247.029 423.719 248.821C414.068 250.648 404.381 252.184 394.657 253.463C384.933 254.743 375.173 255.693 365.376 256.278C345.818 257.484 326.151 257.302 306.74 254.852C287.366 252.403 268.174 247.578 250.664 238.951C241.927 234.637 233.775 229.227 226.501 222.793C225.55 222.025 224.709 221.148 223.832 220.307C222.955 219.466 222.077 218.626 221.237 217.748L218.787 215.043L217.581 213.691C217.179 213.215 216.813 212.74 216.448 212.265L214.181 209.414C213.45 208.463 212.792 207.44 212.061 206.453C210.599 204.515 209.429 202.395 208.15 200.311C207.492 199.288 206.98 198.191 206.395 197.131C205.847 196.071 205.262 194.974 204.713 193.914L203.251 190.587C202.739 189.491 202.264 188.358 201.862 187.224C201.021 184.958 200.107 182.691 199.486 180.352L198.426 176.843L197.585 173.297C197.329 172.127 196.964 170.92 196.781 169.751L196.123 166.168C195.648 163.792 195.392 161.343 195.063 158.93C194.551 154.068 194.149 149.206 194.112 144.345C194.076 139.483 194.332 134.584 194.88 129.759C195.465 124.933 196.415 120.145 197.731 115.466C200.363 106.107 204.64 97.2242 210.416 89.4013C213.304 85.4899 216.557 81.8709 220.14 78.5443C223.722 75.2177 227.561 72.2202 231.618 69.515C235.676 66.8099 239.953 64.4338 244.376 62.3501C248.8 60.2665 253.369 58.4752 258.012 56.9764C267.333 53.9423 276.984 52.0049 286.744 51.1641C291.643 50.762 296.541 50.6158 301.403 50.9448C303.852 51.091 306.265 51.3469 308.678 51.8221C309.884 52.0414 311.054 52.3339 312.187 52.736C313.32 53.1015 314.454 53.6133 315.367 54.3079L315.843 53.7595C314.819 52.9188 313.649 52.407 312.48 52.0049C311.31 51.6028 310.103 51.2738 308.861 51.0179C306.411 50.5061 303.962 50.2136 301.476 50.0309C296.541 49.6653 291.57 49.7384 286.671 50.104C276.801 50.8351 267.041 52.736 257.609 55.697C252.894 57.1958 248.251 58.9504 243.755 61.0341C239.259 63.1178 234.908 65.4939 230.741 68.199C226.574 70.9042 222.626 73.9383 218.934 77.3014C215.278 80.6645 211.915 84.3567 208.917 88.3412C202.886 96.2738 198.426 105.376 195.684 114.954C194.295 119.743 193.308 124.641 192.687 129.576C192.065 134.511 191.809 139.483 191.809 144.454C191.809 149.426 192.175 154.361 192.687 159.296C193.016 161.745 193.271 164.231 193.71 166.68L194.332 170.336C194.514 171.579 194.88 172.748 195.136 173.991L195.977 177.61L197.037 181.193C197.695 183.605 198.609 185.908 199.449 188.248C199.852 189.418 200.363 190.551 200.875 191.721L202.374 195.157C202.922 196.29 203.507 197.387 204.092 198.483C204.677 199.58 205.189 200.713 205.883 201.773C207.163 203.894 208.406 206.087 209.868 208.098C210.599 209.121 211.257 210.181 212.025 211.168L214.328 214.093C214.73 214.568 215.095 215.08 215.497 215.555L216.74 216.944L219.226 219.722C220.103 220.6 221.017 221.477 221.895 222.354C222.772 223.232 223.649 224.109 224.6 224.913C232.057 231.566 240.392 237.159 249.311 241.619C258.231 246.079 267.589 249.515 277.167 252.147C286.744 254.779 296.505 256.644 306.302 257.923C325.969 260.445 345.818 260.628 365.558 259.458C375.428 258.873 385.262 257.923 395.059 256.68C404.856 255.401 414.616 253.865 424.303 252.038C434.027 250.246 443.641 248.163 453.256 245.86C462.87 243.557 472.411 241.071 481.879 238.293C500.814 232.809 519.531 226.449 537.955 219.393C574.767 205.246 610.518 188.175 644.478 168.106L657.273 160.795L658.881 159.881L660.49 159.003L663.743 157.285L670.25 153.812L673.503 152.094C674.6 151.509 675.697 150.998 676.793 150.449L683.41 147.196L686.7 145.587L688.345 144.783L690.027 144.016L696.753 140.981L700.116 139.483L701.798 138.715L703.516 138.02L710.315 135.242C714.811 133.305 719.491 131.769 724.097 130.051C725.266 129.649 726.4 129.21 727.569 128.808L731.079 127.712L738.097 125.518C740.437 124.824 742.813 124.239 745.189 123.581C747.565 122.959 749.905 122.301 752.318 121.826L759.482 120.254C761.895 119.816 764.308 119.45 766.72 119.011C767.927 118.829 769.133 118.573 770.34 118.427L773.995 118.024C776.444 117.769 778.857 117.403 781.306 117.33C791.067 116.599 800.9 116.782 810.551 118.317C815.376 119.121 820.165 120.108 824.807 121.643C829.487 123.033 834.019 124.97 838.333 127.2C842.683 129.43 846.777 132.098 850.543 135.242C851.457 136.046 852.407 136.851 853.284 137.655C854.162 138.496 855.076 139.336 855.88 140.25C857.561 142.005 859.133 143.906 860.413 145.953L860.961 145.624Z" fill="#208B00"/>
<path d="M834.019 127.018C834.019 127.018 834.604 155.057 828.17 174.285C827.476 176.405 824.698 176.917 823.272 175.199C814.937 165.183 792.675 137.291 789.166 121.645C789.166 121.645 809.344 116.819 834.019 127.018Z" fill="#B8EE2B"/>
<path d="M774.909 120.035C774.909 120.035 780.356 152.57 769.645 178.378C768.804 180.389 766.245 180.937 764.673 179.438C756.594 171.762 735.246 150.34 727.021 130.783C727.057 130.783 756.741 121.973 774.909 120.035Z" fill="#43A725"/>
<path d="M718.686 134.219C718.686 134.219 723.183 164.852 714.665 190.112C713.788 192.671 710.717 193.731 708.451 192.233C700.701 187.188 684.507 174.723 674.271 153.301C674.271 153.337 697.557 141.018 718.686 134.219Z" fill="#B7EE2B"/>
<path d="M670.14 155.421C670.14 155.421 674.856 187.444 664.51 205.1C663.487 206.891 661.147 207.403 659.466 206.197C653.544 201.993 639.981 191.648 630.769 178.926C630.769 178.926 662.609 159.479 670.14 155.421Z" fill="#43A725"/>
<path d="M624.702 182.766C624.702 182.766 632.305 213.326 622.728 230.946C621.741 232.737 619.474 233.322 617.793 232.225C610.445 227.51 591.473 214.533 585.441 201.848C585.441 201.848 618.633 186.604 624.702 182.766Z" fill="#B8EE2B"/>
<path d="M579.263 204.955L541.72 220.82C541.72 220.82 560.948 249.845 573.999 255.511C575.351 256.096 576.923 255.402 577.435 254.013C579.811 247.871 585.258 229.63 579.263 204.955Z" fill="url(#paint3_linear_2004_11)"/>
<path d="M536.163 223.123C536.163 223.123 506.772 234.089 498.218 236.1C498.218 236.1 507.174 259.313 519.713 269.658C521.65 271.267 524.575 270.791 525.891 268.671C530.351 261.396 539.197 243.923 536.163 223.123Z" fill="url(#paint4_linear_2004_11)"/>
<path d="M492.406 236.94C492.406 236.94 465.063 246.883 457.13 248.053C457.13 248.053 469.632 273.715 481.513 287.971C482.39 289.032 484.108 288.958 484.876 287.789C488.605 282.159 497.232 265.563 492.406 236.94Z" fill="url(#paint5_linear_2004_11)"/>
<path d="M453.511 248.602C453.511 248.602 427.081 254.707 415.42 255.694C415.42 255.694 425.363 286.986 440.314 294.297C441.594 294.918 443.129 294.406 443.787 293.127C447.04 287.022 455.814 268.233 453.511 248.602Z" fill="url(#paint6_linear_2004_11)"/>
<path d="M411.838 256.206C411.838 256.206 385.298 261.58 376.415 261.434C376.415 261.434 388.15 290.678 399.811 299.817C401.748 301.353 404.563 300.987 406.098 299.05C409.754 294.553 414.799 283.258 411.838 256.206Z" fill="#B8EE2B"/>
<path d="M369.908 262.382C369.908 262.382 345.014 263.845 337.593 263.443C337.593 263.443 339.348 284.279 353.97 300.035C355.542 301.716 358.174 301.753 359.782 300.144C364.242 295.648 371.626 284.681 369.908 262.382Z" fill="#43A725"/>
<path d="M330.867 262.968C330.867 262.968 310.103 262.347 299.356 259.495C299.356 259.495 297.674 282.854 309.628 295.576C311.273 297.33 313.978 297.659 316.025 296.343C321.216 292.98 330.318 284.061 330.867 262.968Z" fill="#B8EE2B"/>
<path d="M294.822 258.692C294.822 258.692 273.218 257.449 265.87 252.623C265.87 252.623 263.458 277.043 273.949 291.848C274.826 293.091 276.618 293.31 277.787 292.286C281.918 288.485 290.984 278.322 294.822 258.692Z" fill="#43A725"/>
<path d="M261.228 251.088C261.228 251.088 235.457 241.583 225.002 230.58C225.002 230.58 213.669 259.093 225.806 280.588C226.281 281.465 227.305 281.867 228.255 281.612C233.921 279.967 253.186 272.911 261.228 251.088Z" fill="#B8EE2B"/>
<path d="M197.767 196.181C197.767 196.181 207.455 216.908 218.348 225.645C218.348 225.645 203.287 245.933 185.083 250.978C183.511 251.417 181.866 250.466 181.5 248.858C179.892 241.62 177.771 221.003 197.767 196.181Z" fill="#43A725"/>
<path d="M187.313 145.333C187.313 145.333 186.399 169.094 194.222 192.307C194.222 192.307 180.111 198.667 171.63 209.524C169.546 212.193 165.233 210.584 165.416 207.221C166.074 193.55 170.241 170.922 187.313 145.333Z" fill="#B8EE2B"/>
<path d="M586.794 207.881H543.732V159.226C543.732 155.132 546.62 151.622 550.604 150.855C558.61 149.319 566.616 149.319 574.621 150.964C578.204 151.695 580.872 154.729 581.275 158.349L586.794 207.881Z" fill="#FFC84E"/>
<path d="M559.597 90.5011C558.72 89.3313 556.928 89.5872 556.38 90.9398C553.821 97.2639 547.716 111.923 542.964 120.221C536.823 131.005 540.003 147.565 562.192 144.823C594.8 140.838 567.53 101.139 559.597 90.5011Z" fill="url(#paint7_linear_2004_11)"/>
<path opacity="0.53" d="M559.378 110.279C558.83 109.584 557.733 109.73 557.404 110.535C555.832 114.373 552.103 123.329 549.216 128.374C545.45 134.954 547.424 145.043 560.95 143.398C580.836 140.949 564.203 116.749 559.378 110.279Z" fill="url(#paint8_linear_2004_11)"/>
<path d="M557.587 137.877L559.012 154.144C559.085 155.094 559.89 155.899 560.84 155.899H560.877C562.01 155.899 562.887 154.875 562.777 153.742C562.156 148.222 560.145 132.137 557.587 137.877Z" fill="#A4A4A4"/>
<path d="M431.141 211.976L474.167 209.965L471.901 161.346C471.718 157.289 468.684 153.889 464.626 153.304C456.547 152.171 448.578 152.5 440.646 154.547C437.1 155.461 434.577 158.605 434.322 162.26L431.141 211.976Z" fill="#FFC84E"/>
<path d="M452.855 93.4614C453.659 92.2551 455.487 92.4013 456.072 93.7173C458.923 99.8952 465.723 114.262 470.841 122.34C477.494 132.795 475.081 149.501 452.782 147.82C420.028 145.371 445.398 104.428 452.855 93.4614Z" fill="url(#paint9_linear_2004_11)"/>
<path opacity="0.53" d="M453.988 113.202C454.5 112.471 455.596 112.58 455.962 113.348C457.717 117.113 461.847 125.887 464.955 130.785C469.012 137.182 467.55 147.345 453.951 146.321C433.955 144.859 449.455 119.892 453.988 113.202Z" fill="url(#paint10_linear_2004_11)"/>
<path d="M457.059 140.692L456.401 156.996C456.365 157.946 455.633 158.787 454.646 158.86H454.61C453.477 158.933 452.526 157.946 452.599 156.813C452.965 151.257 454.244 135.062 457.059 140.692Z" fill="#A4A4A4"/>
<path d="M536.055 205.577H489.118L492.956 156.885C492.956 152.791 495.844 149.281 499.829 148.514C507.834 146.978 515.84 146.978 523.846 148.623C527.428 149.355 530.097 152.389 530.499 156.008L536.055 205.577Z" fill="#FFC84E"/>
<path d="M508.821 88.1971C507.944 87.0273 506.152 87.2832 505.604 88.6357C503.045 94.9599 496.94 109.619 492.188 117.917C486.047 128.701 489.227 145.26 511.416 142.519C544.024 138.498 516.754 98.8348 508.821 88.1971Z" fill="url(#paint11_linear_2004_11)"/>
<path opacity="0.53" d="M508.601 107.975C508.053 107.28 506.956 107.426 506.627 108.23C505.055 112.069 501.327 121.025 498.439 126.07C494.674 132.65 496.648 142.739 510.173 141.094C530.059 138.645 513.427 114.445 508.601 107.975Z" fill="url(#paint12_linear_2004_11)"/>
<path d="M506.811 135.573L508.236 151.84C508.309 152.79 509.114 153.595 510.064 153.595H510.101C511.234 153.595 512.111 152.571 512.001 151.438C511.417 145.918 509.37 129.833 506.811 135.573Z" fill="#A4A4A4"/>
<path d="M401.932 344.563L402.517 226.086C402.553 217.24 407.891 209.234 416.042 205.871C443.167 194.648 510.173 175.42 608.069 203.97C616.733 206.492 622.984 214.096 623.825 223.089L634.901 341.968L401.932 344.563Z" fill="url(#paint13_linear_2004_11)"/>
<path d="M411.108 247.69C419.772 245.424 419.552 224.112 424.195 224.112C436.624 224.112 422.842 265.785 441.23 263.372C456.291 261.398 442.107 231.386 454.317 226.707C459.654 224.66 467.367 228.06 471.352 233.251C481.99 247.069 462.798 269.075 472.01 279.713C478.48 287.207 496.539 286.293 502.132 278.397C509.882 267.394 489.52 248.494 497.562 236.504C502.936 228.498 518.765 227 523.736 232.593C529.548 239.1 518.07 252.479 524.394 260.082C529 265.602 541.1 265.785 545.341 260.74C550.678 254.38 541.575 242.134 546.657 237.82C549.654 235.298 555.686 237.126 559.085 239.794C565.41 244.766 557.148 255.44 562.375 261.398C566.104 265.675 574.951 266.37 578.752 262.714C584.93 256.756 575.828 241.074 580.068 238.515C582.737 236.906 589.536 241.11 593.813 247.032C604.159 261.435 594.362 279.165 602.331 284.355C606.315 286.951 613.627 285.635 617.392 281.723C628.541 270.172 606.681 238.295 614.76 231.971C616.039 230.948 618.415 230.363 623.241 232.154C626.202 233.251 629.309 230.874 629.017 227.731L628.541 222.613C627.518 211.683 619.914 202.544 609.35 199.51C575.06 189.53 541.393 184.449 509.26 184.449C465.137 184.449 433.334 193.77 414.398 201.63C404.491 205.724 398.094 215.302 398.021 226.049L397.985 234.091C397.948 239.538 400.982 244.619 405.917 246.959C407.672 247.836 409.427 248.129 411.108 247.69Z" fill="url(#paint14_linear_2004_11)"/>
<path d="M396.924 335.571C405.404 335.571 412.278 328.697 412.278 320.217C412.278 311.738 405.404 304.864 396.924 304.864C388.445 304.864 381.571 311.738 381.571 320.217C381.571 328.697 388.445 335.571 396.924 335.571Z" fill="url(#paint15_linear_2004_11)"/>
<path d="M422.733 326.981C431.212 326.981 438.086 320.107 438.086 311.628C438.086 303.148 431.212 296.274 422.733 296.274C414.253 296.274 407.379 303.148 407.379 311.628C407.379 320.107 414.253 326.981 422.733 326.981Z" fill="url(#paint16_linear_2004_11)"/>
<path d="M450.368 323.91C458.848 323.91 465.722 317.036 465.722 308.557C465.722 300.077 458.848 293.203 450.368 293.203C441.889 293.203 435.015 300.077 435.015 308.557C435.015 317.036 441.889 323.91 450.368 323.91Z" fill="url(#paint17_linear_2004_11)"/>
<path d="M478.589 321.461C487.069 321.461 493.943 314.587 493.943 306.108C493.943 297.628 487.069 290.754 478.589 290.754C470.11 290.754 463.236 297.628 463.236 306.108C463.236 314.587 470.11 321.461 478.589 321.461Z" fill="url(#paint18_linear_2004_11)"/>
<path d="M506.226 319.012C514.705 319.012 521.579 312.138 521.579 303.659C521.579 295.179 514.705 288.305 506.226 288.305C497.747 288.305 490.873 295.179 490.873 303.659C490.873 312.138 497.747 319.012 506.226 319.012Z" fill="url(#paint19_linear_2004_11)"/>
<path d="M534.446 319.012C542.926 319.012 549.8 312.138 549.8 303.659C549.8 295.179 542.926 288.305 534.446 288.305C525.967 288.305 519.093 295.179 519.093 303.659C519.093 312.138 525.967 319.012 534.446 319.012Z" fill="url(#paint20_linear_2004_11)"/>
<path d="M562.083 320.218C570.562 320.218 577.436 313.344 577.436 304.865C577.436 296.385 570.562 289.511 562.083 289.511C553.603 289.511 546.729 296.385 546.729 304.865C546.729 313.344 553.603 320.218 562.083 320.218Z" fill="url(#paint21_linear_2004_11)"/>
<path d="M588.476 321.461C596.955 321.461 603.829 314.587 603.829 306.108C603.829 297.628 596.955 290.754 588.476 290.754C579.996 290.754 573.122 297.628 573.122 306.108C573.122 314.587 579.996 321.461 588.476 321.461Z" fill="url(#paint22_linear_2004_11)"/>
<path d="M613.663 325.738C622.143 325.738 629.017 318.864 629.017 310.385C629.017 301.905 622.143 295.031 613.663 295.031C605.184 295.031 598.31 301.905 598.31 310.385C598.31 318.864 605.184 325.738 613.663 325.738Z" fill="url(#paint23_linear_2004_11)"/>
<path d="M638.228 329.43C646.707 329.43 653.581 322.556 653.581 314.077C653.581 305.597 646.707 298.723 638.228 298.723C629.748 298.723 622.874 305.597 622.874 314.077C622.874 322.556 629.748 329.43 638.228 329.43Z" fill="url(#paint24_linear_2004_11)"/>
<path d="M366.4 406.014C366.693 381.888 367.534 375.637 369.617 347.891C370.312 338.752 376.38 330.892 385.044 327.895C423.61 314.516 536.567 282.31 648.172 318.354C656.689 321.096 662.867 328.48 664 337.363L677.782 404.223C678.952 413.326 671.86 421.368 662.721 421.368H381.608C373.127 421.404 366.291 414.495 366.4 406.014Z" fill="url(#paint25_linear_2004_11)"/>
<path d="M337.23 426.888C350.211 426.888 360.735 416.364 360.735 403.383C360.735 390.401 350.211 379.878 337.23 379.878C324.248 379.878 313.724 390.401 313.724 403.383C313.724 416.364 324.248 426.888 337.23 426.888Z" fill="url(#paint26_linear_2004_11)"/>
<path d="M376.746 413.727C389.728 413.727 400.251 403.203 400.251 390.222C400.251 377.24 389.728 366.716 376.746 366.716C363.764 366.716 353.241 377.24 353.241 390.222C353.241 403.203 363.764 413.727 376.746 413.727Z" fill="url(#paint27_linear_2004_11)"/>
<path d="M419.041 409.011C432.023 409.011 442.546 398.488 442.546 385.506C442.546 372.525 432.023 362.001 419.041 362.001C406.059 362.001 395.536 372.525 395.536 385.506C395.536 398.488 406.059 409.011 419.041 409.011Z" fill="url(#paint28_linear_2004_11)"/>
<path d="M462.286 405.246C475.268 405.246 485.791 394.722 485.791 381.741C485.791 368.759 475.268 358.235 462.286 358.235C449.304 358.235 438.781 368.759 438.781 381.741C438.781 394.722 449.304 405.246 462.286 405.246Z" fill="url(#paint29_linear_2004_11)"/>
<path d="M504.618 401.481C517.599 401.481 528.123 390.957 528.123 377.975C528.123 364.994 517.599 354.47 504.618 354.47C491.636 354.47 481.112 364.994 481.112 377.975C481.112 390.957 491.636 401.481 504.618 401.481Z" fill="url(#paint30_linear_2004_11)"/>
<path d="M547.863 401.481C560.844 401.481 571.368 390.957 571.368 377.975C571.368 364.994 560.844 354.47 547.863 354.47C534.881 354.47 524.358 364.994 524.358 377.975C524.358 390.957 534.881 401.481 547.863 401.481Z" fill="url(#paint31_linear_2004_11)"/>
<path d="M590.159 403.383C603.14 403.383 613.664 392.859 613.664 379.877C613.664 366.896 603.14 356.372 590.159 356.372C577.177 356.372 566.653 366.896 566.653 379.877C566.653 392.859 577.177 403.383 590.159 403.383Z" fill="url(#paint32_linear_2004_11)"/>
<path d="M630.588 405.246C643.57 405.246 654.094 394.722 654.094 381.741C654.094 368.759 643.57 358.235 630.588 358.235C617.607 358.235 607.083 368.759 607.083 381.741C607.083 394.722 617.607 405.246 630.588 405.246Z" fill="url(#paint33_linear_2004_11)"/>
<path d="M669.155 411.827C682.136 411.827 692.66 401.303 692.66 388.321C692.66 375.34 682.136 364.816 669.155 364.816C656.173 364.816 645.649 375.34 645.649 388.321C645.649 401.303 656.173 411.827 669.155 411.827Z" fill="url(#paint34_linear_2004_11)"/>
<path d="M706.771 417.492C719.753 417.492 730.276 406.969 730.276 393.987C730.276 381.005 719.753 370.482 706.771 370.482C693.789 370.482 683.266 381.005 683.266 393.987C683.266 406.969 693.789 417.492 706.771 417.492Z" fill="url(#paint35_linear_2004_11)"/>
<path d="M290.474 534.762C290.949 497.804 292.192 488.227 295.409 445.749C296.469 431.748 305.754 419.758 319.024 415.152C378.098 394.644 551.08 345.33 721.977 400.566C734.991 404.77 744.459 416.102 746.214 429.664L767.343 532.093C769.134 546.021 758.277 558.34 744.276 558.34H313.724C300.746 558.34 290.291 547.739 290.474 534.762Z" fill="url(#paint36_linear_2004_11)"/>
<path d="M519.202 461.644C519.202 461.644 529.876 413.574 544.426 419.678C558.975 425.783 557.037 437.152 561.863 440.661C566.725 444.171 584.162 469.504 519.202 461.644Z" fill="url(#paint37_linear_2004_11)"/>
<path d="M521.14 461.644C521.14 461.644 526.002 412.696 510.466 413.573C494.966 414.451 499.791 435.434 486.229 436.311C472.667 437.152 466.855 465.153 521.14 461.644Z" fill="url(#paint38_linear_2004_11)"/>
<path d="M485.06 577.051H549.617C557.074 577.051 563.289 571.896 563.91 565.17L572.208 473.891C572.903 466.36 566.286 459.89 557.915 459.89H485.06C477.127 459.89 470.73 465.666 470.73 472.83V564.11C470.73 571.275 477.164 577.051 485.06 577.051Z" fill="#3B7FD1"/>
<path d="M510.466 577.051H532.765V459.89H510.466V577.051Z" fill="url(#paint39_linear_2004_11)"/>
<path d="M436.952 487.341C436.952 487.341 447.627 439.271 462.176 445.375C476.725 451.48 474.788 462.849 479.613 466.358C484.438 469.868 501.875 495.237 436.952 487.341Z" fill="url(#paint40_linear_2004_11)"/>
<path d="M438.89 487.343C438.89 487.343 443.752 438.395 428.215 439.272C412.716 440.149 417.541 461.132 403.979 462.009C390.417 462.887 384.568 490.852 438.89 487.343Z" fill="url(#paint41_linear_2004_11)"/>
<path d="M402.809 577.049H467.366C474.824 577.049 481.038 571.895 481.66 565.169L489.958 499.588C490.652 492.057 484.036 485.587 475.665 485.587H402.809C394.876 485.587 388.479 491.363 388.479 498.528V564.108C388.479 571.273 394.876 577.049 402.809 577.049Z" fill="#E8811F"/>
<path d="M428.216 577.049H450.515V485.624H428.216V577.049Z" fill="url(#paint42_linear_2004_11)"/>
<path d="M267.129 328.194C270.383 334.628 276.012 346.801 278.206 351.59C278.681 352.613 279.96 352.869 280.801 352.175L296.301 339.38C297.288 338.576 297.032 337.004 295.862 336.492L269.286 325.855C267.824 325.306 266.398 326.805 267.129 328.194Z" fill="url(#paint43_linear_2004_11)"/>
<path d="M302.662 569.242C302.662 569.242 301.748 574.397 301.309 579.478C301.126 581.488 302.662 583.206 304.672 583.28C311.472 583.572 325.984 584.12 331.212 583.864C331.979 583.828 332.491 583.024 332.235 582.293C331.979 581.671 331.541 581.196 330.919 580.903L306.939 569.864L302.662 569.242Z" fill="url(#paint44_linear_2004_11)"/>
<path d="M301.931 566.245L302.662 572.423C302.662 572.423 306.866 574.397 309.754 572.167L307.999 565.294L301.931 566.245Z" fill="url(#paint45_linear_2004_11)"/>
<path d="M302.479 450.401C302.15 452.009 300.797 530.714 309.205 565.953C309.351 566.538 309.059 567.123 308.51 567.342C307.231 567.854 304.709 568.622 301.674 568.732C300.724 568.768 299.883 568.147 299.627 567.269C297.215 559.081 285.7 518.102 284.201 478.951C282.519 435.194 284.201 477.452 284.201 477.452L285.188 450.401H302.479Z" fill="url(#paint46_linear_2004_11)"/>
<path d="M275.062 571.947C275.062 571.947 273.6 574.542 272.211 581.451C271.955 582.694 272.832 583.901 274.112 584.01C276.341 584.23 279.814 584.522 282.556 584.486C283.835 584.486 284.822 583.352 284.676 582.11C284.384 579.587 283.433 575.456 280.472 572.239L275.062 571.947Z" fill="url(#paint47_linear_2004_11)"/>
<path d="M273.783 564.014L275.501 573.336C275.501 573.336 277.182 574.579 280.545 573.665L279.741 563.648L273.783 564.014Z" fill="url(#paint48_linear_2004_11)"/>
<path d="M269.177 452.812C262.304 494.34 270.676 555.424 273.49 567.378C273.673 568.109 274.258 568.657 274.989 568.803C276.232 569.023 278.316 569.169 280.363 568.584C281.057 568.365 281.569 567.743 281.606 567.012C281.971 557.362 281.313 497.995 287.71 474.526C288.039 473.32 288.771 472.296 289.758 471.602L302.187 462.755L303.137 448.462L269.177 452.812Z" fill="url(#paint49_linear_2004_11)"/>
<path d="M314.652 379.7C294.034 379.371 269.652 379.517 269.652 379.517C263.51 415.378 268.592 456.723 268.592 456.723C284.566 460.927 302.552 454.164 302.552 454.164C305.184 439.213 321.012 379.81 314.652 379.7Z" fill="url(#paint50_linear_2004_11)"/>
<path d="M277.548 399.514L269.652 379.554C269.652 379.554 250.387 392.641 247.243 409.238C250.899 409.494 257.516 410.444 263.986 413.734C265.375 405.875 277.548 399.514 277.548 399.514Z" fill="url(#paint51_linear_2004_11)"/>
<path d="M294.4 418.305C294.4 418.305 272.796 430.515 265.485 420.096C263.986 417.939 263.62 415.783 263.986 413.736C257.515 410.446 250.899 409.532 247.243 409.239C246.293 414.247 246.805 419.548 249.729 424.922C262.524 448.281 297.251 423.642 297.251 423.642L294.4 418.305Z" fill="url(#paint52_linear_2004_11)"/>
<path d="M289.83 361.935L284.493 377.398C283.616 379.994 285.224 382.735 287.929 383.211C290.927 383.722 295.058 383.54 299.627 380.615C300.431 380.103 300.943 379.263 301.053 378.349L303.173 361.935H289.83Z" fill="url(#paint53_linear_2004_11)"/>
<path d="M304.087 344.353C304.087 344.353 311.289 357.915 310.375 363.399C309.461 368.882 300.542 368.48 292.719 364.02L287.272 349.361L304.087 344.353Z" fill="url(#paint54_linear_2004_11)"/>
<path d="M293.048 356.853C293.377 356.707 293.486 356.342 293.304 356.049C292.719 355.172 291.659 353.381 291.293 351.809C291.293 351.809 290.014 350.968 294.583 349.871C299.189 348.775 306.025 347.057 307.451 343.145C308.84 339.343 305.184 329.766 299.299 337.406C299.08 337.698 298.641 337.698 298.422 337.406C297.471 336.163 294.912 333.531 291.403 335.139C288.113 336.602 287.747 339.014 287.784 340.257C287.784 340.623 287.491 340.879 287.126 340.842C285.444 340.513 281.46 340.257 279.595 344.351C278.06 347.715 279.047 349.652 279.961 350.566C280.253 350.858 280.144 351.37 279.705 351.48C278.608 351.809 277.183 352.759 277.329 355.318C277.512 358.864 281.496 358.535 282.629 358.389C282.812 358.352 282.995 358.425 283.141 358.572C284.092 359.632 288.478 364.201 293.194 364.75C293.596 364.786 293.925 364.384 293.779 364.018L291.732 358.096C291.622 357.804 291.768 357.511 292.024 357.402L293.048 356.853Z" fill="#6A3C30"/>
<path d="M293.888 357.695C293.888 357.695 288.77 354.186 288.368 357.147C288.003 360.108 292.974 361.424 295.46 360.327L293.888 357.695Z" fill="url(#paint55_linear_2004_11)"/>
<path d="M317.695 387.41C317.695 387.41 312.175 362.442 304.608 365.623C297.077 368.803 298.064 374.689 295.542 376.516C293.02 378.344 283.954 391.504 317.695 387.41Z" fill="#7111BC"/>
<path d="M316.662 388.037C316.662 388.037 314.14 362.63 322.182 363.069C330.225 363.508 327.702 374.401 334.757 374.877C341.813 375.315 344.847 389.864 316.662 388.037Z" fill="#7111BC"/>
<path d="M335.379 434.608H301.894C298.019 434.608 294.802 431.94 294.473 428.431L290.16 394.397C289.794 390.486 293.23 387.123 297.581 387.123H335.379C339.473 387.123 342.837 390.12 342.837 393.849V427.882C342.837 431.574 339.51 434.608 335.379 434.608Z" fill="#9732E5"/>
<path d="M322.219 387.123H310.631V434.572H322.219V387.123Z" fill="#6814A8"/>
<path d="M290.014 425.323C290.014 425.323 288.369 418.56 289.027 416.184C289.685 413.771 290.964 410.7 295.241 411.395C299.518 412.089 304.563 413.881 304.563 413.881C304.563 413.881 304.307 416.988 301.054 416.001L303.064 417.573C303.064 417.573 302.772 420.058 300.03 418.742L301.894 420.826C301.894 420.826 300.725 422.873 298.678 421.557C296.704 420.205 295.753 426.163 290.014 425.323Z" fill="url(#paint56_linear_2004_11)"/>
<path d="M717.214 355.049L735.638 346.165C736.516 345.727 737.539 346.531 737.283 347.518C735.675 353.696 731.654 369.488 732.202 370.036C732.897 370.731 717.214 355.049 717.214 355.049Z" fill="url(#paint57_linear_2004_11)"/>
<path d="M680.805 403.01C680.805 403.01 684.424 386.706 689.359 388.79C694.294 390.874 693.636 394.712 695.281 395.882C696.89 397.088 702.812 405.679 680.805 403.01Z" fill="#C50DA8"/>
<path d="M681.463 403.01C681.463 403.01 683.108 386.414 677.844 386.707C672.58 386.999 674.225 394.127 669.619 394.42C665.05 394.749 663.076 404.217 681.463 403.01Z" fill="#C50DA8"/>
<path d="M669.692 429.184H691.552C694.074 429.184 696.195 427.429 696.377 425.162L698.754 407.177C698.973 404.618 696.743 402.425 693.928 402.425H669.253C666.585 402.425 664.391 404.399 664.391 406.812L664.83 424.797C664.83 427.21 667.023 429.184 669.692 429.184Z" fill="url(#paint58_linear_2004_11)"/>
<path d="M678.282 429.184H685.849L685.411 402.425H677.844L678.282 429.184Z" fill="#AE0A94"/>
<path d="M706.101 510.739L705.48 522.437C705.48 522.437 709.099 561.551 709.866 578.879C709.976 581.584 709.281 584.289 707.856 586.592L700.435 598.655L719.334 587.506L719.7 585.203L716.593 580.963L720.65 532.453C720.906 529.602 720.285 526.75 718.969 524.228L715.057 516.88L706.101 510.739Z" fill="url(#paint59_linear_2004_11)"/>
<path d="M699.156 600.411H705.188C706.321 600.411 707.381 599.899 708.075 598.985C709.94 596.536 713.851 591.784 715.716 591.637C718.238 591.455 717.909 600.374 717.909 600.374H719.298L721.089 589.298C721.528 586.52 720.139 583.741 717.653 582.462C717.653 582.462 717.068 586.702 713.961 588.567C710.854 590.431 701.313 597.157 701.313 597.157C701.313 597.157 700.143 596.975 698.863 597.23C696.963 597.596 697.218 600.411 699.156 600.411Z" fill="url(#paint60_linear_2004_11)"/>
<path d="M722.332 510.739L721.052 518.233C721.052 518.233 725.329 561.515 726.097 578.842C726.207 581.547 725.512 584.252 724.086 586.555L716.666 598.619L735.565 587.469L735.93 585.166L732.823 580.926L736.881 532.416C737.137 529.565 736.515 526.714 735.199 524.191L731.288 516.844L722.332 510.739Z" fill="url(#paint61_linear_2004_11)"/>
<path d="M743.9 461.061C742.876 452.762 732.495 444.976 732.495 444.976C719.408 449.655 710.049 442.746 710.049 442.746C710.049 442.746 705.992 451.117 705.919 459.671C705.882 468.189 705.37 522.986 705.37 522.986C720.504 529.347 736.15 526.203 736.15 526.203C734.98 506.463 744.923 469.359 743.9 461.061Z" fill="url(#paint62_linear_2004_11)"/>
<path d="M713.778 359.948C713.778 359.948 724.781 352.235 730.63 366.016C731.69 368.539 737.904 368.941 738.526 374.058C738.855 376.69 740.792 378.811 743.424 379.213C749.968 380.2 760.057 383.6 761.665 394.968C762.908 403.632 758.485 406.922 753.843 408.055C750.443 408.896 748.176 412.223 748.871 415.659C749.529 418.949 748.542 422.787 742.839 425.785C730.008 432.548 717.214 409.773 717.214 409.773L714.582 370.001L713.778 359.948Z" fill="url(#paint63_linear_2004_11)"/>
<path d="M715.423 600.411H721.454C722.588 600.411 723.648 599.899 724.342 598.985C726.207 596.536 730.118 591.783 731.982 591.637C734.505 591.454 734.176 600.374 734.176 600.374H735.565L737.356 589.298C737.795 586.519 736.406 583.741 733.92 582.462C733.92 582.462 733.335 586.702 730.228 588.567C727.12 590.431 717.579 597.157 717.579 597.157C717.579 597.157 716.41 596.974 715.13 597.23C713.193 597.596 713.485 600.411 715.423 600.411Z" fill="url(#paint64_linear_2004_11)"/>
<path d="M732.385 445.268C728.364 428.196 733.226 415.731 737.43 408.785C740.062 404.471 738.051 398.842 733.372 397.051C725.842 394.163 717.214 393.614 712.791 393.541C710.89 393.505 709.099 394.419 707.966 395.954C704.749 400.304 698.717 409.772 700.289 417.412C701.532 423.444 709.94 447.497 709.94 447.497C709.94 447.497 720.468 452.433 732.385 445.268Z" fill="#FD5E06"/>
<path d="M720.431 374.35L724.635 395.15C725.147 397.234 722.149 397.672 719.992 397.855C716.337 398.147 714.29 397.307 712.827 394.601C712.681 394.346 712.608 394.017 712.572 393.724L710.305 377.384C710.122 376.068 710.817 374.825 712.023 374.313L716.373 372.376C718.055 371.608 719.992 372.558 720.431 374.35Z" fill="url(#paint65_linear_2004_11)"/>
<path d="M711.658 359.034C711.658 359.034 706.54 362.397 704.237 371.17C701.934 379.907 705.443 383.087 709.099 382.941C712.755 382.795 718.019 381.735 722.698 375.484C727.34 369.269 718.348 354.903 711.658 359.034Z" fill="url(#paint66_linear_2004_11)"/>
<path d="M718.092 371.902C718.092 371.902 720.102 359.363 709.647 361.155L707.527 363.311C707.527 363.311 702.483 357.499 708.185 353.222C713.888 348.945 721.711 350.151 725.951 358.12C730.192 366.09 731.691 371.683 727.998 376.545C724.306 381.406 721.601 377.166 721.601 377.166C721.601 377.166 723.319 372.926 721.967 371.098C720.614 369.27 718.786 372.121 718.786 372.121L718.092 371.902Z" fill="url(#paint67_linear_2004_11)"/>
<path d="M676.966 426.442C676.601 425.821 677.186 425.053 677.88 425.272C680.476 426.04 685.264 426.917 688.554 424.651C688.737 424.541 688.883 424.432 689.03 424.322C688.701 423.92 688.189 423.627 687.458 423.627C685.374 423.7 684.424 420.666 684.424 420.666C684.424 420.666 686.288 421.653 688.225 420.995C689.907 420.41 692.429 421.178 693.672 423.079C699.192 428.818 706.32 436.714 718.749 430.756C727.961 426.332 727.998 413.319 727.413 406.885C727.194 404.362 728.693 401.986 731.105 401.219C734.286 400.232 736.918 400.743 738.892 403.156C739.879 404.362 740.317 405.898 740.244 407.47C739.842 414.269 737.393 436.385 721.637 441.064C702.957 446.621 691.954 428.526 691.954 428.526C691.954 428.526 682.377 435.581 676.966 426.442Z" fill="url(#paint68_linear_2004_11)"/>
<path d="M813.332 330.586L831.464 316.475C831.866 316.146 832.487 316.475 832.414 317.024L829.709 339.871L813.332 330.586Z" fill="url(#paint69_linear_2004_11)"/>
<path d="M886.297 475.969C886.297 475.969 889.222 471.656 892.402 467.634C893.645 466.063 895.838 465.734 897.191 466.903C901.833 470.851 911.703 479.296 914.92 482.622C915.396 483.134 915.213 484.011 914.518 484.377C913.933 484.669 913.312 484.742 912.727 484.596L889.514 478.053L886.297 475.969Z" fill="#401A11"/>
<path d="M883.812 477.796L888.564 473.775C888.564 473.775 892.987 475.201 893.572 478.783L887.613 482.621L883.812 477.796Z" fill="url(#paint70_linear_2004_11)"/>
<path d="M778.823 370.761C771.439 354.165 764.457 329.38 772.572 304.595L777.288 299.88C777.288 299.88 777.288 338.702 786.939 357.967C784.234 362.244 781.565 366.521 778.823 370.761Z" fill="url(#paint71_linear_2004_11)"/>
<path d="M778.421 292.496L780.212 295.164C780.688 295.895 780.834 296.809 780.541 297.65C779.81 299.843 778.202 304.12 775.899 306.423C772.718 309.604 769.575 302 768.917 299.441C768.295 296.919 772.718 290.558 773.998 289.315C775.241 288.036 780.322 288.694 778.421 292.496Z" fill="url(#paint72_linear_2004_11)"/>
<path d="M802.694 553.539C802.694 553.539 803.608 558.693 804.046 563.774C804.229 565.785 802.694 567.503 800.683 567.576C793.884 567.869 779.371 568.417 774.144 568.161C773.376 568.125 772.864 567.32 773.12 566.589C773.376 565.968 773.815 565.492 774.436 565.2L798.417 554.16L802.694 553.539Z" fill="#401A11"/>
<path d="M803.426 550.542L802.694 556.719C802.694 556.719 798.491 558.693 795.603 556.464L797.357 549.591L803.426 550.542Z" fill="url(#paint73_linear_2004_11)"/>
<path d="M802.877 434.66C803.206 436.269 804.559 514.973 796.151 550.213C796.005 550.798 796.297 551.383 796.846 551.602C798.125 552.114 800.647 552.882 803.682 552.991C804.632 553.028 805.473 552.406 805.729 551.529C808.141 543.341 824.665 496.001 826.163 456.85C827.845 413.093 820.168 434.66 820.168 434.66H802.877Z" fill="url(#paint74_linear_2004_11)"/>
<path d="M839.213 436.086C846.269 453.889 848.571 456.667 851.715 476.955C855.481 501.301 873.905 484.486 883.738 476.59C884.981 475.603 888.673 479.185 889.039 484.193C889.514 490.737 849.741 521.919 838.994 499.876C832.122 485.802 830.221 469.973 825.651 461.236C825.066 460.14 824.152 459.299 823.019 458.787L808.982 452.792L805.034 439.01L839.213 436.086Z" fill="url(#paint75_linear_2004_11)"/>
<path d="M846.89 372.917C854.274 356.321 861.257 331.536 853.141 306.752L848.426 302.036C848.426 302.036 848.426 340.858 838.775 360.123C841.48 364.4 844.185 368.64 846.89 372.917Z" fill="url(#paint76_linear_2004_11)"/>
<path d="M802.877 366.959H826.089C828.429 366.959 830.659 366.082 832.34 364.473C834.497 362.426 837.275 358.917 839.249 353.434C839.542 352.593 840.456 352.154 841.297 352.41C844.294 353.287 850.838 355.846 854.237 361.732C854.566 362.28 854.566 362.975 854.201 363.523L839.725 385.932L841.15 441.204C841.15 441.204 804.777 446.907 799.769 441.204L794.761 390.538C794.761 390.538 776.922 379.827 771.914 362.719L786.902 354.165C786.902 354.165 788.656 354.238 790.119 358.259C792.129 363.486 797.247 366.959 802.877 366.959Z" fill="url(#paint77_linear_2004_11)"/>
<path d="M822.727 350.071L823.275 367.983C823.312 369.116 822.581 370.176 821.521 370.542C819.291 371.273 815.269 372.187 810.737 371.237C809.384 370.944 808.543 369.628 808.763 368.276L811.212 354.165L822.727 350.071Z" fill="url(#paint78_linear_2004_11)"/>
<path d="M810.48 333.657C810.334 333.876 804.887 348.608 802.511 355.079C801.89 356.724 802.804 358.515 804.485 359.063L809.713 360.014C813.186 360.635 816.622 358.807 818.011 355.554L824.335 348.206C827.771 344.222 826.602 338.044 821.886 335.631C817.28 333.328 812.199 331.5 810.48 333.657Z" fill="url(#paint79_linear_2004_11)"/>
<path d="M820.898 349.888L819.4 349.121C819.4 349.121 825.395 339.36 818.632 338.629C811.869 337.862 805.874 336.363 805.874 332.634C805.874 328.869 805.874 322.143 814.136 325.14C822.397 328.138 821.629 333.402 826.126 334.133C830.622 334.864 834.387 335.632 832.889 340.128C831.39 344.624 828.392 347.622 829.891 349.121C831.39 350.62 824.627 358.113 820.898 349.888Z" fill="#E6A719"/>
<path d="M819.29 352.813C819.29 352.813 820.532 346.233 823.311 346.05C826.089 345.904 828.648 348.316 825.687 351.899C821.995 356.322 819.29 352.813 819.29 352.813Z" fill="url(#paint80_linear_2004_11)"/>
<path d="M847.292 294.615L845.501 297.284C845.026 298.015 844.879 298.929 845.172 299.769C845.903 301.963 847.511 306.24 849.814 308.543C852.995 311.723 856.139 304.119 856.797 301.561C857.418 299.038 852.995 292.678 851.715 291.435C850.436 290.192 845.391 290.813 847.292 294.615Z" fill="url(#paint81_linear_2004_11)"/>
<path d="M829.043 394.629L830.258 392.575C830.289 392.519 830.331 392.47 830.381 392.429C830.427 392.396 830.482 392.378 830.538 392.376L831.723 392.306L831.834 392.316C831.84 392.315 831.847 392.316 831.854 392.319C831.86 392.321 831.866 392.325 831.871 392.33C831.876 392.335 831.879 392.341 831.882 392.347C831.884 392.354 831.885 392.36 831.885 392.367C831.883 392.404 831.871 392.44 831.851 392.471L831.831 392.503C831.547 392.981 831.247 393.489 830.931 394.026L829.971 395.652L832.064 398.388C832.1 398.436 832.133 398.484 832.165 398.53C832.197 398.577 832.23 398.623 832.261 398.668C832.268 398.68 832.273 398.693 832.276 398.707C832.282 398.722 832.286 398.738 832.288 398.754C832.29 398.798 832.259 398.822 832.195 398.826L830.934 398.9C830.835 398.906 830.75 398.857 830.679 398.752C830.427 398.42 830.176 398.089 829.926 397.758C829.675 397.428 829.423 397.096 829.169 396.765L828.39 395.743L829.043 394.629Z" fill="#6FAA27"/>
<path d="M827.132 394.821C827.017 394.497 826.847 394.195 826.63 393.928C826.469 393.731 826.285 393.555 826.081 393.404C825.671 393.099 825.198 392.892 824.696 392.798C824.444 392.751 824.187 392.734 823.931 392.749C823.628 392.765 823.329 392.823 823.043 392.921C822.502 393.106 822.022 393.433 821.652 393.869C821.352 394.217 821.13 394.626 820.999 395.067L820.785 391.424C820.783 391.382 820.772 391.341 820.752 391.304C820.733 391.267 820.704 391.235 820.67 391.211C820.607 391.162 820.528 391.136 820.447 391.14L819.614 391.189C819.571 391.189 819.528 391.198 819.489 391.216C819.45 391.233 819.414 391.258 819.386 391.29C819.334 391.353 819.31 391.433 819.317 391.514L819.454 393.838C819.2 393.601 818.904 393.414 818.581 393.286C818.258 393.157 817.89 393.105 817.476 393.129C817.037 393.152 816.608 393.267 816.216 393.466C815.737 393.713 815.326 394.074 815.019 394.516C814.711 394.958 814.517 395.469 814.452 396.004C814.434 395.937 814.414 395.869 814.391 395.803C814.297 395.529 814.169 395.268 814.009 395.027C813.691 394.548 813.255 394.16 812.744 393.9C812.485 393.77 812.212 393.672 811.929 393.61C811.341 393.485 810.731 393.521 810.162 393.714C809.889 393.808 809.628 393.937 809.387 394.096C809.15 394.254 808.935 394.443 808.747 394.658C808.558 394.872 808.397 395.109 808.267 395.363C808.135 395.621 808.038 395.895 807.979 396.179C807.868 396.71 807.886 397.259 808.032 397.781C808.01 397.862 807.982 397.942 807.949 398.02C807.74 398.52 807.341 398.917 806.841 399.125C806.583 399.234 806.306 399.287 806.026 399.282C805.745 399.281 805.467 399.222 805.21 399.107C804.966 398.998 804.746 398.843 804.561 398.651C804.377 398.456 804.231 398.228 804.133 397.979C803.978 397.591 803.939 397.166 804.021 396.757C804.103 396.348 804.303 395.971 804.595 395.672C804.783 395.483 805.007 395.332 805.254 395.229C805.513 395.12 805.792 395.066 806.073 395.072C806.352 395.072 806.629 395.13 806.884 395.243C807.027 395.307 807.163 395.388 807.288 395.482C807.314 395.502 807.344 395.515 807.375 395.522C807.407 395.529 807.44 395.529 807.471 395.522C807.503 395.515 807.533 395.502 807.559 395.482C807.585 395.463 807.607 395.438 807.622 395.41L808.003 394.73C808.031 394.68 808.04 394.621 808.027 394.565C808.014 394.509 807.98 394.46 807.933 394.427C807.878 394.389 807.822 394.353 807.764 394.319C807.516 394.171 807.25 394.055 806.972 393.974C806.395 393.808 805.783 393.801 805.202 393.954C804.923 394.029 804.654 394.139 804.403 394.281C804.155 394.422 803.926 394.594 803.723 394.795C803.519 394.995 803.341 395.22 803.193 395.465C803.044 395.714 802.929 395.982 802.85 396.262C802.686 396.827 802.676 397.425 802.819 397.996C802.962 398.566 803.255 399.088 803.666 399.509C803.866 399.713 804.09 399.891 804.334 400.039C804.717 400.266 805.14 400.415 805.581 400.477C806.022 400.54 806.47 400.514 806.901 400.402C807.458 400.256 807.968 399.968 808.381 399.566C808.524 399.427 808.654 399.275 808.769 399.112C808.848 399.199 808.931 399.282 809.018 399.361C809.231 399.55 809.468 399.711 809.722 399.841C810.119 400.041 810.552 400.16 810.996 400.192C811.439 400.224 811.885 400.167 812.307 400.026C812.853 399.841 813.342 399.518 813.725 399.088C813.916 398.876 814.078 398.639 814.206 398.385C814.336 398.128 814.433 397.855 814.495 397.573C814.512 397.494 814.526 397.414 814.538 397.333C814.591 397.54 814.664 397.741 814.757 397.934C815.12 398.708 815.774 399.308 816.577 399.604C816.989 399.757 817.43 399.82 817.869 399.791C818.062 399.78 818.254 399.747 818.44 399.691C818.791 399.588 819.118 399.414 819.401 399.182C819.534 399.072 819.659 398.953 819.774 398.824L819.843 399.252C819.869 399.332 819.908 399.407 819.958 399.475C819.998 399.523 820.069 399.545 820.17 399.539L820.932 399.494C821.15 399.481 821.251 399.373 821.239 399.169L821.135 397.407C821.157 397.456 821.18 397.504 821.205 397.551C821.605 398.33 822.29 398.926 823.118 399.213C823.539 399.361 823.986 399.423 824.432 399.395C824.831 399.376 825.222 399.279 825.583 399.108C825.93 398.941 826.248 398.72 826.525 398.452C826.648 398.35 826.707 398.252 826.701 398.157C826.698 398.118 826.686 398.08 826.666 398.047C826.639 398.002 826.607 397.96 826.571 397.921C826.528 397.872 826.471 397.813 826.403 397.743C826.334 397.672 826.251 397.583 826.153 397.477C826.12 397.437 826.079 397.405 826.033 397.382C826 397.366 825.964 397.358 825.927 397.358C825.886 397.361 825.846 397.374 825.812 397.398C825.772 397.425 825.735 397.457 825.701 397.492C825.7 397.492 825.699 397.492 825.699 397.492C825.698 397.493 825.697 397.493 825.697 397.494C825.696 397.494 825.696 397.495 825.696 397.495C825.696 397.496 825.696 397.497 825.696 397.498C825.616 397.579 825.529 397.653 825.437 397.719C825.333 397.793 825.224 397.859 825.109 397.914C824.985 397.974 824.856 398.022 824.723 398.059C824.581 398.098 824.435 398.121 824.287 398.128C824.083 398.14 823.879 398.118 823.682 398.064C823.479 398.01 823.286 397.922 823.112 397.803C822.933 397.679 822.776 397.527 822.647 397.352C822.509 397.164 822.409 396.949 822.356 396.722L826.854 396.457C826.95 396.454 827.045 396.439 827.137 396.413C827.195 396.396 827.246 396.363 827.284 396.316C827.317 396.268 827.336 396.211 827.338 396.153C827.343 396.07 827.342 395.988 827.336 395.906C827.319 395.537 827.25 395.172 827.132 394.821ZM813.185 397.576C813.098 397.83 812.963 398.065 812.787 398.268C812.611 398.469 812.397 398.634 812.159 398.755C811.907 398.879 811.634 398.952 811.354 398.968C811.075 398.984 810.795 398.944 810.531 398.85C810.023 398.666 809.608 398.289 809.377 397.8C809.196 397.424 809.128 397.003 809.181 396.588C809.234 396.174 809.407 395.784 809.678 395.465C809.854 395.263 810.067 395.097 810.307 394.976C810.558 394.852 810.831 394.779 811.111 394.763C811.39 394.747 811.671 394.787 811.934 394.881C812.186 394.973 812.417 395.113 812.616 395.292C813.025 395.668 813.27 396.188 813.3 396.742C813.317 397.025 813.278 397.308 813.185 397.576ZM819.7 396.379C819.71 396.639 819.669 396.898 819.58 397.142C819.493 397.378 819.364 397.596 819.198 397.784C819.031 397.974 818.829 398.129 818.604 398.242C818.371 398.36 818.117 398.428 817.857 398.441C817.599 398.459 817.34 398.421 817.099 398.328C816.869 398.239 816.658 398.107 816.479 397.938C816.297 397.765 816.15 397.559 816.046 397.33C815.828 396.847 815.795 396.3 815.956 395.795C816.032 395.553 816.154 395.327 816.314 395.13C816.471 394.936 816.665 394.774 816.884 394.653C817.111 394.529 817.364 394.457 817.623 394.445C817.888 394.427 818.153 394.468 818.401 394.564C818.641 394.657 818.86 394.794 819.049 394.969C819.237 395.145 819.39 395.354 819.503 395.586C819.618 395.823 819.685 396.081 819.7 396.344L819.7 396.379ZM822.315 395.507C822.357 395.308 822.433 395.118 822.539 394.944C822.643 394.771 822.773 394.614 822.924 394.479C823.074 394.344 823.243 394.234 823.426 394.151C823.609 394.068 823.805 394.019 824.005 394.008C824.224 393.993 824.444 394.014 824.656 394.071C824.852 394.124 825.038 394.21 825.205 394.327C825.367 394.442 825.51 394.583 825.626 394.745C825.748 394.913 825.842 395.1 825.906 395.298L822.315 395.507Z" fill="#575756"/>
<path d="M829.187 394.621L829.967 395.65L829.318 394.163L829.107 394.515L829.187 394.621Z" fill="#46952B"/>
<path d="M829.966 395.643L829.964 395.647L829.965 395.648L829.966 395.643Z" fill="#46952B"/>
<path d="M829.245 396.871L829.496 397.195L829.961 395.661L829.245 396.871Z" fill="#46952B"/>
<path d="M829.967 395.65L829.313 396.756C829.099 397.115 828.887 397.474 828.677 397.832C828.468 398.189 828.257 398.548 828.046 398.907C827.988 399.019 827.91 399.078 827.81 399.084L826.546 399.158C826.482 399.162 826.449 399.142 826.446 399.098C826.446 399.082 826.448 399.066 826.452 399.05C826.453 399.036 826.457 399.022 826.463 399.009C826.489 398.961 826.515 398.911 826.542 398.861C826.568 398.811 826.596 398.76 826.626 398.708L828.387 395.743L827.242 394.243C826.865 393.747 826.508 393.278 826.171 392.836L826.148 392.807C826.124 392.778 826.109 392.744 826.102 392.708C826.101 392.701 826.101 392.694 826.103 392.687C826.105 392.681 826.108 392.674 826.112 392.669C826.116 392.664 826.122 392.659 826.128 392.656C826.134 392.653 826.14 392.651 826.147 392.65L826.256 392.628L827.439 392.558C827.496 392.553 827.552 392.565 827.602 392.593C827.656 392.627 827.704 392.671 827.741 392.723L829.189 394.622L829.967 395.65Z" fill="#93C01F"/>
<path d="M808.909 398.898C808.864 398.974 808.821 399.042 808.77 399.114C808.864 399.218 808.965 399.317 809.072 399.408C809.271 398.889 809.259 398.311 809.248 398.127C809.167 398.397 809.054 398.656 808.909 398.898Z" fill="#3C3C3B"/>
<rect x="-14" y="625" width="1156" height="82" fill="#43A725"/>
<defs>
<filter id="filter0_f_2004_11" x="153.604" y="2.81209" width="762.12" height="742.281" filterUnits="userSpaceOnUse" color-interpolation-filters="sRGB">
<feFlood flood-opacity="0" result="BackgroundImageFix"/>
<feBlend mode="normal" in="SourceGraphic" in2="BackgroundImageFix" result="shape"/>
<feGaussianBlur stdDeviation="40.6" result="effect1_foregroundBlur_2004_11"/>
</filter>
<linearGradient id="paint0_linear_2004_11" x1="767.038" y1="364.479" x2="1081.26" y2="277.081" gradientUnits="userSpaceOnUse">
<stop stop-color="white" stop-opacity="0"/>
<stop offset="0.655" stop-color="#67C500" stop-opacity="0.5"/>
</linearGradient>
<linearGradient id="paint1_linear_2004_11" x1="313.904" y1="364.48" x2="-0.316703" y2="277.082" gradientUnits="userSpaceOnUse">
<stop stop-color="white" stop-opacity="0"/>
<stop offset="0.655" stop-color="#67C500" stop-opacity="0.5"/>
</linearGradient>
<linearGradient id="paint2_linear_2004_11" x1="695.84" y1="41.7762" x2="695.84" y2="151.443" gradientUnits="userSpaceOnUse">
<stop stop-color="#BD98D9"/>
<stop offset="1" stop-color="#712FA4"/>
</linearGradient>
<linearGradient id="paint3_linear_2004_11" x1="583.283" y1="229.458" x2="543.846" y2="235.266" gradientUnits="userSpaceOnUse">
<stop stop-color="#4042E2"/>
<stop offset="1" stop-color="#4F52FF"/>
</linearGradient>
<linearGradient id="paint4_linear_2004_11" x1="539.43" y1="245.39" x2="500.412" y2="251.137" gradientUnits="userSpaceOnUse">
<stop stop-color="#4042E2"/>
<stop offset="1" stop-color="#4F52FF"/>
</linearGradient>
<linearGradient id="paint5_linear_2004_11" x1="496.075" y1="261.63" x2="459.924" y2="266.954" gradientUnits="userSpaceOnUse">
<stop stop-color="#4042E2"/>
<stop offset="1" stop-color="#4F52FF"/>
</linearGradient>
<linearGradient id="paint6_linear_2004_11" x1="456.716" y1="270.232" x2="418.42" y2="275.872" gradientUnits="userSpaceOnUse">
<stop stop-color="#4042E2"/>
<stop offset="1" stop-color="#4F52FF"/>
</linearGradient>
<linearGradient id="paint7_linear_2004_11" x1="556.841" y1="54.5384" x2="561.956" y2="232.518" gradientUnits="userSpaceOnUse">
<stop stop-color="#FFBE2E"/>
<stop offset="1" stop-color="#D16D4E"/>
</linearGradient>
<linearGradient id="paint8_linear_2004_11" x1="563.163" y1="106.763" x2="541.026" y2="254.341" gradientUnits="userSpaceOnUse">
<stop stop-color="white"/>
<stop offset="1" stop-color="white"/>
</linearGradient>
<linearGradient id="paint9_linear_2004_11" x1="453.091" y1="57.4624" x2="458.188" y2="235.225" gradientUnits="userSpaceOnUse">
<stop stop-color="#FFBE2E"/>
<stop offset="1" stop-color="#D16D4E"/>
</linearGradient>
<linearGradient id="paint10_linear_2004_11" x1="462.27" y1="91.6278" x2="440.133" y2="239.206" gradientUnits="userSpaceOnUse">
<stop stop-color="white"/>
<stop offset="1" stop-color="white"/>
</linearGradient>
<linearGradient id="paint11_linear_2004_11" x1="506.065" y1="52.2344" x2="511.18" y2="230.214" gradientUnits="userSpaceOnUse">
<stop stop-color="#FFBE2E"/>
<stop offset="1" stop-color="#D16D4E"/>
</linearGradient>
<linearGradient id="paint12_linear_2004_11" x1="513.174" y1="99.2637" x2="491.037" y2="246.842" gradientUnits="userSpaceOnUse">
<stop stop-color="white"/>
<stop offset="1" stop-color="white"/>
</linearGradient>
<linearGradient id="paint13_linear_2004_11" x1="518.417" y1="421.636" x2="522.825" y2="110.41" gradientUnits="userSpaceOnUse">
<stop stop-color="#B8FF00"/>
<stop offset="0.509113" stop-color="#FBFBFB"/>
</linearGradient>
<linearGradient id="paint14_linear_2004_11" x1="483.873" y1="77.5757" x2="489.575" y2="347.617" gradientUnits="userSpaceOnUse">
<stop stop-color="#97E835"/>
<stop offset="0.723233" stop-color="#46952B"/>
</linearGradient>
<linearGradient id="paint15_linear_2004_11" x1="392.986" y1="272.452" x2="396.924" y2="354.195" gradientUnits="userSpaceOnUse">
<stop stop-color="#97E835"/>
<stop offset="0.723233" stop-color="#46952B"/>
</linearGradient>
<linearGradient id="paint16_linear_2004_11" x1="418.794" y1="263.862" x2="422.733" y2="345.606" gradientUnits="userSpaceOnUse">
<stop stop-color="#97E835"/>
<stop offset="0.723233" stop-color="#46952B"/>
</linearGradient>
<linearGradient id="paint17_linear_2004_11" x1="446.43" y1="260.791" x2="450.368" y2="342.535" gradientUnits="userSpaceOnUse">
<stop stop-color="#97E835"/>
<stop offset="0.723233" stop-color="#46952B"/>
</linearGradient>
<linearGradient id="paint18_linear_2004_11" x1="474.651" y1="258.342" x2="478.589" y2="340.086" gradientUnits="userSpaceOnUse">
<stop stop-color="#97E835"/>
<stop offset="0.723233" stop-color="#46952B"/>
</linearGradient>
<linearGradient id="paint19_linear_2004_11" x1="502.287" y1="255.893" x2="506.226" y2="337.637" gradientUnits="userSpaceOnUse">
<stop stop-color="#97E835"/>
<stop offset="0.723233" stop-color="#46952B"/>
</linearGradient>
<linearGradient id="paint20_linear_2004_11" x1="530.508" y1="255.893" x2="534.446" y2="337.637" gradientUnits="userSpaceOnUse">
<stop stop-color="#97E835"/>
<stop offset="0.723233" stop-color="#46952B"/>
</linearGradient>
<linearGradient id="paint21_linear_2004_11" x1="558.144" y1="257.1" x2="562.083" y2="338.843" gradientUnits="userSpaceOnUse">
<stop stop-color="#97E835"/>
<stop offset="0.723233" stop-color="#46952B"/>
</linearGradient>
<linearGradient id="paint22_linear_2004_11" x1="584.537" y1="258.342" x2="588.476" y2="340.086" gradientUnits="userSpaceOnUse">
<stop stop-color="#97E835"/>
<stop offset="0.723233" stop-color="#46952B"/>
</linearGradient>
<linearGradient id="paint23_linear_2004_11" x1="609.724" y1="262.62" x2="613.663" y2="344.363" gradientUnits="userSpaceOnUse">
<stop stop-color="#97E835"/>
<stop offset="0.723233" stop-color="#46952B"/>
</linearGradient>
<linearGradient id="paint24_linear_2004_11" x1="634.289" y1="266.311" x2="638.228" y2="348.055" gradientUnits="userSpaceOnUse">
<stop stop-color="#97E835"/>
<stop offset="0.723233" stop-color="#46952B"/>
</linearGradient>
<linearGradient id="paint25_linear_2004_11" x1="522.154" y1="460.383" x2="523.643" y2="241.344" gradientUnits="userSpaceOnUse">
<stop stop-color="#B8FF00"/>
<stop offset="0.602526" stop-color="#FBFBFB"/>
</linearGradient>
<linearGradient id="paint26_linear_2004_11" x1="331.2" y1="330.257" x2="337.23" y2="455.402" gradientUnits="userSpaceOnUse">
<stop stop-color="#97E835"/>
<stop offset="0.723233" stop-color="#46952B"/>
</linearGradient>
<linearGradient id="paint27_linear_2004_11" x1="370.716" y1="317.095" x2="376.746" y2="442.24" gradientUnits="userSpaceOnUse">
<stop stop-color="#97E835"/>
<stop offset="0.723233" stop-color="#46952B"/>
</linearGradient>
<linearGradient id="paint28_linear_2004_11" x1="413.011" y1="312.38" x2="419.041" y2="437.525" gradientUnits="userSpaceOnUse">
<stop stop-color="#97E835"/>
<stop offset="0.723233" stop-color="#46952B"/>
</linearGradient>
<linearGradient id="paint29_linear_2004_11" x1="456.256" y1="308.615" x2="462.286" y2="433.76" gradientUnits="userSpaceOnUse">
<stop stop-color="#97E835"/>
<stop offset="0.723233" stop-color="#46952B"/>
</linearGradient>
<linearGradient id="paint30_linear_2004_11" x1="498.588" y1="304.849" x2="504.618" y2="429.994" gradientUnits="userSpaceOnUse">
<stop stop-color="#97E835"/>
<stop offset="0.723233" stop-color="#46952B"/>
</linearGradient>
<linearGradient id="paint31_linear_2004_11" x1="541.833" y1="304.849" x2="547.863" y2="429.994" gradientUnits="userSpaceOnUse">
<stop stop-color="#97E835"/>
<stop offset="0.723233" stop-color="#46952B"/>
</linearGradient>
<linearGradient id="paint32_linear_2004_11" x1="584.129" y1="306.751" x2="590.159" y2="431.896" gradientUnits="userSpaceOnUse">
<stop stop-color="#97E835"/>
<stop offset="0.723233" stop-color="#46952B"/>
</linearGradient>
<linearGradient id="paint33_linear_2004_11" x1="624.558" y1="308.615" x2="630.588" y2="433.76" gradientUnits="userSpaceOnUse">
<stop stop-color="#97E835"/>
<stop offset="0.723233" stop-color="#46952B"/>
</linearGradient>
<linearGradient id="paint34_linear_2004_11" x1="663.125" y1="315.195" x2="669.155" y2="440.34" gradientUnits="userSpaceOnUse">
<stop stop-color="#97E835"/>
<stop offset="0.723233" stop-color="#46952B"/>
</linearGradient>
<linearGradient id="paint35_linear_2004_11" x1="700.741" y1="320.861" x2="706.771" y2="446.006" gradientUnits="userSpaceOnUse">
<stop stop-color="#97E835"/>
<stop offset="0.723233" stop-color="#46952B"/>
</linearGradient>
<linearGradient id="paint36_linear_2004_11" x1="529.004" y1="783.777" x2="531.287" y2="282.582" gradientUnits="userSpaceOnUse">
<stop stop-color="#B8FF00"/>
<stop offset="0.775856" stop-color="#FBFBFB"/>
</linearGradient>
<linearGradient id="paint37_linear_2004_11" x1="562.327" y1="419.142" x2="533.172" y2="480.849" gradientUnits="userSpaceOnUse">
<stop stop-color="#4F52FF"/>
<stop offset="1" stop-color="#1A0F91"/>
</linearGradient>
<linearGradient id="paint38_linear_2004_11" x1="493.07" y1="419.722" x2="521.86" y2="469.741" gradientUnits="userSpaceOnUse">
<stop stop-color="#4F52FF"/>
<stop offset="1" stop-color="#1A0F91"/>
</linearGradient>
<linearGradient id="paint39_linear_2004_11" x1="554.165" y1="434.659" x2="488.796" y2="601.731" gradientUnits="userSpaceOnUse">
<stop stop-color="#4F52FF"/>
<stop offset="1" stop-color="#1A0F91"/>
</linearGradient>
<linearGradient id="paint40_linear_2004_11" x1="497.788" y1="383.714" x2="449.138" y2="488.856" gradientUnits="userSpaceOnUse">
<stop stop-color="#F0B076"/>
<stop offset="1" stop-color="#D34A00"/>
</linearGradient>
<linearGradient id="paint41_linear_2004_11" x1="433.701" y1="386.054" x2="425.281" y2="482.885" gradientUnits="userSpaceOnUse">
<stop stop-color="#F0B076"/>
<stop offset="1" stop-color="#D34A00"/>
</linearGradient>
<linearGradient id="paint42_linear_2004_11" x1="480.037" y1="420.206" x2="406.006" y2="651.009" gradientUnits="userSpaceOnUse">
<stop stop-color="#F0B076"/>
<stop offset="0.528706" stop-color="#D34A00"/>
</linearGradient>
<linearGradient id="paint43_linear_2004_11" x1="266.925" y1="339.154" x2="296.898" y2="339.154" gradientUnits="userSpaceOnUse">
<stop stop-color="#46952B"/>
<stop offset="1" stop-color="#6FAA27"/>
</linearGradient>
<linearGradient id="paint44_linear_2004_11" x1="307.265" y1="482.616" x2="309.091" y2="566.876" gradientUnits="userSpaceOnUse">
<stop stop-color="#02010B"/>
<stop offset="1" stop-color="#161244"/>
</linearGradient>
<linearGradient id="paint45_linear_2004_11" x1="301.923" y1="569.235" x2="309.728" y2="569.235" gradientUnits="userSpaceOnUse">
<stop stop-color="#FF928E"/>
<stop offset="1" stop-color="#FEB3B1"/>
</linearGradient>
<linearGradient id="paint46_linear_2004_11" x1="283.416" y1="509.557" x2="309.223" y2="509.557" gradientUnits="userSpaceOnUse">
<stop stop-color="#09005D"/>
<stop offset="1" stop-color="#1A0F91"/>
</linearGradient>
<linearGradient id="paint47_linear_2004_11" x1="274.578" y1="497.981" x2="277.868" y2="569.81" gradientUnits="userSpaceOnUse">
<stop stop-color="#02010B"/>
<stop offset="1" stop-color="#161244"/>
</linearGradient>
<linearGradient id="paint48_linear_2004_11" x1="273.794" y1="568.834" x2="280.533" y2="568.834" gradientUnits="userSpaceOnUse">
<stop stop-color="#FF928E"/>
<stop offset="1" stop-color="#FEB3B1"/>
</linearGradient>
<linearGradient id="paint49_linear_2004_11" x1="266.531" y1="508.711" x2="303.169" y2="508.711" gradientUnits="userSpaceOnUse">
<stop stop-color="#09005D"/>
<stop offset="1" stop-color="#1A0F91"/>
</linearGradient>
<linearGradient id="paint50_linear_2004_11" x1="266.269" y1="435.988" x2="184.384" y2="514.949" gradientUnits="userSpaceOnUse">
<stop stop-color="#E85255"/>
<stop offset="1" stop-color="#FF4F4F"/>
</linearGradient>
<linearGradient id="paint51_linear_2004_11" x1="246.583" y1="415.574" x2="164.698" y2="494.535" gradientUnits="userSpaceOnUse">
<stop stop-color="#E85255"/>
<stop offset="1" stop-color="#FF4F4F"/>
</linearGradient>
<linearGradient id="paint52_linear_2004_11" x1="246.788" y1="422.096" x2="297.249" y2="422.096" gradientUnits="userSpaceOnUse">
<stop stop-color="#FF928E"/>
<stop offset="1" stop-color="#FEB3B1"/>
</linearGradient>
<linearGradient id="paint53_linear_2004_11" x1="294.798" y1="362.037" x2="289.681" y2="400.786" gradientUnits="userSpaceOnUse">
<stop stop-color="#FF928E"/>
<stop offset="1" stop-color="#FEB3B1"/>
</linearGradient>
<linearGradient id="paint54_linear_2004_11" x1="2753.61" y1="1409.68" x2="2728.16" y2="1398.74" gradientUnits="userSpaceOnUse">
<stop stop-color="#FF928E"/>
<stop offset="1" stop-color="#FEB3B1"/>
</linearGradient>
<linearGradient id="paint55_linear_2004_11" x1="2751.03" y1="1415.69" x2="2725.59" y2="1404.76" gradientUnits="userSpaceOnUse">
<stop stop-color="#FF928E"/>
<stop offset="1" stop-color="#FEB3B1"/>
</linearGradient>
<linearGradient id="paint56_linear_2004_11" x1="300.89" y1="402.981" x2="285.538" y2="448.491" gradientUnits="userSpaceOnUse">
<stop stop-color="#FF928E"/>
<stop offset="1" stop-color="#FEB3B1"/>
</linearGradient>
<linearGradient id="paint57_linear_2004_11" x1="730.18" y1="346.043" x2="724.415" y2="369.54" gradientUnits="userSpaceOnUse">
<stop stop-color="#93C01F"/>
<stop offset="1" stop-color="#46952B"/>
</linearGradient>
<linearGradient id="paint58_linear_2004_11" x1="694.244" y1="406.885" x2="652.331" y2="433.904" gradientUnits="userSpaceOnUse">
<stop stop-color="#E240D7"/>
<stop offset="1" stop-color="#E008B5"/>
</linearGradient>
<linearGradient id="paint59_linear_2004_11" x1="726.152" y1="446.865" x2="695.955" y2="451.948" gradientUnits="userSpaceOnUse">
<stop stop-color="#CB7A3D"/>
<stop offset="1" stop-color="#FCC49A"/>
</linearGradient>
<linearGradient id="paint60_linear_2004_11" x1="697.563" y1="591.434" x2="721.14" y2="591.434" gradientUnits="userSpaceOnUse">
<stop stop-color="#57239F"/>
<stop offset="1" stop-color="#9354E9"/>
</linearGradient>
<linearGradient id="paint61_linear_2004_11" x1="742.382" y1="446.891" x2="712.186" y2="451.977" gradientUnits="userSpaceOnUse">
<stop stop-color="#CB7A3D"/>
<stop offset="1" stop-color="#FCC49A"/>
</linearGradient>
<linearGradient id="paint62_linear_2004_11" x1="737.949" y1="467.676" x2="647.465" y2="570.009" gradientUnits="userSpaceOnUse">
<stop stop-color="#3D3D71"/>
<stop offset="1" stop-color="#4F52FF"/>
</linearGradient>
<linearGradient id="paint63_linear_2004_11" x1="711.554" y1="331.692" x2="729.325" y2="375.945" gradientUnits="userSpaceOnUse">
<stop/>
<stop offset="1" stop-color="#393840"/>
</linearGradient>
<linearGradient id="paint64_linear_2004_11" x1="713.815" y1="591.434" x2="737.406" y2="591.434" gradientUnits="userSpaceOnUse">
<stop stop-color="#57239F"/>
<stop offset="1" stop-color="#9354E9"/>
</linearGradient>
<linearGradient id="paint65_linear_2004_11" x1="728.565" y1="353.361" x2="709.632" y2="361.085" gradientUnits="userSpaceOnUse">
<stop stop-color="#CB7A3D"/>
<stop offset="1" stop-color="#FCC49A"/>
</linearGradient>
<linearGradient id="paint66_linear_2004_11" x1="729.476" y1="340.393" x2="706.548" y2="354.301" gradientUnits="userSpaceOnUse">
<stop stop-color="#CB7A3D"/>
<stop offset="1" stop-color="#FCC49A"/>
</linearGradient>
<linearGradient id="paint67_linear_2004_11" x1="705.193" y1="342.424" x2="727.731" y2="378.153" gradientUnits="userSpaceOnUse">
<stop/>
<stop offset="1" stop-color="#3A3940"/>
</linearGradient>
<linearGradient id="paint68_linear_2004_11" x1="770.397" y1="362.11" x2="714.145" y2="418.934" gradientUnits="userSpaceOnUse">
<stop stop-color="#CB7A3D"/>
<stop offset="0.966346" stop-color="#FCC49A"/>
</linearGradient>
<linearGradient id="paint69_linear_2004_11" x1="822.876" y1="316.344" x2="822.876" y2="339.871" gradientUnits="userSpaceOnUse">
<stop stop-color="#93C01F"/>
<stop offset="1" stop-color="#455A0F"/>
</linearGradient>
<linearGradient id="paint70_linear_2004_11" x1="885.861" y1="475.58" x2="891.568" y2="480.904" gradientUnits="userSpaceOnUse">
<stop stop-color="#A22B25"/>
<stop offset="1" stop-color="#C0423C"/>
</linearGradient>
<linearGradient id="paint71_linear_2004_11" x1="773.149" y1="297.063" x2="782.437" y2="390.208" gradientUnits="userSpaceOnUse">
<stop stop-color="#A22B25"/>
<stop offset="1" stop-color="#C0423C"/>
</linearGradient>
<linearGradient id="paint72_linear_2004_11" x1="774.678" y1="296.91" x2="783.965" y2="390.056" gradientUnits="userSpaceOnUse">
<stop stop-color="#A22B25"/>
<stop offset="1" stop-color="#C0423C"/>
</linearGradient>
<linearGradient id="paint73_linear_2004_11" x1="803.427" y1="553.529" x2="795.622" y2="553.529" gradientUnits="userSpaceOnUse">
<stop stop-color="#A22B25"/>
<stop offset="1" stop-color="#C0423C"/>
</linearGradient>
<linearGradient id="paint74_linear_2004_11" x1="794.724" y1="497.347" x2="898.455" y2="456.173" gradientUnits="userSpaceOnUse">
<stop stop-color="#070421"/>
<stop offset="1" stop-color="#6E6B96"/>
</linearGradient>
<linearGradient id="paint75_linear_2004_11" x1="791.419" y1="489.023" x2="895.151" y2="447.849" gradientUnits="userSpaceOnUse">
<stop stop-color="#070421"/>
<stop offset="1" stop-color="#6E6B96"/>
</linearGradient>
<linearGradient id="paint76_linear_2004_11" x1="852.572" y1="299.202" x2="843.285" y2="392.348" gradientUnits="userSpaceOnUse">
<stop stop-color="#A22B25"/>
<stop offset="1" stop-color="#C0423C"/>
</linearGradient>
<linearGradient id="paint77_linear_2004_11" x1="803.466" y1="359.542" x2="873.601" y2="473.45" gradientUnits="userSpaceOnUse">
<stop offset="0.169952" stop-color="white"/>
<stop offset="1" stop-color="#B8B8B8"/>
</linearGradient>
<linearGradient id="paint78_linear_2004_11" x1="813.166" y1="337.922" x2="819.015" y2="387.15" gradientUnits="userSpaceOnUse">
<stop stop-color="#A22B25"/>
<stop offset="1" stop-color="#C0423C"/>
</linearGradient>
<linearGradient id="paint79_linear_2004_11" x1="854.258" y1="-509.241" x2="852.637" y2="-474.376" gradientUnits="userSpaceOnUse">
<stop stop-color="#A22B25"/>
<stop offset="1" stop-color="#C0423C"/>
</linearGradient>
<linearGradient id="paint80_linear_2004_11" x1="863.14" y1="-508.827" x2="861.518" y2="-473.961" gradientUnits="userSpaceOnUse">
<stop stop-color="#A22B25"/>
<stop offset="1" stop-color="#C0423C"/>
</linearGradient>
<linearGradient id="paint81_linear_2004_11" x1="851.044" y1="299.05" x2="841.756" y2="392.195" gradientUnits="userSpaceOnUse">
<stop stop-color="#A22B25"/>
<stop offset="1" stop-color="#C0423C"/>
</linearGradient>
</defs>
</svg>
