<svg width="353" height="567" viewBox="0 0 353 567" fill="none" xmlns="http://www.w3.org/2000/svg">
<path d="M131.23 566.067C136.452 566.222 141.603 564.924 146.03 562.345C150.857 559.088 154.962 554.991 158.119 550.281L158.125 550.27L158.133 550.26L284.61 374.667L352.281 279.997L284.57 186.017C262.298 155.277 240.245 124.64 218.412 94.1054L152.667 2.19724L152.654 2.17966L152.642 2.16111C146.631 -7.30803 139.093 -11.918 129.932 -11.918L9.94765 -11.918C6.92459 -11.918 4.80407 -11.4324 3.46132 -10.5771C2.1869 -9.76536 1.54474 -8.57887 1.53749 -6.90039C1.65717 -5.51454 1.93427 -4.1441 2.36269 -2.81152L2.38124 -2.75391L2.39003 -2.69434C2.57045 -1.5747 2.95065 -0.48942 3.51699 0.515625C6.30798 4.69943 9.06083 8.92394 11.7318 13.2275C14.3901 17.5105 17.4165 21.8323 20.4633 26.2598L20.4623 26.2607L203.675 279.529L204.011 279.993L203.677 280.458C170.038 327.309 136.727 373.622 103.745 419.396C70.7627 465.171 39.5608 508.5 10.1401 549.382L10.1304 549.396L8.07568 552.123L8.07177 552.128L7.71533 552.609C6.09052 554.878 5.00849 557.444 4.53857 560.132L4.44775 560.709C4.39657 561.193 4.45198 561.682 4.61084 562.147C4.77216 562.62 5.03739 563.06 5.39404 563.438C5.75088 563.817 6.19094 564.125 6.68799 564.341C7.18513 564.556 7.7273 564.674 8.27881 564.685L8.32373 564.686L8.36768 564.691L18.7524 566.067L131.23 566.067Z" stroke="url(#paint0_linear_16_5)" stroke-width="1.58791"/>
<defs>
<linearGradient id="paint0_linear_16_5" x1="39.0383" y1="364.479" x2="353.259" y2="277.081" gradientUnits="userSpaceOnUse">
<stop stop-color="white" stop-opacity="0"/>
<stop offset="0.655" stop-color="#67C500" stop-opacity="0.5"/>
</linearGradient>
</defs>
</svg>
