<svg width="353" height="567" viewBox="0 0 353 567" fill="none" xmlns="http://www.w3.org/2000/svg">
<path d="M221.712 566.068C216.49 566.223 211.34 564.925 206.913 562.346C202.085 559.089 197.981 554.992 194.824 550.282L194.817 550.271L194.809 550.261L68.3325 374.668L0.661582 279.998L68.3725 186.018C90.6444 155.278 112.697 124.641 134.531 94.1064L200.275 2.19822L200.289 2.18064L200.3 2.16208C206.312 -7.30705 213.849 -11.917 223.01 -11.917L342.995 -11.917C346.018 -11.917 348.138 -11.4314 349.481 -10.5762C350.755 -9.76439 351.398 -8.57789 351.405 -6.89941C351.285 -5.51356 351.008 -4.14313 350.58 -2.81055L350.561 -2.75293L350.552 -2.69336C350.372 -1.57373 349.992 -0.488444 349.425 0.516601C346.634 4.7004 343.881 8.92492 341.21 13.2285C338.552 17.5115 335.526 21.8333 332.479 26.2607L332.48 26.2617L149.267 279.53L148.931 279.994L149.265 280.459C182.905 327.31 216.216 373.623 249.198 419.397C282.18 465.172 313.381 508.501 342.802 549.383L342.812 549.396L344.867 552.124L344.871 552.129L345.227 552.61C346.852 554.879 347.934 557.445 348.404 560.133L348.495 560.71C348.546 561.194 348.49 561.683 348.331 562.148C348.17 562.621 347.905 563.061 347.548 563.439C347.191 563.818 346.751 564.126 346.254 564.342C345.757 564.557 345.215 564.675 344.663 564.686L344.619 564.687L344.575 564.692L334.19 566.068L221.712 566.068Z" stroke="url(#paint0_linear_16_6)" stroke-width="1.58791"/>
<defs>
<linearGradient id="paint0_linear_16_6" x1="313.904" y1="364.48" x2="-0.316733" y2="277.082" gradientUnits="userSpaceOnUse">
<stop stop-color="white" stop-opacity="0"/>
<stop offset="0.655" stop-color="#67C500" stop-opacity="0.5"/>
</linearGradient>
</defs>
</svg>
